<?xml version="1.0" encoding="UTF-8" standalone="no"?>
<svg viewBox="0 0 58 9.6999998" id="firaempresa_logo01" stroke="none" fill="#000000">
  <g id="" transform="translate(0,-287.3)">
    <path d="m 5.04825,289.59167 v 5.29166 H 3.683 V 290.904 H 2.12725 v 3.97933 H 0.762 V 290.904 H 0 v -1.31233 h 0.762 v -0.0529 q 0,-2.21192 2.487084,-2.21192 0.560916,0 1.23825,0.14817 v 1.24883 q -0.709084,-0.0847 -1.23825,-0.0847 -0.5715,0 -0.846668,0.20108 -0.275166,0.1905 -0.275166,0.6985 v 0.0529 z" />
    <path d="m 7.658531,290.50183 q 0.1905,-0.508 0.624416,-0.762 0.4445,-0.254 0.984252,-0.254 v 1.524 q -0.624418,-0.0741 -1.121836,0.254 -0.486832,0.32809 -0.486832,1.09009 v 2.52941 H 6.29328 v -5.29166 h 1.365251 z" />
    <path d="m 13.870288,289.59167 h 1.36525 v 5.29166 h -1.36525 v -0.62441 q -0.61384,0.77258 -1.72509,0.77258 -1.05833,0 -1.82033,-0.80433 -0.751419,-0.81492 -0.751419,-1.98967 0,-1.17475 0.751419,-1.97908 0.762,-0.81492 1.82033,-0.81492 1.11125,0 1.72509,0.77258 z m -2.51884,3.72533 q 0.41275,0.41275 1.04775,0.41275 0.635,0 1.04775,-0.41275 0.42334,-0.42333 0.42334,-1.0795 0,-0.65617 -0.42334,-1.06892 -0.41275,-0.42333 -1.04775,-0.42333 -0.635,0 -1.04775,0.42333 -0.41275,0.41275 -0.41275,1.06892 0,0.65617 0.41275,1.0795 z" />
    <path d="m 17.637458,292.79842 q 0.27516,0.99483 1.49225,0.99483 0.78316,0 1.18533,-0.52917 l 1.10067,0.635 q -0.78317,1.13242 -2.30717,1.13242 -1.31233,0 -2.10608,-0.79375 -0.79375,-0.79375 -0.79375,-2.00025 0,-1.19592 0.78316,-1.98967 0.78317,-0.80433 2.01084,-0.80433 1.16416,0 1.91558,0.80433 0.762,0.80434 0.762,1.98967 0,0.26458 -0.0529,0.56092 z m -0.0212,-1.05834 h 2.69875 q -0.11642,-0.53975 -0.48684,-0.80433 -0.35983,-0.26458 -0.8255,-0.26458 -0.55033,0 -0.91016,0.28575 -0.35984,0.27516 -0.47625,0.78316 z" />
    <path d="m 28.475617,289.4435 q 0.910162,0 1.449912,0.59267 0.550338,0.59266 0.550338,1.5875 v 3.25966 h -1.36525 v -3.16441 q 0,-0.47625 -0.232838,-0.74084 -0.232831,-0.26458 -0.656162,-0.26458 -0.465669,0 -0.73025,0.30692 -0.254,0.30691 -0.254,0.889 v 2.97391 h -1.365249 v -3.16441 q 0,-0.47625 -0.23284,-0.74084 -0.23283,-0.26458 -0.65616,-0.26458 -0.45509,0 -0.73025,0.30692 -0.26459,0.30691 -0.26459,0.889 v 2.97391 h -1.36525 v -5.29166 h 1.36525 v 0.56091 q 0.47625,-0.70908 1.47109,-0.70908 0.97366,0 1.43933,0.762 0.529169,-0.762 1.576919,-0.762 z" />
    <path d="m 34.715148,289.4435 q 1.06892,0 1.820342,0.81492 0.762,0.80433 0.762,1.97908 0,1.17475 -0.762,1.98967 -0.751422,0.80433 -1.820342,0.80433 -1.11125,0 -1.7145,-0.77258 V 297 h -1.36525 v -7.40833 h 1.36525 v 0.62441 q 0.60325,-0.77258 1.7145,-0.77258 z m -1.30175,3.8735 q 0.41275,0.41275 1.04775,0.41275 0.635,0 1.04775,-0.41275 0.423342,-0.42333 0.423342,-1.0795 0,-0.65617 -0.423342,-1.06892 -0.41275,-0.42333 -1.04775,-0.42333 -0.635,0 -1.04775,0.42333 -0.41275,0.41275 -0.41275,1.06892 0,0.65617 0.41275,1.0795 z" />
    <path d="m 39.635909,290.50183 q 0.1905,-0.508 0.624409,-0.762 0.4445,-0.254 0.98425,-0.254 v 1.524 q -0.624409,-0.0741 -1.121828,0.254 -0.486831,0.32809 -0.486831,1.09009 v 2.52941 h -1.36525 v -5.29166 h 1.36525 z" />
    <path d="m 42.979578,292.79842 q 0.275169,0.99483 1.49225,0.99483 0.783169,0 1.185341,-0.52917 l 1.100659,0.635 q -0.783159,1.13242 -2.307159,1.13242 -1.312341,0 -2.106091,-0.79375 -0.79375,-0.79375 -0.79375,-2.00025 0,-1.19592 0.783169,-1.98967 0.783162,-0.80433 2.010831,-0.80433 1.164169,0 1.915591,0.80433 0.762,0.80434 0.762,1.98967 0,0.26458 -0.0529,0.56092 z m -0.02119,-1.05834 h 2.698758 q -0.116419,-0.53975 -0.486839,-0.80433 -0.35983,-0.26458 -0.8255,-0.26458 -0.55033,0 -0.910169,0.28575 -0.359831,0.27516 -0.47625,0.78316 z" />
    <path d="m 49.017867,291.0945 q 0,0.21167 0.275172,0.34925 0.28574,0.127 0.687909,0.23283 0.402172,0.0952 0.804331,0.254 0.402169,0.14817 0.677341,0.508 0.28575,0.35984 0.28575,0.89959 0,0.81491 -0.613841,1.25941 -0.60325,0.43392 -1.513409,0.43392 -1.629831,0 -2.222503,-1.25942 l 1.185331,-0.66675 q 0.232841,0.68792 1.037172,0.68792 0.73025,0 0.73025,-0.45508 0,-0.21167 -0.28575,-0.33867 -0.275172,-0.13758 -0.677331,-0.24342 -0.402172,-0.10583 -0.804341,-0.26458 -0.402159,-0.15875 -0.687909,-0.49742 -0.275172,-0.34925 -0.275172,-0.86783 0,-0.78317 0.5715,-1.22767 0.582081,-0.45508 1.439331,-0.45508 0.645581,0 1.17475,0.29633 0.529172,0.28575 0.836081,0.8255 l -1.164159,0.635 q -0.254,-0.53975 -0.846672,-0.53975 -0.264578,0 -0.4445,0.11642 -0.169331,0.11642 -0.169331,0.3175 z" />
    <path d="m 56.575687,289.59167 h 1.36525 v 5.29166 h -1.36525 v -0.62441 q -0.613828,0.77258 -1.725078,0.77258 -1.05833,0 -1.82033,-0.80433 -0.751419,-0.81492 -0.751419,-1.98967 0,-1.17475 0.751419,-1.97908 0.762,-0.81492 1.82033,-0.81492 1.11125,0 1.725078,0.77258 z m -2.518828,3.72533 q 0.41275,0.41275 1.04775,0.41275 0.635,0 1.04775,-0.41275 0.423328,-0.42333 0.423328,-1.0795 0,-0.65617 -0.423328,-1.06892 -0.41275,-0.42333 -1.04775,-0.42333 -0.635,0 -1.04775,0.42333 -0.41275,0.41275 -0.41275,1.06892 0,0.65617 0.41275,1.0795 z" />
  </g>
</svg>
