<?xml version="1.0" encoding="UTF-8" ?>
<svg xmlns="http://www.w3.org/2000/svg" width="264.5" height="50" version="1.1" viewBox="0 0 76.8 9.6999998" id="logo02">
  <g transform="translate(0,-287.29995)">
    <path stroke="none" fill="#000000" d="m 5.0482488,289.59166 v 5.29167 h -1.36525 V 290.904 H 2.1272489 v 3.97933 H 0.76199893 V 290.904 H 0 v -1.31234 h 0.76199893 v -0.0529 q 0,-2.21192 2.48708407,-2.21192 0.5609158,0 1.23825,0.14817 v 1.24883 q -0.7090842,-0.0847 -1.23825,-0.0847 -0.5715,0 -0.8466671,0.20109 -0.275167,0.1905 -0.275167,0.6985 v 0.0529 z" />
    <path stroke="none" fill="#000000" d="m 7.6585293,290.50183 q 0.1905,-0.508 0.624417,-0.762 0.4445,-0.254 0.9842501,-0.254 v 1.524 q -0.6244171,-0.0741 -1.1218331,0.254 -0.486834,0.32808 -0.486834,1.09008 v 2.52942 H 6.2932791 v -5.29167 h 1.3652502 z" />
    <path stroke="none" fill="#000000" d="m 13.870284,289.59166 h 1.36525 v 5.29167 h -1.36525 v -0.62442 q -0.613833,0.77259 -1.725083,0.77259 -1.058334,0 -1.820334,-0.80434 -0.7514156,-0.81491 -0.7514156,-1.98966 0,-1.17475 0.7514156,-1.97909 0.762,-0.81491 1.820334,-0.81491 1.11125,0 1.725083,0.77258 z m -2.518833,3.72534 q 0.41275,0.41275 1.04775,0.41275 0.635,0 1.04775,-0.41275 0.423333,-0.42334 0.423333,-1.0795 0,-0.65617 -0.423333,-1.06892 -0.41275,-0.42333 -1.04775,-0.42333 -0.635,0 -1.04775,0.42333 -0.41275,0.41275 -0.41275,1.06892 0,0.65616 0.41275,1.0795 z" />
    <path stroke="none" fill="#000000" d="m 17.637455,292.79841 q 0.275166,0.99484 1.49225,0.99484 0.783166,0 1.185333,-0.52917 l 1.100666,0.635 q -0.783166,1.13242 -2.307166,1.13242 -1.312333,0 -2.106083,-0.79375 -0.79375,-0.79375 -0.79375,-2.00025 0,-1.19592 0.783166,-1.98967 0.783167,-0.80433 2.010834,-0.80433 1.164166,0 1.915583,0.80433 0.762,0.80433 0.762,1.98967 0,0.26458 -0.05292,0.56091 z m -0.02117,-1.05833 h 2.69875 q -0.116417,-0.53975 -0.486834,-0.80433 -0.359833,-0.26459 -0.825499,-0.26459 -0.550334,0 -0.910167,0.28575 -0.359833,0.27517 -0.47625,0.78317 z" />
    <path stroke="none" fill="#000000" d="m 28.475615,289.4435 q 0.910166,0 1.449916,0.59266 0.550334,0.59267 0.550334,1.5875 v 3.25967 h -1.36525 v -3.16442 q 0,-0.47625 -0.232834,-0.74083 -0.232833,-0.26458 -0.656166,-0.26458 -0.465667,0 -0.73025,0.30691 -0.254,0.30692 -0.254,0.889 v 2.97392 h -1.36525 v -3.16442 q 0,-0.47625 -0.232834,-0.74083 -0.232833,-0.26458 -0.656166,-0.26458 -0.455084,0 -0.73025,0.30691 -0.264584,0.30692 -0.264584,0.889 v 2.97392 h -1.36525 v -5.29167 h 1.36525 v 0.56092 q 0.47625,-0.70908 1.471084,-0.70908 0.973666,0 1.439333,0.762 0.529167,-0.762 1.576917,-0.762 z" />
    <path stroke="none" fill="#000000" d="m 34.715151,289.4435 q 1.068917,0 1.820333,0.81491 0.762,0.80434 0.762,1.97909 0,1.17475 -0.762,1.98966 -0.751416,0.80434 -1.820333,0.80434 -1.11125,0 -1.7145,-0.77259 V 297 h -1.36525 v -7.40834 h 1.36525 v 0.62442 q 0.60325,-0.77258 1.7145,-0.77258 z m -1.30175,3.8735 q 0.41275,0.41275 1.04775,0.41275 0.635,0 1.04775,-0.41275 0.423333,-0.42334 0.423333,-1.0795 0,-0.65617 -0.423333,-1.06892 -0.41275,-0.42333 -1.04775,-0.42333 -0.635,0 -1.04775,0.42333 -0.41275,0.41275 -0.41275,1.06892 0,0.65616 0.41275,1.0795 z" />
    <path stroke="none" fill="#000000" d="m 39.635904,290.50183 q 0.1905,-0.508 0.624416,-0.762 0.4445,-0.254 0.98425,-0.254 v 1.524 q -0.624416,-0.0741 -1.12183,0.254 -0.486836,0.32808 -0.486836,1.09008 v 2.52942 h -1.36525 v -5.29167 h 1.36525 z" />
    <path stroke="none" fill="#000000" d="m 42.979578,292.79841 q 0.275167,0.99484 1.492245,0.99484 0.783172,0 1.185341,-0.52917 l 1.100659,0.635 q -0.783159,1.13242 -2.307159,1.13242 -1.312336,0 -2.106086,-0.79375 -0.79375,-0.79375 -0.79375,-2.00025 0,-1.19592 0.783167,-1.98967 0.783166,-0.80433 2.010828,-0.80433 1.164172,0 1.915591,0.80433 0.762,0.80433 0.762,1.98967 0,0.26458 -0.0529,0.56091 z m -0.02117,-1.05833 h 2.698756 q -0.11642,-0.53975 -0.486842,-0.80433 -0.359828,-0.26459 -0.8255,-0.26459 -0.550328,0 -0.910164,0.28575 -0.359833,0.27517 -0.47625,0.78317 z" />
    <path stroke="none" fill="#000000" d="m 49.017865,291.0945 q 0,0.21166 0.275169,0.34925 0.28575,0.127 0.687909,0.23283 0.402172,0.0952 0.804341,0.254 0.402159,0.14817 0.677331,0.508 0.28575,0.35983 0.28575,0.89958 0,0.81492 -0.613831,1.25942 -0.60325,0.43392 -1.513419,0.43392 -1.629831,0 -2.2225,-1.25942 l 1.185328,-0.66675 q 0.232841,0.68792 1.037172,0.68792 0.73025,0 0.73025,-0.45509 0,-0.21166 -0.28575,-0.33866 -0.275172,-0.13759 -0.677331,-0.24342 -0.402169,-0.10583 -0.804341,-0.26458 -0.402159,-0.15875 -0.687909,-0.49742 -0.275169,-0.34925 -0.275169,-0.86783 0,-0.78317 0.5715,-1.22767 0.582078,-0.45508 1.439328,-0.45508 0.645591,0 1.17475,0.29633 0.529172,0.28575 0.836091,0.8255 l -1.164169,0.635 q -0.254,-0.53975 -0.846672,-0.53975 -0.264578,0 -0.4445,0.11642 -0.169328,0.11641 -0.169328,0.3175 z" />
    <path stroke="none" fill="#000000" d="m 56.575693,289.59166 h 1.36525 v 5.29167 h -1.36525 v -0.62442 q -0.613839,0.77259 -1.725089,0.77259 -1.058331,0 -1.820331,-0.80434 -0.751419,-0.81491 -0.751419,-1.98966 0,-1.17475 0.751419,-1.97909 0.762,-0.81491 1.820331,-0.81491 1.11125,0 1.725089,0.77258 z m -2.518839,3.72534 q 0.41275,0.41275 1.04775,0.41275 0.635,0 1.04775,-0.41275 0.423339,-0.42334 0.423339,-1.0795 0,-0.65617 -0.423339,-1.06892 -0.41275,-0.42333 -1.04775,-0.42333 -0.635,0 -1.04775,0.42333 -0.41275,0.41275 -0.41275,1.06892 0,0.65616 0.41275,1.0795 z" />
    <path stroke="none" fill="#EF8354" d="m 60.618023,294.75633 q -0.26458,0.26458 -0.635,0.26458 -0.370408,0 -0.635,-0.26458 -0.26458,-0.26458 -0.26458,-0.635 0,-0.37042 0.26458,-0.635 0.264592,-0.26458 0.635,-0.26458 0.37042,0 0.635,0.26458 0.264592,0.26458 0.264592,0.635 0,0.37042 -0.264592,0.635 z" />
    <path stroke="none" fill="#EF8354" d="m 64.126562,295.0315 q -1.195908,0 -2.00025,-0.80434 -0.79375,-0.80433 -0.79375,-1.98966 0,-1.18534 0.79375,-1.98967 0.804342,-0.80433 2.00025,-0.80433 0.772592,0 1.407592,0.37041 0.635,0.37042 0.96308,0.99484 l -1.17475,0.68791 q -0.15875,-0.32808 -0.48683,-0.51858 -0.3175,-0.1905 -0.71967,-0.1905 -0.61383,0 -1.016,0.41275 -0.402172,0.40217 -0.402172,1.03717 0,0.62441 0.402172,1.03716 0.40217,0.40217 1.016,0.40217 0.41275,0 0.73025,-0.17992 0.328078,-0.1905 0.486828,-0.51858 l 1.185342,0.67733 q -0.34925,0.62442 -0.98425,1.00542 -0.635,0.37042 -1.407592,0.37042 z" />
    <path stroke="none" fill="#EF8354" d="m 71.169115,289.59166 h 1.36525 v 5.29167 h -1.36525 v -0.62442 q -0.613842,0.77259 -1.725092,0.77259 -1.05833,0 -1.82033,-0.80434 -0.75142,-0.81491 -0.75142,-1.98966 0,-1.17475 0.75142,-1.97909 0.762,-0.81491 1.82033,-0.81491 1.11125,0 1.725092,0.77258 z m -2.518842,3.72534 q 0.41275,0.41275 1.04775,0.41275 0.635,0 1.04775,-0.41275 0.423342,-0.42334 0.423342,-1.0795 0,-0.65617 -0.423342,-1.06892 -0.41275,-0.42333 -1.04775,-0.42333 -0.635,0 -1.04775,0.42333 -0.41275,0.41275 -0.41275,1.06892 0,0.65616 0.41275,1.0795 z" />
    <path stroke="none" fill="#EF8354" d="m 76.809534,290.904 h -1.195919 v 2.20133 q 0,0.27517 0.137578,0.40217 0.137591,0.127 0.402172,0.14816 0.264578,0.0106 0.656169,-0.0106 v 1.23825 q -1.407591,0.15875 -1.989669,-0.26458 -0.5715,-0.42334 -0.5715,-1.51342 v -2.20133 h -0.92075 v -1.31234 h 0.92075 v -1.06891 l 1.36525,-0.41275 v 1.48166 h 1.195919 z" />
  </g>
</svg>
