<?xml version="1.0" encoding="UTF-8" ?>
<svg xmlns="http://www.w3.org/2000/svg" width="200.5" height="51.52"
   version="1.1" id="logosalle" viewBox="0 0 200.5 51.52">
  <g>
    <path
       d="M 4.000005,17.876674 H -3.6239624e-8 V 37.023365 H 13.520017 V 33.556694 H 4.000005 Z"
       style="font-weight:bold;font-size:26.6667px;line-height:1.25;font-family:'Helvetica LT Std';-inkscape-font-specification:'Helvetica LT Std Bold';letter-spacing:-1.25px;word-spacing:0px"
       id="path296" />
    <path
       d="m 26.776716,26.570018 c 0,-3.493337 -3.653338,-4.106671 -5.65334,-4.106671 -2.906671,0 -5.920008,0.613334 -6.346675,4.960006 h 3.600005 c 0.106666,-0.826668 0.426667,-1.973336 2.293336,-1.973336 0.960001,0 2.453336,0.08 2.453336,1.653335 0,0.800001 -0.720001,1.040002 -1.306668,1.120002 l -3.360004,0.506667 c -2.373337,0.346667 -4.133339,1.760002 -4.133339,4.533339 0,2.933337 2.18667,4.133339 4.320006,4.133339 2.533336,0 3.733338,-1.173335 4.586672,-2.053336 0.08,0.800001 0.133334,1.013335 0.346667,1.680002 h 4.026672 v -0.560001 c -0.453334,-0.16 -0.826668,-0.533334 -0.826668,-2.213336 z m -3.653338,5.360007 c 0,1.733336 -1.680002,2.800004 -3.333337,2.800004 -0.720001,0 -1.733336,-0.400001 -1.733336,-1.706669 0,-1.546669 1.146668,-1.893336 2.533337,-2.133336 1.546668,-0.24 2.160002,-0.480001 2.533336,-0.773334 z"
       style="font-weight:bold;font-size:26.6667px;line-height:1.25;font-family:'Helvetica LT Std';-inkscape-font-specification:'Helvetica LT Std Bold';letter-spacing:-1.25px;word-spacing:0px"
       id="path298" />
    <path
       id="path291"
       style="fill:#000000;stroke-width:0.32"
       d="m 44.185547,0 c -0.01461,-0.00126103 -0.03146,0.00942562 -0.05078,0.03125 -0.270563,0.3055414 -0.992529,2.8864318 -2.171875,7.7675781 -1.743693,7.2169059 -2.096863,8.3496099 -2.613282,8.3496099 -0.328583,0 -4.799621,-0.863922 -9.935547,-1.919922 -5.135922,-1.056 -9.551338,-1.919922 -9.8125,-1.919922 -0.261161,0 3.212313,2.8158 7.720704,6.257812 4.508392,3.442013 8.197265,6.376409 8.197265,6.521485 0,0.145076 -1.8,5.765456 -4,12.488281 -2.200001,6.722822 -3.995987,12.319414 -3.992187,12.4375 0.0038,0.118085 3.739218,-3.542286 8.302734,-8.134766 l 8.298828,-8.351562 8.335938,4.242187 c 4.58472,2.333123 8.335937,4.181822 8.335937,4.107422 0,-0.0744 -1.388272,-2.906729 -3.083984,-6.292969 -1.695715,-3.38624 -3.550941,-7.181864 -4.123047,-8.435546 l -1.041016,-2.279297 6.089844,-4.121094 6.091797,-4.119141 -8.197266,-0.08594 -8.195312,-0.08594 -0.322266,-1.195312 c -0.17686,-0.656986 -1.04855,-4.218063 -1.9375,-7.9140628 C 45.193064,3.6517221 44.356099,0.3629585 44.222656,0.0390625 44.212524,0.01446975 44.200155,0.00126103 44.185547,0 Z" />
    <path
       d="m 61.60376,31.649548 c 0,2.373336 1.200002,6.400008 8.186677,6.400008 1.680002,0 7.546676,-0.506667 7.546676,-6.266675 0,-3.440004 -2.400003,-4.506672 -5.013339,-5.146673 L 67.657101,25.48954 c -0.800001,-0.186667 -2.026669,-0.506667 -2.026669,-2.000002 0,-1.733336 1.813336,-2.293337 3.333337,-2.293337 3.493338,0 3.813339,2.02667 3.920005,2.880004 h 3.840005 c -0.02667,-2.34667 -1.600002,-6.186675 -7.466676,-6.186675 -6.213341,0 -7.360009,3.760005 -7.360009,5.893341 0,4.213339 2.98667,4.906673 6.080008,5.626674 l 2.053335,0.480001 c 2.02667,0.48 3.466672,0.880001 3.466672,2.373336 0,2.026669 -2.10667,2.480003 -4.000006,2.480003 -3.493337,0 -4.026671,-2.026669 -4.053338,-3.093337 z"
       style="font-weight:bold;font-size:26.6667px;line-height:1.25;font-family:'Helvetica LT Std';-inkscape-font-specification:'Helvetica LT Std Bold';letter-spacing:-1.25px;word-spacing:0px"
       id="path113" />
    <path
       d="m 90.327126,27.089542 c 0,-3.493338 -3.653338,-4.106672 -5.65334,-4.106672 -2.906671,0 -5.920008,0.613334 -6.346675,4.960007 h 3.600005 c 0.106666,-0.826668 0.426667,-1.973336 2.293336,-1.973336 0.960001,0 2.453336,0.08 2.453336,1.653335 0,0.800001 -0.720001,1.040001 -1.306668,1.120002 l -3.360004,0.506667 c -2.373337,0.346667 -4.133339,1.760002 -4.133339,4.533339 0,2.933337 2.18667,4.133338 4.320006,4.133338 2.533336,0 3.733338,-1.173334 4.586672,-2.053335 0.08,0.800001 0.133334,1.013334 0.346667,1.680002 h 4.026672 v -0.560001 c -0.453334,-0.16 -0.826668,-0.533334 -0.826668,-2.213336 z m -3.653338,5.360007 c 0,1.733335 -1.680002,2.800003 -3.333337,2.800003 -0.720001,0 -1.733336,-0.4 -1.733336,-1.706668 0,-1.546669 1.146668,-1.893336 2.533337,-2.133336 1.546668,-0.240001 2.160003,-0.480001 2.533336,-0.773335 z"
       style="font-weight:bold;font-size:26.6667px;line-height:1.25;font-family:'Helvetica LT Std';-inkscape-font-specification:'Helvetica LT Std Bold';letter-spacing:-1.25px;word-spacing:0px"
       id="path115" />
    <path
       d="m 96.250462,18.396198 h -3.733338 v 19.146691 h 3.733338 z"
       style="font-weight:bold;font-size:26.6667px;line-height:1.25;font-family:'Helvetica LT Std';-inkscape-font-specification:'Helvetica LT Std Bold';letter-spacing:-1.25px;word-spacing:0px"
       id="path117" />
    <path
       d="M 102.4138,18.396198 H 98.680464 V 37.542889 H 102.4138 Z"
       style="font-weight:bold;font-size:26.6667px;line-height:1.25;font-family:'Helvetica LT Std';-inkscape-font-specification:'Helvetica LT Std Bold';letter-spacing:-1.25px;word-spacing:0px"
       id="path119" />
    <path
       d="m 113.08381,33.382883 c -0.29333,1.013335 -1.36,1.546669 -2.4,1.546669 -3.01334,0 -3.22667,-2.400003 -3.33334,-3.466671 h 9.73335 v -0.666668 c 0,-6.480008 -3.86667,-7.813343 -6.66668,-7.813343 -6.21334,0 -6.80001,5.466674 -6.80001,7.173343 0,5.840007 3.06667,7.760009 7.06668,7.760009 2.42667,0 5.25334,-1.120001 6.24001,-4.533339 z m -5.62667,-4.346672 c 0.21333,-1.866669 1.14667,-2.98667 2.90667,-2.98667 1.2,0 2.66667,0.693334 2.88,2.98667 z"
       style="font-weight:bold;font-size:26.6667px;line-height:1.25;font-family:'Helvetica LT Std';-inkscape-font-specification:'Helvetica LT Std Bold';letter-spacing:-1.25px;word-spacing:0px"
       id="path121" />
    <path
       d="M 120.47382,37.542889 V 20.422867 h 0.0533 l 6.32001,17.120022 h 1.70667 l 6.29334,-17.120022 h 0.0533 v 17.120022 h 1.81333 V 18.342864 h -2.74667 l -6.18667,16.933355 h -0.0533 l -6.29334,-16.933355 h -2.77333 v 19.200025 z"
       style="font-weight:300;font-size:26.6667px;line-height:1.25;font-family:'Helvetica LT Std';-inkscape-font-specification:'Helvetica LT Std Light';letter-spacing:-1.25px;word-spacing:0px"
       id="path123" />
    <path
       d="m 148.50386,32.449549 c 0,2.800003 -2.50667,4.026672 -5.04001,4.026672 -1.52,0 -2.98667,-0.800001 -2.98667,-2.480004 0,-1.866669 1.46667,-2.74667 3.89334,-2.933337 1.38667,-0.106666 2.77334,-0.213333 4.13334,-0.773334 z m -4.90667,-2.66667 c -3.22667,0.426667 -4.82668,1.840002 -4.82668,4.160005 0,2.66667 2.18667,3.973338 4.61334,3.973338 2.00001,0 3.81334,-0.800001 5.14668,-2.293336 0.0267,0.960001 0.21333,1.893336 1.28,2.053336 0.24,0.05333 0.45333,0.08 0.72,0.08 0.45333,0 1.01333,-0.186667 1.25333,-0.266667 V 36.23622 c -1.36,0.480001 -1.68,0.186667 -1.68,-1.066668 v -7.520009 c 0,-3.200004 -2.21333,-4.293339 -5.01334,-4.293339 -3.01333,0 -5.44,1.306668 -5.68,4.560006 h 1.62666 c 0.29334,-2.400003 1.81334,-3.120004 4.02668,-3.120004 2.48,0 3.44,1.173335 3.44,2.800003 0,0.480001 -0.0533,1.200002 -0.58667,1.440002 -0.53333,0.240001 -1.52,0.400001 -2.10667,0.453334 z"
       style="font-weight:300;font-size:26.6667px;line-height:1.25;font-family:'Helvetica LT Std';-inkscape-font-specification:'Helvetica LT Std Light';letter-spacing:-1.25px;word-spacing:0px"
       id="path125" />
    <path
       d="m 154.64053,30.102879 c 0,-0.960001 0.0267,-1.733335 0.34666,-2.613336 0.50667,-1.413336 1.86667,-2.693337 3.84001,-2.693337 2.56,0 3.57334,1.253335 3.57334,3.733338 v 9.013345 h 1.6 v -9.040012 c 0,-1.146668 -0.0267,-2.186669 -0.69334,-3.173337 -0.98666,-1.440002 -2.53333,-1.973336 -4.21334,-1.973336 -1.92,0 -3.17333,0.933335 -4.45333,2.293336 v -1.920002 h -1.60001 v 13.813351 h 1.60001 z"
       style="font-weight:300;font-size:26.6667px;line-height:1.25;font-family:'Helvetica LT Std';-inkscape-font-specification:'Helvetica LT Std Light';letter-spacing:-1.25px;word-spacing:0px"
       id="path127" />
    <path
       d="M 168.45721,37.542889 V 18.342864 h -1.6 v 19.200025 z"
       style="font-weight:300;font-size:26.6667px;line-height:1.25;font-family:'Helvetica LT Std';-inkscape-font-specification:'Helvetica LT Std Light';letter-spacing:-1.25px;word-spacing:0px"
       id="path129" />
    <path
       d="M 173.12722,37.542889 V 18.342864 h -1.6 v 19.200025 z"
       style="font-weight:300;font-size:26.6667px;line-height:1.25;font-family:'Helvetica LT Std';-inkscape-font-specification:'Helvetica LT Std Light';letter-spacing:-1.25px;word-spacing:0px"
       id="path131" />
    <path
       d="m 176.94389,29.676212 c 0.32,-2.613337 1.81334,-4.880006 4.64001,-4.880006 2.88,0 4.37334,2.186669 4.37334,4.880006 z m 10.72002,1.333335 c 0.0267,-4.960006 -2.29334,-7.653343 -6.08001,-7.653343 -3.94667,0 -6.34667,3.306671 -6.34667,7.333343 0,4.080005 1.92,7.226675 6.34667,7.226675 3.52,0 5.17334,-2.000002 5.97334,-4.613339 h -1.78667 c -0.48,2.02667 -2.10667,3.173338 -4.18667,3.173338 -3.06667,0 -4.66667,-2.480004 -4.64001,-5.466674 z"
       style="font-weight:300;font-size:26.6667px;line-height:1.25;font-family:'Helvetica LT Std';-inkscape-font-specification:'Helvetica LT Std Light';letter-spacing:-1.25px;word-spacing:0px"
       id="path133" />
    <path
       d="m 198.89392,31.249547 c 0,3.040004 -1.57333,5.226674 -4.21334,5.226674 -2.50667,0 -3.54667,-1.306669 -3.54667,-3.680005 v -9.066678 h -1.6 v 9.093345 c 0,2.880003 1.22667,5.093339 4.90667,5.093339 2.42667,0 3.60001,-1.333335 4.45334,-2.293336 v 1.920003 h 1.6 V 23.729538 h -1.6 z"
       style="font-weight:300;font-size:26.6667px;line-height:1.25;font-family:'Helvetica LT Std';-inkscape-font-specification:'Helvetica LT Std Light';letter-spacing:-1.25px;word-spacing:0px"
       id="path135" />
  </g>
</svg>
