<?xml version="1.0" encoding="UTF-8" ?>
<svg xmlns="http://www.w3.org/2000/svg" width="220" height="50" version="1.1" viewBox="0 0 66 9.6999998" id="logo03">
  <g transform="translate(0,-287.29995)">
    <path stroke="none" fill="#EF8354" d="m 60.516357,294.4155 q 0.0784,0.0784 0.0784,0.18807 0,0.10971 -0.0784,0.18808 -0.0784,0.0784 -0.188079,0.0784 -0.109709,0 -0.18807,-0.0784 -0.0784,-0.0784 -0.0784,-0.18808 0,-0.10971 0.0784,-0.18807 0.0784,-0.0784 0.18807,-0.0784 0.109711,0 0.188079,0.0784 z" />
    <path stroke="none" fill="#EF8354" d="m 60.597849,293.37635 q 0,0.3542 -0.23822,0.59243 -0.238231,0.23509 -0.589302,0.23509 -0.35107,0 -0.58929,-0.23509 -0.238228,-0.23823 -0.238228,-0.59243 0,-0.22883 0.109709,-0.4169 0.10971,-0.18807 0.294651,-0.28524 l 0.20374,0.34793 q -0.0972,0.047 -0.153591,0.14419 -0.0564,0.094 -0.0564,0.21315 0,0.18181 0.12225,0.30092 0.119111,0.11911 0.307182,0.11911 0.184938,0 0.307189,-0.11911 0.11911,-0.11911 0.11911,-0.30092 0,-0.12225 -0.0533,-0.21628 -0.0564,-0.0972 -0.153591,-0.14419 l 0.20061,-0.35107 q 0.184941,0.10344 0.297791,0.29151 0.109699,0.18807 0.109699,0.4169 z" />
    <path stroke="none" fill="#EF8354" d="m 58.986688,291.29049 v -0.40435 h 1.56728 v 0.40435 h -0.18494 q 0.228821,0.18181 0.228821,0.51094 0,0.31345 -0.23822,0.53914 -0.241361,0.22255 -0.589302,0.22255 -0.347929,0 -0.58616,-0.22255 -0.241358,-0.22569 -0.241358,-0.53914 0,-0.32913 0.228819,-0.51094 z m 1.10337,0.74603 q 0.122241,-0.12225 0.122241,-0.31032 0,-0.18808 -0.122241,-0.31032 -0.12539,-0.12539 -0.319731,-0.12539 -0.194339,0 -0.316589,0.12539 -0.125381,0.12224 -0.125381,0.31032 0,0.18807 0.125381,0.31032 0.12225,0.12225 0.316589,0.12225 0.19434,0 0.319731,-0.12225 z" />
    <path stroke="none" fill="#EF8354" d="m 59.375379,289.61992 v 0.35421 h 0.651989 q 0.0815,0 0.11911,-0.0407 0.0376,-0.0408 0.0439,-0.11911 0.003,-0.0784 -0.003,-0.19435 h 0.366741 q 0.047,0.4169 -0.0784,0.5893 -0.125389,0.16927 -0.448239,0.16927 h -0.651991 v 0.2727 H 58.9868 v -0.2727 h -0.31659 l -0.122251,-0.40436 H 58.9868 v -0.35421 z" />
    <path stroke="none" fill="#000000" d="m 5.0482505,289.59162 v 5.29166 h -1.36525 v -3.97933 h -1.55575 v 3.97933 H 0.762 v -3.97933 H 0 v -1.31233 h 0.762 v -0.0529 q 0,-2.21192 2.4870835,-2.21192 0.560917,0 1.23825,0.14817 v 1.24883 q -0.709083,-0.0847 -1.23825,-0.0847 -0.5715,0 -0.846667,0.20108 -0.275166,0.1905 -0.275166,0.6985 v 0.0529 z" />
    <path stroke="none" fill="#000000" d="m 7.6585305,290.50178 q 0.1905,-0.508 0.624416,-0.762 0.4445,-0.254 0.98425,-0.254 v 1.524 q -0.624416,-0.0741 -1.121833,0.254 -0.486833,0.32809 -0.486833,1.09009 v 2.52941 h -1.365251 v -5.29166 h 1.365251 z" />
    <path stroke="none" fill="#000000" d="m 13.870285,289.59162 h 1.36525 v 5.29166 h -1.36525 v -0.62441 q -0.613833,0.77258 -1.725084,0.77258 -1.058333,0 -1.820333,-0.80433 -0.7514165,-0.81492 -0.7514165,-1.98967 0,-1.17475 0.7514165,-1.97908 0.761999,-0.81492 1.820333,-0.81492 1.11125,0 1.725084,0.77258 z m -2.518833,3.72533 q 0.412749,0.41275 1.04775,0.41275 0.635,0 1.04775,-0.41275 0.423333,-0.42333 0.423333,-1.0795 0,-0.65617 -0.423333,-1.06892 -0.41275,-0.42333 -1.04775,-0.42333 -0.635001,0 -1.04775,0.42333 -0.41275,0.41275 -0.41275,1.06892 0,0.65617 0.41275,1.0795 z" />
    <path stroke="none" fill="#000000" d="m 17.637456,292.79837 q 0.275165,0.99483 1.492249,0.99483 0.783167,0 1.185333,-0.52917 l 1.100668,0.635 q -0.783167,1.13242 -2.307167,1.13242 -1.312333,0 -2.106083,-0.79375 -0.79375,-0.79375 -0.79375,-2.00025 0,-1.19592 0.783166,-1.98967 0.783167,-0.80433 2.010834,-0.80433 1.164166,0 1.915583,0.80433 0.762,0.80434 0.762,1.98967 0,0.26458 -0.05292,0.56092 z m -0.02117,-1.05834 h 2.69875 q -0.116416,-0.53975 -0.486833,-0.80433 -0.359834,-0.26458 -0.8255,-0.26458 -0.550334,0 -0.910167,0.28575 -0.359833,0.27516 -0.47625,0.78316 z" />
    <path stroke="none" fill="#000000" d="m 28.475615,289.44345 q 0.910166,0 1.449916,0.59267 0.550334,0.59266 0.550334,1.5875 v 3.25966 h -1.36525 v -3.16441 q 0,-0.47625 -0.232834,-0.74084 -0.232833,-0.26458 -0.656166,-0.26458 -0.465667,0 -0.73025,0.30692 -0.253999,0.30691 -0.253999,0.889 v 2.97391 h -1.365251 v -3.16441 q 0,-0.47625 -0.232833,-0.74084 -0.232833,-0.26458 -0.656166,-0.26458 -0.455083,0 -0.73025,0.30692 -0.264583,0.30691 -0.264583,0.889 v 2.97391 h -1.36525 v -5.29166 h 1.36525 v 0.56091 q 0.47625,-0.70908 1.471083,-0.70908 0.973666,0 1.439333,0.762 0.529167,-0.762 1.576916,-0.762 z" />
    <path stroke="none" fill="#000000" d="m 34.715151,289.44345 q 1.068917,0 1.820333,0.81492 0.762,0.80433 0.762,1.97908 0,1.17475 -0.762,1.98967 -0.751416,0.80433 -1.820333,0.80433 -1.11125,0 -1.7145,-0.77258 v 2.74108 h -1.36525 v -7.40833 h 1.36525 v 0.62441 q 0.60325,-0.77258 1.7145,-0.77258 z m -1.30175,3.8735 q 0.412751,0.41275 1.04775,0.41275 0.635,0 1.04775,-0.41275 0.423333,-0.42333 0.423333,-1.0795 0,-0.65617 -0.423333,-1.06892 -0.41275,-0.42333 -1.04775,-0.42333 -0.634999,0 -1.04775,0.42333 -0.41275,0.41275 -0.41275,1.06892 0,0.65617 0.41275,1.0795 z" />
    <path stroke="none" fill="#000000" d="m 39.635906,290.50178 q 0.1905,-0.508 0.624414,-0.762 0.4445,-0.254 0.984251,-0.254 v 1.524 q -0.624415,-0.0741 -1.121831,0.254 -0.486834,0.32809 -0.486834,1.09009 v 2.52941 h -1.36525 v -5.29166 h 1.36525 z" />
    <path stroke="none" fill="#000000" d="m 42.979579,292.79837 q 0.275167,0.99483 1.492249,0.99483 0.78317,0 1.185331,-0.52917 l 1.10067,0.635 q -0.783169,1.13242 -2.307173,1.13242 -1.312328,0 -2.106078,-0.79375 -0.79375,-0.79375 -0.79375,-2.00025 0,-1.19592 0.783167,-1.98967 0.783166,-0.80433 2.010833,-0.80433 1.164169,0 1.915581,0.80433 0.762,0.80434 0.762,1.98967 0,0.26458 -0.0529,0.56092 z m -0.02117,-1.05834 h 2.69875 q -0.116411,-0.53975 -0.48683,-0.80433 -0.359831,-0.26458 -0.8255,-0.26458 -0.550331,0 -0.91017,0.28575 -0.359833,0.27516 -0.47625,0.78316 z" />
    <path stroke="none" fill="#000000" d="m 49.017867,291.09445 q 0,0.21167 0.275163,0.34925 0.28575,0.127 0.687919,0.23283 0.402169,0.0952 0.804331,0.254 0.402169,0.14817 0.677337,0.508 0.28575,0.35984 0.28575,0.89959 0,0.81491 -0.613838,1.25941 -0.60325,0.43392 -1.513412,0.43392 -1.629838,0 -2.2225,-1.25942 l 1.185331,-0.66675 q 0.232831,0.68792 1.037169,0.68792 0.73025,0 0.73025,-0.45508 0,-0.21167 -0.28575,-0.33867 -0.275169,-0.13758 -0.677338,-0.24342 -0.402162,-0.10583 -0.804331,-0.26458 -0.402169,-0.15875 -0.687919,-0.49742 -0.275162,-0.34925 -0.275162,-0.86783 0,-0.78317 0.5715,-1.22767 0.582081,-0.45508 1.439331,-0.45508 0.645581,0 1.174751,0.29633 0.529169,0.28575 0.836081,0.8255 l -1.164162,0.635 q -0.254,-0.53975 -0.846669,-0.53975 -0.264581,0 -0.4445,0.11642 -0.169331,0.11642 -0.169332,0.3175 z" />
    <path stroke="none" fill="#000000" d="m 56.575687,289.59162 h 1.365251 v 5.29166 h -1.365251 v -0.62441 q -0.613829,0.77258 -1.725079,0.77258 -1.058339,0 -1.820339,-0.80433 -0.751411,-0.81492 -0.751411,-1.98967 0,-1.17475 0.751411,-1.97908 0.762,-0.81492 1.820339,-0.81492 1.11125,0 1.725079,0.77258 z m -2.51883,3.72533 q 0.412751,0.41275 1.04775,0.41275 0.635001,0 1.04775,-0.41275 0.42333,-0.42333 0.42333,-1.0795 0,-0.65617 -0.423329,-1.06892 -0.41275,-0.42333 -1.04775,-0.42333 -0.635,0 -1.04775,0.42333 -0.41275,0.41275 -0.41275,1.06892 0,0.65617 0.412749,1.0795 z" />
  </g>
</svg>
