<?xml version="1.0" encoding="UTF-8" ?>
<svg xmlns="http://www.w3.org/2000/svg" width="512" height="512" id="fe_facebook" version="1.1" viewBox="0 0 135.49791 135.49791">
    <g transform="translate(-1.1027181,3.308168)">
      <path
         style="fill:#a0a0a0;stroke-width:0.264583"
         d="m 62.543206,93.774866 c 0.257432,-0.06708 0.614619,-0.06267 0.79375,0.0098 0.179131,0.07248 -0.03149,0.127363 -0.468056,0.121971 -0.436562,-0.0054 -0.583125,-0.06469 -0.325694,-0.131773 z m 3.96875,0 c 0.257432,-0.06708 0.614619,-0.06267 0.79375,0.0098 0.179131,0.07248 -0.03149,0.127363 -0.468056,0.121971 -0.436562,-0.0054 -0.583125,-0.06469 -0.325694,-0.131773 z M 31.038189,62.075927 c 0.0054,-0.436562 0.06469,-0.583125 0.131774,-0.325694 0.06708,0.257432 0.06267,0.614619 -0.0098,0.79375 -0.07248,0.179131 -0.127363,-0.03149 -0.121971,-0.468056 z m 67.46875,0 c 0.0054,-0.436562 0.06469,-0.583125 0.131773,-0.325694 0.06708,0.257432 0.06267,0.614619 -0.0098,0.79375 -0.07248,0.179131 -0.127362,-0.03149 -0.12197,-0.468056 z m -67.46875,-3.96875 c 0.0054,-0.436562 0.06469,-0.583126 0.131774,-0.325694 0.06708,0.257432 0.06267,0.614619 -0.0098,0.79375 -0.07248,0.179131 -0.127363,-0.03149 -0.121971,-0.468056 z m 67.46875,0 c 0.0054,-0.436562 0.06469,-0.583126 0.131773,-0.325694 0.06708,0.257432 0.06267,0.614619 -0.0098,0.79375 -0.07248,0.179131 -0.127362,-0.03149 -0.12197,-0.468056 z M 62.543206,26.306114 c 0.257432,-0.06708 0.614619,-0.06267 0.79375,0.0098 0.179131,0.07248 -0.03149,0.127362 -0.468056,0.121969 -0.436562,-0.0054 -0.583125,-0.06469 -0.325694,-0.131773 z m 3.96875,0 c 0.257432,-0.06708 0.614619,-0.06267 0.79375,0.0098 0.179131,0.07248 -0.03149,0.127362 -0.468056,0.121969 -0.436562,-0.0054 -0.583125,-0.06469 -0.325694,-0.131773 z"
         id="path1358" />
      <path
         style="fill:#e79800;stroke-width:0.264583"
         d="m 59.561609,71.215644 v -9.777992 l -1.918229,-0.07774 -1.91823,-0.07774 -0.07383,-3.505729 -0.07382,-3.505729 h 1.992053 1.992056 v -2.826915 c 0,-4.912122 1.215612,-7.544448 4.149278,-8.984967 1.467731,-0.720701 1.739071,-0.760164 5.838743,-0.849164 l 4.299479,-0.09334 v 3.466775 3.466774 h -2.513542 c -3.387336,0 -3.571875,0.177705 -3.571875,3.439584 v 2.38125 h 3.18004 c 3.158115,0 3.179189,0.0041 3.056242,0.595312 -0.06809,0.327422 -0.194379,1.42875 -0.280641,2.447396 -0.08627,1.018646 -0.224935,2.358099 -0.30816,2.976563 l -0.151315,1.124479 h -2.748082 -2.748084 v 9.789584 9.789583 H 63.66265 59.561609 Z"
         id="path1356" />
      <path
         style="fill:#6a6a6a;stroke-width:0.264583"
         d="m 63.728796,93.782992 c 0.181901,-0.0734 0.479557,-0.0734 0.661458,0 0.181902,0.0734 0.03307,0.133453 -0.330729,0.133453 -0.363802,0 -0.51263,-0.06005 -0.330729,-0.133453 z m 1.5875,0 c 0.181901,-0.0734 0.479557,-0.0734 0.661459,0 0.181901,0.0734 0.03307,0.133453 -0.33073,0.133453 -0.363802,0 -0.51263,-0.06005 -0.330729,-0.133453 z M 42.06536,85.028532 c -0.329108,-0.419645 -0.319749,-0.429003 0.0999,-0.0999 0.254661,0.199721 0.46302,0.40808 0.46302,0.463021 0,0.217763 -0.217272,0.07761 -0.562915,-0.363125 z m 45.012915,0.363125 c 0,-0.05494 0.20836,-0.2633 0.463021,-0.463021 0.419645,-0.329107 0.429004,-0.319749 0.0999,0.0999 -0.345643,0.44073 -0.562917,0.580888 -0.562917,0.363125 z M 39.68411,82.647282 c -0.329108,-0.419645 -0.319749,-0.429003 0.0999,-0.0999 0.254661,0.199721 0.46302,0.40808 0.46302,0.463021 0,0.217763 -0.217272,0.07761 -0.562915,-0.363125 z m 49.775415,0.363125 c 0,-0.05494 0.20836,-0.2633 0.463021,-0.463021 0.419645,-0.329107 0.429004,-0.319749 0.0999,0.0999 -0.345643,0.44073 -0.562917,0.580888 -0.562917,0.363125 z M 31.007497,60.995546 c 0.01269,-0.308226 0.07539,-0.370919 0.159852,-0.159853 0.07643,0.190995 0.06703,0.419198 -0.02089,0.507119 -0.08792,0.08792 -0.150453,-0.06835 -0.138964,-0.347266 z m 67.489637,-0.110244 c 0,-0.363802 0.06005,-0.51263 0.133453,-0.330729 0.0734,0.181901 0.0734,0.479557 0,0.661458 -0.0734,0.181902 -0.133453,0.03307 -0.133453,-0.330729 z m 0,-1.5875 c 0,-0.363802 0.06005,-0.51263 0.133453,-0.330729 0.0734,0.181901 0.0734,0.479557 0,0.661458 -0.0734,0.181901 -0.133453,0.03307 -0.133453,-0.330729 z M 31.007497,59.143463 c 0.01269,-0.308227 0.07539,-0.37092 0.159852,-0.159853 0.07643,0.190994 0.06703,0.419197 -0.02089,0.507118 -0.08792,0.08792 -0.150453,-0.06835 -0.138964,-0.347265 z m 8.445778,-21.376806 c 0,-0.05494 0.20836,-0.263302 0.463021,-0.463021 0.419644,-0.329108 0.429002,-0.319749 0.09989,0.0999 -0.345644,0.440729 -0.562916,0.580887 -0.562916,0.363126 z m 50.237083,-0.363126 c -0.329107,-0.419644 -0.319749,-0.429003 0.0999,-0.0999 0.254661,0.199719 0.46302,0.408078 0.46302,0.463021 0,0.217761 -0.217273,0.0776 -0.562917,-0.363126 z M 41.834525,35.385407 c 0,-0.05494 0.20836,-0.263302 0.463021,-0.463021 0.419644,-0.329108 0.429002,-0.319749 0.0999,0.09989 -0.345644,0.440729 -0.562916,0.580887 -0.562916,0.363126 z m 45.474583,-0.363126 c -0.329107,-0.419644 -0.319749,-0.429003 0.0999,-0.09989 0.254661,0.199719 0.46302,0.408078 0.46302,0.463021 0,0.217761 -0.217273,0.0776 -0.562917,-0.363126 z M 63.728796,26.314239 c 0.181901,-0.0734 0.479557,-0.0734 0.661458,0 0.181902,0.0734 0.03307,0.133452 -0.330729,0.133452 -0.363802,0 -0.51263,-0.06005 -0.330729,-0.133452 z m 1.5875,0 c 0.181901,-0.0734 0.479557,-0.0734 0.661459,0 0.181901,0.0734 0.03307,0.133452 -0.33073,0.133452 -0.363802,0 -0.51263,-0.06005 -0.330729,-0.133452 z"
         id="path1354" />
      <path
         style="fill:#5c5c5c;stroke-width:0.264583"
         d="m 60.818379,93.518408 c 0.181902,-0.0734 0.479558,-0.0734 0.661459,0 0.181901,0.0734 0.03307,0.133454 -0.330729,0.133454 -0.363802,0 -0.512631,-0.06005 -0.33073,-0.133454 z m 7.408334,0 c 0.181901,-0.0734 0.479557,-0.0734 0.661458,0 0.181901,0.0734 0.03307,0.133454 -0.330729,0.133454 -0.363802,0 -0.51263,-0.06005 -0.330729,-0.133454 z m -8.979297,-0.270094 c 0.190995,-0.07643 0.419198,-0.06703 0.507119,0.02088 0.08792,0.08792 -0.06835,0.150453 -0.347266,0.138965 -0.308226,-0.0127 -0.370919,-0.07539 -0.159853,-0.159851 z m 10.83138,0.0055 c 0.181901,-0.0734 0.479557,-0.0734 0.661458,0 0.181902,0.0734 0.03307,0.133453 -0.330729,0.133453 -0.363802,0 -0.51263,-0.06006 -0.330729,-0.133453 z M 56.601583,92.719139 c 0.190994,-0.07643 0.419198,-0.06703 0.507119,0.02088 0.08792,0.08792 -0.06835,0.150453 -0.347266,0.138964 -0.308226,-0.0127 -0.370919,-0.07539 -0.159853,-0.15985 z m 16.139583,0 c 0.190995,-0.07643 0.419198,-0.06703 0.507119,0.02088 0.08792,0.08792 -0.06835,0.150453 -0.347266,0.138964 -0.308226,-0.0127 -0.370919,-0.07539 -0.159853,-0.15985 z M 49.70588,90.237086 c -0.836745,-0.431896 -1.521355,-0.844603 -1.521355,-0.917126 0,-0.118205 3.148587,1.380673 3.417536,1.62691 0.346342,0.317095 -0.574604,-0.02764 -1.896181,-0.709784 z m 28.39861,0.709784 c 0.269547,-0.246785 3.417535,-1.744977 3.417535,-1.626476 0,0.148363 -3.056652,1.727409 -3.343844,1.727409 -0.101163,0 -0.134323,-0.04542 -0.07369,-0.100933 z M 47.242908,88.784248 c -0.49319,-0.395126 -0.489944,-0.400011 0.08172,-0.122981 0.327422,0.158668 0.595313,0.343829 0.595313,0.411469 0,0.202465 -0.137216,0.143997 -0.677034,-0.288488 z m 34.543701,0.297799 c 0,-0.07276 0.238125,-0.259734 0.529166,-0.415494 0.291042,-0.15576 0.529167,-0.223671 0.529167,-0.15091 0,0.07276 -0.238125,0.259733 -0.529167,0.415494 -0.291041,0.15576 -0.529166,0.22367 -0.529166,0.15091 z M 44.734948,87.059963 43.8189,86.247121 l 0.992188,0.711954 c 0.876797,0.629153 1.162095,0.913728 0.916047,0.913728 -0.04188,0 -0.488361,-0.365778 -0.992187,-0.81284 z m 39.168327,0.729967 c 0,-0.0654 0.437097,-0.452294 0.971325,-0.859768 0.534229,-0.407477 0.887815,-0.605746 0.785749,-0.440598 -0.209343,0.338725 -1.757074,1.484162 -1.757074,1.300366 z M 42.06055,84.885927 c -0.821571,-0.758312 -1.949524,-1.91453 -2.506561,-2.569374 -0.557037,-0.654844 0.14233,-0.05953 1.554148,1.322917 1.411819,1.382448 2.569537,2.543307 2.572707,2.579687 0.01336,0.153255 -0.200037,-0.02233 -1.620294,-1.33323 z m 43.965157,1.348478 c 0.0032,-0.04477 1.156647,-1.212487 2.563284,-2.594935 1.559239,-1.532427 2.099183,-1.969932 1.383297,-1.120855 -0.988629,1.172565 -3.964927,3.974812 -3.946581,3.71579 z m -47.932289,-5.70379 c -0.761191,-0.918937 -1.083699,-1.389062 -0.952901,-1.389062 0.07331,0 0.451132,0.416719 0.839612,0.926042 0.720914,0.945168 0.808211,1.301956 0.113289,0.46302 z m 53.598466,-0.417737 c 0.407474,-0.534228 0.794371,-0.971325 0.859769,-0.971325 0.183795,0 -0.961642,1.54773 -1.300367,1.757074 -0.165147,0.102066 0.03312,-0.251521 0.440598,-0.785749 z M 36.013692,77.554053 c -0.155761,-0.291042 -0.22367,-0.529167 -0.15091,-0.529167 0.07276,0 0.259733,0.238125 0.415493,0.529167 0.155761,0.291042 0.223671,0.529167 0.15091,0.529167 -0.07276,0 -0.259732,-0.238125 -0.415493,-0.529167 z m 57.414583,0 c 0.155761,-0.291042 0.342734,-0.529167 0.415494,-0.529167 0.07276,0 0.0048,0.238125 -0.15091,0.529167 -0.155761,0.291042 -0.342734,0.529167 -0.415494,0.529167 -0.07276,0 -0.0048,-0.238125 0.15091,-0.529167 z M 34.67726,75.14603 c -0.448185,-0.887852 -0.771224,-1.657933 -0.717864,-1.711294 0.05336,-0.05336 0.476764,0.673063 0.940896,1.614274 0.464132,0.941212 0.78717,1.711293 0.717863,1.711293 -0.06931,0 -0.492709,-0.726424 -0.940895,-1.614273 z m 60.129,-0.09702 c 0.464132,-0.941211 0.887534,-1.667632 0.940895,-1.614274 0.118298,0.118298 -1.481455,3.325567 -1.65876,3.325567 -0.06931,0 0.253733,-0.770081 0.717865,-1.711293 z M 32.06583,68.139296 c 0.0127,-0.308226 0.07539,-0.370919 0.159853,-0.159853 0.07643,0.190995 0.06703,0.419198 -0.02089,0.507119 -0.08792,0.08792 -0.150453,-0.06835 -0.138965,-0.347266 z m 65.352084,0 c 0.0127,-0.308226 0.07539,-0.370919 0.159851,-0.159853 0.07643,0.190995 0.06703,0.419198 -0.02088,0.507119 -0.08792,0.08792 -0.150452,-0.06835 -0.138964,-0.347266 z M 31.801247,67.080963 c 0.01269,-0.308226 0.07539,-0.370919 0.159852,-0.159853 0.07643,0.190995 0.06703,0.419198 -0.02089,0.507119 -0.08792,0.08792 -0.150453,-0.06835 -0.138964,-0.347266 z m -0.243695,-1.433161 c 0,-0.363802 0.06005,-0.51263 0.133452,-0.330729 0.0734,0.181901 0.0734,0.479558 0,0.661459 -0.0734,0.181901 -0.133452,0.03307 -0.133452,-0.33073 z m 66.410415,0 c 0,-0.363802 0.06006,-0.51263 0.133453,-0.330729 0.0734,0.181901 0.0734,0.479558 0,0.661459 -0.0734,0.181901 -0.133453,0.03307 -0.133453,-0.33073 z M 31.292968,63.795719 c 0,-0.363802 0.06005,-0.51263 0.133453,-0.330729 0.0734,0.181901 0.0734,0.479557 0,0.661458 -0.0734,0.181901 -0.133453,0.03307 -0.133453,-0.330729 z m 66.939582,0 c 0,-0.363802 0.06006,-0.51263 0.133454,-0.330729 0.0734,0.181901 0.0734,0.479557 0,0.661458 -0.0734,0.181901 -0.133454,0.03307 -0.133454,-0.330729 z M 31.028385,60.091552 c 0,-0.363802 0.06005,-0.51263 0.133452,-0.330729 0.0734,0.181901 0.0734,0.479557 0,0.661458 -0.0734,0.181901 -0.133452,0.03307 -0.133452,-0.330729 z m 0.264583,-3.704167 c 0,-0.363802 0.06005,-0.51263 0.133453,-0.330729 0.0734,0.181901 0.0734,0.479558 0,0.661459 -0.0734,0.181901 -0.133453,0.03307 -0.133453,-0.33073 z m 66.939582,0 c 0,-0.363802 0.06006,-0.51263 0.133454,-0.330729 0.0734,0.181901 0.0734,0.479558 0,0.661459 -0.0734,0.181901 -0.133454,0.03307 -0.133454,-0.33073 z M 31.557552,54.535302 c 0,-0.363802 0.06005,-0.51263 0.133452,-0.330729 0.0734,0.181901 0.0734,0.479557 0,0.661458 -0.0734,0.181901 -0.133452,0.03307 -0.133452,-0.330729 z m 66.410415,0 c 0,-0.363802 0.06006,-0.51263 0.133453,-0.330729 0.0734,0.181901 0.0734,0.479557 0,0.661458 -0.0734,0.181901 -0.133453,0.03307 -0.133453,-0.330729 z m -66.16672,-1.477256 c 0.01269,-0.308226 0.07539,-0.370919 0.159852,-0.159853 0.07643,0.190994 0.06703,0.419198 -0.02089,0.507119 -0.08792,0.08792 -0.150453,-0.06835 -0.138964,-0.347266 z m 0.264583,-1.058333 c 0.0127,-0.308227 0.07539,-0.37092 0.159853,-0.159854 0.07643,0.190995 0.06703,0.419198 -0.02089,0.507119 -0.08792,0.08792 -0.150453,-0.06835 -0.138965,-0.347265 z m 65.352084,0 c 0.0127,-0.308227 0.07539,-0.37092 0.159851,-0.159854 0.07643,0.190995 0.06703,0.419198 -0.02088,0.507119 -0.08792,0.08792 -0.150452,-0.06835 -0.138964,-0.347265 z M 33.897025,46.766646 c 0,-0.287192 1.579048,-3.343844 1.727409,-3.343844 0.07276,0 -0.24072,0.74414 -0.696625,1.653646 -0.864133,1.7239 -1.030784,1.997162 -1.030784,1.690198 z M 94.80626,45.134095 c -0.464132,-0.941213 -0.787173,-1.711293 -0.717865,-1.711293 0.177305,0 1.777058,3.207268 1.65876,3.325566 -0.05336,0.05336 -0.476763,-0.673063 -0.940895,-1.614273 z M 36.013692,42.629052 c 0.155761,-0.291042 0.342733,-0.529167 0.415493,-0.529167 0.07276,0 0.0049,0.238125 -0.15091,0.529167 -0.15576,0.291041 -0.342732,0.529166 -0.415493,0.529166 -0.07276,0 -0.0049,-0.238125 0.15091,-0.529166 z m 57.414583,0 c -0.15576,-0.291042 -0.22367,-0.529167 -0.15091,-0.529167 0.07276,0 0.259733,0.238125 0.415494,0.529167 0.15576,0.291041 0.22367,0.529166 0.15091,0.529166 -0.07276,0 -0.259733,-0.238125 -0.415494,-0.529166 z m -55.83278,-2.373249 c 0.307726,-0.432163 0.694623,-0.869257 0.85977,-0.971326 0.165148,-0.102065 -0.03312,0.251521 -0.440597,0.785749 -0.884417,1.159532 -1.217781,1.307119 -0.419173,0.185577 z m 54.096389,-0.185577 c -0.407477,-0.534228 -0.605745,-0.887814 -0.440598,-0.785749 0.338725,0.209344 1.484162,1.757075 1.300367,1.757075 -0.0654,0 -0.452295,-0.437097 -0.859769,-0.971326 z M 39.831277,37.535822 c 0.661236,-0.763984 1.828958,-1.917462 2.594936,-2.563283 0.849078,-0.715886 0.411573,-0.175942 -1.120854,1.383298 -1.382448,1.406635 -2.550169,2.560113 -2.594936,2.563283 -0.04477,0.0032 0.459618,-0.619313 1.120854,-1.383298 z m 49.845302,0.07115 c -0.624369,-0.724851 -1.910898,-1.968537 -2.85895,-2.763749 -2.777712,-2.329903 -3.108682,-2.637522 -1.988312,-1.848024 1.642703,1.157573 3.856638,3.154565 5.108623,4.608029 0.626144,0.726909 1.078912,1.321654 1.006152,1.321654 -0.07276,0 -0.643141,-0.59306 -1.267513,-1.31791 z M 44.046202,33.693541 c 0.209343,-0.338725 1.757073,-1.484163 1.757073,-1.300368 0,0.0654 -0.437096,0.452295 -0.971325,0.859771 -0.534228,0.407476 -0.887815,0.605745 -0.785748,0.440597 z m 2.815407,-2.02608 c 0,-0.07276 0.238125,-0.259732 0.529166,-0.415493 0.291042,-0.155761 0.529167,-0.22367 0.529167,-0.15091 0,0.07276 -0.238125,0.259733 -0.529167,0.415493 -0.291041,0.155761 -0.529166,0.223671 -0.529166,0.15091 z m 35.306299,-0.297797 c -0.493189,-0.395127 -0.489945,-0.400012 0.08172,-0.122983 0.327422,0.158669 0.595313,0.343831 0.595313,0.411471 0,0.202465 -0.137216,0.143996 -0.677033,-0.288488 z M 48.184525,30.856431 c 0,-0.177304 3.207269,-1.777057 3.325567,-1.658759 0.05336,0.05336 -0.673063,0.476764 -1.614273,0.940896 -0.941213,0.464132 -1.711294,0.78717 -1.711294,0.717863 z m 31.485417,-0.795088 c -0.945885,-0.495201 -1.6271,-0.906143 -1.513808,-0.913204 0.281252,-0.01753 3.365891,1.550283 3.365891,1.710763 0,0.17783 0.06204,0.204549 -1.852083,-0.797559 z M 56.601583,27.367061 c 0.190994,-0.07643 0.419198,-0.06703 0.507119,0.02089 0.08792,0.08792 -0.06835,0.150453 -0.347266,0.138965 -0.308226,-0.0127 -0.370919,-0.07539 -0.159853,-0.159853 z m 16.139583,0 c 0.190995,-0.07643 0.419198,-0.06703 0.507119,0.02089 0.08792,0.08792 -0.06835,0.150453 -0.347266,0.138965 -0.308226,-0.0127 -0.370919,-0.07539 -0.159853,-0.159853 z m -15.08125,-0.264584 c 0.190995,-0.07643 0.419198,-0.06703 0.507119,0.02089 0.08792,0.08792 -0.06835,0.150453 -0.347266,0.138965 -0.308226,-0.0127 -0.370919,-0.07539 -0.159853,-0.159853 z m 14.022917,0 c 0.190994,-0.07643 0.419198,-0.06703 0.507119,0.02089 0.08792,0.08792 -0.06835,0.150453 -0.347266,0.138965 -0.308226,-0.0127 -0.370919,-0.07539 -0.159853,-0.159853 z M 58.966296,26.843406 c 0.181901,-0.0734 0.479557,-0.0734 0.661459,0 0.181901,0.0734 0.03307,0.133452 -0.33073,0.133452 -0.363802,0 -0.51263,-0.06005 -0.330729,-0.133452 z m 11.39362,-0.0055 c 0.190995,-0.07643 0.419198,-0.06703 0.507119,0.02089 0.08792,0.08792 -0.06835,0.150452 -0.347266,0.138964 -0.308226,-0.0127 -0.370919,-0.07539 -0.159853,-0.159852 z m -9.541537,-0.259072 c 0.181902,-0.0734 0.479558,-0.0734 0.661459,0 0.181901,0.0734 0.03307,0.133452 -0.330729,0.133452 -0.363802,0 -0.512631,-0.06005 -0.33073,-0.133452 z m 7.408334,0 c 0.181901,-0.0734 0.479557,-0.0734 0.661458,0 0.181901,0.0734 0.03307,0.133452 -0.330729,0.133452 -0.363802,0 -0.51263,-0.06005 -0.330729,-0.133452 z"
         id="path1352" />
      <path
         style="fill:#926713;stroke-width:0.264583"
         d="m 73.869998,55.174713 c 0.0127,-0.308227 0.07539,-0.37092 0.15985,-0.159854 0.07643,0.190995 0.06703,0.419198 -0.02088,0.507119 -0.08792,0.08792 -0.150453,-0.06835 -0.138965,-0.347265 z m 0.08275,-10.164411 c 0,-1.964532 0.04165,-2.768203 0.09256,-1.785938 0.05091,0.982266 0.05091,2.58961 0,3.571875 -0.05091,0.982266 -0.09256,0.178594 -0.09256,-1.785937 z"
         id="path1350" />
      <path
         style="fill:#563800;stroke-width:0.264583"
         d="m 59.417644,80.926334 c -0.07005,-0.182538 -0.09454,-4.677148 -0.05444,-9.988021 l 0.07292,-9.656136 0.06274,9.85573 0.06274,9.855729 h 4.097821 4.097822 l 0.07268,-9.855729 0.07269,-9.85573 0.06283,9.988021 0.06282,9.988022 h -4.241636 c -3.157122,0 -4.2742,-0.08486 -4.368995,-0.331886 z M 73.340831,60.995546 c 0.0127,-0.308226 0.07539,-0.370919 0.159851,-0.159853 0.07643,0.190995 0.06703,0.419198 -0.02088,0.507119 -0.08792,0.08792 -0.150453,-0.06835 -0.138965,-0.347266 z m 0.305078,-2.22691 c 0,-0.509323 0.05445,-0.717683 0.121002,-0.463021 0.06655,0.254661 0.06655,0.67138 0,0.926041 -0.06655,0.254662 -0.121002,0.0463 -0.121002,-0.46302 z m 0.25478,-2.513542 c 0.0054,-0.436563 0.06469,-0.583126 0.131773,-0.325694 0.06708,0.257431 0.06267,0.614619 -0.0098,0.79375 -0.07248,0.179131 -0.127362,-0.03149 -0.12197,-0.468056 z m -16.530727,-2.180651 1.909392,-0.09113 0.08493,-2.83286 0.08494,-2.832856 0.05619,2.976562 0.05619,2.976563 -2.050521,-0.05257 -2.050521,-0.05257 z m 10.446975,-1.986537 0.05325,-2.182812 0.09003,2.042218 0.09003,2.042221 3.097874,0.0837 3.097874,0.0837 -3.241146,0.0569 -3.241146,0.05689 z m 0.361429,-2.927535 c 0.240104,-0.625705 0.937709,-0.747625 3.686368,-0.644263 l 2.38125,0.08954 -2.625,0.05441 c -2.040771,0.0423 -2.735223,0.154159 -3.12024,0.502594 -0.465558,0.421325 -0.48488,0.421188 -0.322378,-0.0024 z m -8.595868,-1.658575 c 0.0127,-0.308227 0.07539,-0.37092 0.15985,-0.159854 0.07643,0.190995 0.06703,0.419198 -0.02087,0.507119 -0.08792,0.08792 -0.150453,-0.06835 -0.138965,-0.347265 z m 0.246279,-0.848389 c -0.0053,-0.699445 1.052137,-2.372016 2.095683,-3.314798 0.593042,-0.535779 1.158875,-0.974141 1.257411,-0.974141 0.09853,0 -0.334727,0.439865 -0.962806,0.977474 -0.628078,0.537613 -1.422252,1.579409 -1.764832,2.315105 -0.342579,0.735697 -0.624035,1.184058 -0.625456,0.99636 z m 3.966165,-4.553522 c 0.218281,-0.141065 0.515937,-0.256479 0.661458,-0.256479 0.145521,0 0.08599,0.115414 -0.132291,0.256479 -0.218282,0.141065 -0.515938,0.256479 -0.661459,0.256479 -0.14552,0 -0.08599,-0.115414 0.132292,-0.256479 z m 1.273307,-0.445323 c 0.190995,-0.07643 0.419198,-0.06703 0.507119,0.02088 0.08792,0.08792 -0.06835,0.150452 -0.347265,0.138964 -0.308227,-0.0127 -0.37092,-0.07539 -0.159854,-0.15985 z m 3.30285,-0.280728 c 1.134435,-0.04971 2.920373,-0.04941 3.96875,7.94e-4 1.048374,0.05008 0.120197,0.09076 -2.062615,0.09039 -2.182813,-2.65e-4 -3.040573,-0.04135 -1.906135,-0.09107 z"
         id="path1348" />
      <path
         style="fill:#000000;stroke-width:0.264583"
         d="M 59.826192,93.304323 C 56.321013,92.712477 53.684001,91.861474 50.422789,90.269711 43.342067,86.813684 38.128384,81.599662 34.67614,74.522039 c -4.585133,-9.400215 -4.585133,-19.460758 0,-28.860973 3.451054,-7.075184 8.658626,-12.284154 15.746649,-15.750878 9.29866,-4.54794 19.612126,-4.550395 28.860972,-0.0069 7.146772,3.510872 12.277262,8.644978 15.746648,15.757748 4.585134,9.400215 4.585134,19.460759 0,28.860974 -2.494198,5.113488 -5.906645,9.233662 -10.454981,12.623297 -2.516566,1.875465 -7.706535,4.46581 -10.461736,5.221518 -4.742445,1.300777 -10.066806,1.650132 -14.2875,0.937469 z m 8.202083,-21.967979 v -9.921875 h 2.741698 2.741697 l 0.162671,-1.389063 c 0.08947,-0.763984 0.24249,-2.430859 0.340045,-3.704166 l 0.177371,-2.315105 h -3.081739 -3.081743 v -2.161979 c 0,-3.006058 0.137491,-3.129687 3.480591,-3.129687 h 2.604826 v -3.734698 -3.734699 l -4.431771,0.110532 c -3.881482,0.09681 -4.596037,0.184415 -5.754687,0.705543 -3.352361,1.507797 -4.630209,4.114285 -4.630209,9.444469 v 2.500519 h -1.852083 -1.852083 v 3.704167 3.704167 h 1.852083 1.852083 v 9.745486 c 0,5.360019 0.07937,9.824863 0.17639,9.921875 0.09701,0.09701 2.061543,0.17639 4.365625,0.17639 h 4.189235 z"
         id="path1346" />
  </g>
</svg>
