<?xml version="1.0" encoding="UTF-8" ?>
<svg xmlns="http://www.w3.org/2000/svg" width="512" height="512" id="fe_flecha" version="1.1" viewBox="0 0 135.49791 135.49791">
    <g transform="translate(-1.1027181,3.308168)">
      <path
         style="fill:#EF8354;stroke-width:0.264583"
         d="m 84.461034,101.71082 c -2.218616,-0.42822 -4.498491,-2.38341 -5.313756,-4.556994 -0.480248,-1.280382 -0.332709,-4.403294 0.271057,-5.737463 0.381916,-0.843939 2.238531,-2.897087 6.37617,-7.051125 3.210549,-3.223275 5.760151,-5.985427 5.665785,-6.138119 -0.11674,-0.188883 -5.569601,-0.28123 -17.060177,-0.288925 -18.925622,-0.01267 -17.973825,0.08003 -20.094143,-1.957003 -1.775315,-1.705581 -2.254454,-2.838847 -2.255454,-5.334619 -5.29e-4,-1.51415 0.13399,-2.380269 0.472842,-3.042709 0.650624,-1.271939 2.188342,-2.840812 3.458091,-3.528147 1.050245,-0.568515 1.190281,-0.573455 18.322395,-0.646403 13.452097,-0.05728 17.264062,-0.145421 17.264062,-0.399182 0,-0.179121 -2.568278,-2.88448 -5.707284,-6.011908 C 79.267078,50.449 78.867907,49.867664 78.867907,46.83437 c 0,-2.381484 0.373716,-3.392895 1.84241,-4.98624 1.239136,-1.344306 2.304256,-1.922423 4.20652,-2.28318 1.567553,-0.29728 3.847497,0.192697 5.162166,1.109388 0.455094,0.317328 7.346117,7.073892 15.313387,15.014587 9.51211,9.480396 14.48593,14.619602 14.48593,14.967622 0,0.348067 -5.10879,5.625393 -14.88281,15.373796 -12.716888,12.683551 -15.056085,14.903767 -16.073437,15.255907 -1.599073,0.55348 -3.068579,0.69334 -4.461039,0.42457 z m 4.280061,-0.86436 c 1.162005,-0.48551 2.245363,-1.525919 17.643475,-16.943991 6.76672,-6.77549 12.42178,-12.637278 12.5668,-13.026197 0.25451,-0.682513 -0.24733,-1.213514 -14.41979,-15.257644 -11.010125,-10.91044 -14.981323,-14.686193 -15.87409,-15.09284 -3.313637,-1.509328 -7.665352,0.316087 -9.046517,3.794743 -0.427612,1.076995 -0.330197,4.299299 0.158544,5.244419 0.379198,0.733291 8.563221,9.510361 11.504276,12.337923 0.598323,0.575236 1.087863,1.200314 1.087863,1.389063 0,0.268512 -1.108122,0.348099 -5.093229,0.365802 -2.801276,0.01244 -10.750086,0.104257 -17.664022,0.204031 -12.491241,0.180258 -12.577005,0.185245 -13.552241,0.787974 -1.381376,0.853736 -2.964302,2.735964 -3.331435,3.961347 -0.903864,3.016829 0.553474,6.665661 3.209901,8.03684 1.089994,0.562626 1.410677,0.576432 18.566511,0.799396 10.145889,0.131861 17.560985,0.330507 17.704784,0.474306 0.153508,0.153508 -0.652116,1.179824 -2.122464,2.70389 -7.702261,7.983649 -9.692084,10.151523 -10.160479,11.069648 -0.687162,1.346949 -0.738478,4.835038 -0.08553,5.813883 0.748762,1.122486 2.30697,2.663807 3.135497,3.101507 1.660417,0.87718 4.007755,0.97312 5.772147,0.2359 z M 19.684227,77.948005 c -1.324034,-0.33963 -3.314514,-1.923838 -4.183773,-3.329831 -0.729667,-1.180209 -0.794004,-1.478905 -0.794004,-3.68627 0,-2.166898 0.07341,-2.524551 0.750011,-3.654105 1.318638,-2.2014 3.060192,-3.313195 5.732281,-3.659444 2.009728,-0.260422 3.678656,0.336021 5.453381,1.948931 3.062507,2.783274 3.304965,7.006963 0.579942,10.102755 -0.588877,0.668999 -1.562201,1.46735 -2.162942,1.77411 -1.196621,0.611042 -3.950595,0.869207 -5.374896,0.503854 z m 4.784424,-0.92294 c 4.021194,-1.680163 5.244394,-7.094874 2.36316,-10.460948 -3.116543,-3.640979 -8.780127,-2.961034 -11.103312,1.333016 -0.659462,1.218914 -0.679663,4.773035 -0.03389,5.962507 0.874547,1.610857 2.738979,3.172973 4.24399,3.555828 1.085436,0.276122 3.415414,0.07532 4.530053,-0.390403 z m 13.916295,0.930642 c -1.230646,-0.403521 -2.243127,-1.041805 -3.059491,-1.928749 -1.539077,-1.67214 -1.798067,-2.317078 -1.91758,-4.775147 -0.09696,-1.994312 -0.0333,-2.458153 0.472071,-3.439583 2.408151,-4.67659 8.555398,-5.639972 11.949229,-1.872657 1.008541,1.119529 2.082482,3.577217 2.082482,4.765714 0,1.415352 -0.862681,3.763026 -1.773994,4.827691 -1.466122,1.712836 -2.982079,2.458217 -5.199287,2.556441 -1.039643,0.04606 -2.188686,-0.0141 -2.55343,-0.13371 z m 5.258496,-1.078814 c 1.998646,-1.030412 3.737075,-3.776954 3.740359,-5.909387 0.0038,-2.455852 -2.127801,-5.52903 -4.39987,-6.343449 -3.39066,-1.215382 -7.236828,0.273775 -8.555453,3.312494 -0.778786,1.794681 -0.899569,3.172999 -0.422006,4.815757 0.623013,2.143088 2.780978,4.329049 4.667491,4.728046 1.157896,0.244893 3.991348,-0.09918 4.969479,-0.603461 z"
         id="path729" />
      <path
         style="fill:#EF8354;stroke-width:0.264583"
         d="m 85.489353,101.19809 c 0.214506,-0.13455 0.578519,-0.18611 0.808919,-0.11457 0.708062,0.21987 2.56608,-0.59571 4.154101,-1.823442 2.140225,-1.654659 28.367617,-28.094013 28.367617,-28.596877 0,-0.228404 -4.79227,-5.211874 -10.64948,-11.074376 C 93.167432,44.572195 89.770245,41.32456 88.460902,40.746879 c -0.614275,-0.271017 -1.069356,-0.540265 -1.011293,-0.598328 0.05806,-0.05806 0.621479,0.125084 1.252037,0.406993 0.84627,0.378349 4.991288,4.32257 15.829934,15.063084 14.17246,14.04413 14.6743,14.575131 14.41979,15.257644 -0.14502,0.388919 -5.80008,6.250707 -12.5668,13.026197 -15.398112,15.418072 -16.48147,16.458481 -17.643475,16.943991 -1.068601,0.44649 -3.889192,0.7515 -3.251742,0.35163 z m -1.858946,-0.26882 c -0.289841,-0.19613 -0.182806,-0.22068 0.396875,-0.091 0.972854,0.21762 1.184039,0.36905 0.507118,0.36365 -0.278915,-0.002 -0.685712,-0.12491 -0.903993,-0.27263 z m -1.75599,-1.112387 c -0.539358,-0.472942 -1.317408,-1.324244 -1.728996,-1.891781 -0.670984,-0.925208 -0.748348,-1.247693 -0.748348,-3.119395 0,-1.529326 0.134528,-2.351201 0.503106,-3.073678 0.422407,-0.827987 11.501267,-12.751083 11.848218,-12.751083 0.06338,0 -2.362311,2.627488 -5.390435,5.838862 -3.028125,3.211375 -5.77296,6.277234 -6.099638,6.813021 -0.471654,0.773568 -0.594236,1.371317 -0.595313,2.902929 -0.0016,2.354273 0.51535,3.50262 2.273792,5.050464 0.681416,0.599808 1.166786,1.090558 1.078603,1.090558 -0.08818,0 -0.60163,-0.38695 -1.140989,-0.859897 z m 10.31085,-21.750339 c 0,-0.211881 0.10116,-0.322715 0.224803,-0.246301 0.12364,0.07641 0.156302,0.24977 0.07258,0.385236 -0.213948,0.346176 -0.297381,0.307197 -0.297381,-0.138935 z M 21.12568,77.470901 c 0.329119,-0.06329 0.805369,-0.06088 1.058334,0.0053 0.252965,0.06622 -0.01631,0.118004 -0.598397,0.115068 -0.582084,-0.0029 -0.789055,-0.05712 -0.459937,-0.120407 z M 40.767908,77.358 c 3.092865,-0.484611 4.37425,-1.327308 5.531694,-3.637904 1.194757,-2.385089 0.776605,-5.044226 -1.117635,-7.107341 -1.37441,-1.496938 -2.80348,-2.170525 -4.620995,-2.178081 -4.802484,-0.01998 -8.00951,5.045638 -5.910181,9.335328 0.623605,1.274252 2.751746,3.163469 3.868158,3.433886 0.436595,0.105752 0.447247,0.133544 0.06089,0.158867 -0.257553,0.01688 -0.917435,-0.252847 -1.4664,-0.599395 -3.142207,-1.983587 -4.177534,-5.387232 -2.68496,-8.826809 1.318625,-3.038719 5.164793,-4.527876 8.555453,-3.312494 2.272069,0.814419 4.403648,3.887597 4.39987,6.343449 -0.0019,1.247317 -0.973381,3.518498 -1.938015,4.530897 -1.231979,1.292976 -2.522807,1.857018 -4.580469,2.001483 l -1.817201,0.127582 z m 42.410482,0.103577 c 0.988316,-0.05105 2.536129,-0.05067 3.439583,7.93e-4 0.903451,0.05151 0.09483,0.09327 -1.796941,0.09281 -1.891771,-5.29e-4 -2.630962,-0.04261 -1.642642,-0.09365 z M 18.670916,76.904801 c -1.102271,-0.672203 -2.44092,-2.051315 -2.953766,-3.043052 -0.243133,-0.470165 -0.461507,-1.633197 -0.503938,-2.683902 l -0.07488,-1.854192 0.211604,1.719792 c 0.116383,0.945885 0.341318,2.04099 0.499855,2.433563 0.45143,1.117843 2.191147,2.892949 3.354574,3.422814 0.582083,0.265099 0.879739,0.484172 0.661458,0.486823 -0.218281,0.0026 -0.75599,-0.21418 -1.194909,-0.481846 z m 4.899075,0.177773 c 0.925574,-0.263014 2.479688,-1.290642 3.114814,-2.059612 1.329548,-1.60973 1.861876,-4.62993 1.139492,-6.464995 -1.210575,-3.075212 -5.133325,-4.875747 -8.129587,-3.731464 -1.564685,0.597559 -3.212388,2.075744 -3.833179,3.438819 -0.2651,0.582083 -0.484006,0.879739 -0.486456,0.661458 -0.01281,-1.141396 2.302074,-3.634015 4.055154,-4.366498 3.294716,-1.376619 7.697118,0.836348 8.755795,4.401301 0.43509,1.465107 0.231698,3.541213 -0.495406,5.056815 -0.7918,1.650457 -3.208139,3.420366 -4.575149,3.351186 -0.259336,-0.01312 -0.0548,-0.142277 0.454522,-0.28701 z m 39.902291,0.11288 c 2.228186,-0.0443 5.800061,-0.0442 7.9375,2.16e-4 2.137436,0.04442 0.314375,0.08067 -4.05125,0.08055 -4.365625,-1.19e-4 -6.114439,-0.03646 -3.88625,-0.08077 z m -7.67507,-0.606486 c -2.53328,-1.337914 -3.958535,-5.033854 -3.076483,-7.977878 0.366766,-1.224158 1.947201,-3.104335 3.334523,-3.966943 0.977323,-0.607676 1.052311,-0.612389 10.244947,-0.643498 l 9.260416,-0.03134 -9.128125,0.177985 c -7.663452,0.149426 -9.255487,0.246573 -9.921874,0.605433 -1.15461,0.621773 -2.953938,2.565736 -3.427058,3.702534 -0.951249,2.285624 -0.144923,5.280763 1.923661,7.145533 1.102497,0.99387 1.534326,1.174491 3.223188,1.348158 0.784818,0.0807 0.744466,0.0999 -0.264583,0.125875 -0.723125,0.0186 -1.574633,-0.172159 -2.168612,-0.485859 z M 80.918427,63.702564 c 1.346068,-0.04802 3.548724,-0.04802 4.894792,0 1.346068,0.04802 0.24474,0.08731 -2.447396,0.08731 -2.692135,0 -3.793463,-0.03929 -2.447396,-0.08731 z m 7.591118,-4.631513 c -7.809036,-7.967293 -9.143499,-9.532284 -9.08079,-10.649479 0.02962,-0.527645 0.03008,-0.527649 0.163184,-0.0013 0.332057,1.313065 2.172999,3.425585 9.973291,11.444561 1.167807,1.200547 2.064441,2.182813 1.992519,2.182813 -0.07192,0 -1.443614,-1.339453 -3.048204,-2.976563 z M 79.153379,46.812024 c 0.0127,-0.308225 0.07539,-0.370919 0.159851,-0.159853 0.07643,0.190996 0.06703,0.4192 -0.02088,0.507118 -0.08792,0.08792 -0.150453,-0.06835 -0.138965,-0.347265 z m 0.369274,-1.908672 c 0.290205,-1.935977 2.670611,-4.26554 4.769212,-4.667346 0.503602,-0.09642 0.363709,0.0081 -0.382701,0.285856 -1.508477,0.561398 -3.515276,2.567698 -4.078439,4.077426 -0.378206,1.013891 -0.420774,1.055906 -0.308072,0.304064 z m 6.422858,-4.991383 c 0.181901,-0.0734 0.479557,-0.0734 0.661458,0 0.181901,0.0734 0.03307,0.133452 -0.330729,0.133452 -0.363802,0 -0.51263,-0.06005 -0.330729,-0.133452 z"
         id="path727" />
      <path
         style="fill:#EF8354;stroke-width:0.264583"
         d="m 85.168297,101.02521 c 0.190995,-0.0764 0.419201,-0.067 0.507119,0.0209 0.08792,0.0879 -0.06835,0.15045 -0.347266,0.13897 -0.308226,-0.0127 -0.370919,-0.0754 -0.159853,-0.15985 z m 1.322917,0 c 0.190995,-0.0764 0.4192,-0.067 0.507119,0.0209 0.08792,0.0879 -0.06835,0.15045 -0.347266,0.13897 -0.308226,-0.0127 -0.370919,-0.0754 -0.159853,-0.15985 z m -3.520393,-0.60998 c -0.09269,-0.14999 0.01352,-0.19434 0.248968,-0.10399 0.45837,0.17589 0.542235,0.36554 0.16165,0.36554 -0.136933,0 -0.321712,-0.1177 -0.410618,-0.26155 z M 81.369,99.023133 l -1.045885,-1.124479 1.124479,1.045885 c 1.045755,0.972661 1.246063,1.203071 1.045885,1.203071 -0.04323,0 -0.549243,-0.506013 -1.124479,-1.124477 z m 8.611406,0.495417 c 0,-0.05494 0.20836,-0.2633 0.463021,-0.463021 0.419645,-0.329107 0.429004,-0.319749 0.0999,0.0999 -0.345643,0.44073 -0.562917,0.580887 -0.562917,0.363125 z M 103.47416,86.256988 c 6.91109,-6.912239 12.62515,-12.567708 12.69791,-12.567708 0.0728,0 -5.52224,5.655469 -12.43333,12.567708 -6.911092,6.912239 -12.625152,12.567708 -12.697913,12.567708 -0.07276,0 5.522238,-5.655469 12.433333,-12.567708 z m -21.96042,3.704166 c 0.493654,-0.509322 0.957085,-0.926041 1.029846,-0.926041 0.07276,0 -0.271608,0.416719 -0.765263,0.926041 -0.493654,0.509323 -0.957085,0.926042 -1.029845,0.926042 -0.07276,0 0.271608,-0.416719 0.765262,-0.926042 z m 3.571875,-3.836458 c 0.864015,-0.873125 1.630465,-1.5875 1.703226,-1.5875 0.07276,0 -0.574627,0.714375 -1.438643,1.5875 -0.864015,0.873125 -1.630465,1.5875 -1.703226,1.5875 -0.07276,0 0.574627,-0.714375 1.438643,-1.5875 z m 3.96875,-4.233333 c 0.716663,-0.727604 1.362556,-1.322917 1.435317,-1.322917 0.07276,0 -0.45407,0.595313 -1.170734,1.322917 -0.716664,0.727604 -1.362556,1.322917 -1.435317,1.322917 -0.07276,0 0.45407,-0.595313 1.170734,-1.322917 z M 91.83249,78.88105 c 0,-0.05494 0.208359,-0.2633 0.46302,-0.46302 0.419646,-0.329108 0.429004,-0.319749 0.0999,0.0999 -0.345644,0.440729 -0.562917,0.580887 -0.562917,0.363124 z m -2.704987,-1.417092 c 0.622311,-0.05589 1.574811,-0.05511 2.116667,0.0019 0.541856,0.05685 0.0327,0.102582 -1.131472,0.101621 -1.164167,-0.0011 -1.607505,-0.04748 -0.985195,-0.10337 z M 20.725721,77.203939 c 0.400182,-0.06062 1.055026,-0.06062 1.455208,0 0.400182,0.06062 0.07276,0.110222 -0.727604,0.110222 -0.800365,0 -1.127787,-0.0496 -0.727604,-0.110222 z m 18.656209,0.0024 c 0.329118,-0.06329 0.805368,-0.06088 1.058334,0.0053 0.252965,0.06622 -0.01633,0.118004 -0.598398,0.115067 -0.582083,-0.0029 -0.789054,-0.05712 -0.459936,-0.120407 z m 37.844893,-0.0099 c 1.207458,-0.04914 3.112458,-0.04886 4.233334,5.29e-4 1.120878,0.04947 0.132958,0.08967 -2.195375,0.08934 -2.328334,-2.64e-4 -3.245414,-0.04081 -2.037959,-0.08995 z M 37.727073,76.86735 c -0.09269,-0.149981 0.01352,-0.194336 0.248967,-0.103984 0.45837,0.175893 0.542235,0.365538 0.16165,0.365538 -0.136932,0 -0.321712,-0.1177 -0.410617,-0.261554 z m 4.170349,0.0782 c 0.257431,-0.06708 0.614619,-0.06267 0.79375,0.0098 0.179131,0.07248 -0.03149,0.127362 -0.468056,0.12197 -0.436563,-0.0054 -0.583126,-0.06469 -0.325694,-0.131773 z m 18.125916,-0.01072 c 0.62231,-0.05589 1.57481,-0.0551 2.116666,0.0019 0.541856,0.05685 0.0327,0.102582 -1.131472,0.101621 -1.164167,-0.0011 -1.607505,-0.04748 -0.985194,-0.10337 z m -35.92418,-0.174498 c 0,-0.05719 0.184778,-0.17489 0.410617,-0.261554 0.235459,-0.09035 0.341662,-0.046 0.248968,0.103984 -0.155378,0.25141 -0.659585,0.371859 -0.659585,0.15757 z m -6.759324,-1.285079 -1.045884,-1.124479 1.124479,1.045885 c 1.045755,0.972661 1.246062,1.203074 1.045884,1.203074 -0.04323,0 -0.549243,-0.506016 -1.124479,-1.12448 z m 19.425574,0.661459 c -0.329108,-0.419645 -0.319749,-0.429004 0.0999,-0.0999 0.254661,0.19972 0.46302,0.40808 0.46302,0.46302 0,0.217763 -0.217273,0.07761 -0.562916,-0.363124 z m 7.045208,0.293007 c 0.145521,-0.129135 0.620919,-0.530661 1.056441,-0.892283 0.763964,-0.634333 0.773388,-0.635662 0.267542,-0.03768 -0.288372,0.340903 -0.76377,0.742429 -1.056439,0.892284 -0.292672,0.149854 -0.413065,0.166809 -0.267544,0.03768 z M 25.157491,76.235217 c 0,-0.05494 0.20836,-0.2633 0.463021,-0.463021 0.419644,-0.329107 0.429003,-0.319749 0.0999,0.0999 -0.345643,0.44073 -0.562916,0.580888 -0.562916,0.363125 z m 29.488593,-1.024583 -1.045885,-1.124479 1.124479,1.045885 c 1.045755,0.972661 1.246063,1.203073 1.045885,1.203073 -0.04323,0 -0.549243,-0.506015 -1.124479,-1.124479 z m -19.062689,0 -0.504029,-0.595312 0.595313,0.504028 c 0.559445,0.473663 0.715761,0.686597 0.504028,0.686597 -0.05021,0 -0.318098,-0.267891 -0.595312,-0.595313 z m -9.36757,0.151249 c 0,-0.147219 0.26789,-0.494485 0.595312,-0.771699 l 0.595313,-0.504029 -0.526347,0.661458 c -0.289491,0.363802 -0.557382,0.711068 -0.595313,0.771703 -0.03793,0.06063 -0.06897,-0.01021 -0.06897,-0.157433 z m 8.454538,-1.430681 c -0.162431,-0.303504 -0.245491,-0.601663 -0.184579,-0.662575 0.06091,-0.06091 0.2466,0.18741 0.412639,0.551825 0.364614,0.800243 0.187084,0.886455 -0.22806,0.11075 z m -18.651876,0.0051 c -0.09592,-0.155202 -0.117655,-0.338931 -0.0483,-0.408286 0.06935,-0.06936 0.196603,0.05763 0.282774,0.282186 0.178907,0.466225 0.02642,0.548232 -0.234473,0.1261 z m 30.328319,-0.64385 c 0.02755,-0.501179 0.468513,-1.345102 0.48387,-0.926042 0.008,0.218282 -0.10087,0.575469 -0.241935,0.79375 -0.141065,0.218282 -0.249936,0.277813 -0.241935,0.132292 z M 27.824213,72.476607 c 0.01269,-0.308226 0.07539,-0.370919 0.159852,-0.159853 0.07643,0.190995 0.06703,0.419198 -0.02089,0.507119 -0.08792,0.08792 -0.150453,-0.06835 -0.138964,-0.347266 z M 15.452595,70.778863 c 0,-0.945885 0.04802,-1.332838 0.106712,-0.859895 0.05869,0.472942 0.05869,1.246848 0,1.719791 -0.05869,0.472943 -0.106712,0.08599 -0.106712,-0.859896 z m 37.242451,0.903994 c 0.0127,-0.308226 0.07539,-0.370919 0.159851,-0.159853 0.07643,0.190995 0.06703,0.419198 -0.02088,0.507119 -0.08792,0.08792 -0.150452,-0.06835 -0.138964,-0.347266 z m -18.744921,-0.63941 c 0,-0.509323 0.05445,-0.717683 0.121,-0.463021 0.06655,0.254661 0.06655,0.67138 0,0.926042 -0.06655,0.254661 -0.121,0.0463 -0.121,-0.463021 z m 84.142255,0.376041 c 0.5966,-0.708668 0.58429,-0.865182 -0.13229,-1.681906 l -0.59531,-0.67851 0.7276,0.641432 c 0.88305,0.778462 0.90778,1.108387 0.1323,1.764956 -0.59472,0.50352 -0.59485,0.503473 -0.1323,-0.04597 z M 46.895099,70.778863 c 0,-0.363802 0.06005,-0.51263 0.133453,-0.330729 0.0734,0.181901 0.0734,0.479557 0,0.661459 -0.0734,0.181901 -0.133453,0.03307 -0.133453,-0.33073 z m -19.690907,-2.978234 -0.46684,-0.858224 0.532986,0.624623 c 0.453531,0.531508 0.695931,1.099291 0.466841,1.093497 -0.03638,-7.94e-4 -0.276224,-0.387874 -0.532987,-0.859896 z m 7.213716,0.691652 c 0,-0.141962 0.185161,-0.489227 0.411472,-0.771702 0.387977,-0.484269 0.393486,-0.475827 0.09645,0.147868 -0.385712,0.809897 -0.507923,0.959998 -0.507922,0.623834 z m 81.477422,-1.086855 -0.9118,-0.992187 0.99219,0.911799 c 0.5457,0.501488 0.99219,0.947973 0.99219,0.992187 0,0.202041 -0.2239,0.01172 -1.07258,-0.911799 z M 16.955408,66.712982 c 0.509323,-0.552548 1.164167,-1.130051 1.455209,-1.28334 0.291041,-0.153289 0.469635,-0.223343 0.396875,-0.155675 -0.07276,0.06766 -0.727605,0.645167 -1.455209,1.28334 -1.257364,1.102815 -1.27703,1.11053 -0.396875,0.155675 z m 28.541249,0.427861 c -0.329107,-0.419645 -0.319749,-0.429004 0.0999,-0.0999 0.254662,0.19972 0.463021,0.40808 0.463021,0.46302 0,0.217763 -0.217273,0.0776 -0.562917,-0.363124 z m 9.161875,-0.859896 c 0.716664,-0.727604 1.362557,-1.322917 1.435317,-1.322917 0.07276,0 -0.45407,0.595313 -1.170733,1.322917 -0.716664,0.727604 -1.362557,1.322916 -1.435317,1.322916 -0.07276,0 0.45407,-0.595312 1.170733,-1.322916 z M 35.608533,66.54553 c 0.26339,-0.291041 0.538422,-0.529166 0.611182,-0.529166 0.07276,0 -0.08321,0.238125 -0.346599,0.529166 -0.26339,0.291042 -0.538422,0.529167 -0.611182,0.529167 -0.07276,0 0.08321,-0.238125 0.346599,-0.529167 z M 25.81895,66.115638 c -0.475749,-0.404842 -0.573032,-0.565817 -0.242823,-0.401804 0.484993,0.24089 1.394678,1.111826 1.135115,1.086765 -0.0542,-0.0052 -0.45573,-0.313468 -0.892292,-0.684961 z m 18.412166,-0.2031 c -0.168164,-0.202625 -0.662811,-0.516308 -1.099215,-0.697074 -0.436403,-0.180763 -0.741177,-0.380944 -0.677275,-0.444849 0.170183,-0.170182 1.602648,0.613651 2.00297,1.09601 0.189119,0.227878 0.284324,0.414322 0.211564,0.414322 -0.07276,0 -0.269881,-0.165785 -0.438044,-0.368409 z m -7.550542,-0.18294 c 0.181356,-0.293439 1.716529,-1.113902 1.844598,-0.98583 0.04914,0.04914 -0.380026,0.346437 -0.953698,0.660667 -0.57367,0.31423 -0.974574,0.460552 -0.8909,0.325163 z M 24.363741,65.222614 c -0.238466,-0.15411 -0.2711,-0.258099 -0.08176,-0.260533 0.173313,-0.0021 0.388699,0.115012 0.478635,0.260533 0.203017,0.328488 0.111423,0.328488 -0.396875,0 z m 88.742569,-0.595313 -0.50403,-0.595312 0.59531,0.504028 c 0.32743,0.277215 0.59532,0.545105 0.59532,0.595313 0,0.211732 -0.21294,0.05542 -0.6866,-0.504029 z M 20.993942,64.503587 c 0.402183,-0.06082 0.997496,-0.05919 1.322917,0.0036 0.32542,0.0628 -0.0036,0.112559 -0.731242,0.110574 -0.727605,-0.0021 -0.993858,-0.05337 -0.591675,-0.114186 z m 18.12032,0.01463 c 0.181901,-0.0734 0.479557,-0.0734 0.661458,0 0.181901,0.0734 0.03307,0.133453 -0.330729,0.133453 -0.363802,0 -0.51263,-0.06006 -0.330729,-0.133453 z m 2.397786,-0.0055 c 0.190995,-0.07643 0.419198,-0.06703 0.507119,0.02088 0.08792,0.08792 -0.06835,0.150453 -0.347265,0.138964 -0.308227,-0.0127 -0.37092,-0.07539 -0.159854,-0.15985 z m 15.861548,-0.0064 c 0.329118,-0.06329 0.805368,-0.06088 1.058334,0.0053 0.252965,0.06622 -0.01633,0.118005 -0.598398,0.115068 -0.582083,-0.0029 -0.789053,-0.05712 -0.459936,-0.120407 z m 4.108961,-0.273907 c 0.988317,-0.05105 2.536129,-0.05067 3.439583,7.93e-4 0.903452,0.05151 0.09483,0.09327 -1.796941,0.09281 -1.891771,-5.29e-4 -2.630961,-0.04261 -1.642642,-0.09365 z m 15.610416,-0.264584 c 0.988317,-0.05105 2.536129,-0.05066 3.439583,7.94e-4 0.903452,0.05151 0.09483,0.09327 -1.796941,0.09281 -1.891771,-5.3e-4 -2.630961,-0.04261 -1.642642,-0.09365 z m 12.027538,-0.261882 c 0.618463,-0.0557 1.630494,-0.0557 2.248958,0 0.618463,0.05571 0.112448,0.101283 -1.124479,0.101283 -1.236927,0 -1.742943,-0.04558 -1.124479,-0.101283 z m 2.999314,-0.965615 -0.638707,-0.825029 0.756967,0.719587 c 0.416333,0.395772 0.70375,0.767035 0.638707,0.825027 -0.06504,0.05799 -0.405678,-0.265819 -0.756967,-0.719585 z m 19.522665,0.431742 c -0.32911,-0.419645 -0.31975,-0.429004 0.0999,-0.0999 0.25467,0.19972 0.46303,0.40808 0.46303,0.46302 0,0.217763 -0.21728,0.0776 -0.56292,-0.363124 z m -3.01448,-3.042708 -2.37573,-2.447396 2.4474,2.375733 c 2.27308,2.206527 2.56783,2.519058 2.37573,2.519058 -0.0394,0 -1.14074,-1.101328 -2.4474,-2.447395 z m -19.580741,-0.79375 -1.844988,-1.91823 1.91823,1.844988 c 1.055026,1.014743 1.918229,1.877946 1.918229,1.918229 0,0.194074 -0.277847,-0.06334 -1.991471,-1.844987 z m 13.100291,-5.688542 -3.568196,-3.638021 3.638026,3.5682 c 2.00091,1.962507 3.63802,3.599617 3.63802,3.638021 0,0.189693 -0.39322,-0.188714 -3.70785,-3.5682 z M 83.89499,53.9778 c -1.084122,-1.091406 -1.911599,-1.984375 -1.838838,-1.984375 0.07276,0 1.019299,0.892969 2.103421,1.984375 1.084122,1.091406 1.911599,1.984375 1.838838,1.984375 -0.07276,0 -1.019299,-0.892969 -2.103421,-1.984375 z m -2.803263,-3.108854 -0.504029,-0.595312 0.595313,0.504028 c 0.559445,0.473662 0.715761,0.686597 0.504028,0.686597 -0.05021,0 -0.318098,-0.267891 -0.595312,-0.595313 z m -1.308658,-1.80354 c -0.09592,-0.155203 -0.117655,-0.338932 -0.0483,-0.408286 0.06935,-0.06936 0.196601,0.05763 0.282773,0.282186 0.178906,0.466224 0.02643,0.548232 -0.234473,0.1261 z M 79.472747,46.83405 c 0.0021,-0.727604 0.05337,-0.993857 0.114186,-0.591674 0.06082,0.402183 0.05919,0.997495 -0.0036,1.322917 -0.06282,0.32542 -0.112573,-0.0036 -0.110588,-0.731243 z m 13.678344,-1.918229 -3.038393,-3.108854 3.108854,3.038393 c 1.70987,1.671115 3.108854,3.0701 3.108854,3.108854 0,0.190544 -0.357079,-0.150708 -3.179315,-3.038393 z M 80.71999,42.914824 c 0,-0.04554 0.386953,-0.432488 0.859896,-0.859896 l 0.859896,-0.777105 -0.777105,0.859895 c -0.724371,0.801544 -0.942687,0.981512 -0.942687,0.777106 z m 8.697499,-1.438564 c -0.329107,-0.419644 -0.319748,-0.429002 0.0999,-0.0999 0.440729,0.345644 0.580887,0.562916 0.363124,0.562916 -0.05494,0 -0.2633,-0.208359 -0.463021,-0.463021 z m -6.464117,-0.448425 c 0.282475,-0.226309 0.62974,-0.411471 0.771702,-0.411471 0.336164,0 0.186063,0.122211 -0.623834,0.507924 -0.623694,0.297033 -0.632137,0.291526 -0.147868,-0.09645 z m 5.439534,-0.146887 c -0.238466,-0.15411 -0.2711,-0.258098 -0.08176,-0.260532 0.173313,-0.0022 0.388699,0.115011 0.478636,0.260532 0.203015,0.328486 0.111422,0.328486 -0.396876,0 z m -2.840632,-0.719027 c 0.402182,-0.06082 0.997495,-0.05919 1.322916,0.0036 0.325422,0.0628 -0.0037,0.11256 -0.731242,0.110573 -0.727604,-0.002 -0.993857,-0.05337 -0.591674,-0.114185 z"
         id="path725" />
      <path
         style="fill:#EF8354;stroke-width:0.264583"
         d="m 85.156499,100.74961 c 0.475549,-0.0589 1.189924,-0.0577 1.5875,0.003 0.397576,0.0604 0.0085,0.10855 -0.864634,0.10707 -0.873125,-0.002 -1.198414,-0.0509 -0.722866,-0.10977 z m 3.258455,-0.41426 c 0.06064,-0.0423 0.586494,-0.408048 1.168577,-0.812842 l 1.058334,-0.735994 -0.916049,0.812842 c -0.503825,0.447064 -1.029684,0.812844 -1.168574,0.812844 -0.138891,0 -0.20292,-0.0346 -0.142288,-0.0768 z m -6.9973,-1.499319 c -0.674756,-0.721371 -1.226831,-1.396058 -1.226831,-1.499307 0,-0.103245 0.0379,-0.138112 0.08422,-0.07748 0.04632,0.06063 0.657924,0.735322 1.359122,1.499306 0.701199,0.763984 1.215374,1.38906 1.142614,1.38906 -0.07276,0 -0.684366,-0.590209 -1.359122,-1.311579 z M 104.13561,85.330946 c 7.4205,-7.421562 13.55134,-13.493749 13.6241,-13.493749 0.0728,0 -5.93902,6.072187 -13.35951,13.493749 -7.420496,7.421563 -13.551339,13.49375 -13.624099,13.49375 -0.07276,0 5.93902,-6.072187 13.359509,-13.49375 z m -24.387133,9.392708 c 0.0011,-1.018645 0.049,-1.402942 0.106273,-0.853995 0.05727,0.548949 0.05631,1.382387 -0.0021,1.852083 -0.05845,0.469699 -0.105312,0.02056 -0.104137,-0.998088 z m 0.971513,-3.654665 c 0,-0.04554 0.386953,-0.432488 0.859896,-0.859896 l 0.859896,-0.777105 -0.777105,0.859896 c -0.724371,0.801544 -0.942687,0.981511 -0.942687,0.777105 z m 3.439583,-3.753668 c 0.937477,-0.945885 1.764035,-1.719791 1.836796,-1.719791 0.07276,0 -0.634736,0.773906 -1.572212,1.719791 -0.937477,0.945886 -1.764036,1.719792 -1.836796,1.719792 -0.07276,0 0.634735,-0.773906 1.572212,-1.719792 z m 4.101042,-4.365625 c 0.864015,-0.873125 1.630465,-1.5875 1.703226,-1.5875 0.07276,0 -0.574628,0.714375 -1.438643,1.5875 -0.864015,0.873125 -1.630466,1.5875 -1.703226,1.5875 -0.07276,0 0.574627,-0.714375 1.438643,-1.5875 z m 3.042708,-3.307291 c 0.493654,-0.509323 0.957085,-0.926042 1.029846,-0.926042 0.07276,0 -0.271608,0.416719 -0.765263,0.926042 -0.493654,0.509323 -0.957085,0.926041 -1.029845,0.926041 -0.07276,0 0.271608,-0.416718 0.765262,-0.926041 z m 1.114047,-1.878769 c -0.187638,-0.203605 -0.224431,-0.370189 -0.08176,-0.370189 0.274754,0 0.672496,0.503293 0.515562,0.652375 -0.05095,0.0484 -0.246164,-0.07858 -0.433802,-0.282186 z m -7.927068,-0.564669 c 0.691224,-0.0545 1.822318,-0.0545 2.513542,0 0.691224,0.0545 0.125677,0.0991 -1.256771,0.0991 -1.382448,0 -1.947995,-0.04459 -1.256771,-0.0991 z M 20.080799,76.948124 c 0.190996,-0.07643 0.419199,-0.06703 0.507118,0.02087 0.08792,0.08792 -0.06835,0.150453 -0.347266,0.138965 -0.308224,-0.0127 -0.370919,-0.07539 -0.159852,-0.159851 z m 2.364713,0.0055 c 0.181901,-0.0734 0.479558,-0.0734 0.661459,0 0.181901,0.0734 0.03307,0.133453 -0.33073,0.133453 -0.363802,0 -0.51263,-0.06006 -0.330729,-0.133453 z m 16.66875,-0.01617 c 0.472943,-0.05869 1.246849,-0.05869 1.719792,0 0.472942,0.05869 0.08599,0.106714 -0.859896,0.106714 -0.945886,0 -1.332839,-0.04802 -0.859896,-0.106714 z m 27.104172,-0.0062 c 1.846803,-0.04542 4.942428,-0.04554 6.879167,-2.65e-4 1.936742,0.04527 0.425722,0.08243 -3.357819,0.08258 -3.783542,1.51e-4 -5.368147,-0.03688 -3.521348,-0.0823 z m -48.43328,-1.323761 c -0.952884,-0.959906 -0.995111,-1.030433 -0.178766,-0.298582 0.587846,0.527005 1.306937,1.088932 1.597979,1.248727 0.291041,0.159793 0.371486,0.294156 0.178766,0.29858 -0.19272,0.0044 -0.91181,-0.557501 -1.597979,-1.248725 z m 24.880255,0.997871 c 0.388782,-0.117377 0.865032,-0.294569 1.058334,-0.393753 0.193302,-0.09919 0.12034,0.0071 -0.162134,0.236156 -0.282475,0.229074 -0.758725,0.406263 -1.058334,0.393756 -0.437123,-0.01826 -0.405093,-0.0649 0.162134,-0.236159 z m 15.101977,0.06939 c 0.400183,-0.06062 1.055026,-0.06062 1.455209,0 0.400182,0.06062 0.07276,0.110223 -0.727604,0.110223 -0.800365,0 -1.127787,-0.0496 -0.727605,-0.110223 z M 37.029991,76.136676 c -0.329107,-0.419645 -0.319749,-0.429004 0.0999,-0.0999 0.254661,0.19972 0.463021,0.40808 0.463021,0.46302 0,0.217763 -0.217273,0.07761 -0.562917,-0.363124 z m 18.782331,-0.08185 -0.624623,-0.54487 0.79375,0.464791 c 1.044689,0.611733 1.06023,0.624949 0.734867,0.624949 -0.153652,0 -0.560448,-0.245192 -0.903994,-0.54487 z m -30.919414,0.18039 c 0,-0.05494 0.208359,-0.2633 0.463021,-0.463021 0.419644,-0.329107 0.429002,-0.319749 0.0999,0.0999 -0.345644,0.44073 -0.562916,0.580888 -0.562916,0.363125 z M 44.921517,75.22802 c 0.454728,-0.536144 0.907687,-1.229725 1.006575,-1.541293 0.09889,-0.311571 0.237239,-0.509053 0.307441,-0.438849 0.220355,0.220353 -0.622443,1.603177 -1.39782,2.293485 -0.697199,0.620705 -0.692037,0.601398 0.0838,-0.313343 z m -9.095211,-0.01738 c -0.294759,-0.327422 -0.630637,-0.773907 -0.746395,-0.992188 -0.223298,-0.421068 -0.16239,-0.363479 0.909434,0.859896 0.35061,0.400182 0.57794,0.727604 0.505179,0.727604 -0.07276,0 -0.373459,-0.26789 -0.668218,-0.595312 z m -8.733969,-1.499921 c 0.31423,-0.573672 0.611531,-1.002834 0.660667,-0.953698 0.12807,0.128069 -0.69239,1.663242 -0.98583,1.844598 -0.135391,0.08367 0.01093,-0.31723 0.325163,-0.8909 z m 26.870987,0.573876 c -0.329108,-0.419645 -0.319749,-0.429003 0.0999,-0.0999 0.254661,0.199721 0.463021,0.40808 0.463021,0.463021 0,0.217763 -0.217274,0.07761 -0.562917,-0.363125 z M 53.103719,72.75301 c -0.09074,-0.236459 -0.157432,-0.569016 -0.148206,-0.739016 0.0092,-0.169998 0.130844,-0.02392 0.270266,0.324636 0.139422,0.348549 0.206116,0.681106 0.148207,0.739015 -0.05791,0.05791 -0.179531,-0.08818 -0.270267,-0.324635 z M 15.65338,72.212024 c 0.01269,-0.308226 0.07539,-0.370919 0.159852,-0.159853 0.07643,0.190994 0.06703,0.419198 -0.02089,0.507119 -0.08792,0.08792 -0.150453,-0.06835 -0.138964,-0.347266 z m 18.581931,-1.300869 c 0.0015,-0.873125 0.05088,-1.198414 0.109765,-0.722865 0.05889,0.475548 0.05767,1.189923 -0.0027,1.5875 -0.06037,0.397576 -0.10855,0.0085 -0.107065,-0.864635 z m -6.3527,-0.132292 c 0,-0.800364 0.0496,-1.127786 0.110223,-0.727604 0.06062,0.400183 0.06062,1.055026 0,1.455209 -0.06062,0.400182 -0.110223,0.07276 -0.110223,-0.727605 z m 18.781803,0.132292 c 0.0021,-0.727604 0.05337,-0.993857 0.114187,-0.591674 0.06082,0.402182 0.05919,0.997495 -0.0036,1.322916 -0.0628,0.325422 -0.112559,-0.0036 -0.110574,-0.731242 z m 6.071127,-0.396875 c 0,-0.509323 0.05445,-0.717682 0.121002,-0.463021 0.06655,0.254662 0.06655,0.67138 0,0.926042 -0.06655,0.254661 -0.121002,0.0463 -0.121002,-0.463021 z m 65.484159,0.243374 c 0.0936,-0.357769 0.2135,-0.477705 0.27955,-0.279545 0.0636,0.190881 -0.0101,0.472853 -0.16386,0.626602 -0.19634,0.196339 -0.23077,0.09304 -0.11569,-0.347057 z M 106.78021,58.541885 96.198115,47.892406 106.84759,58.474498 c 9.89807,9.83543 10.76842,10.716865 10.5821,10.716865 -0.0371,0 -4.82933,-4.792265 -10.64948,-10.649478 z m -60.938203,9.526118 c -0.166939,-0.328038 -0.498459,-0.864322 -0.736708,-1.191744 -0.238252,-0.327422 -0.375325,-0.595312 -0.304604,-0.595312 0.222977,0 1.608309,2.120013 1.473454,2.254869 -0.07074,0.07074 -0.265203,-0.139777 -0.432142,-0.467813 z m 7.369363,0.351658 c -0.01209,-0.563261 3.267051,-3.727773 3.85046,-3.715858 0.366948,0.0075 0.287718,0.108942 -0.286631,0.367022 -0.818274,0.367686 -2.751786,2.259301 -3.265249,3.194497 -0.182259,0.331959 -0.293534,0.389477 -0.29858,0.154339 z M 17.0877,66.810113 c 0.568389,-0.582083 1.092966,-1.058333 1.165727,-1.058333 0.07276,0 -0.332754,0.47625 -0.901144,1.058333 -0.568389,0.582084 -1.092966,1.058334 -1.165726,1.058334 -0.07276,0 0.332754,-0.47625 0.901143,-1.058334 z m 18.067064,0.658498 c 0.149855,-0.292669 0.551382,-0.768067 0.892284,-1.056439 0.597985,-0.505846 0.596656,-0.496422 -0.03768,0.267542 -1.053679,1.269005 -1.142341,1.350848 -0.854607,0.788897 z m -9.09637,-0.989227 -0.504028,-0.595312 0.595313,0.504028 c 0.559447,0.473663 0.715762,0.686597 0.504028,0.686597 -0.05021,0 -0.318097,-0.267891 -0.595313,-0.595313 z m 17.850763,-0.661458 c -0.329107,-0.419645 -0.319749,-0.429003 0.0999,-0.0999 0.254662,0.199721 0.463021,0.40808 0.463021,0.463021 0,0.217762 -0.217273,0.07761 -0.562917,-0.363125 z M 20.345382,64.777291 c 0.190996,-0.07643 0.419199,-0.06703 0.507118,0.02087 0.08792,0.08792 -0.06835,0.150453 -0.347265,0.138965 -0.308225,-0.0127 -0.37092,-0.07539 -0.159853,-0.159851 z m 2.10013,0.0055 c 0.181901,-0.0734 0.479558,-0.0734 0.661459,0 0.181901,0.0734 0.03307,0.133453 -0.33073,0.133453 -0.363802,0 -0.51263,-0.06006 -0.330729,-0.133453 z m 16.420703,-0.0055 c 0.190995,-0.07643 0.419198,-0.06703 0.507119,0.02087 0.08792,0.08792 -0.06835,0.150453 -0.347266,0.138965 -0.308226,-0.0127 -0.370919,-0.07539 -0.159853,-0.159851 z m 1.443707,-0.267198 c 0.257432,-0.06708 0.614619,-0.06267 0.79375,0.0098 0.179131,0.07248 -0.03149,0.127363 -0.468056,0.121971 -0.436562,-0.0054 -0.583126,-0.06469 -0.325694,-0.131773 z m 19.582113,-0.01146 c 0.695617,-0.05468 1.767179,-0.05402 2.38125,0.0016 0.614075,0.05549 0.04493,0.10023 -1.264753,0.09942 -1.309687,-7.94e-4 -1.81211,-0.04621 -1.116497,-0.100888 z m 9.384726,-0.267288 c 1.637109,-0.04642 4.316016,-0.04642 5.953125,0 1.637109,0.04642 0.297656,0.0844 -2.976562,0.0844 -3.274219,0 -4.613672,-0.03798 -2.976563,-0.0844 z M 83.57463,63.968116 c 0.915207,-0.05181 2.343957,-0.05139 3.175,0.0011 0.83104,0.05234 0.08223,0.09473 -1.664015,0.09421 -1.74625,-5.29e-4 -2.426195,-0.04334 -1.510985,-0.09516 z m 8.108923,-1.986648 -0.777105,-0.859896 0.859896,0.777105 c 0.801544,0.724371 0.981511,0.942687 0.777105,0.942687 -0.04554,0 -0.432488,-0.386954 -0.859896,-0.859896 z m -3.428455,-3.704167 -2.375733,-2.447396 2.447396,2.375734 c 1.346067,1.306653 2.447395,2.407981 2.447395,2.447396 0,0.1921 -0.312531,-0.102648 -2.519058,-2.375734 z m -5.029848,-5.291666 -1.579218,-1.653646 1.653645,1.579218 c 1.536097,1.466959 1.77472,1.728074 1.579219,1.728074 -0.04094,0 -0.785077,-0.744141 -1.653646,-1.653646 z m -2.155195,-2.38125 c -0.294759,-0.327422 -0.630637,-0.773906 -0.746395,-0.992188 -0.223298,-0.421069 -0.162391,-0.36348 0.909434,0.859896 0.35061,0.400182 0.57794,0.727604 0.505179,0.727604 -0.07276,0 -0.373459,-0.26789 -0.668218,-0.595312 z m -1.38751,-2.469444 c 0.0127,-0.308225 0.07539,-0.37092 0.159851,-0.159853 0.07643,0.190996 0.06703,0.419199 -0.02087,0.507118 -0.08792,0.08792 -0.150453,-0.06835 -0.138965,-0.347265 z m 12.408686,-4.012848 -2.243116,-2.315104 2.315104,2.243117 c 1.273307,1.233714 2.315104,2.275511 2.315104,2.315104 0,0.192514 -0.303752,-0.09292 -2.387092,-2.243117 z m -12.408686,1.367014 c 0.0127,-0.308224 0.07539,-0.370919 0.159851,-0.159852 0.07643,0.190996 0.06703,0.419199 -0.02087,0.507118 -0.08792,0.08792 -0.150453,-0.06835 -0.138965,-0.347266 z m 0.508278,-1.417545 c 0,-0.136932 0.1177,-0.32171 0.261554,-0.410617 0.149982,-0.09269 0.194337,0.01351 0.103984,0.248969 -0.175892,0.458369 -0.365538,0.542234 -0.365538,0.161648 z m 1.322917,-1.735406 c 0.493654,-0.509323 0.957085,-0.926042 1.029846,-0.926042 0.07276,0 -0.271608,0.416719 -0.765263,0.926042 -0.493654,0.509323 -0.957085,0.926041 -1.029845,0.926041 -0.07276,0 0.271608,-0.416718 0.765262,-0.926041 z m 7.408333,-0.949683 c -0.569852,-0.46611 -0.581051,-0.501741 -0.08088,-0.257277 0.319317,0.15607 0.653764,0.402186 0.743217,0.546924 0.238807,0.386397 0.07842,0.31626 -0.662337,-0.289647 z M 84.63913,40.435624 c 0.190995,-0.07643 0.419201,-0.06703 0.507119,0.02089 0.08792,0.08792 -0.06835,0.150452 -0.347265,0.138964 -0.308227,-0.0127 -0.37092,-0.07539 -0.159854,-0.159853 z"
         id="path723" />
      <path
         style="fill:#EF8354;stroke-width:0.264583"
         d="m 84.109964,100.49604 c 0.190995,-0.0764 0.4192,-0.067 0.507119,0.0209 0.08792,0.0879 -0.06835,0.15045 -0.347266,0.13896 -0.308226,-0.0127 -0.370919,-0.0754 -0.159853,-0.15985 z m 3.175,0 c 0.190995,-0.0764 0.4192,-0.067 0.507119,0.0209 0.08792,0.0879 -0.06835,0.15045 -0.347266,0.13896 -0.308226,-0.0127 -0.370919,-0.0754 -0.159853,-0.15985 z m 4.547526,-3.126552 c 0.790421,-0.800365 1.496663,-1.455209 1.569423,-1.455209 0.07276,0 -0.514418,0.654844 -1.30484,1.455209 -0.790422,0.800364 -1.496663,1.455208 -1.569424,1.455208 -0.07276,0 0.514419,-0.654844 1.304841,-1.455208 z M 79.947129,96.289107 c 0.0127,-0.308227 0.07539,-0.37092 0.15985,-0.159854 0.07643,0.190995 0.06703,0.419201 -0.02087,0.507119 -0.08792,0.08792 -0.150453,-0.06835 -0.138965,-0.347265 z m 0,-3.175 c 0.0127,-0.308227 0.07539,-0.37092 0.15985,-0.159854 0.07643,0.190995 0.06703,0.419198 -0.02087,0.507119 -0.08792,0.08792 -0.150453,-0.06835 -0.138965,-0.347265 z m 1.169736,-2.226911 c 0.26339,-0.291042 0.538422,-0.529167 0.611182,-0.529167 0.07276,0 -0.08321,0.238125 -0.346599,0.529167 -0.26339,0.291042 -0.538422,0.529167 -0.611182,0.529167 -0.07276,0 0.08321,-0.238125 0.346599,-0.529167 z M 83.354766,88.4398 c 1.096423,-1.168185 1.333974,-1.378238 1.333974,-1.179568 0,0.04246 -0.565547,0.60801 -1.256771,1.256771 l -1.256771,1.179568 z m 3.979807,-4.299479 c 0.790422,-0.800364 1.496663,-1.455208 1.569424,-1.455208 0.07276,0 -0.514419,0.654844 -1.304841,1.455208 -0.790421,0.800365 -1.496663,1.455209 -1.569423,1.455209 -0.07276,0 0.514419,-0.654844 1.30484,-1.455209 z m 3.571875,-3.836458 c 0.568388,-0.582083 1.092967,-1.058333 1.165728,-1.058333 0.07276,0 -0.332756,0.47625 -0.901145,1.058333 -0.568388,0.582083 -1.092967,1.058333 -1.165727,1.058333 -0.07276,0 0.332756,-0.47625 0.901144,-1.058333 z m 23.680212,-5.688541 c 1.81464,-1.819011 3.35888,-3.307292 3.43164,-3.307292 0.0728,0 -1.35242,1.488281 -3.16706,3.307292 -1.81464,1.81901 -3.35888,3.307291 -3.43164,3.307291 -0.0728,0 1.35241,-1.488281 3.16706,-3.307291 z m -25.736633,2.587167 c 0.469696,-0.05845 1.303134,-0.05941 1.852083,-0.0021 0.548947,0.05728 0.164651,0.105098 -0.853995,0.106273 -1.018646,0.0011 -1.467787,-0.04569 -0.998088,-0.104138 z M 20.990304,76.946478 c 0.254661,-0.06655 0.67138,-0.06655 0.926042,0 0.254661,0.06655 0.0463,0.121002 -0.463021,0.121002 -0.509323,0 -0.717682,-0.05445 -0.463021,-0.121002 z m 57.161003,-0.01408 c 0.988316,-0.05105 2.536129,-0.05066 3.439583,7.94e-4 0.903451,0.05151 0.09483,0.09327 -1.796942,0.09281 -1.89177,-5.29e-4 -2.630961,-0.0426 -1.642641,-0.09365 z M 40.834054,76.681895 c 0.254661,-0.06655 0.67138,-0.06655 0.926041,0 0.254662,0.06655 0.0463,0.121002 -0.463021,0.121002 -0.509323,0 -0.717682,-0.05445 -0.46302,-0.121002 z m 20.249493,-0.01299 c 0.768863,-0.05362 1.959488,-0.05306 2.645833,0.0013 0.686345,0.0543 0.05728,0.09817 -1.397931,0.09748 -1.455209,-7.94e-4 -2.016765,-0.04512 -1.247902,-0.09873 z M 23.856623,76.503243 c 0.06063,-0.05305 0.4079,-0.23821 0.771702,-0.41147 0.623694,-0.297034 0.632136,-0.291526 0.147867,0.09645 -0.42148,0.337678 -1.282663,0.632693 -0.919569,0.31502 z m 20.086285,-0.515504 c 0,-0.04554 0.386953,-0.432488 0.859895,-0.859896 l 0.859896,-0.777105 -0.777105,0.859896 c -0.724371,0.801545 -0.942686,0.981512 -0.942686,0.777105 z m -7.957527,-0.909397 -0.641432,-0.727604 0.727605,0.641432 c 0.680056,0.599517 0.848939,0.813777 0.641432,0.813777 -0.04739,0 -0.374814,-0.327422 -0.727605,-0.727605 z m -10.298723,0.363125 c 0,-0.05494 0.208359,-0.2633 0.463021,-0.463021 0.419644,-0.329107 0.429002,-0.319749 0.0999,0.0999 -0.345644,0.44073 -0.562916,0.580888 -0.562916,0.363125 z m 29.070416,-0.363125 c -0.329108,-0.419645 -0.319749,-0.429003 0.0999,-0.0999 0.254661,0.199721 0.463021,0.40808 0.463021,0.463021 0,0.217763 -0.217274,0.0776 -0.562917,-0.363125 z m -38.099998,-0.79375 c -0.329107,-0.419645 -0.319749,-0.429003 0.0999,-0.0999 0.254661,0.199721 0.463021,0.40808 0.463021,0.463021 0,0.217763 -0.217273,0.07761 -0.562916,-0.363125 z m 10.902553,-2.072568 c 0.01269,-0.308226 0.07539,-0.370919 0.159853,-0.159853 0.07643,0.190994 0.06703,0.419198 -0.02089,0.507119 -0.08792,0.08792 -0.150453,-0.06835 -0.138964,-0.347266 z m 6.900054,-0.110244 c 0,-0.363802 0.06005,-0.51263 0.133453,-0.330729 0.0734,0.181901 0.0734,0.479557 0,0.661458 -0.0734,0.181901 -0.133453,0.03307 -0.133453,-0.330729 z m 11.946461,-1.190625 c 0.0016,-0.873125 0.05088,-1.198414 0.109765,-0.722865 0.05889,0.475548 0.05767,1.189923 -0.0027,1.5875 -0.06037,0.397576 -0.10855,0.0085 -0.107065,-0.864635 z M 15.708166,70.646572 c 0.002,-0.727604 0.05337,-0.993857 0.114186,-0.591675 0.06081,0.402183 0.05919,0.997495 -0.0036,1.322917 -0.0628,0.325421 -0.11256,-0.0036 -0.110574,-0.731242 z m 37.251464,0.771702 c 0.0127,-0.308226 0.07539,-0.370919 0.15985,-0.159853 0.07643,0.190994 0.06703,0.419198 -0.02088,0.507119 -0.08792,0.08792 -0.150453,-0.06835 -0.138965,-0.347266 z M 34.459683,69.72053 c 0,-0.363802 0.06005,-0.51263 0.133453,-0.330729 0.0734,0.181901 0.0734,0.479557 0,0.661458 -0.0734,0.181901 -0.133453,0.03307 -0.133453,-0.330729 z M 106.25118,58.277301 94.346031,46.304906 106.31843,58.210052 c 11.12809,11.065589 12.09126,12.039645 11.90514,12.039645 -0.037,0 -5.42456,-5.387578 -11.97239,-11.972396 z m -53.29155,11.28889 c 0.0127,-0.308227 0.07539,-0.37092 0.15985,-0.159854 0.07643,0.190995 0.06703,0.419198 -0.02088,0.507119 -0.08792,0.08792 -0.150453,-0.06835 -0.138965,-0.347265 z M 15.897075,68.756865 c 0,-0.141963 0.185162,-0.489228 0.411471,-0.771703 0.387979,-0.484269 0.393486,-0.475826 0.09645,0.147868 -0.385713,0.809898 -0.507924,0.959998 -0.507924,0.623835 z m 18.785416,0 c 0,-0.141963 0.185161,-0.489228 0.411472,-0.771703 0.387977,-0.484269 0.393486,-0.475826 0.09645,0.147868 -0.385712,0.809898 -0.507923,0.959998 -0.507922,0.623835 z m -8.751275,-2.145189 -0.641433,-0.727604 0.727604,0.641432 c 0.680056,0.599517 0.848939,0.813776 0.641433,0.813776 -0.04739,0 -0.374816,-0.327422 -0.727604,-0.727604 z m 10.074192,0.06615 c 0.341775,-0.363802 0.680939,-0.661458 0.7537,-0.661458 0.07276,0 -0.147341,0.297656 -0.489117,0.661458 -0.341775,0.363802 -0.680939,0.661458 -0.7537,0.661458 -0.07276,0 0.147341,-0.297656 0.489117,-0.661458 z m -18.25625,-0.232188 c 0,-0.05494 0.20836,-0.2633 0.463021,-0.463021 0.419644,-0.329107 0.429002,-0.319749 0.0999,0.0999 -0.345644,0.44073 -0.562916,0.580888 -0.562916,0.363125 z m 1.252361,-0.991269 c 0.179476,-0.180822 0.39297,-0.262115 0.474432,-0.180652 0.08146,0.08146 -0.06538,0.229406 -0.326319,0.328765 -0.377084,0.143585 -0.407475,0.113194 -0.148113,-0.148113 z m 2.258404,-0.679688 c 0.257431,-0.06708 0.614618,-0.06267 0.79375,0.0098 0.179131,0.07248 -0.03149,0.127362 -0.468056,0.12197 -0.436563,-0.0054 -0.583125,-0.06469 -0.325694,-0.131773 z m 18.784019,-0.0065 c 0.402182,-0.06082 0.997495,-0.05919 1.322916,0.0036 0.325422,0.0628 -0.0037,0.112559 -0.731242,0.110575 -0.727604,-0.0021 -0.993857,-0.05337 -0.591674,-0.114186 z m 17.855736,0.0031 c 0.327422,-0.06307 0.863203,-0.06307 1.190625,0 0.327422,0.06306 0.05953,0.114663 -0.595312,0.114663 -0.654844,0 -0.922735,-0.0516 -0.595313,-0.114663 z m 6.879167,-0.273756 c 0.909505,-0.05166 2.397786,-0.05166 3.307291,0 0.909505,0.05167 0.165365,0.09394 -1.653646,0.09394 -1.81901,0 -2.563151,-0.04227 -1.653645,-0.09394 z M 79.198636,64.23436 c 0.691224,-0.0545 1.822317,-0.0545 2.513541,0 0.691224,0.0545 0.125678,0.0991 -1.25677,0.0991 -1.382448,0 -1.947995,-0.04459 -1.256771,-0.0991 z m 9.921875,-0.263835 c 0.618463,-0.0557 1.630494,-0.0557 2.248958,0 0.618463,0.05571 0.112448,0.101283 -1.124479,0.101283 -1.236927,0 -1.742943,-0.04558 -1.124479,-0.101283 z m 3.619121,-0.60003 c 0,-0.342699 0.08946,-0.432152 0.260805,-0.260802 0.171347,0.171347 0.171347,0.350258 0,0.521605 -0.171349,0.171349 -0.260805,0.0819 -0.260805,-0.260803 z m -1.456335,-2.050521 -0.641432,-0.727604 0.727604,0.641432 c 0.400182,0.35279 0.727604,0.680212 0.727604,0.727604 0,0.207508 -0.21426,0.03862 -0.813776,-0.641432 z m -4.351806,-4.630208 -2.110459,-2.182812 2.182812,2.110459 c 2.02733,1.960131 2.303433,2.255166 2.110459,2.255166 -0.03979,0 -1.022058,-0.982266 -2.182812,-2.182813 z m -4.37366,-4.630208 -0.911799,-0.992187 0.992187,0.911798 c 0.545703,0.501489 0.992188,0.947974 0.992188,0.992188 0,0.202041 -0.223896,0.01172 -1.072576,-0.911799 z M 80.950823,50.20751 c -0.329107,-0.419644 -0.319749,-0.429002 0.0999,-0.09989 0.254662,0.199719 0.463021,0.408079 0.463021,0.463021 0,0.217761 -0.217273,0.0776 -0.562917,-0.363126 z m -1.222444,-3.373438 c 0.0029,-0.582083 0.05712,-0.789054 0.120407,-0.459936 0.06329,0.329119 0.06088,0.805369 -0.0053,1.058334 -0.06622,0.252965 -0.117999,-0.01631 -0.115062,-0.598398 z m 10.901037,-3.902604 -1.045885,-1.124479 1.12448,1.045884 c 0.618463,0.575236 1.124479,1.081252 1.124479,1.124479 0,0.200178 -0.230413,-1.29e-4 -1.203074,-1.045884 z m -9.909426,0.495418 c 0,-0.05494 0.208359,-0.263302 0.463021,-0.463021 0.419645,-0.329107 0.429003,-0.319749 0.0999,0.0999 -0.345644,0.440729 -0.562917,0.580887 -0.562917,0.363126 z m 1.455208,-1.487605 c 0.26339,-0.291042 0.538422,-0.529167 0.611182,-0.529167 0.07276,0 -0.08321,0.238125 -0.346598,0.529167 -0.26339,0.291042 -0.538422,0.529167 -0.611183,0.529167 -0.07276,0 0.08321,-0.238125 0.346599,-0.529167 z m 3.508814,-1.510046 c 0.329118,-0.06329 0.805368,-0.06088 1.058334,0.0053 0.252965,0.06622 -0.01632,0.118003 -0.598398,0.115067 -0.582083,-0.0029 -0.789053,-0.05712 -0.459936,-0.120406 z"
         id="path721" />
      <path
         style="fill:#EF8354;stroke-width:0.264583"
         d="m 85.28769,100.48692 c 0.402183,-0.0608 0.997495,-0.0592 1.322917,0.004 0.325422,0.0628 -0.0037,0.11256 -0.731242,0.11057 -0.727604,-0.002 -0.993857,-0.0534 -0.591675,-0.11418 z m -2.490176,-0.72416 c -1.079757,-0.733713 -2.611985,-2.684333 -2.596335,-3.305291 0.0057,-0.225994 0.171492,-0.04071 0.368438,0.411739 0.196945,0.452454 0.804362,1.268921 1.349816,1.814378 0.545458,0.545454 1.361925,1.152871 1.814378,1.349814 0.452451,0.19695 0.641916,0.36274 0.421034,0.36844 -0.220879,0.006 -0.831678,-0.28189 -1.357331,-0.63908 z m 5.576287,0.106334 c 1.241097,-0.563044 4.033977,-3.259625 20.615689,-19.904834 4.89745,-4.91621 8.93823,-9.088633 8.97951,-9.272056 0.10513,-0.467156 -27.268477,-27.646547 -29.043395,-28.837332 -0.798422,-0.535659 -1.322303,-0.973924 -1.164177,-0.973924 0.158126,0 0.811379,0.375534 1.451676,0.834521 1.527755,1.095146 29.077716,28.539189 29.077716,28.965925 0,0.515789 -27.494862,27.955027 -28.951086,28.892515 -0.716174,0.461061 -1.490081,0.835671 -1.719792,0.832481 -0.229714,-0.003 0.109524,-0.24498 0.753859,-0.537296 z m -8.371888,-5.14544 c 0.0021,-0.727604 0.05337,-0.993857 0.114187,-0.591674 0.06082,0.402182 0.05919,0.997495 -0.0036,1.322917 -0.0628,0.325421 -0.112559,-0.0037 -0.110574,-0.731243 z m 0.212773,-1.893197 c -0.02845,-0.67995 0.863634,-1.784106 4.990288,-6.176594 8.204522,-8.733044 8.471487,-9.088228 7.021118,-9.341218 -0.608801,-0.106193 -0.603237,-0.113239 0.06615,-0.08372 0.522718,0.02304 0.753051,0.18724 0.808736,0.576493 0.08429,0.589216 -0.214218,0.936373 -7.826317,9.101872 -2.701949,2.898381 -4.668118,5.230757 -4.804783,5.699697 -0.178972,0.614108 -0.236725,0.664683 -0.255188,0.223469 z m 4.407908,-15.897491 c 0.909505,-0.05166 2.397786,-0.05166 3.307292,0 0.909505,0.05166 0.165364,0.09394 -1.653646,0.09394 -1.819011,0 -2.563151,-0.04227 -1.653646,-0.09394 z M 21.77123,76.608139 c 2.438812,-0.24897 4.034266,-1.248973 5.028207,-3.151594 0.406617,-0.778354 0.739304,-1.236457 0.739304,-1.018006 0,0.218453 -0.386953,0.976191 -0.859895,1.683861 -1.15922,1.734553 -3.128364,2.757287 -5.206819,2.704317 l -1.47391,-0.03757 z m 18.881044,-0.119821 c 3.139347,-0.519489 4.181967,-1.172324 5.000334,-3.130953 0.453247,-1.08477 0.53952,-3.518331 0.160107,-4.51626 -0.135773,-0.357108 -0.630515,-1.086249 -1.099428,-1.620311 -1.937075,-2.206209 -4.629084,-2.636885 -7.11499,-1.138285 -1.900293,1.145572 -2.651223,2.537169 -2.651223,4.913162 0,2.086848 0.738265,3.540789 2.429402,4.784465 0.612936,0.450758 0.964147,0.819561 0.780468,0.819561 -0.183682,0 -0.966364,-0.6324 -1.739297,-1.405332 -1.153329,-1.153329 -1.459537,-1.658091 -1.707626,-2.814892 -0.890482,-4.152169 2.048179,-7.637322 6.215975,-7.371937 3.048577,0.194117 5.1553,2.312075 5.350597,5.379125 0.130548,2.050248 -0.271999,3.333673 -1.457031,4.645361 -1.057526,1.170556 -1.894596,1.485389 -4.448529,1.673151 l -1.852084,0.13616 z m 28.244125,0.177942 c 2.301033,-0.04409 5.991971,-0.044 8.202083,2.04e-4 2.210109,0.04421 0.327446,0.08028 -4.1837,0.08017 -4.511146,-1.14e-4 -6.319419,-0.03628 -4.018383,-0.08038 z M 18.527552,75.966424 c -1.100849,-0.748046 -2.477549,-2.633162 -2.281065,-3.123461 0.08905,-0.222203 0.145386,-0.180375 0.158867,0.117951 0.026,0.575291 1.735597,2.499788 2.799013,3.150846 0.436562,0.267277 0.67256,0.486405 0.524439,0.486947 -0.14812,5.29e-4 -0.688685,-0.283983 -1.201254,-0.632283 z M 56.49967,76.10237 c -1.630939,-0.740833 -3.33134,-3.051381 -3.278645,-4.455112 0.0097,-0.259337 0.172611,0.02381 0.36195,0.629213 0.462211,1.477912 1.277209,2.571147 2.469353,3.312385 0.848225,0.527397 1.45378,0.635249 4.294746,0.764905 l 3.307291,0.150937 -3.042708,0.04169 c -2.450833,0.03358 -3.250708,-0.05279 -4.111987,-0.444016 z M 15.931818,70.778863 c -0.01465,-0.945885 0.06851,-1.869664 0.184797,-2.052843 0.116291,-0.183179 0.167114,0.412133 0.112941,1.322916 -0.142774,2.400409 -0.267138,2.705296 -0.297738,0.729927 z m 11.647788,0.264584 c -0.02645,-0.509323 -0.109354,-1.223698 -0.184233,-1.5875 l -0.136142,-0.661459 0.284619,0.652344 c 0.15654,0.358791 0.239444,1.073166 0.184232,1.5875 l -0.100386,0.935156 z m 25.40091,-0.529167 c 0,-0.363802 0.06005,-0.51263 0.133453,-0.330729 0.0734,0.181901 0.0734,0.479557 0,0.661458 -0.0734,0.181901 -0.133453,0.03307 -0.133453,-0.330729 z m 0.23958,-1.072679 c -0.02934,-0.719521 1.505537,-2.845527 2.656033,-3.678944 0.789511,-0.571918 1.386229,-0.795049 2.063247,-0.771509 l 0.95249,0.03312 -1.058334,0.174448 c -1.710065,0.281874 -3.53365,1.961229 -4.335555,3.992652 -0.14361,0.363802 -0.268658,0.476409 -0.277881,0.250238 z M 26.640504,67.844267 c -0.260451,-0.440907 -0.956665,-1.151621 -1.547144,-1.579359 -0.590478,-0.427741 -0.984816,-0.777711 -0.876306,-0.777711 0.648794,0 3.339833,2.715882 3.013946,3.041769 -0.06432,0.06432 -0.330046,-0.243793 -0.590496,-0.684699 z M 16.638211,67.711075 c 0.160523,-0.304834 0.684514,-0.849053 1.164424,-1.20937 0.816256,-0.612849 1.828829,-1.254914 1.534023,-0.972712 -1.66574,1.594527 -2.925466,2.613197 -2.698447,2.182082 z m 4.352093,-2.677969 c 0.400182,-0.06062 1.055026,-0.06062 1.455208,0 0.400183,0.06062 0.07276,0.110222 -0.727604,0.110222 -0.800364,0 -1.127786,-0.0496 -0.727604,-0.110222 z m 40.613541,-0.271923 c 1.200546,-0.04903 3.165078,-0.04903 4.365625,0 1.200546,0.04903 0.218281,0.08914 -2.182813,0.08914 -2.401094,0 -3.383359,-0.04011 -2.182812,-0.08914 z M 72.59898,64.495734 c 1.71808,-0.04616 4.456518,-0.046 6.085417,2.65e-4 1.628899,0.04634 0.223197,0.08411 -3.123782,0.08392 -3.346979,-1.85e-4 -4.679714,-0.0381 -2.961635,-0.08426 z m 12.407106,-0.263675 c 1.265947,-0.0484 3.409072,-0.04862 4.7625,-5.3e-4 1.353429,0.04812 0.317654,0.08771 -2.301721,0.08799 -2.619375,2.65e-4 -3.726725,-0.03909 -2.460779,-0.08748 z m 7.758306,-0.436222 c 0.48074,-0.351525 0.447849,-0.433525 -0.71636,-1.785937 -0.671131,-0.779621 -3.152486,-3.441557 -5.514125,-5.915411 -5.694122,-5.964685 -6.401456,-6.909665 -6.554637,-8.756828 -0.293176,-3.535304 2.68241,-6.759281 6.164678,-6.679285 l 1.322917,0.03039 -1.5875,0.184417 c -1.944381,0.225875 -2.931478,0.718271 -4.155138,2.072718 -1.184744,1.311371 -1.626114,2.634344 -1.477349,4.428256 0.149863,1.807139 0.84846,2.726119 6.830234,8.984914 5.600764,5.86014 6.4017,6.814894 6.186789,7.37494 -0.09081,0.236649 -0.353721,0.430268 -0.584247,0.430268 -0.341892,0 -0.326277,-0.0679 0.08474,-0.368443 z"
         id="path719" />
      <path
         style="fill:#000000;stroke-width:0.264583"
         d="m 83.733811,100.0334 c -1.089324,-0.47416 -2.717594,-2.126679 -3.175632,-3.222921 -0.428387,-1.025271 -0.473226,-2.753461 -0.10576,-4.076142 0.181981,-0.655032 1.612795,-2.383681 4.82717,-5.831988 9.494922,-10.185926 9.138105,-9.531969 5.362276,-9.827694 C 89.332177,76.972079 81.367526,76.766 72.942637,76.616701 58.09326,76.353552 57.588682,76.327829 56.44855,75.7759 c -1.430912,-0.692692 -2.559183,-2.181862 -2.979013,-3.931909 -0.384543,-1.602951 -0.199575,-2.527644 0.810697,-4.052879 1.071877,-1.618237 2.433531,-2.480149 4.214757,-2.667897 0.800364,-0.08436 8.420364,-0.278281 16.933332,-0.430935 8.512969,-0.152657 15.973594,-0.339619 16.57917,-0.415475 2.264373,-0.283641 2.074698,-0.588243 -4.930381,-7.917733 -5.981774,-6.258795 -6.680371,-7.177775 -6.830234,-8.984914 -0.149384,-1.801379 0.292902,-3.116652 1.497232,-4.452481 1.20664,-1.338394 2.697686,-2.027447 4.40337,-2.034919 1.094513,-0.0048 1.58028,0.164485 2.778125,0.968114 1.774918,1.190785 29.148525,28.370176 29.043395,28.837332 -0.0413,0.183423 -4.08206,4.355846 -8.97951,9.272056 -16.581712,16.645209 -19.374592,19.34179 -20.615689,19.904834 -1.357588,0.615896 -3.433649,0.689406 -4.63999,0.164306 z M 19.204367,76.11176 c -1.282333,-0.785088 -2.7326,-2.572208 -2.926612,-3.606377 -0.09811,-0.522988 -0.1268,-1.66407 -0.06375,-2.535737 0.104771,-1.448454 0.214026,-1.686118 1.2695,-2.761567 1.618756,-1.649394 2.615297,-2.06597 4.634639,-1.937388 1.986694,0.126503 3.454393,0.978508 4.557751,2.645794 0.61202,0.924827 0.729283,1.384577 0.729863,2.861563 5.82e-4,1.49597 -0.118885,1.953297 -0.797144,3.051374 -1.492691,2.416614 -5.27873,3.583649 -7.404247,2.282338 z m 18.186129,-0.310827 c -1.709023,-1.27271 -2.443422,-2.716988 -2.443422,-4.805262 0,-2.375993 0.75093,-3.76759 2.651223,-4.913162 2.485906,-1.4986 5.177915,-1.067924 7.11499,1.138285 1.104807,1.258308 1.347555,1.941688 1.340477,3.773731 -0.01339,3.462563 -1.709666,5.094441 -5.687578,5.471618 -1.785081,0.169256 -1.885207,0.146873 -2.97569,-0.66521 z"
         id="path717" />
  </g>
</svg>
