<?xml version="1.0" encoding="UTF-8" ?>
<svg xmlns="http://www.w3.org/2000/svg" width="512" height="512" id="fe_flecha" version="1.1" viewBox="0 0 135.49791 135.49791">
    <g transform="translate(-1.1027181,3.308168)">
    <path
       style="fill:#ff7f2a;stroke-width:1.2837"
       d="m 582.50875,650.56824 c -6.94246,-2.39269 -14.55686,-8.95665 -19.04993,-16.4219 -2.54304,-4.22527 -3.08584,-6.84011 -3.06447,-14.76251 0.0221,-8.17468 0.55892,-10.528 3.55719,-15.59279 1.94216,-3.28078 17.37519,-19.86086 34.29561,-36.84462 16.92042,-16.98378 30.7644,-31.42319 30.7644,-32.0876 0,-0.6644 -0.91373,-1.55865 -2.03054,-1.9872 -1.11679,-0.42856 -41.52607,-0.77919 -89.79838,-0.77919 -86.38934,0 -94.30715,-0.34063 -94.30715,-4.05715 0,-0.5927 -0.78536,-1.07764 -1.74526,-1.07764 -3.12328,0 -10.06491,-8.40874 -13.32644,-16.14297 -5.19531,-12.31989 -2.0726,-24.60244 8.94694,-35.19101 9.53014,-9.15741 7.72459,-8.99978 103.08631,-8.99978 46.81239,0 86.02719,-0.35064 87.14398,-0.77919 3.36505,-1.29129 2.33116,-4.12255 -3.71231,-10.16602 -3.15857,-3.15857 -6.01948,-5.74285 -6.3576,-5.74285 -1.52689,0 -50.85046,-50.48351 -53.47915,-54.73681 -4.0896,-6.61712 -4.39574,-23.54516 -0.53079,-29.35086 1.41206,-2.12113 3.19231,-5.00945 3.95609,-6.41848 0.76378,-1.40904 2.64118,-3.13212 4.17202,-3.82906 1.53082,-0.69695 2.78331,-1.69612 2.78331,-2.22038 0,-0.52427 2.45507,-2.23859 5.45571,-3.80961 6.75231,-3.53525 18.91859,-3.84654 24.71117,-0.63225 2.1181,1.17532 4.63592,2.14051 5.59515,2.14486 1.4568,0.007 142.60814,140.19079 147.5007,146.49006 1.36527,1.75778 0.56632,3.14704 -5.35222,9.3068 -3.82638,3.98231 -7.5846,7.24058 -8.35161,7.24058 -0.76703,0 -1.39459,0.57004 -1.39459,1.26676 0,1.11826 -5.11226,6.8171 -16.42373,18.30818 -1.91046,1.9408 -3.90682,3.52937 -4.43634,3.53017 -0.52953,7.8e-4 -0.96278,0.81979 -0.96278,1.82001 0,1.0002 -0.55365,2.01112 -1.23036,2.24647 -1.62964,0.56676 -30.85955,29.37063 -30.87083,30.42089 -0.005,0.44865 -2.02665,2.18994 -4.49294,3.86952 -2.46629,1.67959 -4.48417,3.60882 -4.48417,4.28718 0,1.63037 -5.34112,6.04084 -7.38126,6.09514 -0.88254,0.0235 -1.60462,0.87329 -1.60462,1.88845 0,1.01515 -3.75912,5.20321 -8.35358,9.3068 -4.59447,4.10359 -8.67704,8.47198 -9.07238,9.70754 -0.39535,1.23556 -1.24675,2.24647 -1.89201,2.24647 -1.61564,0 -16.62555,15.04481 -16.62555,16.66421 0,0.71915 -0.43325,1.30783 -0.96277,1.30816 -0.52953,3.5e-4 -5.29525,4.04371 -10.5905,8.98527 -5.29525,4.94155 -9.99918,8.98491 -10.45316,8.98526 -0.45399,3.3e-4 -1.15793,0.86711 -1.56434,1.92616 -0.40639,1.05905 -2.08565,1.92555 -3.73169,1.92555 -1.64604,0 -3.58581,0.59301 -4.31061,1.31782 -2.35971,2.35971 -13.61188,2.55165 -20.02452,0.34156 z"
       id="path3065" />
    <path
       style="fill:#ff7f2a;stroke-width:1.2837"
       d="m 582.5522,649.6713 c -5.82805,-2.08107 -12.00252,-7.16434 -17.07234,-14.0552 -3.24659,-4.41274 -3.91131,-6.63543 -4.30277,-14.38761 -0.72447,-14.34658 -1.73202,-12.93079 39.91504,-56.08758 18.89126,-19.57607 27.94609,-29.84371 27.45263,-31.12965 -0.63432,-1.65302 -7.5438,-1.93799 -49.87803,-2.05709 -27.02793,-0.076 -68.00228,-0.50928 -91.05411,-0.96277 l -41.91241,-0.82452 -6.22623,-5.26571 c -11.39073,-9.63348 -16.16022,-24.52448 -11.45891,-35.7763 2.29161,-5.48459 11.55111,-15.63292 16.68698,-18.28878 5.03362,-2.60299 14.58662,-2.95749 107.91302,-4.00453 69.43103,-0.77896 75.75597,-1.02835 76.13508,-3.00206 0.26736,-1.39183 -10.70261,-13.33153 -31.04141,-33.78542 -20.16635,-20.28048 -32.402,-33.5894 -34.094,-37.0846 -5.94876,-12.28849 -1.89755,-29.17438 9.1245,-38.03194 9.59022,-7.70692 18.65407,-9.37691 30.36502,-5.59469 5.92625,1.91396 12.45758,8.00348 76.43473,71.26437 38.4751,38.04437 71.7587,71.44926 73.96353,74.23309 l 4.00879,5.0615 -9.37184,9.50496 c -21.27395,21.57617 -73.17735,73.63485 -76.45092,76.67964 -1.93833,1.80286 -11.90036,11.88762 -22.13784,22.41056 -25.69498,26.41145 -39.46243,38.58967 -46.3284,40.98053 -6.87861,2.39527 -14.32721,2.46871 -20.67011,0.2038 z"
       id="path3104" />
    <path
       style="fill:#ff7f2a;stroke-width:1.2837"
       d="m 354.8424,532.2463 c -4.73246,-1.22521 -15.06279,-8.75386 -16.9445,-12.349 -7.21452,-13.78378 -8.03516,-19.7424 -4.14982,-30.13171 1.59147,-4.25554 3.40081,-7.73735 4.02076,-7.73735 0.61995,0 1.12718,-0.82757 1.12718,-1.83904 0,-1.01147 1.15533,-2.20573 2.56739,-2.6539 1.41207,-0.44817 2.5674,-1.34386 2.5674,-1.99042 0,-0.64657 2.86911,-2.62946 6.37581,-4.40644 12.45012,-6.30895 27.00493,-3.85599 37.46426,6.31397 5.03952,4.9001 10.04607,15.38138 10.06266,21.06632 0.0178,6.09324 -3.71039,18.13912 -6.56103,21.19892 -1.32677,1.42412 -2.4123,2.99783 -2.4123,3.49713 0,0.4993 -2.77124,2.68612 -6.1583,4.85959 -4.91629,3.15478 -7.95831,4.07712 -15.08344,4.57329 -4.90883,0.34184 -10.70306,0.16123 -12.87607,-0.40136 z"
       id="path3143" />
    <path
       style="fill:#ff7f2a;stroke-width:1.2837"
       d="m 305.77015,500.64185 c 0.0262,-2.1181 0.31386,-2.82919 0.63934,-1.58019 0.32547,1.24899 0.30407,2.98198 -0.0476,3.85109 -0.35163,0.8691 -0.61793,-0.1528 -0.59177,-2.2709 z"
       id="path3182" />
    <path
       style="fill:#d38d5f;stroke-width:1.2837"
       d="m 261.23235,532.36312 c -11.68517,-4.19297 -21.181,-14.34961 -21.181,-22.65498 0,-1.72597 -0.54216,-3.47321 -1.20479,-3.88274 -0.66264,-0.40953 -0.94302,-2.0322 -0.62307,-3.60592 0.31995,-1.57373 0.82043,-5.26449 1.11218,-8.20169 0.99959,-10.06345 6.53359,-17.07686 18.04559,-22.86969 15.45911,-7.77902 34.61009,-1.08436 43.01248,15.03599 3.96381,7.60474 3.91806,22.16595 -0.0907,28.86556 -7.38129,12.33591 -14.68678,17.07762 -27.34566,17.74903 -5.03669,0.26713 -10.31295,0.0711 -11.72502,-0.43556 z"
       id="path3221" />
    <path
       style="fill:#ff9955;stroke-width:1.2837"
       d="m 582.5522,649.6713 c -5.83208,-2.08251 -12.00311,-7.16515 -17.08365,-14.07058 -3.57702,-4.86186 -3.85109,-6.02267 -3.85109,-16.31077 0,-10.76706 0.12931,-11.24236 4.63028,-17.01956 2.54666,-3.26876 17.74104,-19.5818 33.76529,-36.25122 16.02426,-16.66943 28.91226,-30.97783 28.64001,-31.79647 -0.36472,-1.09668 -23.27291,-1.73529 -87.03872,-2.42638 -47.59904,-0.51587 -88.96551,-1.26836 -91.92549,-1.67219 -6.72556,-0.91757 -16.97122,-10.05249 -20.82895,-18.57086 -5.51013,-12.1671 -2.62642,-23.96747 8.54634,-34.97222 4.9148,-4.8409 7.46679,-6.30791 12.69937,-7.30025 3.60169,-0.68305 42.29621,-1.58329 85.98783,-2.00053 83.45971,-0.79702 92.91931,-1.1673 92.91627,-3.63708 -10e-4,-0.83174 -14.16435,-15.93769 -31.47404,-33.56878 -19.04829,-19.40196 -32.47642,-34.131 -34.01611,-37.31158 -9.52408,-19.67414 6.70355,-45.20169 28.90665,-45.47278 13.09766,-0.15992 12.07509,-1.02265 88.67355,74.8126 39.12694,38.73708 72.32727,72.0986 73.77851,74.1367 l 2.63866,3.70562 -19.00237,19.39749 c -14.87647,15.18583 -51.09566,51.32242 -66.95418,66.80151 -1.1618,1.13399 -10.7773,10.92937 -21.36781,21.76751 -26.55552,27.17648 -40.1074,39.16625 -46.97024,41.55602 -6.87861,2.39527 -14.32721,2.46871 -20.67011,0.2038 z"
       id="path3334" />
    <path
       style="fill:#ff9955;stroke-width:1.2837"
       d="m 349.1656,528.52465 c -7.6644,-5.00552 -10.84349,-8.65597 -14.03421,-16.11503 -7.76375,-18.14954 3.49851,-38.71647 23.73478,-43.34404 13.2701,-3.03458 27.81248,4.72863 34.84137,18.59948 4.39554,8.67416 3.72048,19.4018 -1.84341,29.29458 -5.69588,10.12747 -12.90039,14.17215 -26.41159,14.82771 -9.88573,0.47965 -10.85358,0.28577 -16.28694,-3.2627 z"
       id="path3410" />
    <path
       style="fill:#ff9955;stroke-width:1.2837"
       d="m 256.73941,529.57477 c -7.69081,-4.11539 -14.05489,-11.77767 -16.13268,-19.4236 -1.90653,-7.01567 -1.5131,-16.37275 0.96656,-22.98814 1.82756,-4.87569 8.66664,-11.41321 15.69769,-15.00551 22.08339,-11.28283 48.59033,7.88272 45.19209,32.67563 -1.53279,11.18286 -11.26826,23.20214 -20.9774,25.89839 -7.69947,2.13816 -19.63102,1.58042 -24.74626,-1.15677 z"
       id="path3449" />
    <path
       style="fill:#000000;stroke-width:1.2837"
       d="m 274.47047,464.46327 c 0.92667,-0.37082 2.03386,-0.32522 2.46042,0.10134 0.42657,0.42656 -0.33162,0.72996 -1.68485,0.67423 -1.49543,-0.0616 -1.79961,-0.36578 -0.77557,-0.77557 z"
       id="path3829" />
    <path
       style="fill:#000000;stroke-width:1.2837"
       d=""
       id="path3868" />
    <path
       style="fill:#000000;stroke-width:1.2837"
       d=""
       id="path3907" />
    <path
       style="fill:#000000;stroke-width:1.2837"
       d="m 581.77469,648.84629 c -5.23545,-2.10092 -11.63551,-7.73661 -15.62377,-13.75778 -3.47555,-5.24714 -3.8911,-6.91538 -3.88681,-15.60384 0.004,-7.37859 0.60921,-10.71986 2.50701,-13.83232 1.37621,-2.25706 11.62758,-13.7457 22.78082,-25.53032 25.0123,-26.42822 41.45775,-44.54556 41.45882,-45.67361 10e-4,-1.66685 -19.60551,-2.35447 -99.76039,-3.49855 -80.07605,-1.14296 -81.20722,-1.19512 -85.66467,-3.94997 -14.38084,-8.88786 -20.47885,-26.05518 -13.88015,-39.07589 3.42953,-6.76726 13.21248,-16.07784 18.34595,-17.46014 2.77348,-0.74683 40.55146,-1.84564 88.72308,-2.58061 46.14112,-0.704 85.77035,-1.62848 88.06496,-2.0544 2.29461,-0.42592 4.17201,-1.46862 4.17201,-2.3171 0,-0.84849 -12.49631,-14.50371 -27.7696,-30.34494 -32.08902,-33.28229 -37.13355,-39.26517 -39.0229,-46.28165 -4.32158,-16.04914 8.49964,-35.09675 25.83736,-38.38478 9.36326,-1.7757 14.43255,-0.0312 24.94808,8.58529 13.06263,10.70362 143.24154,140.60164 142.81387,142.50571 -0.47836,2.1297 -130.34976,132.4164 -140.25661,140.70514 -4.22025,3.53093 -9.54509,7.20201 -11.83297,8.15795 -4.6866,1.95819 -17.48169,2.18653 -21.95409,0.39181 z"
       id="path4022" />
    <path
       style="fill:#000000;stroke-width:1.2837"
       d=""
       id="path4061" />
    <path
       style="fill:#000000;stroke-width:1.2837"
       d="m 577.51403,645.23881 c -3.18289,-2.01854 -7.62846,-6.45006 -9.87905,-9.84782 -3.6985,-5.58371 -4.09151,-7.11324 -4.08718,-15.90632 0.004,-7.17378 0.62316,-10.73989 2.3595,-13.57966 1.29509,-2.1181 10.67997,-12.77221 20.85528,-23.67581 33.11756,-35.48788 42.20076,-45.61947 42.22506,-47.09874 0.0132,-0.80019 -1.27583,-1.79796 -2.86441,-2.21725 -1.58857,-0.41929 -36.39281,-1.34145 -77.34274,-2.04924 -108.06599,-1.86785 -103.27895,-1.41695 -111.85886,-10.53622 -11.53728,-12.26256 -12.11581,-26.85861 -1.54074,-38.87253 9.2199,-10.47435 9.84194,-10.65306 40.22887,-11.55781 14.8267,-0.44146 54.48329,-1.35455 88.12575,-2.0291 33.64246,-0.67455 62.0924,-1.58114 63.22208,-2.01463 1.12968,-0.4335 2.05396,-1.55199 2.05396,-2.48554 0,-0.93355 -8.80937,-11.01879 -19.57638,-22.41165 -43.6952,-46.23507 -47.17586,-50.64858 -47.17586,-59.81932 0,-8.85712 2.77738,-14.95074 10.21938,-22.42156 11.83946,-11.88528 22.70686,-13.13604 35.9196,-4.13411 3.91823,2.66952 38.54729,36.14887 76.95347,74.39856 l 69.82941,69.54488 -3.94127,4.90954 c -8.38623,10.44651 -137.33312,137.73712 -143.33975,141.49859 -5.55229,3.47696 -7.49378,3.97579 -15.47396,3.97579 -7.8337,0 -9.94407,-0.51939 -14.91216,-3.67005 z"
       id="path4507" />
    <path
       style="fill:#000000;stroke-width:1.2837"
       d=""
       id="path4546" />
    <path
       style="fill:#000000;stroke-width:1.2837"
       d="m 348.52375,527.25241 c -10.88509,-8.05105 -14.76252,-15.04041 -14.76252,-26.61056 0,-12.80352 6.4367,-22.61957 18.61361,-28.386 11.104,-5.25835 22.51832,-3.52167 32.06088,4.87802 7.58171,6.67369 10.94297,13.9739 10.94297,23.76669 0,10.12316 -4.85999,19.89559 -12.59962,25.3352 -4.87645,3.4273 -6.63154,3.86568 -17.27424,4.31473 -11.47207,0.48403 -12.0085,0.37985 -16.98108,-3.29808 z"
       id="path4585" />
    <path
       style="fill:#000000;stroke-width:1.2837"
       d=""
       id="path4624" />
    <path
       style="fill:#4d4d4d;stroke-width:1.2837"
       d="m 263.79974,530.91037 c -6.88954,-1.18625 -9.48048,-2.75508 -15.70826,-9.51142 -5.71848,-6.20382 -8.02581,-12.35578 -8.02581,-21.39895 0,-9.41492 2.13341,-14.69055 8.20329,-20.28557 8.50677,-7.84126 13.01587,-9.79542 22.59112,-9.79057 23.15988,0.0117 37.99851,23.67531 27.65081,44.09552 -6.69453,13.21101 -19.60277,19.49237 -34.71115,16.89099 z"
       id="path4700" />
    <path
       style="fill:#4d4d4d;stroke-width:1.2837"
       d="m 346.23319,524.24439 c -8.21293,-7.03938 -11.18826,-13.14275 -11.18826,-22.95078 0,-13.27875 5.2357,-21.74433 17.23324,-27.86437 8.87547,-4.52744 20.12393,-3.87008 27.95482,1.63367 9.1067,6.40044 13.05704,13.266 13.6477,23.71931 0.67825,12.00339 -3.67225,21.49147 -12.38908,27.01952 -5.36837,3.40452 -6.86612,3.72258 -17.4939,3.715 l -11.62287,-0.008 z"
       id="path4776" />
    <path
       style="fill:#000000;stroke-width:1.2837"
       d="m 577.25584,645.07507 c -3.38154,-2.14451 -7.73454,-6.49751 -9.87905,-9.87905 -3.38585,-5.33895 -3.83322,-7.17828 -3.82899,-15.74259 0.004,-7.15954 0.62303,-10.70516 2.36719,-13.54842 1.29931,-2.1181 10.10652,-12.17429 19.57158,-22.3471 42.48993,-45.66709 44.66091,-48.18937 42.95084,-49.90093 -1.09063,-1.09155 -42.39253,-2.40707 -122.01892,-3.88647 -63.47623,-1.17933 -61.46507,-0.90606 -69.49686,-9.44276 -11.53728,-12.26256 -12.11581,-26.85861 -1.54074,-38.87253 9.17655,-10.4251 9.92196,-10.64258 39.58702,-11.54989 14.47368,-0.44268 54.1474,-1.36463 88.16382,-2.04878 34.01642,-0.68415 62.75519,-1.59202 63.86393,-2.01748 1.10874,-0.42547 2.01589,-1.50691 2.01589,-2.40322 0,-0.89631 -9.0982,-11.2677 -20.21823,-23.04755 -42.8631,-45.40643 -46.53401,-50.08054 -46.53401,-59.25113 0,-8.85712 2.77738,-14.95074 10.21938,-22.42156 11.8391,-11.88492 22.71629,-13.13728 35.90646,-4.13411 3.911,2.66952 38.56313,36.11974 77.00473,74.33382 l 69.89383,69.48015 -3.99254,4.97427 c -8.4177,10.48755 -137.36072,137.78704 -143.39102,141.56333 -5.55229,3.47696 -7.49378,3.97579 -15.47396,3.97579 -7.92459,0 -9.9204,-0.50438 -15.17035,-3.83379 z"
       id="path4815" />
    <path
       style="fill:#000000;stroke-width:1.2837"
       d="m 260.05872,529.46932 c -4.73433,-1.41578 -13.06071,-9.41114 -16.26505,-15.61844 -3.06075,-5.92913 -3.39061,-21.16199 -0.57612,-26.60461 2.87873,-5.56687 13.26016,-14.03419 19.15697,-15.62485 22.39949,-6.04226 43.82567,14.80466 37.48392,36.47051 -4.92899,16.83933 -22.82726,26.45291 -39.79972,21.37739 z"
       id="path4891" />
    <path
       id="path4930"
       style="fill:#000000;stroke-width:1.2837"
       d="m 365.75586,471.38281 c -10.62757,-0.24562 -21.74157,5.74787 -26.91602,15.89063 -3.19567,6.26402 -3.42081,20.05016 -0.42968,26.35351 1.14521,2.41335 5.03924,7.04644 8.65234,10.29493 l 6.56836,5.90624 10.92578,-0.85351 c 19.23477,-1.50184 28.25391,-10.21495 28.25391,-27.29297 0,-13.10581 -4.18209,-20.54657 -15.1875,-27.01953 -3.62468,-2.13189 -7.70858,-3.18319 -11.86719,-3.2793 z" />
  </g>
</svg>
