<?xml version="1.0" encoding="UTF-8" ?>
<svg xmlns="http://www.w3.org/2000/svg" width="512" height="512" id="fe_persona" version="1.1" viewBox="0 0 135.49791 135.49791">
    <g transform="translate(-1.1027181,3.308168)">
      <path
         style="fill:#ee8354;stroke-width:0.254223"
         d="m 34.330191,125.05684 c -6.499275,-0.59667 -11.029613,-4.23523 -12.542149,-10.07326 -0.47257,-1.82401 -0.554217,-9.10837 -0.146337,-13.05581 1.322085,-12.795083 5.568098,-22.493385 11.398432,-26.035129 1.84553,-1.121099 4.808059,-2.114246 6.907756,-2.31573 l 1.64621,-0.15797 3.813351,2.477758 c 4.536537,2.947654 7.89899,4.587507 11.882068,5.794831 7.669573,2.324753 14.926021,2.163817 22.581307,-0.500812 3.481305,-1.211764 5.972259,-2.491939 10.480049,-5.386012 l 3.759237,-2.413493 1.557713,0.176235 c 9.377512,1.060946 15.087282,8.725572 17.623422,23.657189 0.753,4.433263 1.21777,12.685933 0.88171,15.656033 -0.67556,5.9708 -4.21047,10.08409 -10.08452,11.73455 l -1.98917,0.55891 -32.794818,0.0414 c -18.037149,0.0228 -33.775567,-0.0486 -34.974261,-0.15869 z M 63.075979,57.424208 C 58.799733,56.792069 54.493883,54.61613 51.053948,51.348933 47.536664,48.00827 45.398307,44.615176 44.204136,40.479815 c -0.498547,-1.726451 -0.570607,-2.552008 -0.561219,-6.429688 0.01,-4.121644 0.06249,-4.617217 0.71389,-6.736919 1.353506,-4.404435 4.174254,-8.499325 7.960873,-11.556828 2.578443,-2.081962 4.899586,-3.337262 7.83473,-4.237106 2.114577,-0.648279 2.62524,-0.702554 6.736919,-0.716017 5.020927,-0.01644 6.798221,0.3361 10.220139,2.027257 6.036732,2.983431 10.60564,8.355674 12.579013,14.790731 0.631054,2.057827 0.68467,2.575367 0.679194,6.555994 -0.0054,3.949454 -0.06459,4.514705 -0.686551,6.560862 -1.168777,3.845081 -2.867208,6.68097 -5.867595,9.797192 -3.427864,3.560208 -7.862194,5.964709 -12.48746,6.771288 -2.347476,0.409366 -5.93093,0.460457 -8.25009,0.117627 z"
         id="path367" />
      <path
         style="fill:#000000;stroke-width:0.254223"
         d="m 34.014934,132.66606 c -9.909066,-0.8175 -17.023758,-6.47644 -19.628147,-15.612 -0.663719,-2.32817 -0.812301,-11.56478 -0.26377,-16.39741 1.241192,-10.93505 4.14406,-19.481539 8.646289,-25.455997 4.239704,-5.626085 10.374336,-8.869343 17.579006,-9.293664 2.387971,-0.140639 2.667035,-0.105676 3.989777,0.499897 0.78222,0.358112 3.00854,1.677058 4.94738,2.930995 4.067566,2.630683 5.399745,3.339102 8.276453,4.401199 6.814018,2.515776 12.751885,2.611001 19.496343,0.312656 3.439113,-1.171964 4.939379,-1.938211 9.265908,-4.732485 4.727413,-3.053182 5.693902,-3.485613 7.797313,-3.488717 4.014612,-0.0059 8.835914,1.392493 12.433104,3.606217 9.48227,5.835443 15.14185,20.282342 15.31669,39.098159 0.0471,5.0721 -0.215,7.23528 -1.24307,10.25792 -1.72522,5.07238 -5.37796,9.14925 -10.40752,11.61597 -2.67291,1.31092 -5.38037,1.98725 -9.13832,2.28278 -3.691442,0.29029 -63.515262,0.26754 -67.067436,-0.0255 z m 69.974766,-7.75818 c 5.99748,-1.46799 9.73041,-5.71989 10.41331,-11.86104 0.28911,-2.59991 -0.0506,-10.78172 -0.59883,-14.423974 -1.52538,-10.133586 -4.5531,-17.326341 -9.01035,-21.405365 -1.70484,-1.560171 -4.810349,-3.111417 -7.270583,-3.631764 -3.208282,-0.678558 -3.314359,-0.650161 -7.32651,1.961354 -4.323643,2.814268 -7.514019,4.428762 -11.109404,5.621926 -8.576617,2.846239 -16.414293,2.528331 -25.276319,-1.025245 -3.09246,-1.240043 -3.08466,-1.235762 -8.321403,-4.568592 -4.145763,-2.638501 -4.245009,-2.665039 -7.454635,-1.993482 -9.024518,1.888218 -14.640543,11.138296 -16.520664,27.210962 -0.505914,4.32493 -0.50725,12.1527 -0.0024,14.29378 1.241988,5.26771 5.184253,8.81541 11.184413,10.06501 0.279646,0.0582 16.059609,0.11916 35.066584,0.13538 30.940765,0.0264 34.732811,-0.0133 36.226831,-0.37895 z M 62.059085,64.960833 C 56.122324,63.905043 51.961953,62.026955 47.384053,58.336178 41.957635,53.961314 38.153576,47.952488 36.595962,41.295494 35.921841,38.414408 35.680057,32.434782 36.116883,29.447306 c 0.937998,-6.415013 3.740549,-12.019872 8.448662,-16.896601 4.82775,-5.0006477 10.411891,-8.0080897 16.995034,-9.1529874 3.326975,-0.5786061 9.887512,-0.3832456 12.945573,0.385495 11.91129,2.994282 21.316292,13.2049014 23.272444,25.2659294 1.3899,8.569687 -0.884839,17.544936 -6.099866,24.067739 -4.832303,6.044105 -11.019315,9.978672 -18.179593,11.561126 -2.576424,0.569402 -8.943497,0.726812 -11.440052,0.282826 z m 11.487808,-7.872546 c 5.195312,-1.541005 9.332388,-4.421844 12.624853,-8.791276 1.750638,-2.323273 2.825987,-4.483005 3.774828,-7.581368 0.622659,-2.033245 0.678614,-2.574111 0.676417,-6.538404 -0.002,-3.659322 -0.08801,-4.633551 -0.560908,-6.355584 C 87.662034,19.082021 79.869591,11.994117 71.168028,10.635869 68.425294,10.207748 62.657245,10.484127 60.32292,11.155517 c -6.378314,1.834506 -12.130169,6.817943 -15.02724,13.01968 -1.678261,3.592642 -1.910258,4.811779 -1.903335,10.002042 0.0057,4.264534 0.05387,4.731763 0.707801,6.864031 1.641744,5.3532 5.286232,10.137117 10.090507,13.245244 2.804506,1.814377 5.250221,2.726953 9.393773,3.505125 0.349557,0.06565 2.237165,0.08165 4.194685,0.03556 2.917059,-0.06868 3.957569,-0.201978 5.767782,-0.738916 z"
         id="path365" />
  </g>
</svg>
