<?xml version="1.0" encoding="UTF-8" ?>
<svg xmlns="http://www.w3.org/2000/svg" width="512" height="512" id="fe_inicisessio" version="1.1" viewBox="0 0 135.49791 135.49791">
    <g transform="translate(-1.1027181,3.308168)">
      <path
         style="fill:#eba92a;stroke-width:0.194771"
         d="m 83.882752,111.75418 c 0,-0.1008 0.08664,-0.23683 0.192541,-0.30227 0.110408,-0.0682 0.14306,0.01 0.07655,0.18327 -0.129482,0.33743 -0.269088,0.39917 -0.269088,0.119 z"
         id="path606" />
      <path
         style="fill:#eaa622;stroke-width:0.194771"
         d="m 94.010862,94.918811 c 0,-0.04044 0.153382,-0.193826 0.34085,-0.340849 0.308919,-0.242271 0.315808,-0.235382 0.07354,0.07354 -0.254444,0.324441 -0.414388,0.427617 -0.414388,0.267312 z"
         id="path604" />
      <path
         style="fill:#eaa41d;stroke-width:0.194771"
         d="m 87.193865,91.778622 c 0.251596,-0.267811 0.501269,-0.486928 0.554831,-0.486928 0.05356,0 -0.108464,0.219117 -0.36006,0.486928 -0.251596,0.267811 -0.501269,0.486928 -0.554831,0.486928 -0.05356,0 0.108464,-0.219117 0.36006,-0.486928 z m 1.558171,-1.729094 c 0,-0.04044 0.153382,-0.193827 0.340849,-0.34085 0.308919,-0.24227 0.315808,-0.235381 0.07354,0.07354 -0.254443,0.32444 -0.414387,0.427616 -0.414387,0.267312 z"
         id="path602" />
      <path
         style="fill:#eaa218;stroke-width:0.194771"
         d="m 79.062161,117.06202 c 0.187467,-0.049 0.494232,-0.049 0.6817,0 0.187467,0.049 0.03409,0.0891 -0.34085,0.0891 -0.374935,0 -0.528318,-0.0401 -0.34085,-0.0891 z m 8.716018,-25.953602 c 0,-0.100802 0.08664,-0.236827 0.192541,-0.302274 0.110408,-0.06824 0.14306,0.01 0.07655,0.183276 -0.129482,0.337426 -0.269088,0.399163 -0.269088,0.118998 z"
         id="path600" />
      <path
         style="fill:#e9a014;stroke-width:0.194771"
         d="m 90.115435,88.686128 c 0,-0.04044 0.153382,-0.193827 0.34085,-0.34085 0.308919,-0.24227 0.315808,-0.235381 0.07354,0.07354 -0.254444,0.324441 -0.414388,0.427617 -0.414388,0.267312 z"
         id="path598" />
      <path
         style="fill:#e99e0d;stroke-width:0.194771"
         d="m 93.037005,96.282211 c 0,-0.04044 0.153383,-0.193827 0.34085,-0.34085 0.308919,-0.24227 0.315808,-0.235381 0.07354,0.07354 -0.254444,0.32444 -0.414388,0.427616 -0.414388,0.267312 z M 106.08669,75.246905 c 0,-0.04044 0.15338,-0.193827 0.34085,-0.34085 0.30891,-0.24227 0.3158,-0.235381 0.0735,0.07354 -0.25444,0.32444 -0.41438,0.427617 -0.41438,0.267312 z"
         id="path596" />
      <path
         style="fill:#e89c09;stroke-width:0.194771"
         d="m 96.49095,82.697585 c 0.132121,-0.133111 0.289282,-0.192954 0.34925,-0.132986 0.05997,0.05997 -0.04813,0.168877 -0.240217,0.242019 -0.277588,0.105699 -0.29996,0.08333 -0.109033,-0.109033 z"
         id="path594" />
      <path
         style="fill:#e89a05;stroke-width:0.194771"
         d="m 89.156955,102.08527 c 0.0093,-0.2269 0.0555,-0.27305 0.117673,-0.11767 0.05626,0.1406 0.04935,0.30859 -0.01537,0.37331 -0.06472,0.0647 -0.110755,-0.0503 -0.102298,-0.25564 z"
         id="path592" />
      <path
         style="fill:#e89900;stroke-width:0.194771"
         d="m 77.796147,116.56921 c -0.401716,-0.23284 -0.730392,-0.48925 -0.730392,-0.5698 0,-0.0806 -0.200276,-0.36256 -0.445059,-0.62668 -0.244783,-0.26413 -0.539254,-0.68497 -0.654381,-0.9352 -0.772677,-1.67946 -1.559369,-3.14702 -1.859883,-3.46958 -0.193484,-0.20768 -0.35179,-0.46817 -0.35179,-0.57887 0,-0.1107 -0.175295,-0.31074 -0.389543,-0.44454 -0.214249,-0.1338 -0.3904,-0.33175 -0.391446,-0.43988 -0.0033,-0.34427 -0.924868,-2.1933 -1.296108,-2.6006 -0.60397,-0.66264 -0.864208,-1.00452 -0.764649,-1.00452 0.164793,0 -1.456309,-2.78019 -2.214597,-3.79804 -1.136033,-1.52489 -2.150197,-3.537745 -2.150197,-4.267589 0,-0.360001 0.122558,-0.890779 0.272348,-1.179504 0.331764,-0.639471 1.006082,-1.292561 1.167703,-1.13094 0.06497,0.06497 0.118119,0.01587 0.118119,-0.109113 0,-0.329342 1.567029,-0.285036 2.41247,0.06821 0.716102,0.299206 1.192896,0.631441 1.992148,1.388147 0.242582,0.229669 0.486911,0.371724 0.542955,0.31568 0.05604,-0.05604 0.214343,0.144896 0.351778,0.446531 0.137435,0.301636 0.79807,1.075529 1.468077,1.719763 0.67001,0.644231 1.218198,1.278975 1.218198,1.410545 0,0.13156 0.119907,0.35911 0.266461,0.50567 0.146553,0.14655 0.328156,0.46085 0.403564,0.69844 0.07541,0.23759 0.212133,0.38561 0.303832,0.32893 0.0917,-0.0567 0.229664,0.0954 0.306587,0.33803 0.2239,0.70607 1.018458,1.86761 1.427185,2.08636 0.339943,0.18193 0.480515,-0.0111 1.463629,-2.01009 0.598162,-1.21624 1.087568,-2.31098 1.087568,-2.43275 0,-0.12178 0.153383,-0.375537 0.34085,-0.563906 0.473513,-0.475794 1.606864,-2.27255 1.606864,-2.54744 0,-0.124527 0.08765,-0.226412 0.194771,-0.226412 0.107124,0 0.194771,-0.118672 0.194771,-0.263717 0,-0.145042 0.219118,-0.500147 0.486929,-0.78912 0.26781,-0.288972 0.486928,-0.602174 0.486928,-0.696004 0,-0.09383 0.219118,-0.342957 0.486929,-0.553618 0.26781,-0.21066 0.486928,-0.447395 0.486928,-0.526079 0,-0.07868 0.266227,-0.46048 0.591616,-0.84844 0.325389,-0.387957 0.99394,-1.187437 1.485667,-1.77662 1.121856,-1.344195 3.96616,-4.28497 4.144407,-4.28497 0.07335,0 0.428166,-0.39345 0.788477,-0.874334 0.360312,-0.480885 0.689666,-0.839782 0.731897,-0.79755 0.04223,0.04223 0.525168,-0.39628 1.07319,-0.974468 0.548024,-0.578189 1.16894,-1.106011 1.379811,-1.172941 0.210873,-0.06693 0.576979,-0.330556 0.813567,-0.585839 0.236589,-0.255283 0.529669,-0.464151 0.65129,-0.464151 0.121622,0 0.22113,-0.08174 0.22113,-0.181646 0,-0.09991 0.172727,-0.236468 0.38384,-0.303473 0.211111,-0.067 0.711231,-0.467323 1.111375,-0.889595 0.400146,-0.422274 0.840949,-0.767771 0.979562,-0.767771 0.138617,0 0.252027,-0.09282 0.252027,-0.206267 0,-0.113447 0.0708,-0.162517 0.1573,-0.109049 0.0865,0.05347 0.31791,-0.11665 0.51421,-0.378047 0.1963,-0.261397 0.459,-0.475265 0.58377,-0.475265 0.12478,0 0.56307,-0.394412 0.97397,-0.876471 0.41091,-0.48206 0.82613,-0.876472 0.9227,-0.876472 0.19747,0 0.41591,-0.172177 1.54568,-1.218337 0.43443,-0.402277 0.85996,-0.688094 0.94562,-0.635153 0.0857,0.05294 0.27126,-0.04292 0.41244,-0.213034 0.47024,-0.566607 2.48023,-2.023674 2.79161,-2.023674 0.16882,0 0.28504,-0.09534 0.25826,-0.211872 -0.0268,-0.11653 0.2502,-0.375985 0.61552,-0.576566 0.36531,-0.20058 0.75534,-0.455826 0.86673,-0.567213 0.11138,-0.111386 0.36028,-0.20252 0.55311,-0.20252 0.19282,0 0.35058,-0.08765 0.35058,-0.194771 0,-0.107124 0.0657,-0.177406 0.14608,-0.156181 0.29838,0.07882 0.99019,-0.25763 1.09583,-0.532934 0.0601,-0.156608 0.28434,-0.284742 0.49832,-0.284742 0.41009,0 1.8221,-0.593227 1.92108,-0.807101 0.0319,-0.06897 0.22912,-0.08066 0.43823,-0.02598 0.24653,0.06447 0.38021,0.267135 0.38021,0.576442 0,0.582415 -0.34902,1.278531 -0.57195,1.140754 -0.0896,-0.05536 -0.2052,0.06128 -0.25696,0.259206 -0.0517,0.19792 -0.33989,0.421545 -0.6403,0.496943 -0.66629,0.167227 -2.23145,1.264573 -2.23145,1.564483 0,0.11943 -0.26469,0.373502 -0.5882,0.564602 -1.05594,0.623765 -6.68005,6.479398 -7.49481,7.803356 -0.21425,0.348146 -0.54657,0.788964 -0.73848,0.979599 -0.19192,0.190632 -0.67398,0.834591 -1.07124,1.431018 -0.39727,0.596427 -0.85378,1.281175 -1.01447,1.521663 -0.16068,0.240486 -0.57701,0.670685 -0.92516,0.955998 -0.34815,0.285313 -0.63301,0.666396 -0.63301,0.846854 0,0.18046 -0.701173,1.025171 -1.558167,1.877138 -0.856994,0.851967 -1.558171,1.665819 -1.558171,1.808561 0,0.14274 -0.08063,0.209697 -0.179176,0.148792 -0.208318,-0.128748 -0.989452,0.798247 -0.989452,1.17421 0,0.140167 -0.165041,0.370447 -0.36676,0.511735 -0.695509,0.487156 -4.588392,5.84709 -4.390458,6.045026 0.04464,0.04464 -0.137602,0.286696 -0.40499,0.537893 -0.267388,0.2512 -0.486161,0.57292 -0.486161,0.71493 0,0.14202 -0.08765,0.25821 -0.194771,0.25821 -0.107125,0 -0.194772,0.12074 -0.194772,0.26831 0,0.14757 -0.13147,0.37742 -0.292157,0.51078 -0.160686,0.13335 -0.292157,0.36846 -0.292157,0.52246 0,0.15399 -0.306765,0.68175 -0.6817,1.17278 -0.374934,0.49104 -0.681699,1.01167 -0.681699,1.15695 0,0.14528 -0.08355,0.26415 -0.185658,0.26415 -0.102111,0 -0.351434,0.3725 -0.554049,0.82777 -0.202616,0.45528 -0.732601,1.42095 -1.177743,2.14592 -0.445142,0.72498 -0.809349,1.35531 -0.809349,1.40075 0,0.0717 -0.875994,1.95067 -2.666336,5.71916 -0.953959,2.00798 -2.874736,2.73826 -4.588897,1.74469 z"
         id="path590" />
      <path
         style="fill:#000000;stroke-width:0.194771"
         d="m 35.33832,116.42852 c -2.851307,-0.91149 -5.25731,-3.39925 -6.088088,-6.29496 -0.277058,-0.9657 -0.311567,-1.98433 -0.24744,-7.30393 0.06615,-5.487353 0.124186,-6.421716 0.516688,-8.31828 2.408756,-11.639051 10.432377,-21.156984 21.343056,-25.317968 1.62727,-0.62059 2.528629,-0.899869 4.742928,-1.469563 l 0.84103,-0.216381 -1.825613,-1.90203 c -2.735131,-2.849616 -4.564747,-5.858339 -5.794419,-9.528663 -1.698308,-5.069113 -1.618166,-11.139283 0.215719,-16.33877 2.924794,-8.292466 9.92304,-14.285192 18.86932,-16.158144 2.037482,-0.426558 6.82086,-0.476235 8.959482,-0.09305 5.107941,0.915214 9.825142,3.375793 13.44554,7.013444 3.682345,3.699892 6.112417,8.352831 7.030762,13.462028 0.37969,2.112392 0.327431,6.906564 -0.09766,8.959482 -1.879173,9.075141 -8.177644,16.270567 -16.677982,19.053067 -3.094118,1.012828 -3.387647,1.042708 -11.881052,1.209427 -8.592596,0.168664 -10.015841,0.3035 -13.347646,1.264529 -1.833505,0.528859 -5.15872,2.025132 -6.811189,3.064883 -6.898508,4.340616 -11.54432,11.344574 -12.88425,19.424103 -0.212344,1.280394 -0.315426,3.296526 -0.333725,6.527156 -0.02464,4.35114 4.68e-4,4.72027 0.363066,5.33586 0.501148,0.85081 1.19986,1.36469 2.157559,1.58681 0.424776,0.0985 7.855542,0.17958 16.735262,0.18257 15.58898,0.005 15.986444,0.0147 16.606037,0.39241 0.950424,0.57948 1.408856,1.4671 1.408856,2.72785 0,1.26074 -0.458432,2.14837 -1.408856,2.72785 -0.620979,0.37862 -1.005472,0.38682 -17.67728,0.37729 -15.977707,-0.009 -17.112319,-0.0321 -18.160101,-0.36702 z M 77.383491,66.171583 c 6.225401,-1.707915 11.139468,-6.514077 13.049464,-12.762917 0.491794,-1.608979 0.536749,-2.024872 0.547374,-5.064055 0.01011,-2.893097 -0.04465,-3.505245 -0.433812,-4.848839 -3.58214,-12.367498 -17.403245,-17.624953 -28.203973,-10.728601 -3.356791,2.143338 -6.34358,6.196687 -7.603472,10.318614 -0.491794,1.608978 -0.536749,2.024872 -0.547374,5.064055 -0.01293,3.699857 0.245963,5.016007 1.535893,7.807888 3.789943,8.202833 13.056131,12.573167 21.6559,10.213855 z"
         id="path588" />
  </g>
</svg>
