<?xml version="1.0" encoding="UTF-8" ?>
<svg xmlns="http://www.w3.org/2000/svg" width="512" height="512" id="fe_instagram" version="1.1" viewBox="0 0 135.49791 135.49791">
    <g transform="translate(-1.1027181,3.308168)">
      <path
         style="fill:#f6f8f9;stroke-width:0.360426"
         d="m 53.876901,99.046679 c -7.406608,-1.148578 -11.68057,-5.480076 -12.758155,-12.929907 -0.191318,-1.32265 -0.347848,-7.189481 -0.347848,-13.0374 0,-15.324242 0.526994,-17.904827 4.45951,-21.837343 3.932515,-3.932516 6.5131,-4.45951 21.83734,-4.45951 15.32424,0 17.904825,0.526994 21.837341,4.45951 4.07475,4.074751 4.605615,6.964077 4.390394,23.89554 -0.139312,10.960086 -0.207289,11.988332 -0.936139,14.160994 -1.47998,4.411732 -4.656375,7.588938 -9.072406,9.07472 -2.209126,0.743265 -3.062403,0.793083 -14.957697,0.873281 -6.938209,0.04678 -13.441762,-0.04317 -14.45234,-0.199885 z M 82.72197,94.175396 c 2.397816,-0.89598 4.620656,-3.182782 5.472743,-5.630218 0.618096,-1.77536 0.678835,-3.159127 0.678835,-15.465806 0,-15.503821 -0.09918,-16.157123 -2.873925,-18.931877 -2.774754,-2.77475 -3.428056,-2.873925 -18.931875,-2.873925 -15.503819,0 -16.15712,0.09918 -18.931874,2.873925 -2.77475,2.774754 -2.873925,3.428056 -2.873925,18.931877 0,11.967305 0.0726,13.723793 0.633575,15.329543 1.213621,3.473866 3.837854,5.608726 7.739672,6.296362 0.945283,0.166589 7.476505,0.264986 14.513832,0.218657 11.418879,-0.07518 12.986362,-0.15569 14.572942,-0.748538 z M 63.82391,85.865144 c -4.002622,-1.101096 -7.934701,-4.767257 -9.267609,-8.640868 -0.793356,-2.305594 -0.793356,-5.984215 0,-8.289809 2.007399,-5.833762 8.675886,-9.964379 14.375385,-8.904444 3.015645,0.560816 5.215021,1.71089 7.34477,3.840639 3.387306,3.387307 4.692922,7.679615 3.642409,11.974684 -1.779671,7.27626 -9.223194,11.910174 -16.094955,10.019798 z m 6.309034,-4.372045 c 3.324336,-1.132713 5.945465,-4.842009 5.945465,-8.413727 0,-4.751946 -4.258716,-9.010662 -9.010661,-9.010662 -2.176943,0 -4.698486,1.075253 -6.316949,2.693712 -3.528632,3.528636 -3.525763,9.108132 0.0065,12.640394 2.503302,2.503303 5.924776,3.266113 9.375647,2.090283 z m 9.889158,-20.120415 c -1.932693,-1.044707 -2.075339,-3.400228 -0.28198,-4.656346 1.18585,-0.8306 2.231252,-0.712996 3.317455,0.373203 1.16399,1.16399 1.210218,2.327854 0.139254,3.50589 -1.051457,1.15658 -2.029849,1.396116 -3.174729,0.777253 z"
         id="path209" />
      <path
         style="fill:#EF8354;stroke-width:0.360426"
         d="m 33.908516,40.865334 c 0,-0.07484 0.283836,-0.35868 0.630746,-0.630746 0.571658,-0.448324 0.584406,-0.435576 0.136083,0.136081 -0.47085,0.60038 -0.766829,0.791309 -0.766829,0.494665 z"
         id="path207" />
      <path
         style="fill:#EF8354;stroke-width:0.360426"
         d="m 60.534096,79.296728 c -0.448323,-0.571658 -0.435575,-0.584406 0.136083,-0.136082 0.34691,0.272068 0.630746,0.555903 0.630746,0.630746 0,0.296645 -0.295978,0.105717 -0.766829,-0.494664 z m 12.300475,0.494664 c 0,-0.07484 0.283836,-0.358678 0.630747,-0.630746 0.571658,-0.448324 0.584406,-0.435576 0.136082,0.136082 -0.47085,0.600381 -0.766829,0.791309 -0.766829,0.494664 z M 60.219646,67.176465 c 0,-0.07484 0.283836,-0.358678 0.630746,-0.630746 0.571658,-0.448324 0.584406,-0.435575 0.136083,0.136083 -0.47085,0.60038 -0.766829,0.791309 -0.766829,0.494663 z m 12.929376,-0.494663 c -0.448324,-0.571658 -0.435576,-0.584407 0.136082,-0.136083 0.600381,0.47085 0.791309,0.766829 0.494664,0.766829 -0.07484,0 -0.358678,-0.283836 -0.630746,-0.630746 z"
         id="path205" />
      <path
         style="fill:#EF8354;stroke-width:0.360426"
         d="m 55.804422,94.811023 c 0.446028,-0.08591 1.175891,-0.08591 1.621919,0 0.446028,0.08591 0.0811,0.156198 -0.810959,0.156198 -0.892056,0 -1.256988,-0.07029 -0.81096,-0.156198 z m 20.904734,0 c 0.446027,-0.08591 1.175891,-0.08591 1.621918,0 0.446028,0.08591 0.0811,0.156198 -0.810959,0.156198 -0.892055,0 -1.256987,-0.07029 -0.810959,-0.156198 z M 52.943537,94.458749 c 0.260181,-0.104116 0.571049,-0.09131 0.690819,0.02844 0.119766,0.119766 -0.09311,0.204953 -0.47306,0.189303 -0.419879,-0.0173 -0.505282,-0.1027 -0.217759,-0.217755 z m 27.752836,0 c 0.260181,-0.104116 0.571052,-0.09131 0.690819,0.02844 0.119766,0.119766 -0.09311,0.204953 -0.47306,0.189303 -0.419879,-0.0173 -0.505282,-0.1027 -0.217759,-0.217755 z M 49.151199,92.937292 c -1.315186,-0.952716 -2.988184,-3.103712 -2.988184,-3.841941 0,-0.164091 0.471456,0.445065 1.047677,1.353675 0.579893,0.914395 1.746633,2.070885 2.613091,2.59014 0.86098,0.515965 1.387011,0.939657 1.168961,0.941531 -0.218051,0.0018 -1.046747,-0.467656 -1.841545,-1.043405 z m 35.160514,0.101874 c 0.866458,-0.519255 2.033198,-1.675745 2.613092,-2.59014 0.576221,-0.90861 1.047677,-1.482409 1.047677,-1.275106 0,1.184935 -3.711448,4.819616 -4.908298,4.806777 -0.17484,-0.0018 0.38655,-0.425566 1.247529,-0.941531 z m -38.841095,-6.11341 c 0.0173,-0.419878 0.1027,-0.505281 0.217755,-0.217758 0.104116,0.260181 0.09131,0.571049 -0.02844,0.690818 -0.119769,0.119766 -0.204953,-0.09311 -0.189303,-0.47306 z m 42.890746,0 c 0.0173,-0.419878 0.1027,-0.505281 0.217755,-0.217758 0.104116,0.260181 0.09131,0.571049 -0.02844,0.690818 -0.119766,0.119766 -0.204952,-0.09311 -0.189303,-0.47306 z M 64.454657,86.176448 c 0.247793,-0.09999 0.653273,-0.09999 0.901066,0 0.247793,0.09999 0.04505,0.181795 -0.450533,0.181795 -0.495587,0 -0.698327,-0.08181 -0.450533,-0.181795 z m 4.325117,0 c 0.247793,-0.09999 0.653273,-0.09999 0.901066,0 0.247793,0.09999 0.04505,0.181795 -0.450533,0.181795 -0.495586,0 -0.698326,-0.08181 -0.450533,-0.181795 z M 45.184821,83.711953 c 0.0029,-0.991173 0.0727,-1.353874 0.155549,-0.806004 0.08285,0.54787 0.08063,1.358829 -0.0049,1.802132 -0.08555,0.443303 -0.153333,-0.0049 -0.15063,-0.996128 z m 14.097731,0.229061 c -1.655626,-1.216006 -2.700034,-2.344408 -3.548006,-3.833326 -0.604489,-1.061406 -0.60393,-1.064718 0.03049,-0.180213 0.880277,1.227255 3.354651,3.675874 4.454597,4.408224 0.495586,0.329964 0.803758,0.608444 0.684825,0.618842 -0.118934,0.01042 -0.848797,-0.445689 -1.621919,-1.013527 z m 14.633299,0.429294 c 1.167068,-0.821867 3.63295,-3.290691 4.437541,-4.442833 0.614437,-0.879856 0.619566,-0.880753 0.217899,-0.0381 -0.620265,1.301244 -2.995414,3.739587 -4.353201,4.469029 -1.102739,0.592422 -1.127998,0.593417 -0.302239,0.01189 z M 88.7915,83.531739 c 0,-0.892055 0.07029,-1.256987 0.156198,-0.810959 0.08591,0.446028 0.08591,1.175891 0,1.621919 -0.08591,0.446028 -0.156198,0.0811 -0.156198,-0.81096 z M 53.788878,75.24193 c 0,-0.495586 0.08181,-0.698326 0.181795,-0.450533 0.09999,0.247793 0.09999,0.653273 0,0.901066 -0.09999,0.247794 -0.181795,0.04505 -0.181795,-0.450533 z m 26.31113,0 c 0,-0.495586 0.08181,-0.698326 0.181795,-0.450533 0.09999,0.247793 0.09999,0.653273 0,0.901066 -0.09999,0.247794 -0.181795,0.04505 -0.181795,-0.450533 z m -26.31113,-4.325117 c 0,-0.495587 0.08181,-0.698327 0.181795,-0.450533 0.09999,0.247793 0.09999,0.653273 0,0.901066 -0.09999,0.247793 -0.181795,0.04505 -0.181795,-0.450533 z m 26.31113,0 c 0,-0.495587 0.08181,-0.698327 0.181795,-0.450533 0.09999,0.247793 0.09999,0.653273 0,0.901066 -0.09999,0.247793 -0.181795,0.04505 -0.181795,-0.450533 z m -24.31129,-4.987784 c 0.729442,-1.357788 3.167785,-3.732937 4.469029,-4.353202 0.842651,-0.401666 0.841754,-0.396537 -0.0381,0.2179 -1.152143,0.80459 -3.620967,3.270473 -4.442833,4.437541 -0.581512,0.825759 -0.580517,0.8005 0.01189,-0.302239 z m 21.844805,-0.546904 c -0.608648,-0.863499 -1.734667,-2.030441 -2.50226,-2.593207 -1.890635,-1.386132 -2.285807,-1.779188 -1.253513,-1.246798 1.263738,0.651748 3.723547,3.014294 4.473703,4.296803 0.938082,1.6038 0.568976,1.36895 -0.71793,-0.456798 z M 45.184821,62.44679 c 0.0029,-0.991172 0.0727,-1.353873 0.155549,-0.806003 0.08285,0.54787 0.08063,1.358829 -0.0049,1.802132 -0.08555,0.443303 -0.153333,-0.0049 -0.15063,-0.996129 z M 88.7915,62.627004 c 0,-0.892056 0.07029,-1.256988 0.156198,-0.81096 0.08591,0.446028 0.08591,1.175892 0,1.621919 -0.08591,0.446028 -0.156198,0.0811 -0.156198,-0.810959 z m -9.665847,-1.605538 c -0.486576,-0.486576 -0.878936,-1.094795 -0.871912,-1.351599 0.007,-0.256804 0.227617,-0.07929 0.490206,0.394479 0.262588,0.473766 0.865059,1.076237 1.338825,1.338826 0.473766,0.262589 0.651284,0.483184 0.39448,0.490205 -0.256804,0.007 -0.865024,-0.385335 -1.351599,-0.871911 z m 4.019259,-0.251401 c 0.375467,-0.525729 0.754751,-0.886155 0.842854,-0.800947 0.08811,0.08521 -0.219093,0.515352 -0.682662,0.955873 l -0.842858,0.800947 z m -18.690255,-0.90475 c 0.247793,-0.09999 0.653273,-0.09999 0.901066,0 0.247793,0.09999 0.04505,0.181796 -0.450533,0.181796 -0.495587,0 -0.698327,-0.08181 -0.450533,-0.181796 z m 4.325117,0 c 0.247793,-0.09999 0.653273,-0.09999 0.901066,0 0.247793,0.09999 0.04505,0.181796 -0.450533,0.181796 -0.495586,0 -0.698326,-0.08181 -0.450533,-0.181796 z M 45.470618,59.172918 c 0.0173,-0.419879 0.1027,-0.505282 0.217755,-0.217759 0.104116,0.260181 0.09131,0.571049 -0.02844,0.690819 -0.119769,0.119766 -0.204953,-0.09311 -0.189303,-0.47306 z m 42.890746,0 c 0.0173,-0.419879 0.1027,-0.505282 0.217755,-0.217759 0.104116,0.260181 0.09131,0.571049 -0.02844,0.690819 -0.119766,0.119766 -0.204952,-0.09311 -0.189303,-0.47306 z M 82.926512,56.97578 c -0.799048,-0.845301 -0.814052,-0.906941 -0.132511,-0.544424 0.422704,0.224837 0.863643,0.656592 0.979862,0.959451 0.282521,0.736243 0.205058,0.698301 -0.847351,-0.415027 z m -3.704384,-0.133765 c 0.44052,-0.46357 0.870664,-0.770769 0.955872,-0.682663 0.08521,0.0881 -0.275218,0.467387 -0.800946,0.842854 l -0.955873,0.682666 z m -33.055704,0.240919 c -0.01284,-1.19685 3.621843,-4.908298 4.806777,-4.908298 0.207303,0 -0.366496,0.471456 -1.275106,1.047677 -0.914394,0.579894 -2.070884,1.746634 -2.590139,2.613092 -0.515965,0.860979 -0.939657,1.422369 -0.941532,1.247529 z m 41.445631,-0.135077 c 0,-0.21609 -0.592202,-1.175725 -1.316007,-2.13252 -0.723805,-0.956799 -0.961859,-1.425923 -0.529005,-1.042494 1.018875,0.902529 2.351732,3.061185 2.066339,3.346581 -0.12173,0.121727 -0.221327,0.04452 -0.221327,-0.171567 z m -3.964691,-4.232581 c -0.495586,-0.283303 -0.729326,-0.520845 -0.519421,-0.527867 0.209905,-0.007 0.696481,0.225357 1.081279,0.516405 0.889886,0.673075 0.605654,0.678874 -0.561858,0.01146 z M 52.943537,51.567999 c 0.260181,-0.104117 0.571049,-0.09132 0.690819,0.02844 0.119766,0.11977 -0.09311,0.204953 -0.47306,0.189303 -0.419879,-0.0173 -0.505282,-0.1027 -0.217759,-0.217755 z m 27.752836,0 c 0.260181,-0.104117 0.571052,-0.09132 0.690819,0.02844 0.119766,0.11977 -0.09311,0.204953 -0.47306,0.189303 -0.419879,-0.0173 -0.505282,-0.1027 -0.217759,-0.217755 z m -24.891951,-0.36858 c 0.446028,-0.08591 1.175891,-0.08591 1.621919,0 0.446028,0.08591 0.0811,0.156198 -0.810959,0.156198 -0.892056,0 -1.256988,-0.07029 -0.81096,-0.156198 z m 20.904734,0 c 0.446027,-0.08591 1.175891,-0.08591 1.621918,0 0.446028,0.08591 0.0811,0.156198 -0.810959,0.156198 -0.892055,0 -1.256987,-0.07029 -0.810959,-0.156198 z"
         id="path203" />
      <path
         style="fill:#EF8354;stroke-width:0.360426"
         d="m 44.867278,94.97528 -0.686609,-0.81096 0.81096,0.686609 c 0.7621,0.645243 0.97504,0.93531 0.686609,0.93531 -0.0684,0 -0.433327,-0.364931 -0.81096,-0.810959 z m 44.00627,0.09011 c 0.358801,-0.39647 0.73346,-0.720853 0.832578,-0.720853 0.09912,0 -0.113351,0.324383 -0.472152,0.720853 -0.358801,0.396469 -0.73346,0.720852 -0.832578,0.720852 -0.09912,0 0.113351,-0.324383 0.472152,-0.720852 z M 44.901522,51.093357 c 0.358801,-0.39647 0.733461,-0.720853 0.832578,-0.720853 0.09912,0 -0.11335,0.324383 -0.472151,0.720853 -0.358801,0.396469 -0.733461,0.720852 -0.832578,0.720852 -0.09912,0 0.11335,-0.324383 0.472151,-0.720852 z"
         id="path201" />
      <path
         style="fill:#EF8354;stroke-width:0.360426"
         d="m 59.769113,94.826683 c 0.247793,-0.09999 0.653273,-0.09999 0.901066,0 0.247793,0.09999 0.04505,0.181796 -0.450533,0.181796 -0.495586,0 -0.698326,-0.08181 -0.450533,-0.181796 z m 13.696205,0 c 0.247793,-0.09999 0.653272,-0.09999 0.901066,0 0.247793,0.09999 0.04505,0.181796 -0.450533,0.181796 -0.495587,0 -0.698327,-0.08181 -0.450533,-0.181796 z M 45.165354,79.567048 c 0,-0.693821 0.07418,-0.977657 0.164834,-0.630746 0.09065,0.34691 0.09065,0.914582 0,1.261492 -0.09066,0.346911 -0.164834,0.06307 -0.164834,-0.630746 z m 43.618873,-0.180213 c 0.004,-0.792938 0.07781,-1.074882 0.164023,-0.626544 0.08621,0.448338 0.08294,1.097106 -0.0073,1.441706 -0.09021,0.3446 -0.16075,-0.02224 -0.156749,-0.815162 z m 0,-12.614927 c 0.004,-0.792938 0.07781,-1.074882 0.164023,-0.626544 0.08621,0.448339 0.08294,1.097106 -0.0073,1.441706 -0.09021,0.3446 -0.16075,-0.02224 -0.156749,-0.815162 z M 45.165354,66.591695 c 0,-0.693821 0.07418,-0.977657 0.164834,-0.630746 0.09065,0.34691 0.09065,0.914582 0,1.261492 -0.09066,0.346911 -0.164834,0.06307 -0.164834,-0.630746 z M 59.769113,51.21508 c 0.247793,-0.09999 0.653273,-0.09999 0.901066,0 0.247793,0.09999 0.04505,0.181795 -0.450533,0.181795 -0.495586,0 -0.698326,-0.08181 -0.450533,-0.181795 z m 13.696205,0 c 0.247793,-0.09999 0.653272,-0.09999 0.901066,0 0.247793,0.09999 0.04505,0.181795 -0.450533,0.181795 -0.495587,0 -0.698327,-0.08181 -0.450533,-0.181795 z"
         id="path199" />
      <path
         style="fill:#EF8354;stroke-width:0.360426"
         d="m 63.914017,94.797024 c 1.734552,-0.06607 4.57291,-0.06607 6.307463,0 1.734552,0.06607 0.315373,0.12013 -3.153732,0.12013 -3.469104,0 -4.888283,-0.05406 -3.153731,-0.12013 z M 57.290258,82.540567 c -0.448323,-0.571659 -0.435575,-0.584407 0.136083,-0.136083 0.34691,0.272068 0.630746,0.555904 0.630746,0.630746 0,0.296646 -0.295978,0.105717 -0.766829,-0.494663 z m 18.788151,0.494663 c 0,-0.07484 0.283836,-0.358678 0.630747,-0.630746 0.571657,-0.448324 0.584406,-0.435576 0.136082,0.136083 -0.47085,0.60038 -0.766829,0.791309 -0.766829,0.494663 z M 45.226804,73.079372 c 0,-3.072636 0.05528,-4.329624 0.12284,-2.793306 0.06756,1.536318 0.06756,4.050293 0,5.586611 -0.06756,1.536318 -0.12284,0.27933 -0.12284,-2.793305 z m 43.60976,0 c 0,-2.874402 0.05598,-4.050293 0.124391,-2.613092 0.06841,1.4372 0.06841,3.788983 0,5.226183 -0.06842,1.437201 -0.124391,0.26131 -0.124391,-2.613091 z M 56.975808,63.932627 c 0,-0.07484 0.283836,-0.358678 0.630746,-0.630746 0.571658,-0.448324 0.584406,-0.435576 0.136083,0.136082 -0.47085,0.600381 -0.766829,0.791309 -0.766829,0.494664 z M 76.39286,63.437963 c -0.448324,-0.571658 -0.435576,-0.584406 0.136082,-0.136082 0.346911,0.272068 0.630747,0.555903 0.630747,0.630746 0,0.296645 -0.295979,0.105717 -0.766829,-0.494664 z M 63.914017,51.18542 c 1.734552,-0.06607 4.57291,-0.06607 6.307463,0 1.734552,0.06607 0.315373,0.12013 -3.153732,0.12013 -3.469104,0 -4.888283,-0.05406 -3.153731,-0.12013 z"
         id="path197" />
      <path
         style="fill:#EF8354;stroke-width:0.360426"
         d="m 53.399999,73.950403 c 0.0173,-0.419878 0.1027,-0.505282 0.217756,-0.217758 0.104116,0.260181 0.09131,0.571048 -0.02844,0.690818 -0.11977,0.119766 -0.204953,-0.09311 -0.189303,-0.47306 z m 0,-1.802132 c 0.0173,-0.419879 0.1027,-0.505282 0.217756,-0.217759 0.104116,0.260181 0.09131,0.571049 -0.02844,0.690819 -0.11977,0.119766 -0.204953,-0.09311 -0.189303,-0.47306 z m 12.51889,-12.65089 c 0.260181,-0.104116 0.571049,-0.09131 0.690819,0.02844 0.119766,0.119766 -0.09311,0.204953 -0.47306,0.189303 -0.419879,-0.0173 -0.505282,-0.1027 -0.217759,-0.217755 z m 1.802132,0 c 0.260181,-0.104116 0.571049,-0.09131 0.690819,0.02844 0.119766,0.119766 -0.09311,0.204953 -0.47306,0.189303 -0.419879,-0.0173 -0.505282,-0.1027 -0.217759,-0.217755 z"
         id="path195" />
      <path
         style="fill:#EF8354;stroke-width:0.360426"
         d="m 66.437002,99.502478 c 0.34691,-0.09065 0.914582,-0.09065 1.261493,0 0.34691,0.09066 0.06307,0.164834 -0.630747,0.164834 -0.693821,0 -0.977656,-0.07418 -0.630746,-0.164834 z M 40.4531,73.079372 c 0,-0.495587 0.08181,-0.698327 0.181795,-0.450534 0.09999,0.247794 0.09999,0.653273 0,0.901067 -0.09999,0.247793 -0.181795,0.04505 -0.181795,-0.450533 z M 66.437002,46.519786 c 0.34691,-0.09065 0.914582,-0.09065 1.261493,0 0.34691,0.09066 0.06307,0.164834 -0.630747,0.164834 -0.693821,0 -0.977656,-0.07418 -0.630746,-0.164834 z"
         id="path193" />
      <path
         style="fill:#EF8354;stroke-width:0.360426"
         d="m 53.364742,94.215944 c -2.602646,-0.560791 -4.222374,-1.539774 -5.654824,-3.417841 -2.009092,-2.634098 -2.087543,-3.299982 -2.087543,-17.718731 0,-14.431484 0.0771,-15.082861 2.099026,-17.733783 1.483227,-1.944642 3.375239,-3.014625 6.200698,-3.506658 2.934815,-0.511074 23.542795,-0.504139 26.317855,0.0089 4.789253,0.88534 7.17426,3.271349 8.060145,8.063536 0.519259,2.80893 0.518278,23.383958 -0.0011,26.367345 -0.768569,4.413444 -3.618353,7.263228 -8.031797,8.031798 -3.120309,0.543375 -24.286949,0.469005 -26.902305,-0.09453 z M 69.875978,86.40117 C 76.926197,84.774904 81.761757,77.760634 80.502128,70.987308 79.106085,63.480461 72.053826,58.328673 64.975685,59.64499 c -7.506846,1.396044 -12.658634,8.448303 -11.342317,15.526445 1.453881,7.817848 8.853951,12.934073 16.24261,11.229735 z m 13.68128,-25.429753 c 1.146138,-1.282714 1.054766,-2.841602 -0.242596,-4.138961 -2.453866,-2.45387 -6.138113,-0.133873 -5.04539,3.177116 0.753504,2.28314 3.638491,2.807895 5.287986,0.961845 z"
         id="path191" />
      <path
         style="fill:#EF8354;stroke-width:0.360426"
         d="m 81.056799,62.020366 c 0.260181,-0.104116 0.571053,-0.09131 0.690819,0.02844 0.119766,0.119766 -0.09311,0.204953 -0.47306,0.189303 -0.419879,-0.0173 -0.505282,-0.1027 -0.217759,-0.217755 z m -3.147802,-3.207875 c 0.0173,-0.419878 0.1027,-0.505281 0.217755,-0.217758 0.104117,0.260181 0.09131,0.571048 -0.02844,0.690818 -0.119766,0.119766 -0.204953,-0.09311 -0.189303,-0.47306 z"
         id="path189" />
      <path
         style="fill:#EF8354;stroke-width:0.360426"
         d="m 63.733804,99.496567 c 0.446027,-0.08591 1.175891,-0.08591 1.621919,0 0.446027,0.08591 0.0811,0.156198 -0.81096,0.156198 -0.892055,0 -1.256987,-0.07029 -0.810959,-0.156198 z m 5.04597,0 c 0.446028,-0.08591 1.175891,-0.08591 1.621919,0 0.446028,0.08591 0.0811,0.156198 -0.81096,0.156198 -0.892055,0 -1.256987,-0.07029 -0.810959,-0.156198 z M 40.504197,75.602357 c 0,-1.09029 0.06757,-1.536318 0.15015,-0.991173 0.08259,0.545145 0.08259,1.437201 0,1.982346 -0.08258,0.545145 -0.15015,0.09912 -0.15015,-0.991173 z m 52.986367,-0.180213 c 0.0022,-1.189408 0.06931,-1.63253 0.149526,-0.984718 0.08022,0.647813 0.07856,1.620964 -0.0037,2.162559 -0.08224,0.541595 -0.147872,0.01157 -0.14585,-1.177841 z m 0,-4.685545 c 0.0022,-1.189407 0.06931,-1.63253 0.149526,-0.984717 0.08022,0.647812 0.07856,1.620964 -0.0037,2.162559 -0.08224,0.541595 -0.147872,0.01157 -0.14585,-1.177842 z M 40.504197,70.556386 c 0,-1.09029 0.06757,-1.536318 0.15015,-0.991173 0.08259,0.545145 0.08259,1.437201 0,1.982346 -0.08258,0.545145 -0.15015,0.09912 -0.15015,-0.991173 z M 63.558546,46.509604 c 0.54787,-0.08285 1.35883,-0.08063 1.802133,0.0049 0.443302,0.08555 -0.0049,0.153332 -0.996129,0.150629 -0.991173,-0.0029 -1.353873,-0.0727 -0.806004,-0.155549 z m 5.221228,0.0043 c 0.446028,-0.08591 1.175891,-0.08591 1.621919,0 0.446028,0.08591 0.0811,0.156198 -0.81096,0.156198 -0.892055,0 -1.256987,-0.07029 -0.810959,-0.156198 z"
         id="path187" />
      <path
         style="fill:#EF8354;stroke-width:0.360426"
         d="m 60.309753,99.492775 c 0.545145,-0.08258 1.4372,-0.08258 1.982345,0 0.545145,0.08258 0.09912,0.15015 -0.991173,0.15015 -1.09029,0 -1.536317,-0.06757 -0.991172,-0.15015 z m 11.533646,0 c 0.545145,-0.08258 1.4372,-0.08258 1.982345,0 0.545145,0.08258 0.09912,0.15015 -0.991173,0.15015 -1.09029,0 -1.536317,-0.06757 -0.991172,-0.15015 z M 40.499277,79.026408 c 0.0029,-0.991172 0.07271,-1.353873 0.15555,-0.806003 0.08285,0.54787 0.08063,1.358829 -0.0049,1.802132 -0.08555,0.443303 -0.153333,-0.0049 -0.15063,-0.996129 z m 52.977767,-0.180213 c 0,-0.892055 0.07029,-1.256987 0.156198,-0.810959 0.08591,0.446027 0.08591,1.175891 0,1.621919 -0.08591,0.446027 -0.156198,0.0811 -0.156198,-0.81096 z M 40.499277,67.132335 c 0.0029,-0.991173 0.07271,-1.353874 0.15555,-0.806004 0.08285,0.54787 0.08063,1.358829 -0.0049,1.802132 -0.08555,0.443303 -0.153333,-0.0049 -0.15063,-0.996128 z m 52.977767,0.180213 c 0,-0.892056 0.07029,-1.256987 0.156198,-0.81096 0.08591,0.446028 0.08591,1.175892 0,1.621919 -0.08591,0.446028 -0.156198,0.0811 -0.156198,-0.810959 z M 60.314708,46.509604 c 0.54787,-0.08285 1.35883,-0.08063 1.802133,0.0049 0.443302,0.08555 -0.0049,0.153332 -0.996129,0.150629 -0.991173,-0.0029 -1.353873,-0.0727 -0.806004,-0.155549 z m 11.528691,3.6e-4 c 0.545145,-0.08258 1.4372,-0.08258 1.982345,0 0.545145,0.08258 0.09912,0.15015 -0.991173,0.15015 -1.09029,0 -1.536317,-0.06757 -0.991172,-0.15015 z"
         id="path185" />
      <path
         style="fill:#EF8354;stroke-width:0.360426"
         d="m 61.571245,118.61483 c 0.247793,-0.1 0.653273,-0.1 0.901066,0 0.247793,0.1 0.04505,0.1818 -0.450533,0.1818 -0.495586,0 -0.698326,-0.0818 -0.450533,-0.1818 z m 10.09194,0 c 0.247794,-0.1 0.653273,-0.1 0.901066,0 0.247794,0.1 0.04505,0.1818 -0.450533,0.1818 -0.495586,0 -0.698326,-0.0818 -0.450533,-0.1818 z M 59.431213,118.2469 c 0.260181,-0.10412 0.571049,-0.0913 0.690819,0.0284 0.119766,0.11977 -0.09311,0.20496 -0.47306,0.18931 -0.419879,-0.0173 -0.505282,-0.1027 -0.217759,-0.21776 z m -3.604264,-0.72086 c 0.260181,-0.10411 0.571049,-0.0913 0.690818,0.0284 0.119766,0.11977 -0.09311,0.20495 -0.473059,0.1893 -0.419879,-0.0173 -0.505282,-0.1027 -0.217759,-0.21775 z m 21.986012,0 c 0.260182,-0.10411 0.571053,-0.0913 0.690819,0.0284 0.119766,0.11977 -0.09311,0.20495 -0.47306,0.1893 -0.419878,-0.0173 -0.505282,-0.1027 -0.217759,-0.21775 z m -29.847814,-2.6372 c -0.297352,-0.19216 -0.378448,-0.34938 -0.180213,-0.34938 0.198234,0 0.603714,0.15722 0.901066,0.34938 0.297352,0.19217 0.378448,0.34939 0.180213,0.34939 -0.198234,0 -0.603714,-0.15722 -0.901066,-0.34939 z m 37.48435,0 c 0.297351,-0.19216 0.702831,-0.34938 0.901066,-0.34938 0.198234,0 0.117138,0.15722 -0.180213,0.34938 -0.297352,0.19217 -0.702832,0.34939 -0.901067,0.34939 -0.198234,0 -0.117138,-0.15722 0.180214,-0.34939 z m -40.097442,-1.28743 c -1.347432,-0.731 -1.265414,-1.03545 0.09011,-0.33449 0.594704,0.30754 1.081279,0.63608 1.081279,0.73011 0,0.23194 -0.03873,0.21886 -1.171386,-0.39562 z m 42.26,0.40488 c 0,-0.0991 0.486576,-0.43183 1.08128,-0.73937 0.594703,-0.30753 1.081279,-0.47805 1.081279,-0.37893 0,0.0991 -0.486576,0.43183 -1.081279,0.73936 -0.594704,0.30753 -1.08128,0.47806 -1.08128,0.37894 z m -48.657569,-4.64283 c -1.09029,-0.85813 -2.225633,-1.86721 -2.522985,-2.24241 -0.297352,-0.37519 0.27032,-0.004 1.261493,0.82512 0.991172,0.829 2.207611,1.83279 2.703198,2.23064 0.495586,0.39785 0.81997,0.72865 0.720853,0.73512 -0.09912,0.006 -1.072269,-0.69034 -2.162559,-1.54847 z m 54.784819,0.8482 c 0.495586,-0.42514 1.984338,-1.66672 3.30834,-2.75905 1.324001,-1.09234 3.301005,-3.06934 4.393335,-4.39334 3.25682,-3.947538 3.59083,-4.296283 2.33041,-2.4332 -1.54819,2.28845 -6.868493,7.60876 -9.156948,9.15695 -0.976911,0.6609 -1.370724,0.85379 -0.875137,0.42864 z m -59.312824,-4.78401 -1.058605,-1.17139 1.171386,1.05861 c 1.091898,0.98677 1.337056,1.28416 1.058605,1.28416 -0.06203,0 -0.589153,-0.52712 -1.171386,-1.17138 z m -2.193966,-2.52299 c -0.603105,-0.64426 -1.545638,-1.82015 -2.094517,-2.61309 -0.994118,-1.436155 -0.745888,-1.179304 2.002879,2.07245 1.659215,1.96283 1.711448,2.27099 0.09164,0.54064 z M 58.71036,99.50472 c 0.260181,-0.104117 0.571049,-0.09131 0.690819,0.02844 0.119766,0.119767 -0.09311,0.204953 -0.47306,0.189304 -0.419879,-0.0173 -0.505282,-0.1027 -0.217759,-0.217756 z m 16.21919,0 c 0.260181,-0.104117 0.571052,-0.09131 0.690819,0.02844 0.119766,0.119767 -0.09311,0.204953 -0.47306,0.189304 -0.419879,-0.0173 -0.505282,-0.1027 -0.217759,-0.217756 z M 26.519774,94.70496 c -0.307534,-0.594704 -0.478055,-1.081279 -0.378938,-1.081279 0.09912,0 0.431831,0.486575 0.739364,1.081279 0.307534,0.594704 0.478056,1.081279 0.378938,1.081279 -0.09912,0 -0.43183,-0.486575 -0.739364,-1.081279 z m 80.735526,0 c 0.30753,-0.594704 0.64024,-1.081279 0.73936,-1.081279 0.0991,0 -0.0714,0.486575 -0.37894,1.081279 -0.30753,0.594704 -0.64024,1.081279 -0.73936,1.081279 -0.0991,0 0.0714,-0.486575 0.37894,-1.081279 z m 0.92661,-1.621919 c 0,-0.198235 0.23179,-0.765906 0.51509,-1.261493 0.2833,-0.495586 0.5151,-0.738874 0.5151,-0.540639 0,0.198234 -0.2318,0.765906 -0.5151,1.261492 -0.2833,0.495587 -0.51509,0.738874 -0.51509,0.54064 z M 25.122595,91.987827 c -0.347804,-0.90636 -0.245201,-1.140227 0.179684,-0.409567 0.210377,0.361778 0.306578,0.733706 0.213779,0.826505 -0.0928,0.0928 -0.269858,-0.09482 -0.393463,-0.416938 z m -2.719269,-7.945482 c 0.0173,-0.419879 0.102699,-0.505282 0.217755,-0.217759 0.104116,0.260181 0.09131,0.571049 -0.02844,0.690818 -0.11977,0.119767 -0.204953,-0.09311 -0.189303,-0.473059 z m 89.025334,0 c 0.0173,-0.419879 0.1027,-0.505282 0.21775,-0.217759 0.10412,0.260181 0.0913,0.571049 -0.0284,0.690818 -0.11976,0.119767 -0.20495,-0.09311 -0.1893,-0.473059 z M 40.424647,81.158933 c 0.0173,-0.419879 0.1027,-0.505282 0.217756,-0.217759 0.104116,0.260181 0.09131,0.571049 -0.02844,0.690819 -0.11977,0.119766 -0.204953,-0.09311 -0.189303,-0.47306 z M 21.682473,80.798506 c 0.0173,-0.419878 0.1027,-0.505281 0.217755,-0.217758 0.104116,0.260181 0.09131,0.571048 -0.02844,0.690818 -0.119769,0.119766 -0.204953,-0.09311 -0.189303,-0.47306 z m 71.724861,0 c 0.0173,-0.419878 0.1027,-0.505281 0.217755,-0.217758 0.104117,0.260181 0.09131,0.571048 -0.02844,0.690818 -0.119767,0.119766 -0.204953,-0.09311 -0.189304,-0.47306 z M 112.14951,80.43808 c 0.0173,-0.419879 0.1027,-0.505282 0.21775,-0.217759 0.10412,0.260181 0.0913,0.571049 -0.0284,0.690819 -0.11977,0.119766 -0.20496,-0.09311 -0.18931,-0.47306 z M 21.350498,78.125342 c 0,-0.495586 0.08181,-0.698326 0.181796,-0.450533 0.09999,0.247793 0.09999,0.653273 0,0.901066 -0.09999,0.247793 -0.181796,0.04505 -0.181796,-0.450533 z m 91.187892,0 c 0,-0.495586 0.0818,-0.698326 0.18179,-0.450533 0.1,0.247793 0.1,0.653273 0,0.901066 -0.1,0.247793 -0.18179,0.04505 -0.18179,-0.450533 z M 21.350498,68.033401 c 0,-0.495587 0.08181,-0.698326 0.181796,-0.450533 0.09999,0.247793 0.09999,0.653273 0,0.901066 -0.09999,0.247793 -0.181796,0.04505 -0.181796,-0.450533 z m 91.187892,0 c 0,-0.495587 0.0818,-0.698326 0.18179,-0.450533 0.1,0.247793 0.1,0.653273 0,0.901066 -0.1,0.247793 -0.18179,0.04505 -0.18179,-0.450533 z m -0.38888,-2.372807 c 0.0173,-0.419878 0.1027,-0.505281 0.21775,-0.217758 0.10412,0.260181 0.0913,0.571048 -0.0284,0.690818 -0.11977,0.119766 -0.20496,-0.09311 -0.18931,-0.47306 z M 21.682473,65.300168 c 0.0173,-0.419879 0.1027,-0.505282 0.217755,-0.217759 0.104116,0.260181 0.09131,0.571049 -0.02844,0.690819 -0.119769,0.119766 -0.204953,-0.09311 -0.189303,-0.47306 z m 71.724861,0 c 0.0173,-0.419879 0.1027,-0.505282 0.217755,-0.217759 0.104117,0.260181 0.09131,0.571049 -0.02844,0.690819 -0.119767,0.119766 -0.204953,-0.09311 -0.189304,-0.47306 z M 40.424647,64.939741 c 0.0173,-0.419878 0.1027,-0.505281 0.217756,-0.217758 0.104116,0.260181 0.09131,0.571049 -0.02844,0.690818 -0.11977,0.119766 -0.204953,-0.09311 -0.189303,-0.47306 z M 22.403326,62.05633 c 0.0173,-0.419879 0.102699,-0.505282 0.217755,-0.217759 0.104116,0.260181 0.09131,0.571049 -0.02844,0.690818 -0.11977,0.119767 -0.204953,-0.09311 -0.189303,-0.473059 z m 89.025334,0 c 0.0173,-0.419879 0.1027,-0.505282 0.21775,-0.217759 0.10412,0.260181 0.0913,0.571049 -0.0284,0.690818 -0.11976,0.119767 -0.20495,-0.09311 -0.1893,-0.473059 z M 24.908895,54.877834 c 0,-0.198234 0.157221,-0.603714 0.349386,-0.901066 0.192165,-0.297352 0.349387,-0.378447 0.349387,-0.180213 0,0.198235 -0.157222,0.603714 -0.349387,0.901066 -0.192165,0.297352 -0.349386,0.378448 -0.349386,0.180213 z m 83.832635,-0.37436 c -0.34781,-0.906361 -0.2452,-1.140227 0.17968,-0.409567 0.21038,0.361778 0.30658,0.733706 0.21378,0.826505 -0.0928,0.0928 -0.26986,-0.09483 -0.39346,-0.416938 z M 26.519774,51.453783 c 0.307534,-0.594704 0.640247,-1.081279 0.739364,-1.081279 0.09912,0 -0.0714,0.486575 -0.378938,1.081279 -0.307533,0.594704 -0.640247,1.081279 -0.739364,1.081279 -0.09912,0 0.0714,-0.486575 0.378938,-1.081279 z m 80.735526,0 c -0.30754,-0.594704 -0.47806,-1.081279 -0.37894,-1.081279 0.0991,0 0.43183,0.486575 0.73936,1.081279 0.30754,0.594704 0.47806,1.081279 0.37894,1.081279 -0.0991,0 -0.43183,-0.486575 -0.73936,-1.081279 z M 30.364104,45.532675 c 1.54819,-2.288456 6.868495,-7.608762 9.156951,-9.156952 1.86308,-1.260415 1.514335,-0.926402 -2.433203,2.330414 -1.324001,1.092333 -3.301002,3.069334 -4.393335,4.393335 -3.256817,3.947539 -3.590828,4.296284 -2.330413,2.433203 z m 73.258486,0.244391 C 101.49981,42.950501 99.101437,40.38043 96.911,38.58499 c -3.739673,-3.065304 -4.160958,-3.470575 -2.296558,-2.209267 2.175945,1.472074 7.525158,6.7732 9.149098,9.066846 1.42116,2.007251 1.31123,2.268135 -0.14095,0.334497 z m -44.91223,0.744962 c 0.260181,-0.104117 0.571049,-0.09131 0.690819,0.02844 0.119766,0.119769 -0.09311,0.204952 -0.47306,0.189303 -0.419879,-0.0173 -0.505282,-0.1027 -0.217759,-0.217756 z m 16.21919,0 c 0.260181,-0.104117 0.571052,-0.09131 0.690819,0.02844 0.119766,0.119769 -0.09311,0.204952 -0.47306,0.189303 -0.419879,-0.0173 -0.505282,-0.1027 -0.217759,-0.217756 z M 44.360883,33.270757 c 0,-0.09912 0.486575,-0.431831 1.081279,-0.739364 0.594704,-0.307533 1.081279,-0.478055 1.081279,-0.378938 0,0.09912 -0.486575,0.431831 -1.081279,0.739364 -0.594704,0.307534 -1.081279,0.478056 -1.081279,0.378938 z M 88.85233,32.871936 c -0.671843,-0.538258 -0.667424,-0.544913 0.111324,-0.167532 0.446028,0.216145 0.81096,0.468381 0.81096,0.560523 0,0.275806 -0.186921,0.196158 -0.922284,-0.392991 z M 47.965147,31.2699 c 0.297352,-0.192163 0.702832,-0.349388 0.901066,-0.349388 0.198235,0 0.117139,0.157225 -0.180213,0.349388 -0.297352,0.192164 -0.702832,0.349388 -0.901066,0.349388 -0.198235,0 -0.117139,-0.157224 0.180213,-0.349388 z m 37.48435,0 c -0.297352,-0.192163 -0.378448,-0.349388 -0.180214,-0.349388 0.198235,0 0.603715,0.157225 0.901067,0.349388 0.297351,0.192164 0.378447,0.349388 0.180213,0.349388 -0.198235,0 -0.603715,-0.157224 -0.901066,-0.349388 z M 55.826949,28.500703 c 0.260181,-0.104117 0.571049,-0.09131 0.690818,0.02845 0.119766,0.119767 -0.09311,0.204954 -0.473059,0.189304 -0.419879,-0.01729 -0.505282,-0.102701 -0.217759,-0.217758 z m 21.986012,0 c 0.260182,-0.104117 0.571053,-0.09131 0.690819,0.02845 0.119766,0.119767 -0.09311,0.204954 -0.47306,0.189304 -0.419878,-0.01729 -0.505282,-0.102701 -0.217759,-0.217758 z M 59.04826,27.787358 c 0.247793,-0.09999 0.653273,-0.09999 0.901066,0 0.247793,0.09999 0.04505,0.181795 -0.450533,0.181795 -0.495586,0 -0.698326,-0.08181 -0.450533,-0.181795 z m 15.520864,-0.0075 c 0.260181,-0.104117 0.571052,-0.09131 0.690818,0.02846 0.119766,0.119767 -0.09311,0.204954 -0.47306,0.189304 -0.419878,-0.01729 -0.505281,-0.102701 -0.217758,-0.217758 z M 61.571245,27.426932 c 0.247793,-0.09999 0.653273,-0.09999 0.901066,0 0.247793,0.09999 0.04505,0.181794 -0.450533,0.181794 -0.495586,0 -0.698326,-0.08181 -0.450533,-0.181794 z m 10.09194,0 c 0.247794,-0.09999 0.653273,-0.09999 0.901066,0 0.247794,0.09999 0.04505,0.181794 -0.450533,0.181794 -0.495586,0 -0.698326,-0.08181 -0.450533,-0.181794 z"
         id="path183" />
      <path
         style="fill:#EF8354;stroke-width:0.360426"
         d="m 93.407334,81.879786 c 0.0173,-0.419879 0.1027,-0.505282 0.217755,-0.217759 0.104117,0.260181 0.09131,0.571049 -0.02844,0.690819 -0.119767,0.119766 -0.204953,-0.09311 -0.189304,-0.47306 z m 0,-17.660897 c 0.0173,-0.419879 0.1027,-0.505282 0.217755,-0.217759 0.104117,0.260181 0.09131,0.571049 -0.02844,0.690818 -0.119767,0.119766 -0.204953,-0.09311 -0.189304,-0.473059 z"
         id="path181" />
      <path
         style="fill:#EF8354;stroke-width:0.360426"
         d="m 56.908228,99.50472 c 0.260181,-0.104117 0.571049,-0.09131 0.690819,0.02844 0.119766,0.119767 -0.09311,0.204953 -0.47306,0.189304 -0.419879,-0.0173 -0.505282,-0.1027 -0.217759,-0.217756 z m 19.823454,0 c 0.260181,-0.104117 0.571053,-0.09131 0.690819,0.02844 0.119766,0.119767 -0.09311,0.204953 -0.47306,0.189304 -0.419879,-0.0173 -0.505282,-0.1027 -0.217759,-0.217756 z M 40.424647,82.961065 c 0.0173,-0.419879 0.1027,-0.505282 0.217756,-0.217759 0.104116,0.260181 0.09131,0.571049 -0.02844,0.690819 -0.11977,0.119766 -0.204953,-0.09311 -0.189303,-0.47306 z m 52.982687,0 c 0.0173,-0.419879 0.1027,-0.505282 0.217755,-0.217759 0.104117,0.260181 0.09131,0.571049 -0.02844,0.690819 -0.119767,0.119766 -0.204953,-0.09311 -0.189304,-0.47306 z M 40.4531,62.98743 c 0,-0.495586 0.08181,-0.698326 0.181795,-0.450533 0.09999,0.247793 0.09999,0.653273 0,0.901066 -0.09999,0.247793 -0.181795,0.04505 -0.181795,-0.450533 z m 52.982686,0 c 0,-0.495586 0.08181,-0.698326 0.181796,-0.450533 0.09999,0.247793 0.09999,0.653273 0,0.901066 -0.09999,0.247793 -0.181796,0.04505 -0.181796,-0.450533 z M 56.908228,46.522028 c 0.260181,-0.104117 0.571049,-0.09131 0.690819,0.02844 0.119766,0.119769 -0.09311,0.204952 -0.47306,0.189303 -0.419879,-0.0173 -0.505282,-0.1027 -0.217759,-0.217756 z m 19.823454,0 c 0.260181,-0.104117 0.571053,-0.09131 0.690819,0.02844 0.119766,0.119769 -0.09311,0.204952 -0.47306,0.189303 -0.419879,-0.0173 -0.505282,-0.1027 -0.217759,-0.217756 z"
         id="path179" />
      <path
         style="fill:#000000;stroke-width:0.360426"
         d="m 60.219646,118.34126 c -8.096349,-1.46039 -14.35385,-4.13277 -20.515855,-8.76164 -8.617014,-6.47308 -14.511882,-15.473166 -17.232219,-26.309572 -0.874419,-3.483233 -0.974831,-4.532893 -0.974831,-10.190676 0,-5.657784 0.100412,-6.707443 0.974831,-10.190677 4.493812,-17.901003 17.92924,-30.888349 35.945942,-34.747114 2.289457,-0.49035 4.566419,-0.651692 9.010661,-0.638483 5.213784,0.01549 6.425823,0.137104 9.830249,0.9863 17.880615,4.460116 30.885946,17.911833 34.747106,35.939738 0.47461,2.215935 0.65616,4.609411 0.65616,8.650236 0,4.040824 -0.18155,6.434301 -0.65616,8.650235 -3.83974,17.92789 -16.904592,31.495173 -34.558726,35.887733 -4.611328,1.14736 -12.93946,1.49732 -17.227158,0.72392 z M 79.40782,99.384186 c 4.766726,-0.546169 6.871018,-1.477954 9.678902,-4.285838 4.048782,-4.048783 4.644798,-6.895608 4.649627,-22.208644 0.0047,-14.913701 -0.607308,-17.786989 -4.649627,-21.829308 -4.038701,-4.038705 -6.919643,-4.646669 -22.018974,-4.646669 -15.09933,0 -17.980273,0.607964 -22.018973,4.646669 -4.04232,4.042319 -4.654328,6.915607 -4.649628,21.829308 0.0048,15.318781 0.601855,18.168958 4.649628,22.197157 2.706982,2.693896 5.094757,3.797478 9.262847,4.281113 3.650576,0.42358 21.440522,0.435074 25.096198,0.01622 z M 64.131066,81.228283 C 58.968699,79.384088 56.79726,72.893168 59.831362,68.3755 c 3.502347,-5.214867 10.970426,-5.214867 14.472772,0 4.538858,6.758198 -2.464653,15.606524 -10.173068,12.852783 z"
         id="path177" />
  </g>
</svg>
