<?xml version="1.0" encoding="UTF-8" ?>
<svg xmlns="http://www.w3.org/2000/svg" width="512" height="512" id="fe_linkedin" version="1.1" viewBox="0 0 135.49791 135.49791">
    <g transform="translate(-1.1027181,3.308168)">
      <path
         style="fill:#9c9c9c;stroke-width:0.246326"
         d="m 8.3159859,127.62748 -0.4692486,-0.55424 0.5542342,0.46925 c 0.5208434,0.44098 0.6663719,0.63922 0.4692486,0.63922 -0.046742,0 -0.2961475,-0.2494 -0.5542342,-0.55423 z m 118.7526741,0.0616 c 0.24522,-0.27096 0.50127,-0.49265 0.56901,-0.49265 0.0677,0 -0.0775,0.22169 -0.32268,0.49265 -0.24522,0.27096 -0.50127,0.49265 -0.56901,0.49265 -0.0677,0 0.0775,-0.22169 0.32268,-0.49265 z M 8.3393899,8.9597869 C 8.5846043,8.688828 8.8406577,8.4671344 8.9083975,8.4671344 c 0.06774,0 -0.077467,0.2216936 -0.3226813,0.4926525 -0.2452144,0.270959 -0.5012679,0.4926526 -0.5690076,0.4926526 -0.06774,0 0.077467,-0.2216936 0.3226813,-0.4926526 z m 118.7058701,-0.061581 -0.46925,-0.5542342 0.55423,0.4692486 c 0.30483,0.2580867 0.55424,0.5074921 0.55424,0.5542342 0,0.1971233 -0.19824,0.051595 -0.63922,-0.4692486 z"
         id="path866" />
      <path
         style="fill:#cb8b6e;stroke-width:0.246326"
         d="m 42.574662,84.089305 c 0,-15.647877 0.02953,-22.049282 0.06562,-14.225343 0.03609,7.823939 0.03609,20.626748 0,28.450686 -0.03609,7.823942 -0.06562,1.422535 -0.06562,-14.225343 z m 31.527209,11.454173 c 2.4e-5,-9.348083 0.03068,-13.136476 0.06814,-8.418652 0.03745,4.717826 0.03743,12.366257 -4.7e-5,16.996514 -0.03747,4.63026 -0.06811,0.77022 -0.06809,-8.577862 z m 18.967124,0 c 2.4e-5,-9.348083 0.03069,-13.136476 0.06814,-8.418652 0.03745,4.717826 0.03743,12.366257 -4.7e-5,16.996514 -0.03747,4.63026 -0.06811,0.77022 -0.06809,-8.577862 z M 111.69272,74.33889 c 0.0118,-0.286957 0.0702,-0.345325 0.14882,-0.148823 0.0712,0.177816 0.0624,0.390275 -0.0194,0.472127 -0.0819,0.08185 -0.14007,-0.06364 -0.12937,-0.323304 z M 82.314254,69.634112 c 0.177815,-0.07116 0.390274,-0.06241 0.472126,0.01944 0.08185,0.08185 -0.06364,0.140071 -0.323303,0.129375 -0.286958,-0.01182 -0.345325,-0.07019 -0.148823,-0.14882 z m 2.216936,0 c 0.177816,-0.07116 0.390275,-0.06241 0.472126,0.01944 0.08185,0.08185 -0.06364,0.140071 -0.323303,0.129375 -0.286958,-0.01182 -0.345325,-0.07019 -0.148823,-0.14882 z M 74.030911,59.395095 c 0.04619,-3.807857 0.140598,-3.35848 0.258865,1.232168 0.03578,1.38896 -0.01808,2.52514 -0.119685,2.524845 -0.10161,-2.47e-4 -0.164241,-1.690952 -0.13918,-3.757013 z m 31.830289,2.216936 -0.46925,-0.554234 0.55423,0.469249 c 0.30483,0.258086 0.55424,0.507491 0.55424,0.554234 0,0.197123 -0.19824,0.05159 -0.63922,-0.469249 z m -1.23163,-1.231631 -0.46925,-0.554234 0.55423,0.469249 c 0.52084,0.440978 0.66637,0.639219 0.46925,0.639219 -0.0467,0 -0.29615,-0.249405 -0.55423,-0.554234 z M 87.733432,54.608209 c 0.177815,-0.07116 0.390274,-0.06241 0.472126,0.01943 0.08185,0.08185 -0.06364,0.140071 -0.323303,0.129375 -0.286958,-0.01182 -0.345325,-0.07019 -0.148823,-0.14882 z m -56.40872,-9.853052 c 0.177815,-0.07116 0.390272,-0.06241 0.472126,0.01944 0.08185,0.08185 -0.06364,0.140071 -0.323303,0.129376 -0.286958,-0.01182 -0.345325,-0.07019 -0.148823,-0.148821 z m 3.202241,0 c 0.177816,-0.07116 0.390272,-0.06241 0.472127,0.01944 0.08185,0.08185 -0.06364,0.140071 -0.323304,0.129376 -0.286957,-0.01182 -0.345324,-0.07019 -0.148823,-0.148821 z m -9.591959,-3.218718 c -0.306398,-0.390689 -0.297685,-0.399401 0.093,-0.093 0.237089,0.185939 0.431071,0.379921 0.431071,0.431071 0,0.202736 -0.20228,0.07225 -0.524073,-0.338068 z M 44.199312,35.17301 c 0.01182,-0.286957 0.07019,-0.345324 0.148821,-0.148823 0.07116,0.177816 0.06241,0.390272 -0.01943,0.472127 -0.08185,0.08185 -0.140071,-0.06364 -0.129376,-0.323304 z M 21.783619,34.187705 c 0.01182,-0.286958 0.07019,-0.345325 0.148823,-0.148823 0.07116,0.177816 0.0624,0.390272 -0.01945,0.472126 -0.08185,0.08185 -0.140071,-0.06363 -0.129375,-0.323303 z m 0,-1.231631 c 0.01182,-0.286958 0.07019,-0.345325 0.148823,-0.148823 0.07116,0.177815 0.0624,0.390272 -0.01945,0.472126 -0.08185,0.08185 -0.140071,-0.06364 -0.129375,-0.323303 z m 22.415693,-0.985305 c 0.01182,-0.286958 0.07019,-0.345325 0.148821,-0.148823 0.07116,0.177815 0.06241,0.390272 -0.01943,0.472126 -0.08185,0.08185 -0.140071,-0.06364 -0.129376,-0.323303 z m -3.25311,-6.445539 c -0.306398,-0.390687 -0.297686,-0.3994 0.093,-0.093 0.410318,0.321793 0.540804,0.524073 0.338068,0.524073 -0.05115,0 -0.245132,-0.193982 -0.431071,-0.431071 z m -8.636185,-3.185766 c 0.177815,-0.07116 0.390272,-0.0624 0.472126,0.01945 0.08185,0.08185 -0.06364,0.140072 -0.323303,0.129376 -0.286958,-0.01182 -0.345325,-0.07019 -0.148823,-0.148822 z m 1.231631,0 c 0.177816,-0.07116 0.390272,-0.0624 0.472127,0.01945 0.08185,0.08185 -0.06364,0.140072 -0.323304,0.129376 -0.286958,-0.01182 -0.345325,-0.07019 -0.148823,-0.148822 z"
         id="path864" />
      <path
         style="fill:#ed8253;stroke-width:0.246326"
         d="M 23.734783,84.089305 V 55.761782 h 9.360399 9.360399 v 28.327523 28.327525 h -9.360399 -9.360399 z m 31.529765,0 V 55.761782 h 9.360399 9.360399 v 3.694894 c 0,2.032192 0.08313,3.694138 0.184745,3.693212 0.101609,-9.85e-4 0.454464,-0.397684 0.78412,-0.881685 1.519306,-2.230633 5.44505,-5.132004 8.635949,-6.382509 3.53796,-1.386517 6.749503,-1.659562 10.475148,-0.8906 8.275582,1.708051 14.749012,7.817586 17.157662,16.193148 0.55525,1.930767 0.55814,2.02843 0.63819,21.584065 l 0.0804,19.644523 H 102.5809 93.220244 L 93.14795,94.86608 93.075633,77.315332 92.503509,75.898441 c -1.154983,-2.86036 -3.578461,-5.097865 -6.442953,-5.948526 -4.528482,-1.344816 -9.480081,1.243492 -11.379922,5.948526 l -0.572125,1.416891 -0.07232,17.550748 -0.07231,17.55075 H 64.614212 55.264548 Z M 30.90493,44.656999 c -1.76464,-0.346557 -4.12831,-1.595032 -5.530528,-2.921191 -2.297434,-2.172817 -3.412789,-4.879601 -3.397201,-8.244448 0.02862,-6.178989 4.837936,-10.9883 11.016926,-11.016925 3.364846,-0.01559 6.07163,1.099767 8.244447,3.397201 4.169811,4.408962 4.118282,11.416765 -0.115076,15.650124 -2.722263,2.722263 -6.468568,3.871695 -10.218568,3.135239 z"
         id="path862" />
      <path
         style="fill:#9b705e;stroke-width:0.246326"
         d="m 76.202283,60.565144 c 0.45959,-0.474178 0.891043,-0.862142 0.958783,-0.862142 0.06774,0 -0.252867,0.387964 -0.712457,0.862142 -0.459591,0.474179 -0.891044,0.862143 -0.958783,0.862143 -0.06774,0 0.252866,-0.387964 0.712457,-0.862143 z"
         id="path860" />
      <path
         style="fill:#513d35;stroke-width:0.246326"
         d="m 23.602059,112.35525 c -0.06449,-0.16935 -0.08873,-12.999873 -0.05385,-28.512271 l 0.06341,-28.20436 9.483562,-0.0043 9.483562,-0.0043 -9.42198,0.06881 -9.421981,0.06881 v 28.321737 28.321734 l 9.545144,0.0675 9.545143,0.0675 -9.552873,0.0586 c -7.45913,0.0458 -9.578577,-0.009 -9.670138,-0.2493 z m 31.529766,0 c -0.06449,-0.16935 -0.08873,-12.999873 -0.05385,-28.512271 l 0.06341,-28.20436 9.483562,-0.0043 9.483562,-0.0043 -9.42198,0.06881 -9.421981,0.06881 v 28.321737 28.321734 l 9.545144,0.0675 9.545143,0.0675 -9.552873,0.0586 c -7.45913,0.0458 -9.578578,-0.009 -9.670137,-0.2493 z m 47.241045,0.12472 9.54357,-0.0689 0.0656,-18.28684 0.0656,-18.286836 -0.002,18.351309 -0.002,18.351307 -9.60673,0.004 -9.606721,0.004 9.543571,-0.0689 z M 90.443021,54.361882 c 0.177816,-0.07116 0.390275,-0.06241 0.472126,0.01944 0.08185,0.08185 -0.06364,0.140071 -0.323303,0.129375 -0.286958,-0.01182 -0.345325,-0.07019 -0.148823,-0.14882 z"
         id="path858" />
      <path
         style="fill:#000000;stroke-width:0.246326"
         d="m 15.975505,131.21409 c -4.991556,-0.67531 -9.1296081,-4.21386 -10.6371841,-9.09611 -0.4264974,-1.38121 -0.4474991,-3.9058 -0.4474991,-53.793557 0,-49.887757 0.021002,-52.41235 0.4474991,-53.793553 1.2980763,-4.203794 4.4915214,-7.3972389 8.6953151,-8.6953152 1.381203,-0.4264974 3.905796,-0.4474991 53.793553,-0.4474991 49.887761,0 52.412351,0.021002 53.793551,0.4474991 4.2038,1.2980763 7.39724,4.4915212 8.69532,8.6953152 0.42649,1.381203 0.4475,3.905796 0.4475,53.793553 0,49.887757 -0.021,52.412347 -0.4475,53.793557 -1.27681,4.13491 -4.35945,7.26358 -8.56143,8.68926 -1.28064,0.4345 -3.51421,0.45467 -53.188462,0.48019 -28.518427,0.0147 -52.184225,-0.0183 -52.590663,-0.0733 z M 42.701907,84.086413 V 55.509669 l -9.545143,0.06448 -9.545144,0.06447 -0.06341,28.20436 c -0.03488,15.512398 -0.01064,28.342921 0.05385,28.512271 0.09101,0.23897 2.242278,0.3079 9.608556,0.3079 h 9.491292 z m 31.529765,11.385655 c 0,-19.045683 -0.01456,-18.849886 1.587438,-21.354204 3.667399,-5.733069 11.878523,-5.733069 15.545923,0 1.602015,2.504355 1.587437,2.308225 1.587437,21.357095 v 17.193981 l 9.54514,-0.0645 9.54515,-0.0645 0.0721,-17.489165 c 0.0451,-10.924403 -0.0252,-18.520293 -0.18712,-20.236192 -0.50331,-5.332772 -2.45714,-9.613322 -6.15122,-13.476393 -5.67679,-5.936484 -14.109509,-8.368389 -20.998107,-6.055637 -3.660887,1.229095 -7.489194,3.798756 -9.557313,6.41512 l -0.989458,1.251761 v -3.719908 -3.719907 l -9.545143,0.06448 -9.545144,0.06447 -0.06341,28.20436 c -0.03487,15.512398 -0.01064,28.342921 0.05385,28.512271 0.09101,0.23897 2.242276,0.3079 9.608555,0.3079 h 9.491292 z M 36.168046,44.62877 c 5.276641,-1.330103 9.067431,-7.049125 8.253842,-12.452265 -0.412008,-2.736193 -1.107394,-4.253946 -2.823569,-6.162746 -4.342708,-4.830138 -11.901738,-5.02324 -16.503387,-0.421593 -4.602453,4.602455 -4.408585,12.160642 0.423352,16.504968 2.935289,2.639078 6.686219,3.53074 10.649762,2.531636 z"
         id="path856" />
  </g>
</svg>
