<?xml version="1.0" encoding="UTF-8" standalone="no"?>
<!-- Created with Inkscape (http://www.inkscape.org/) -->

<svg
   width="512mm"
   height="512mm"
   viewBox="0 0 512 512"
   version="1.1"
   id="svg5"
   inkscape:version="1.1.2 (b8e25be833, 2022-02-05)"
   sodipodi:docname="Logo.svg"
   xmlns:inkscape="http://www.inkscape.org/namespaces/inkscape"
   xmlns:sodipodi="http://sodipodi.sourceforge.net/DTD/sodipodi-0.dtd"
   xmlns="http://www.w3.org/2000/svg"
   xmlns:svg="http://www.w3.org/2000/svg">
  <sodipodi:namedview
     id="namedview7"
     pagecolor="#ffffff"
     bordercolor="#666666"
     borderopacity="1.0"
     inkscape:pageshadow="2"
     inkscape:pageopacity="0.0"
     inkscape:pagecheckerboard="0"
     inkscape:document-units="mm"
     showgrid="false"
     inkscape:zoom="0.50898197"
     inkscape:cx="1110.059"
     inkscape:cy="967.61777"
     inkscape:window-width="1920"
     inkscape:window-height="1001"
     inkscape:window-x="-9"
     inkscape:window-y="-9"
     inkscape:window-maximized="1"
     inkscape:current-layer="layer1"
     units="mm" />
  <defs
     id="defs2" />
  <g
     inkscape:label="Capa 1"
     inkscape:groupmode="layer"
     id="layer1">
    <g
       id="g622"
       transform="translate(24.259901,5.1460392)">
      <path
         style="fill:#f2f2f2;stroke-width:0.951322"
         d="m 153.34959,338.67697 -1.81226,-2.14048 2.14047,1.81226 c 2.01152,1.70308 2.57356,2.46869 1.81226,2.46869 -0.18052,0 -1.14373,-0.96321 -2.14047,-2.14047 z M 103.25773,138.42489 c 10.07212,-0.15409 26.55378,-0.15409 36.6259,0 10.07213,0.15408 1.8313,0.28016 -18.31295,0.28016 -20.14425,0 -28.385077,-0.12608 -18.31295,-0.28016 z m 112.73168,-7e-4 c 15.56601,-0.14668 41.03766,-0.14668 56.60367,0 15.56601,0.14668 2.83018,0.26669 -28.30184,0.26669 -31.13201,0 -43.86784,-0.12001 -28.30183,-0.26669 z m 132.70945,7e-4 c 10.07212,-0.15409 26.55378,-0.15409 36.6259,0 10.07213,0.15408 1.8313,0.28016 -18.31295,0.28016 -20.14425,0 -28.38508,-0.12608 -18.31295,-0.28016 z m -190.65181,-8.32532 c 0.004,-4.18581 0.1707,-5.77986 0.37167,-3.54231 0.20096,2.23755 0.19813,5.66231 -0.007,7.61058 -0.20441,1.94827 -0.36884,0.11755 -0.36538,-4.06827 z m 29.47703,0.95133 c 0.004,-3.6626 0.17616,-5.04435 0.38211,-3.07059 0.20593,1.97378 0.20248,4.97044 -0.008,6.65926 -0.21016,1.68882 -0.37866,0.0739 -0.37443,-3.58867 z m 113.20734,0 c 0.004,-3.6626 0.17617,-5.04435 0.38211,-3.07059 0.20593,1.97378 0.20248,4.97044 -0.008,6.65926 -0.21016,1.68882 -0.37866,0.0739 -0.37443,-3.58867 z m 29.50495,-0.95133 c 0.004,-4.18581 0.1707,-5.77986 0.37167,-3.54231 0.20096,2.23755 0.19813,5.66231 -0.007,7.61058 -0.20441,1.94827 -0.36884,0.11755 -0.36539,-4.06827 z M 222.64866,110.83621 c 11.90342,-0.15095 31.38175,-0.15095 43.28516,0 11.90342,0.15096 2.16426,0.27446 -21.64258,0.27446 -23.80683,0 -33.546,-0.1235 -21.64258,-0.27446 z"
         id="path632" />
      <path
         style="fill:#f0f0f0;stroke-width:0.951322"
         d="m 284.45467,393.54125 c -6.22229,-3.1007 -13.02431,-10.60865 -15.18696,-16.76311 -1.07224,-3.05138 -2.51952,-5.19512 -4.04738,-5.99506 -6.82731,-3.57454 -9.51322,-9.70657 -9.51322,-21.719 0,-16.20016 -2.9922,-24.94733 -12.58599,-36.7929 -2.75741,-3.4046 -6.57758,-9.18388 -8.48927,-12.84285 -19.86187,-38.01554 -1.06085,-85.01262 39.62604,-99.05354 6.35007,-2.19139 9.61949,-2.69029 19.73978,-3.01223 15.25741,-0.48534 23.35258,1.17447 35.32206,7.24233 11.7508,5.95702 24.02079,17.9837 29.83421,29.24264 6.02902,11.67644 8.22615,20.67498 8.11668,33.24244 -0.15489,17.78047 -4.11039,28.86984 -15.95865,44.74059 -3.50385,4.6934 -7.18588,10.12533 -8.18231,12.07097 -2.92135,5.70431 -4.62838,14.81939 -4.64346,24.79488 -0.0187,12.41021 -2.63654,18.47892 -9.52728,22.08667 -1.52786,0.79994 -2.97514,2.94368 -4.04738,5.99506 -2.16265,6.15446 -8.96467,13.66241 -15.18696,16.76311 -4.07334,2.02983 -6.25249,2.45288 -12.63495,2.45288 -6.38246,0 -8.56162,-0.42305 -12.63496,-2.45288 z m 21.48402,-12.63405 c 1.63174,-1.1619 3.86915,-3.3798 4.97205,-4.92867 l 2.00526,-2.81613 h -15.82637 -15.82638 l 2.00526,2.81613 c 1.96153,2.75471 5.74128,5.84105 8.58884,7.01318 2.99953,1.23469 11.10505,0.0348 14.08134,-2.08451 z m 18.04014,-22.25247 c 0.52844,-0.65403 1.12728,-3.00855 1.33077,-5.23227 l 0.36997,-4.04312 h -28.58994 -28.58995 l 0.36997,4.04312 c 0.20349,2.22372 0.80234,4.57824 1.33078,5.23227 1.38645,1.71596 52.39195,1.71596 53.7784,0 z m 2.91187,-27.28982 c 1.57221,-7.61191 7.51851,-19.07551 14.09513,-27.17337 19.36531,-23.8447 17.96349,-56.28018 -3.34949,-77.5013 -12.35785,-12.30458 -26.70673,-17.81488 -43.87634,-16.8495 -15.26134,0.85808 -26.34672,5.83958 -37.18791,16.71134 -21.36082,21.42102 -22.76833,53.76477 -3.37867,77.63946 6.57663,8.09786 12.52292,19.56146 14.09513,27.17337 l 1.16642,5.64724 h 28.63466 28.63465 z"
         id="path630" />
      <path
         style="fill:#e89900;stroke-width:0.951322"
         d="m 143.45109,455.07789 c 0,-0.57921 -0.61961,-1.05311 -1.37692,-1.05311 -1.39764,0 -6.23366,-8.54795 -6.23366,-11.01836 0,-0.74185 -0.35674,-1.34882 -0.79276,-1.34882 -0.43603,0 -0.82896,-0.53512 -0.87318,-1.18916 -0.23034,-3.40631 -3.70556,-11.01039 -4.99331,-10.9258 -0.78484,0.0516 -5.22312,-1.1207 -9.86285,-2.60503 l -8.43586,-2.69879 -3.97105,4.19061 c -5.87376,6.19851 -14.830828,14.17949 -15.913689,14.17949 -1.586078,0 -4.887139,-2.00463 -9.382664,-5.69778 -2.354523,-1.93429 -6.704181,-5.05257 -9.665908,-6.92951 -2.961727,-1.87694 -5.650515,-4.24932 -5.975084,-5.27194 -0.324569,-1.02264 0.315196,-4.15615 1.421701,-6.96338 1.106504,-2.80722 1.967215,-5.21556 1.912689,-5.35184 -0.05453,-0.13629 0.534605,-1.47332 1.30918,-2.97118 0.774574,-1.49787 1.139994,-2.99171 0.812044,-3.31967 -0.32795,-0.32795 -0.02548,-0.59627 0.672156,-0.59627 0.697636,0 1.000106,-0.26832 0.672156,-0.59627 -0.327951,-0.32796 0.0288,-1.80503 0.792768,-3.28238 1.922201,-3.71713 1.815985,-4.20124 -1.809664,-8.24797 -1.759289,-1.9636 -3.75556,-5.13087 -4.436158,-7.03836 -1.372998,-3.84807 -3.460472,-4.58739 -13.009569,-4.6076 -6.783649,-0.0144 -14.087558,-1.7029 -15.72996,-3.63651 -0.750382,-0.88343 -1.880561,-4.17481 -2.511509,-7.31417 -0.630947,-3.13936 -1.557824,-7.53348 -2.059726,-9.7647 -1.451749,-6.45381 -1.143409,-12.0936 0.752265,-13.75957 0.915648,-0.80469 4.661479,-2.43921 8.324069,-3.63226 3.662591,-1.19305 7.301398,-2.69384 8.086239,-3.3351 0.784841,-0.64124 2.804095,-1.4585 4.48723,-1.81611 2.704078,-0.57452 3.046994,-1.00273 2.946372,-3.67928 -0.108608,-2.889 0.537825,-5.4394 3.743874,-14.7709 0.782907,-2.27872 2.674142,-5.56757 4.202743,-7.30855 2.532972,-2.88489 3.030241,-3.07794 5.611138,-2.17823 5.244239,1.82815 5.809343,5.20897 2.479987,14.83693 -1.217896,3.52196 -2.321963,8.92541 -2.453484,12.00767 -0.368385,8.63329 -3.099418,12.08767 -11.260448,14.24288 -3.535281,0.93362 -8.273798,2.61141 -10.530038,3.72843 -3.320434,1.64388 -3.995966,2.40111 -3.544556,3.97325 0.306733,1.06827 0.828755,3.2266 1.16005,4.79629 0.712839,3.37746 1.958032,4.37938 4.614163,3.71274 1.071673,-0.26898 4.593401,-0.0631 7.826062,0.45751 3.449014,0.55545 7.059744,0.6075 8.738669,0.126 2.498391,-0.71653 3.157209,-0.46866 5.196785,1.95525 1.284624,1.52668 2.617234,3.66289 2.961355,4.74712 1.066345,3.35976 8.167238,15.50949 10.567001,18.08031 2.52768,2.70784 2.673216,8.00042 0.261977,9.52703 -0.733863,0.46463 -1.029943,0.85133 -0.657955,0.85934 0.371988,0.008 -0.805274,3.10617 -2.616136,6.88482 -1.810863,3.77863 -3.292478,7.59552 -3.292478,8.48196 0,0.88644 1.703368,2.96081 3.785263,4.6097 l 3.785263,2.99797 8.181457,-6.96115 c 14.04981,-11.95424 11.84525,-10.96463 18.21108,-8.17482 6.28063,2.75248 9.60402,3.67234 15.03003,4.16007 2.09291,0.18813 5.30362,1.01347 7.13492,1.83409 2.85759,1.28051 3.69234,2.46351 5.88808,8.34464 1.40716,3.76894 2.84487,8.02988 3.19493,9.46875 0.35006,1.43888 1.04342,2.61614 1.54081,2.61614 0.49738,0 0.63976,0.42809 0.31638,0.95132 -0.7478,1.20997 8.03184,1.25755 9.93434,0.0538 0.98888,-0.62566 1.54211,-3.74553 1.97956,-11.16347 0.33392,-5.66231 1.0754,-11.15131 1.64773,-12.19776 2.68479,-4.9088 7.08966,-5.84961 10.35991,-2.21272 1.50883,1.67799 1.76416,3.5971 1.76416,13.25966 0,6.21375 -0.21405,11.30002 -0.47566,11.30283 -0.26161,0.003 -0.36295,2.03884 -0.2252,4.52449 0.19945,3.5986 -0.21121,5.07211 -2.01558,7.23234 -2.12108,2.53938 -2.98923,2.79039 -13.56899,3.92319 -6.2166,0.66562 -12.05208,1.52404 -12.96773,1.9076 -1.00291,0.4201 -1.66481,0.27867 -1.66481,-0.35574 z m -10.67721,-55.80824 c -0.29137,-0.29138 -2.26771,-0.68886 -4.39184,-0.88329 -2.12413,-0.19443 -5.91697,-1.52773 -8.4285,-2.96287 -12.43369,-7.10487 -16.23762,-10.09461 -20.791854,-16.34162 -2.564223,-3.51733 -4.995289,-6.53872 -5.402374,-6.71422 -0.407084,-0.1755 -0.498174,-0.71062 -0.202421,-1.18915 0.295754,-0.47853 0.01302,-0.87007 -0.628287,-0.87007 -0.641312,0 -0.884338,-0.28169 -0.540059,-0.62596 0.344278,-0.34428 0.199614,-1.13967 -0.321477,-1.76756 -2.280498,-2.74782 -4.448707,-15.1694 -3.816611,-21.8652 0.409543,-4.3383 0.274593,-6.90285 -0.387196,-7.35818 -0.659949,-0.45405 -0.563572,-0.70402 0.275092,-0.71349 0.754365,-0.009 1.063333,-0.60769 0.743349,-1.44155 -0.301173,-0.78484 -0.08712,-1.42698 0.475661,-1.42698 0.562785,0 0.782875,-0.6264 0.489091,-1.39199 -0.627364,-1.63488 3.575032,-5.26727 6.093826,-5.26727 0.935749,0 3.065427,1.14779 4.73262,2.55064 2.83068,2.38185 2.9899,2.83822 2.40629,6.89709 -1.78456,12.41112 -1.74453,14.27418 0.4536,21.11038 1.19685,3.72221 3.06941,7.71633 4.16123,8.87583 1.09182,1.15949 3.16647,3.65986 4.61033,5.55636 6.27512,8.24235 20.74746,14.01626 30.50085,12.16867 4.19926,-0.79548 5.27806,-0.68031 7.30515,0.77987 3.72034,2.67986 4.5696,6.22494 2.23903,9.34648 -1.06419,1.42537 -2.96654,2.88017 -4.22744,3.23289 -2.83665,0.79351 -14.62441,1.02483 -15.34806,0.30119 z m 67.75654,-83.18659 c -3.34178,-3.34178 -2.42085,-5.84681 4.66412,-12.68677 3.61171,-3.48682 7.06462,-6.33967 7.67311,-6.33967 1.50747,0 5.10483,1.95174 5.96116,3.23421 0.38441,0.57571 0.70548,2.2925 0.71349,3.81509 0.0111,2.11662 -1.29335,4.07626 -5.54115,8.32407 -6.19071,6.1907 -9.92139,7.20241 -13.47073,3.65307 z m 179.64769,-3.65307 c -4.24781,-4.24781 -5.5523,-6.20745 -5.54116,-8.32407 0.008,-1.52259 0.32908,-3.23938 0.71349,-3.81509 0.85634,-1.28247 4.45369,-3.23421 5.96116,-3.23421 0.60849,0 4.0614,2.85285 7.67312,6.33967 7.08496,6.83996 8.0059,9.34499 4.66411,12.68677 -3.54933,3.54934 -7.28002,2.53763 -13.47072,-3.65307 z M 199.25088,277.24178 c -2.08974,-2.30914 -2.00241,-7.09129 0.1653,-9.05304 1.33728,-1.21023 3.64797,-1.57443 9.98888,-1.57443 6.98074,0 8.54172,0.29256 10.15181,1.90264 2.37703,2.37703 2.45832,6.81281 0.16292,8.89012 -2.64525,2.39392 -18.26702,2.26776 -20.46891,-0.16529 z m 175.04329,0 c -2.13559,-2.35981 -1.98311,-6.4135 0.32822,-8.72483 1.61583,-1.61583 3.17107,-1.90264 10.3171,-1.90264 9.47037,0 11.56331,1.14914 11.56331,6.34889 0,4.85481 -2.33089,6.0183 -12.05682,6.0183 -7.10146,0 -8.8483,-0.29935 -10.15181,-1.73972 z m -40.81115,-5.63303 c -0.8133,-0.91565 -1.92307,-4.56445 -2.46618,-8.10845 -2.59466,-16.93133 -13.22531,-27.72019 -29.81397,-30.25767 -8.07339,-1.23494 -10.29684,-2.77952 -10.29684,-7.15301 0,-5.93191 6.24665,-7.58017 17.55994,-4.63344 12.48778,3.25265 24.02415,12.16291 29.74964,22.97749 5.96395,11.26503 7.76826,23.23081 4.06182,26.93725 -2.34683,2.34684 -6.81385,2.46765 -8.79441,0.23783 z m -128.8302,-29.0946 c -6.59079,-6.59079 -7.53984,-9.58396 -4.1224,-13.00141 3.46421,-3.46421 6.60994,-2.48778 13.10817,4.06872 6.48819,6.54637 7.43763,9.63308 4.01563,13.05508 -3.41744,3.41745 -6.41062,2.4684 -13.0014,-4.12239 z m 171.87221,4.12239 c -3.46421,-3.46421 -2.48778,-6.60994 4.06872,-13.10816 6.54637,-6.48819 9.63308,-7.43764 13.05508,-4.01564 3.41745,3.41745 2.4684,6.41062 -4.12239,13.00141 -6.59079,6.59079 -9.58396,7.53984 -13.00141,4.12239 z"
         id="path628" />
      <path
         style="fill:#0c0c0c;stroke-width:0.951322"
         d="m 271.1661,452.36021 c 23.93764,-0.14149 63.10833,-0.14149 87.04598,0 23.93764,0.1415 4.3523,0.25726 -43.52299,0.25726 -47.87529,0 -67.46064,-0.11576 -43.52299,-0.25726 z M 443.57811,296.1053 c 0,-63.04888 0.11377,-88.8416 0.25282,-57.31716 0.13906,31.52443 0.13906,83.10988 0,114.63432 -0.13905,31.52444 -0.25282,5.73172 -0.25282,-57.31716 z m -288.8325,41.14468 c -1.18332,-1.50885 -1.14968,-1.5425 0.35918,-0.35918 0.91564,0.71811 1.66481,1.46727 1.66481,1.66482 0,0.78297 -0.78122,0.27903 -2.02399,-1.30564 z M 44.952059,225.23179 c 2.01e-4,-24.06845 0.123634,-33.77825 0.274298,-21.57733 0.150663,12.2009 0.150499,31.89327 -3.64e-4,43.76082 -0.150863,11.86753 -0.274133,1.88497 -0.273934,-22.18349 z m 77.767961,-85.8506 35.8726,-0.26686 0.34615,-7.36134 0.34614,-7.36135 -0.0685,7.61058 -0.0685,7.61058 -36.15025,0.0176 -36.150241,0.0176 35.872601,-0.26685 z m 63.94644,-0.55853 c -0.27029,-0.70438 -0.34429,-4.66761 -0.16444,-8.80717 l 0.32699,-7.52649 0.19146,8.32406 0.19144,8.32407 h 57.04086 57.04086 l 0.34163,-7.8484 0.34163,-7.84841 -0.0654,8.08624 -0.0654,8.08624 -57.34416,0.24527 c -47.35267,0.20252 -57.4298,0.0222 -57.83562,-1.03541 z m 142.69153,-0.0177 c -0.2709,-0.70595 -0.34131,-4.23773 -0.15647,-7.84841 l 0.33607,-6.56487 0.18633,7.3613 0.18632,7.36131 35.91242,0.26106 35.91241,0.26106 -35.94227,0.22604 c -29.44213,0.18517 -36.03134,-0.006 -36.43481,-1.05749 z M 222.173,109.88485 c 12.16504,-0.15057 32.07145,-0.15057 44.23649,0 12.16503,0.15058 2.21182,0.27377 -22.11825,0.27377 -24.33006,0 -34.28327,-0.12319 -22.11824,-0.27377 z m 0.47566,-27.588306 c 11.90342,-0.150954 31.38175,-0.150954 43.28516,0 11.90342,0.150955 2.16426,0.274465 -21.64258,0.274465 -23.80683,0 -33.546,-0.12351 -21.64258,-0.274465 z"
         id="path626" />
      <path
         style="fill:#000000;stroke-width:0.951322"
         d="m 207.47036,452.00454 c -4.93217,-1.10044 -7.45974,-2.5155 -10.9956,-6.15584 -6.27966,-6.46523 -6.80069,-8.45099 -6.96558,-26.54718 -0.10017,-10.99409 -0.64529,-18.40759 -1.70243,-23.15292 -4.3392,-19.47795 -13.06059,-37.44899 -24.73543,-50.96909 -17.70969,-20.50877 -37.15727,-32.76872 -62.17288,-39.19439 -7.592365,-1.95022 -11.994688,-2.43529 -24.039904,-2.64883 -16.637153,-0.29496 -19.347481,-1.04133 -25.031299,-6.8931 -7.104128,-7.31406 -6.760323,-3.77888 -6.460831,-66.43362 0.286071,-59.84719 0.214518,-58.88361 5.084579,-68.47337 3.089947,-6.0845 12.201873,-14.4688 19.461363,-17.90729 l 6.470527,-3.06479 41.529975,-0.27532 41.52996,-0.27532 0.36481,-13.0432 c 0.34302,-12.26363 0.54467,-13.42877 3.37399,-19.49469 4.00329,-8.582839 12.2309,-16.824875 20.88941,-20.926012 l 6.47052,-3.064793 h 53.7497 53.74971 l 6.47052,3.064793 c 8.55744,4.053266 16.43004,11.931958 20.70224,20.718262 3.12014,6.41698 3.25047,7.13379 3.58196,19.70244 l 0.34401,13.0432 41.52996,0.27532 41.52997,0.27532 6.47053,3.06479 c 8.54026,4.04513 16.42305,11.92802 20.71802,20.71826 l 3.25376,6.65926 V 296.1053 421.20417 l -3.04577,6.4515 c -4.05678,8.593 -12.30768,16.84391 -20.92601,20.92602 -6.46282,3.06114 -6.49092,3.06506 -23.59433,3.29651 -41.79743,0.56561 -185.20382,0.66218 -187.60545,0.12634 z m 102.25422,-58.46329 c 6.22229,-3.1007 13.02431,-10.60865 15.18696,-16.76311 1.07224,-3.05138 2.51952,-5.19512 4.04738,-5.99506 6.89074,-3.60775 9.50853,-9.67646 9.52728,-22.08667 0.0151,-9.97549 1.72211,-19.09057 4.64346,-24.79488 0.99643,-1.94564 4.67846,-7.37757 8.18231,-12.07097 11.84826,-15.87075 15.80376,-26.96012 15.95865,-44.74059 0.10947,-12.56746 -2.08766,-21.566 -8.11668,-33.24244 -5.81342,-11.25894 -18.08341,-23.28562 -29.83421,-29.24264 -11.96948,-6.06786 -20.06465,-7.72767 -35.32206,-7.24233 -10.12029,0.32194 -13.38971,0.82084 -19.73978,3.01223 -40.68689,14.04092 -59.48791,61.038 -39.62604,99.05354 1.91169,3.65897 5.73186,9.43825 8.48927,12.84285 9.59379,11.84557 12.58599,20.59274 12.58599,36.7929 0,12.01243 2.68591,18.14446 9.51322,21.719 1.52786,0.79994 2.97514,2.94368 4.04738,5.99506 2.16265,6.15446 8.96467,13.66241 15.18696,16.76311 4.07334,2.02983 6.2525,2.45288 12.63496,2.45288 6.38246,0 8.56161,-0.42305 12.63495,-2.45288 z m -17.86723,-10.54954 c -2.84756,-1.17213 -6.62731,-4.25847 -8.58884,-7.01318 l -2.00526,-2.81613 h 15.82638 15.82637 l -2.00526,2.81613 c -3.30698,4.64422 -7.44215,7.01252 -12.78262,7.32088 -2.66407,0.15383 -5.48592,0.0153 -6.27077,-0.3077 z m -21.65692,-24.33698 c -0.52844,-0.65403 -1.12729,-3.00855 -1.33078,-5.23227 l -0.36997,-4.04312 h 28.58995 28.58994 l -0.36997,4.04312 c -0.20349,2.22372 -0.80233,4.57824 -1.33077,5.23227 -1.38645,1.71596 -52.39195,1.71596 -53.7784,0 z m -2.91188,-27.28982 c -1.57221,-7.61191 -7.5185,-19.07551 -14.09513,-27.17337 -26.16503,-32.21727 -13.03562,-78.18682 26.27536,-91.99701 7.59038,-2.66654 21.58928,-3.27118 29.98804,-1.29523 21.95215,5.16462 39.23215,22.53096 43.78114,43.99989 3.73438,17.62444 -0.55794,34.89318 -12.25213,49.29235 -6.57662,8.09786 -12.52292,19.56146 -14.09513,27.17337 l -1.16642,5.64724 h -28.63465 -28.63466 z m 74.98888,-59.99399 c 3.70644,-3.70644 1.90213,-15.67222 -4.06182,-26.93725 -5.72549,-10.81458 -17.26186,-19.72484 -29.74964,-22.97749 -11.31329,-2.94673 -17.55994,-1.29847 -17.55994,4.63344 0,4.37349 2.22345,5.91807 10.29684,7.15301 16.58866,2.53748 27.21931,13.32634 29.81397,30.25767 0.54311,3.544 1.65288,7.1928 2.46618,8.10845 1.98056,2.22982 6.44758,2.10901 8.79441,-0.23783 z m -128.27628,41.05907 c 4.2478,-4.24781 5.55229,-6.20745 5.54115,-8.32407 -0.008,-1.52259 -0.32908,-3.23938 -0.71349,-3.81509 -0.85633,-1.28247 -4.45369,-3.23421 -5.96116,-3.23421 -0.60849,0 -4.0614,2.85285 -7.67311,6.33967 -7.08497,6.83996 -8.0059,9.34499 -4.66412,12.68677 3.54934,3.54934 7.28002,2.53763 13.47073,-3.65307 z m 179.64768,3.65307 c 3.34179,-3.34178 2.42085,-5.84681 -4.66411,-12.68677 -3.61172,-3.48682 -7.06463,-6.33967 -7.67312,-6.33967 -1.50747,0 -5.10482,1.95174 -5.96116,3.23421 -0.38441,0.57571 -0.70548,2.2925 -0.71349,3.81509 -0.0111,2.11662 1.29335,4.07626 5.54116,8.32407 6.1907,6.1907 9.92139,7.20241 13.47072,3.65307 z M 219.71979,277.40707 c 2.2954,-2.07731 2.21411,-6.51309 -0.16292,-8.89012 -1.61009,-1.61008 -3.17107,-1.90264 -10.15181,-1.90264 -9.37355,0 -11.7286,1.20845 -11.7286,6.0183 0,5.22312 2.07925,6.34889 11.72623,6.34889 6.64633,0 8.96905,-0.35445 10.3171,-1.57443 z m 175.04329,0 c 2.16771,-1.96175 2.25503,-6.7439 0.16529,-9.05304 -1.29921,-1.43562 -3.04527,-1.73972 -9.98888,-1.73972 -7.14603,0 -8.70127,0.28681 -10.3171,1.90264 -2.31133,2.31133 -2.46381,6.36502 -0.32822,8.72483 2.20188,2.43305 17.82366,2.55921 20.46891,0.16529 z M 217.65422,246.63654 c 3.422,-3.422 2.47256,-6.50871 -4.01563,-13.05508 -6.49823,-6.5565 -9.64396,-7.53293 -13.10817,-4.06872 -3.41744,3.41745 -2.46839,6.41062 4.1224,13.00141 6.59078,6.59079 9.58396,7.53984 13.0014,4.12239 z m 171.87222,-4.12239 c 6.59079,-6.59079 7.53984,-9.58396 4.12239,-13.00141 -3.422,-3.422 -6.50871,-2.47255 -13.05508,4.01564 -6.5565,6.49822 -7.53293,9.64395 -4.06872,13.10816 3.41745,3.41745 6.41062,2.4684 13.00141,-4.12239 z m -87.3582,-112.65241 c -0.29881,-9.49002 -0.51387,-10.47751 -2.98552,-13.70826 -5.09468,-6.65937 -3.81222,-6.50733 -54.89148,-6.50733 -51.05127,0 -49.94729,-0.13005 -54.99256,6.47775 -2.35481,3.08412 -2.58851,4.19092 -2.88443,13.66029 l -0.322,10.30427 h 58.19899 58.199 z"
         id="path624" />
    </g>
  </g>
</svg>
