<?xml version="1.0" encoding="UTF-8" ?>
<svg xmlns="http://www.w3.org/2000/svg" width="212" height="212" id="fe_logo" version="1.1" viewBox="0 0 135.49791 135.49791">
    <g transform="translate(-1.1027181,3.308168)">
      <path
         style="fill:#ededed;stroke-width:0.195236"
         d="m 40.210999,124.94683 c -0.610483,-0.5983 -1.012435,-1.29493 -1.977257,-3.42681 -0.175653,-0.38813 -0.31937,-0.79878 -0.31937,-0.91256 0,-0.46021 -0.981992,-2.34394 -1.22173,-2.34363 -0.141553,1.9e-4 -1.297842,-0.31776 -2.569529,-0.70656 l -2.31216,-0.7069 -2.12833,2.01521 c -2.940138,2.78387 -3.452687,3.14761 -4.222686,2.99668 -0.340485,-0.0667 -1.560159,-0.80149 -2.710389,-1.63278 -1.150228,-0.83129 -2.558761,-1.83965 -3.130071,-2.2408 -0.57131,-0.40115 -1.125972,-0.88909 -1.232582,-1.08432 -0.414873,-0.75973 -0.353822,-0.96733 2.302598,-7.8295 0.04283,-0.11064 -0.303191,-0.68211 -0.768939,-1.26993 -0.465746,-0.58783 -1.009471,-1.42229 -1.208278,-1.85437 -0.455044,-0.98898 -0.967547,-1.21621 -2.747144,-1.21804 -3.176149,-0.003 -5.484804,-0.69418 -5.94241,-1.77839 -0.2437673,-0.57756 -1.0916042,-4.239015 -1.384885,-5.980741 -0.1532484,-0.910105 0.155743,-2.24795 0.6255295,-2.708363 0.2024002,-0.198362 1.2516165,-0.699327 2.3315925,-1.113255 1.079975,-0.413927 2.496067,-0.973195 3.14687,-1.242819 l 1.183279,-0.490223 0.138994,-1.025206 c 0.347714,-2.564719 2.081474,-6.18621 3.200909,-6.686083 0.633704,-0.282974 1.681017,0.01005 2.283937,0.639036 0.623509,0.650454 0.601863,1.793487 -0.07634,4.03089 -0.28591,0.943224 -0.605001,2.449509 -0.70909,3.347299 -0.33569,2.895354 -0.994154,3.575334 -4.529272,4.677282 -2.556415,0.796871 -2.851494,1.0166 -2.690477,2.003454 0.226881,1.390529 0.279374,1.423798 2.520784,1.597669 1.116443,0.0866 2.584297,0.13713 3.261898,0.11229 1.152924,-0.0423 1.26786,-0.007 1.790645,0.55426 0.307252,0.32968 0.970978,1.40078 1.474947,2.38021 0.50397,0.97943 1.295607,2.33631 1.759194,3.01529 1.631761,2.38989 1.86623,3.14202 1.248815,4.00592 -0.156375,0.2188 -0.459111,0.82524 -0.672746,1.34763 -0.213635,0.5224 -0.621521,1.49299 -0.906413,2.15687 -0.591639,1.37869 -0.535011,1.61746 0.581572,2.45213 l 0.709115,0.53008 2.307828,-1.90729 c 3.097066,-2.55955 3.382483,-2.76517 3.838374,-2.76517 0.215976,0 1.158026,0.29897 2.093447,0.66438 0.93542,0.36541 2.53513,0.80525 3.554911,0.97743 3.21529,0.54286 3.657118,0.9568 4.849199,4.54311 0.300347,0.90358 0.68145,1.79508 0.846894,1.98111 0.37475,0.42138 2.051517,0.47049 2.390643,0.07 0.124923,-0.14752 0.314535,-1.25645 0.421362,-2.4643 0.23917,-2.70422 0.361121,-3.39912 0.717621,-4.0891 0.305248,-0.5908 1.335211,-1.29422 1.896689,-1.29537 0.623734,-10e-4 1.502105,0.56704 1.826426,1.18169 0.371366,0.70382 0.469342,3.85039 0.227902,7.31936 -0.171664,2.46646 -0.506355,3.24104 -1.620392,3.7501 -0.471322,0.21537 -6.549121,1.09083 -7.536829,1.08563 -0.131967,-7.7e-4 -0.543565,-0.29883 -0.914659,-0.66252 z m 19.199603,-0.29631 c -1.280108,-0.25964 -2.173781,-0.76108 -3.268507,-1.83397 -1.754797,-1.71979 -1.887214,-2.17636 -2.075069,-7.15482 -0.204072,-5.40829 -0.283873,-6.15717 -0.907013,-8.51177 C 51.81361,102.06243 49.392974,97.501415 46.053265,93.759279 45.286281,92.899875 44.870617,92.57598 44.63054,92.650657 44.21571,92.779694 43.693744,92.24557 43.602231,91.598396 43.558199,91.28702 43.023757,90.701151 42.055847,89.903213 38.169382,86.699241 33.67541,84.441051 28.645355,83.164533 27.143125,82.783301 25.809785,82.636801 21.917417,82.4253 16.250397,82.11737 15.884579,82.014927 14.057411,80.22421 12.075379,78.28172 12.175944,79.262513 12.19078,62.01937 c 0.009,-10.410509 0.08373,-15.329166 0.252689,-16.621975 0.521578,-3.990936 2.927078,-7.100028 7.211148,-9.320358 l 1.595245,-0.826777 3.74705,-0.141677 c 2.060877,-0.07792 7.407818,-0.195384 11.882091,-0.261025 l 8.135041,-0.119348 v -1.612036 c 0,-0.88662 0.07542,-1.657721 0.167608,-1.713557 0.09218,-0.05584 0.225631,-0.841349 0.296551,-1.745584 0.160151,-2.041948 0.67413,-3.415743 1.984142,-5.303342 1.269535,-1.829277 3.211538,-3.45159 5.441258,-4.545523 L 54.595157,18.978266 60.3062,18.81641 c 7.225763,-0.204785 12.871953,-0.204877 20.082095,-3.29e-4 l 5.693675,0.161527 1.504604,0.716794 c 3.399937,1.619731 5.836073,4.121684 7.111282,7.303408 0.414765,1.034861 0.751945,3.264966 0.930488,6.154236 l 0.09727,1.57408 8.219746,0.12152 c 4.52087,0.06684 9.86155,0.185922 11.8682,0.264639 l 3.64844,0.143121 1.38059,0.700367 c 3.11204,1.578728 5.16054,3.586429 6.68294,6.549843 l 0.84779,1.650268 0.16872,11.20277 c 0.21331,14.164721 0.21592,34.616978 0.006,49.085406 l -0.16245,11.21017 -0.96967,1.86537 c -1.56079,3.00252 -4.10994,5.36829 -7.0707,6.56205 -1.00755,0.40625 -1.48782,0.44526 -7.09569,0.57641 -7.78331,0.18202 -52.935735,0.1757 -53.839186,-0.008 z m 27.09415,-92.077378 c 0.0822,-1.347516 0.05679,-2.392517 -0.06587,-2.708694 -0.312046,-0.804373 -1.040504,-1.678933 -1.661814,-1.995113 -0.792351,-0.403222 -5.833353,-0.736927 -6.954104,-0.460349 -1.10436,0.272534 -13.720133,0.27699 -15.012754,0.0053 -0.650441,-0.136711 -1.82787,-0.141439 -3.663532,-0.01471 -3.12516,0.215752 -3.667409,0.429964 -4.523448,1.786953 -0.550203,0.872176 -0.55179,0.88447 -0.416648,3.228022 l 0.135657,2.352509 H 70.356578 86.370917 Z M 36.900605,109.47045 c -1.703024,-0.36512 -2.218689,-0.57968 -4.254589,-1.77031 -4.145688,-2.42447 -7.049397,-6.13741 -7.744277,-9.902519 -0.125325,-0.67905 -0.239032,-2.288096 -0.252686,-3.575657 -0.03548,-3.346694 0.510936,-4.738976 2.09001,-5.325349 0.720003,-0.267364 1.658424,0.143997 2.518459,1.10398 0.5411,0.603984 0.600068,0.780481 0.493289,1.476445 -0.0667,0.434751 -0.177442,1.661996 -0.24609,2.72721 -0.187641,2.911588 0.401646,4.628823 2.40543,7.00964 1.266662,1.505 2.654224,2.49898 4.525122,3.24158 1.253079,0.49737 1.608017,0.54889 3.845656,0.55818 2.247405,0.009 2.521344,0.0495 3.101159,0.45483 0.403644,0.28216 0.723827,0.7319 0.876417,1.23104 0.211109,0.69056 0.193677,0.87203 -0.14296,1.48821 -0.635152,1.16257 -1.739118,1.57663 -4.12292,1.54635 -1.088806,-0.0138 -2.480215,-0.13246 -3.09202,-0.26363 z"
         id="path347" />
      <path
         style="fill:#EF8354;stroke-width:0.195236"
         d="m 40.590311,125.00417 c -0.891437,-0.68721 -1.326219,-1.50938 -2.876432,-5.43934 -0.241827,-0.61305 -0.539696,-1.17685 -0.661932,-1.25288 -0.240265,-0.14944 -4.032873,-1.3287 -4.88226,-1.51807 -0.455436,-0.10154 -0.773223,0.13039 -2.611395,1.90589 -2.546079,2.45926 -3.482407,3.13176 -4.136425,2.97088 -0.471363,-0.11594 -4.592765,-2.97045 -6.193439,-4.28961 -0.668618,-0.55103 -0.83666,-0.81508 -0.830761,-1.30542 0.0041,-0.33807 0.541766,-1.96279 1.194887,-3.61049 0.653121,-1.6477 1.232614,-3.13162 1.287765,-3.2976 0.05691,-0.17127 -0.278367,-0.79819 -0.775233,-1.44959 -0.481527,-0.6313 -1.067977,-1.52096 -1.303221,-1.97704 -0.235245,-0.45607 -0.623767,-0.90036 -0.863385,-0.98732 -0.239617,-0.087 -1.456245,-0.20849 -2.703618,-0.27007 -3.280734,-0.16197 -4.694445,-0.67163 -5.157761,-1.85942 -0.3745328,-0.96018 -1.1923585,-5.176835 -1.2027102,-6.201099 -0.01952,-1.931375 0.1335091,-2.095892 2.9447262,-3.165776 2.036793,-0.775157 3.806889,-1.511543 4.155294,-1.728661 0.135584,-0.08449 0.246517,-0.451866 0.246517,-0.816382 0,-0.862083 1.091855,-4.205215 1.716049,-5.254344 0.688785,-1.157687 1.575295,-1.848214 2.181373,-1.699133 1.343128,0.330378 1.983069,1.391812 1.648027,2.733494 -0.103018,0.412532 -0.416681,1.609223 -0.697032,2.659311 -0.28035,1.050089 -0.510224,2.224258 -0.510829,2.609263 -0.0025,1.578552 -0.783533,2.997367 -1.985336,3.606445 -0.307429,0.155806 -1.295249,0.510617 -2.195156,0.788471 -0.899907,0.277854 -1.980035,0.676393 -2.400285,0.885644 -0.743164,0.370038 -0.760954,0.40288 -0.649594,1.199132 0.248073,1.773775 0.249769,1.775085 2.531095,1.957995 1.120899,0.0899 2.61778,0.1442 3.326401,0.12073 1.183404,-0.0392 1.32962,10e-4 1.794191,0.49488 0.278185,0.29565 1.016322,1.49427 1.640305,2.66361 0.623984,1.16933 1.536112,2.68947 2.026952,3.37807 0.996915,1.39858 1.262866,2.44197 0.800616,3.14101 -0.389424,0.5889 -2.127105,4.57814 -2.127105,4.88326 0,0.25893 1.65706,1.83725 1.92891,1.83725 0.08954,0 1.223035,-0.8828 2.518873,-1.96178 2.455118,-2.04426 3.353203,-2.67497 3.810718,-2.67619 0.149251,-3.8e-4 1.03671,0.29825 1.972131,0.66366 0.93542,0.36541 2.543849,0.80597 3.574287,0.97903 2.983271,0.50103 3.414045,0.88845 4.524657,4.06935 0.944316,2.7046 1.015539,2.79151 2.287791,2.79151 1.309213,0 1.607772,-0.27301 1.743681,-1.59444 0.05741,-0.55815 0.191843,-1.86626 0.298748,-2.90691 0.212707,-2.07059 0.623559,-2.99708 1.503248,-3.38989 0.813405,-0.36322 1.27434,-0.26817 1.960466,0.40426 0.608621,0.59648 0.651276,0.73144 0.785429,2.48509 0.07802,1.01989 0.08933,2.23638 0.02513,2.70332 -0.0642,0.46694 -0.158048,1.71681 -0.208558,2.77749 -0.14737,3.0947 -0.510145,3.36356 -5.327889,3.94851 -1.843942,0.22389 -3.407213,0.4065 -3.473936,0.4058 -0.06672,-7.7e-4 -0.361013,-0.18605 -0.653977,-0.4119 z m 18.849236,-0.57026 c -1.76908,-0.34089 -3.799843,-2.02018 -4.616049,-3.81712 -0.35824,-0.78869 -0.431465,-1.48176 -0.575367,-5.44576 -0.09069,-2.49813 -0.296459,-5.29765 -0.457267,-6.22117 -0.628741,-3.61086 -2.675117,-8.58631 -4.886225,-11.880088 -1.305097,-1.944141 -3.62485,-4.658268 -4.110521,-4.809339 -0.199976,-0.0622 -0.513251,-0.361394 -0.696166,-0.664867 C 43.657861,90.865411 41.257203,88.870335 39.130735,87.467541 35.760159,85.244025 30.764027,83.251242 26.969043,82.61666 25.992838,82.453422 23.4191,82.245131 21.249628,82.15379 16.692447,81.961922 15.993629,81.765883 14.380777,80.226885 12.355992,78.294821 12.289855,77.783016 12.290183,64.048797 c 3.15e-4,-12.968109 0.21909,-18.887832 0.761263,-20.598131 0.974703,-3.074723 3.904415,-5.989009 7.606777,-7.566722 l 1.183279,-0.50424 11.584265,-0.139189 c 8.126926,-0.09765 11.635949,-0.203492 11.757439,-0.354642 0.09524,-0.118497 0.232127,-1.34613 0.304183,-2.728074 0.180377,-3.459332 0.420037,-4.593965 1.334829,-6.319588 1.425451,-2.688902 4.044214,-5.003963 7.066417,-6.246914 l 1.281885,-0.527205 15.20373,-7.74e-4 15.20373,-7.73e-4 1.263566,0.541744 c 1.932819,0.828681 3.785043,2.099764 5.083514,3.488546 1.134346,1.213242 2.594561,3.647651 2.867774,4.781034 0.109286,0.453355 0.690179,6.254976 0.703714,7.028286 0.003,0.173435 1.157641,0.231195 4.589262,0.229577 2.52186,-0.0012 7.78006,0.05619 11.68488,0.1275 7.04438,0.12865 7.10889,0.133527 8.28295,0.625939 3.2083,1.345593 5.57273,3.52993 7.21718,6.667476 l 1.02153,1.949033 v 35.444818 35.444812 l -0.94326,1.87097 c -0.79707,1.58099 -1.22155,2.14361 -2.73886,3.63018 -1.47777,1.44782 -2.10715,1.90969 -3.55563,2.60927 l -1.76002,0.85004 -6.91736,0.12667 c -10.08814,0.18473 -51.930554,0.14953 -52.937673,-0.0445 z m 29.895712,-17.0744 c 1.524148,-0.8238 3.258584,-2.69479 4.115457,-4.43948 0.575298,-1.17136 0.92167,-1.61315 1.687498,-2.15237 1.768579,-1.24525 2.081168,-2.091829 2.321393,-6.287018 0.281475,-4.915506 0.689769,-6.025613 3.764123,-10.234213 2.05486,-2.812985 3.36508,-5.26752 3.97209,-7.441233 0.36823,-1.318645 0.43396,-2.072525 0.44652,-5.121888 0.017,-4.129636 -0.22221,-5.270832 -1.78277,-8.504266 -2.50492,-5.190097 -7.879012,-9.473779 -13.426832,-10.702514 -1.913886,-0.423889 -7.701715,-0.432941 -9.525905,-0.0149 -10.176402,2.332096 -16.899609,12.385057 -15.088818,22.561748 0.547892,3.079167 1.775471,5.812755 3.83803,8.546573 1.939211,2.570326 2.981618,4.275035 3.455249,5.650569 0.536832,1.559079 0.655615,2.367912 0.881746,6.004112 0.210472,3.384422 0.588243,4.32648 2.230212,5.56154 0.821152,0.61766 1.199892,1.09709 1.755868,2.22271 0.797827,1.61525 1.959813,2.99904 3.24737,3.86723 1.475119,0.99466 2.106503,1.14064 4.709278,1.08881 2.192783,-0.0437 2.442404,-0.0881 3.399491,-0.60542 z m -5.003883,-2.41747 c -1.170261,-0.28422 -3.22733,-2.14418 -3.22733,-2.91808 0,-0.38085 0.102216,-0.38841 4.568884,-0.33768 3.153888,0.0358 4.59165,0.11891 4.642389,0.26832 0.04043,0.11905 -0.222279,0.59651 -0.58379,1.06103 -1.122279,1.44205 -3.662824,2.34835 -5.400153,1.92641 z m -5.267492,-6.753064 c -1.323448,-0.150062 -1.625963,-0.428666 -1.816323,-1.672749 -0.258189,-1.687378 -1.058389,-1.536402 8.444355,-1.593222 l 8.428197,-0.05039 v 0.939627 c 0,1.14611 -0.308946,2.076951 -0.753331,2.26974 -0.428593,0.18594 -12.791054,0.278422 -14.302898,0.106998 z m -1.845628,-6.644217 c -0.104786,-0.13401 -0.300472,-0.744554 -0.434859,-1.356767 -0.51419,-2.342415 -1.781215,-4.774216 -4.056686,-7.785988 -1.590917,-2.105708 -2.921271,-4.683628 -3.48673,-6.756481 -0.59755,-2.190488 -0.595805,-5.943537 0.0038,-8.107275 1.301153,-4.695586 4.52946,-8.548071 9.000704,-10.740948 2.783095,-1.364942 3.946611,-1.620308 7.395492,-1.623149 3.31949,-0.0027 4.446001,0.234383 7.198279,1.515158 3.07707,1.431916 5.485543,3.534822 7.279854,6.356245 1.82961,2.876924 2.61882,5.987748 2.42534,9.559918 -0.19826,3.660387 -1.24484,6.239451 -4.057215,9.998087 -1.962049,2.622207 -3.234624,5.064613 -3.826774,7.344593 l -0.45178,1.739509 -8.399439,0.05038 c -6.573992,0.03943 -8.440845,-0.0026 -8.589957,-0.193279 z m 9.358455,-56.563462 c 0.302562,-0.02572 0.352098,-4.5556 0.0581,-5.313435 -0.387418,-0.998652 -1.544256,-2.003625 -2.589212,-2.249304 -1.407098,-0.330824 -25.973292,-0.330578 -27.38051,2.7e-4 -1.096665,0.257838 -2.056838,1.053529 -2.504149,2.075178 -0.18431,0.420957 -0.2723,1.420328 -0.272281,3.09246 l 3.2e-5,2.470512 16.220748,-0.02736 c 8.921413,-0.01506 16.331683,-0.0368 16.467267,-0.04832 z M 36.780298,109.25362 c -1.63441,-0.34792 -2.199639,-0.59367 -4.294955,-1.86739 -2.340575,-1.42282 -3.173536,-2.15037 -4.742288,-4.14215 -2.219334,-2.81781 -2.815535,-4.689492 -2.860687,-8.980703 -0.03671,-3.488726 0.472941,-4.771388 2.086675,-5.251649 0.495348,-0.147421 1.795306,0.558437 2.329959,1.265132 0.368688,0.487327 0.379724,0.6285 0.166199,2.126066 -0.573855,4.024777 -0.04205,6.097911 2.282916,8.899444 1.354471,1.63211 2.612521,2.54431 4.551685,3.30038 1.402905,0.54698 1.703193,0.59193 4.026478,0.60274 l 2.510517,0.0117 0.601575,0.58942 c 0.879587,0.86181 0.975511,1.77041 0.273265,2.58833 -0.303986,0.35406 -0.842418,0.76238 -1.196518,0.90738 -0.82084,0.33613 -4.05607,0.30866 -5.734821,-0.0487 z"
         id="path345" />
      <path
         style="fill:#a2a2a2;stroke-width:0.195236"
         d="m 40.653348,124.6532 c -0.432362,-0.34928 -0.908888,-1.03542 -1.241168,-1.78714 -0.296648,-0.6711 -0.619618,-1.39414 -0.717712,-1.60675 -0.09809,-0.2126 -0.370717,-0.90296 -0.605831,-1.53413 -0.438929,-1.17833 -1.123961,-2.04152 -1.620145,-2.04152 -0.231485,0 -1.525018,-0.3648 -4.533116,-1.27842 -0.264973,-0.0805 -0.95912,0.46654 -2.662377,2.09805 -3.03183,2.90411 -3.274248,3.07817 -3.94471,2.83225 -0.290726,-0.10663 -1.194185,-0.69517 -2.007689,-1.30788 -0.813504,-0.6127 -2.025517,-1.47548 -2.693361,-1.91729 -1.554995,-1.0287 -2.074531,-1.66247 -1.913718,-2.33449 0.06689,-0.27952 0.64274,-1.86087 1.279674,-3.51413 0.636933,-1.65326 1.158061,-3.16093 1.158061,-3.35039 0,-0.18945 -0.394785,-0.83722 -0.877298,-1.43948 -0.482514,-0.60227 -1.015453,-1.41948 -1.184308,-1.81603 -0.488081,-1.14624 -0.949707,-1.32496 -3.898394,-1.5092 -2.892006,-0.18071 -4.001806,-0.46695 -4.530993,-1.16867 -0.391405,-0.51901 -1.293348,-4.252642 -1.4763109,-6.111246 -0.2051563,-2.084049 -0.054879,-2.251409 3.0927129,-3.444282 4.214442,-1.597188 4.29631,-1.652848 4.324828,-2.940471 0.03735,-1.686406 1.826601,-5.719987 2.793624,-6.29778 0.412742,-0.246614 1.27261,-0.0251 1.761156,0.453702 0.520528,0.510144 0.49491,1.298014 -0.108542,3.338002 -0.273872,0.925836 -0.621295,2.544737 -0.77205,3.597558 -0.150754,1.052822 -0.368406,2.086919 -0.483669,2.297993 -0.417304,0.764186 -1.438447,1.379443 -3.127435,1.884339 -2.10565,0.629449 -3.533285,1.317981 -3.679466,1.774564 -0.138116,0.431388 0.371482,2.353451 0.712246,2.686391 0.178693,0.1746 1.229341,0.28038 3.491213,0.3515 2.625011,0.0825 3.303284,0.16178 3.594302,0.41989 0.19729,0.17498 0.818213,1.1981 1.379829,2.27359 0.561617,1.0755 1.495627,2.65717 2.075575,3.51483 0.84,1.24223 1.054455,1.71895 1.054455,2.34399 0,0.46165 -0.121767,0.88367 -0.295819,1.02523 -0.162701,0.13234 -0.29582,0.31774 -0.29582,0.41201 0,0.0943 -0.354984,0.98568 -0.788852,1.98092 -0.433869,0.99524 -0.788853,2.03008 -0.788853,2.29965 0,0.34484 0.298632,0.75327 1.007394,1.37779 0.554069,0.48822 1.069661,0.88767 1.145763,0.88767 0.0761,0 0.621166,-0.40574 1.211254,-0.90164 3.456844,-2.90508 4.572147,-3.73705 5.009732,-3.73705 0.258856,0 1.15797,0.26973 1.998035,0.59939 0.840063,0.32967 2.435263,0.7568 3.544888,0.94919 3.066045,0.53158 3.122833,0.58262 4.325675,3.88813 0.525908,1.44525 1.038082,2.52488 1.294783,2.72932 0.771411,0.61437 2.697994,0.33696 3.076949,-0.44305 0.12693,-0.26127 0.329752,-1.62989 0.450717,-3.0414 0.120962,-1.4115 0.300097,-2.77301 0.398078,-3.02558 0.493662,-1.27252 1.92253,-1.66761 2.781005,-0.76896 0.478025,0.5004 0.478102,0.50121 0.453496,4.79477 -0.03461,6.0389 0.06017,5.90854 -4.726813,6.50131 -1.725405,0.21365 -3.27257,0.42974 -3.438142,0.48018 -0.165572,0.0505 -0.616855,-0.16341 -1.002853,-0.47523 z m 19.940533,-0.18833 c -2.197964,-0.13268 -3.174837,-0.58227 -4.543686,-2.09115 -1.509491,-1.66391 -1.60122,-2.03841 -1.785248,-7.28856 -0.176801,-5.04403 -0.217725,-5.43846 -0.802316,-7.73275 C 52.240726,102.5569 49.797841,97.713313 46.926785,94.393564 42.105397,88.818689 36.424748,85.104331 29.92724,83.278222 27.08008,82.478032 26.067481,82.342834 21.41689,82.141948 16.639074,81.935564 16.11454,81.795089 14.460748,80.279022 12.982427,78.923812 12.666465,78.121987 12.463242,75.209894 12.058611,69.411751 12.358224,46.35215 12.866916,44.141192 13.58795,41.007321 16.314244,38.007571 20.157347,36.11951 l 1.274042,-0.62592 11.840631,-0.200803 c 8.114385,-0.137613 11.886228,-0.267138 11.985521,-0.411585 0.07969,-0.115929 0.150204,-0.732631 0.1567,-1.370451 0.0065,-0.63782 0.127457,-2.227082 0.268803,-3.531694 0.232442,-2.145428 0.337292,-2.530843 1.097584,-4.034567 1.191272,-2.356124 3.342524,-4.44967 5.926913,-5.767925 l 1.87134,-0.954541 h 15.77705 15.77705 l 1.774918,0.90897 c 2.194077,1.123628 3.921262,2.613985 5.198791,4.485944 1.516334,2.221879 1.766031,3.076443 2.050695,7.018323 l 0.2471,3.42172 4.731875,0.04126 c 2.60253,0.02269 7.99643,0.131994 11.98646,0.242896 l 7.25459,0.201636 1.55151,0.764522 c 2.92924,1.443407 5.00208,3.553445 6.54643,6.663892 l 0.76263,1.536008 v 35.342514 35.342511 l -0.58043,1.33679 c -1.43569,3.30652 -4.33442,6.14402 -7.54845,7.38901 -0.96555,0.37402 -1.59537,0.41383 -8.63423,0.54579 -8.85987,0.1661 -48.133528,0.16692 -50.880989,0.001 z m 28.530068,-17.02262 c 1.708205,-0.768 3.293816,-2.39979 4.367803,-4.49501 0.637444,-1.24358 1.03844,-1.77897 1.610107,-2.14973 0.893831,-0.57971 1.629821,-1.495328 1.962711,-2.441731 0.13087,-0.372062 0.317813,-2.068083 0.415431,-3.768936 0.19705,-3.433356 0.664141,-5.619339 1.503853,-7.03802 0.288562,-0.487525 1.316966,-1.970899 2.285346,-3.296387 1.91275,-2.618129 3.47157,-5.561947 3.99466,-7.543879 0.51266,-1.942437 0.63012,-7.041774 0.2091,-9.078144 -0.77676,-3.756991 -2.77978,-7.253799 -5.764072,-10.062731 -1.987257,-1.870486 -3.298857,-2.770295 -5.630174,-3.862525 -2.861959,-1.340841 -4.245888,-1.601767 -8.438766,-1.591048 -4.280426,0.01094 -5.653297,0.280527 -8.666371,1.701768 -2.492373,1.175631 -3.940841,2.22177 -5.936411,4.287506 -2.778711,2.876416 -4.559098,6.321362 -5.235612,10.130614 -0.426193,2.399769 -0.29647,6.006799 0.297829,8.281281 0.59277,2.268631 2.276201,5.525525 4.046047,7.82779 1.668744,2.170751 2.680311,3.935656 3.1572,5.508445 0.177279,0.584668 0.442984,2.675831 0.590456,4.647029 0.323507,4.324216 0.568353,5.008276 2.220867,6.204698 0.869824,0.62976 1.195535,1.03935 1.770425,2.22635 0.846494,1.74779 2.560109,3.6224 4.026142,4.4044 1.914981,1.02147 5.076692,1.06892 7.213429,0.10826 z m -5.961976,-3.14315 c -1.160674,-0.77164 -2.152047,-1.94514 -1.990916,-2.35667 0.10181,-0.26001 0.720193,-0.30091 4.54967,-0.30091 2.866289,0 4.476795,0.0713 4.55909,0.20178 0.283589,0.4497 -1.346522,2.17995 -2.564755,2.72232 -0.526521,0.23441 -1.266473,0.35457 -2.200737,0.35739 -1.266323,0.004 -1.50228,-0.0588 -2.352352,-0.62391 z m -3.608458,-6.126557 c -1.240472,-0.09281 -1.711573,-0.207071 -1.901101,-0.461094 -0.320674,-0.429799 -0.583849,-2.436043 -0.349661,-2.665559 0.100506,-0.0985 3.75029,-0.151624 8.447856,-0.122958 l 8.270897,0.05047 -0.01982,1.220511 c -0.02729,1.680738 -0.226641,1.840021 -2.501554,1.998751 -2.262902,0.157892 -9.735564,0.145307 -11.946621,-0.02012 z m -2.379721,-6.823119 c -0.09611,-0.239183 -0.330839,-1.043706 -0.521615,-1.787829 -0.480356,-1.873617 -1.966594,-4.632399 -3.852624,-7.151315 -3.216871,-4.296337 -4.455271,-8.257263 -3.923251,-12.548199 0.71334,-5.753339 4.213094,-10.567982 9.564841,-13.158444 8.218835,-3.978243 18.514409,-0.350604 22.491865,7.924996 1.06813,2.222391 1.45776,3.750944 1.60118,6.28156 0.1367,2.412158 -0.18539,4.366527 -1.10462,6.702611 -0.66438,1.688442 -1.40897,2.904651 -3.343418,5.461118 -1.502621,1.985791 -3.055279,5.049733 -3.482678,6.872545 -0.174257,0.743196 -0.409542,1.460743 -0.522851,1.59455 -0.159577,0.188443 -2.068677,0.243284 -8.46905,0.243284 H 77.34854 Z m 9.611485,-58.611788 c 0.03336,-1.27564 -0.03032,-2.62376 -0.14151,-2.995821 C 86.360439,28.793771 85.1776,27.66544 84.189694,27.400829 83.25944,27.151661 60.87729,27.025312 58.005126,27.253015 c -2.066307,0.163816 -2.702335,0.462678 -3.501687,1.645405 -0.612513,0.906276 -0.614804,0.919454 -0.614777,3.534114 l 2.8e-5,2.624447 H 70.306655 86.72462 Z M 36.996686,108.97863 c -1.759869,-0.38287 -2.167676,-0.55796 -4.505675,-1.93447 -2.106625,-1.24029 -3.034897,-2.05139 -4.493839,-3.92662 -2.160055,-2.77639 -2.736217,-4.49808 -2.822441,-8.434058 -0.04925,-2.248158 -3.94e-4,-2.764307 0.353702,-3.729571 0.654,-1.783277 1.698052,-2.101732 3.105456,-0.947224 l 0.678782,0.556811 -0.258217,2.412728 c -0.14202,1.327002 -0.193806,2.797594 -0.115082,3.267984 0.614461,3.671501 3.651113,7.26488 7.368537,8.71945 0.943675,0.36925 1.517362,0.43989 3.762834,0.46334 l 2.649403,0.0277 0.555311,0.6091 c 0.729156,0.79979 0.726537,1.56877 -0.0081,2.37456 -0.466754,0.51196 -0.762765,0.64231 -1.725615,0.75985 -1.755741,0.21434 -2.777573,0.16498 -4.545064,-0.21954 z"
         id="path343" />
      <path
         style="fill:#EF8354;stroke-width:0.195236"
         d="m 40.653348,124.6532 c -0.432362,-0.34928 -0.908888,-1.03542 -1.241168,-1.78714 -0.296648,-0.6711 -0.619618,-1.39414 -0.717712,-1.60675 -0.09809,-0.2126 -0.370717,-0.90296 -0.605831,-1.53413 -0.438929,-1.17833 -1.123961,-2.04152 -1.620145,-2.04152 -0.231485,0 -1.525018,-0.3648 -4.533116,-1.27842 -0.264973,-0.0805 -0.95912,0.46654 -2.662377,2.09805 -3.03183,2.90411 -3.274248,3.07817 -3.94471,2.83225 -0.290726,-0.10663 -1.194185,-0.69517 -2.007689,-1.30788 -0.813504,-0.6127 -2.025517,-1.47548 -2.693361,-1.91729 -1.554995,-1.0287 -2.074531,-1.66247 -1.913718,-2.33449 0.06689,-0.27952 0.64274,-1.86087 1.279674,-3.51413 0.636933,-1.65326 1.158061,-3.16093 1.158061,-3.35039 0,-0.18945 -0.394785,-0.83722 -0.877298,-1.43948 -0.482514,-0.60227 -1.015453,-1.41948 -1.184308,-1.81603 -0.488081,-1.14624 -0.949707,-1.32496 -3.898394,-1.5092 -2.892006,-0.18071 -4.001806,-0.46695 -4.530993,-1.16867 -0.391405,-0.51901 -1.293348,-4.252642 -1.4763109,-6.111246 -0.2051563,-2.084049 -0.054879,-2.251409 3.0927129,-3.444282 4.214442,-1.597188 4.29631,-1.652848 4.324828,-2.940471 0.03735,-1.686406 1.826601,-5.719987 2.793624,-6.29778 0.412742,-0.246614 1.27261,-0.0251 1.761156,0.453702 0.520528,0.510144 0.49491,1.298014 -0.108542,3.338002 -0.273872,0.925836 -0.621295,2.544737 -0.77205,3.597558 -0.150754,1.052822 -0.368406,2.086919 -0.483669,2.297993 -0.417304,0.764186 -1.438447,1.379443 -3.127435,1.884339 -2.10565,0.629449 -3.533285,1.317981 -3.679466,1.774564 -0.138116,0.431388 0.371482,2.353451 0.712246,2.686391 0.178693,0.1746 1.229341,0.28038 3.491213,0.3515 2.625011,0.0825 3.303284,0.16178 3.594302,0.41989 0.19729,0.17498 0.818213,1.1981 1.379829,2.27359 0.561617,1.0755 1.495627,2.65717 2.075575,3.51483 0.84,1.24223 1.054455,1.71895 1.054455,2.34399 0,0.46165 -0.121767,0.88367 -0.295819,1.02523 -0.162701,0.13234 -0.29582,0.31774 -0.29582,0.41201 0,0.0943 -0.354984,0.98568 -0.788852,1.98092 -0.433869,0.99524 -0.788853,2.03008 -0.788853,2.29965 0,0.34484 0.298632,0.75327 1.007394,1.37779 0.554069,0.48822 1.069661,0.88767 1.145763,0.88767 0.0761,0 0.621166,-0.40574 1.211254,-0.90164 3.456844,-2.90508 4.572147,-3.73705 5.009732,-3.73705 0.258856,0 1.15797,0.26973 1.998035,0.59939 0.840063,0.32967 2.435263,0.7568 3.544888,0.94919 3.066045,0.53158 3.122833,0.58262 4.325675,3.88813 0.525908,1.44525 1.038082,2.52488 1.294783,2.72932 0.771411,0.61437 2.697994,0.33696 3.076949,-0.44305 0.12693,-0.26127 0.329752,-1.62989 0.450717,-3.0414 0.120962,-1.4115 0.300097,-2.77301 0.398078,-3.02558 0.493662,-1.27252 1.92253,-1.66761 2.781005,-0.76896 0.478025,0.5004 0.478102,0.50121 0.453496,4.79477 -0.03461,6.0389 0.06017,5.90854 -4.726813,6.50131 -1.725405,0.21365 -3.27257,0.42974 -3.438142,0.48018 -0.165572,0.0505 -0.616855,-0.16341 -1.002853,-0.47523 z m 19.546107,-0.37688 c -1.777796,-0.16987 -2.519108,-0.52516 -3.813755,-1.82781 -1.64147,-1.65162 -1.747438,-2.05005 -1.92776,-7.24823 -0.166659,-4.8043 -0.244791,-5.64281 -0.696082,-7.47048 -1.11663,-4.52219 -3.338061,-9.2041 -5.960837,-12.563121 -1.04635,-1.340071 -4.79326,-5.077926 -6.238207,-6.223128 C 38.134241,86.226212 33.729142,84.077 29.192327,82.908093 26.3927,82.186771 26.04493,82.144692 21.234003,81.945147 c -4.60337,-0.190936 -5.178571,-0.35513 -6.795494,-1.939794 -1.311443,-1.285281 -1.566058,-1.948449 -1.778132,-4.631307 -0.411012,-5.199528 -0.10681,-29.013948 0.39868,-31.210674 0.709258,-3.082245 3.282742,-5.950439 7.007432,-7.809904 l 1.380587,-0.689226 11.92059,-0.159998 c 8.640771,-0.115975 11.9593,-0.22138 12.061279,-0.383092 0.07738,-0.122704 0.200937,-1.318019 0.274572,-2.656258 0.195099,-3.545675 0.398556,-4.728731 1.043593,-6.068295 1.274032,-2.645808 3.280506,-4.626637 6.254066,-6.174132 L 54.578881,19.4014 h 15.77705 15.77705 l 1.380492,0.702972 c 2.919543,1.486685 5.04158,3.520317 6.325299,6.061786 0.811047,1.605685 0.985802,2.545781 1.176663,6.329879 l 0.143792,2.850862 5.051713,0.01386 c 2.77844,0.0076 8.20219,0.08052 12.05278,0.162008 l 7.00107,0.14816 1.38058,0.685891 c 3.07575,1.52806 4.95377,3.374434 6.5155,6.405695 l 0.88301,1.713878 -0.0509,35.588925 -0.0509,35.588914 -0.72792,1.44959 c -1.72927,3.44369 -5.17591,6.3204 -8.34388,6.96415 -1.15837,0.23538 -56.33731,0.43134 -58.670905,0.20835 z M 87.28953,108.21841 c 1.686395,-0.27067 2.81923,-0.88199 4.285056,-2.31238 0.945314,-0.92245 1.498146,-1.67839 2.02571,-2.76993 0.583661,-1.20761 0.913714,-1.63371 1.687419,-2.17847 1.765324,-1.24296 2.150798,-2.242782 2.384372,-6.184453 0.302424,-5.103603 0.696973,-6.246352 3.467653,-10.043551 4.08548,-5.599114 4.92422,-8.035861 4.75668,-13.819433 -0.1083,-3.738479 -0.4123,-5.015122 -1.91006,-8.021069 -2.56978,-5.157449 -7.88843,-9.359099 -13.444989,-10.621333 -3.462232,-0.786484 -8.578156,-0.539116 -11.737457,0.567534 -8.128752,2.847367 -13.471737,10.322608 -13.471737,18.847983 0,2.620926 0.449228,5.012036 1.360804,7.243171 0.775764,1.898732 1.638681,3.315685 3.534085,5.803147 2.578704,3.384203 3.235745,5.278246 3.469979,10.002858 0.07248,1.462048 0.263841,3.094063 0.425239,3.626703 0.322772,1.065215 1.133531,2.086793 2.139938,2.696373 0.467971,0.28345 0.885145,0.85751 1.474789,2.02941 2.014686,4.00413 5.366412,5.80531 9.552519,5.13344 z m -3.543315,-3.73288 c -1.054493,-0.59701 -2.52999,-2.16625 -2.332023,-2.48017 0.05916,-0.0938 2.010359,-0.17056 4.336002,-0.17056 3.832319,0 4.228443,0.0305 4.228443,0.32545 0,0.51242 -1.850557,2.13596 -2.697286,2.36639 -1.007311,0.27414 -3.01966,0.25073 -3.535136,-0.0411 z m -3.891253,-6.486893 c -1.348185,-0.09755 -1.800517,-0.204509 -2.000377,-0.47301 -0.332517,-0.446715 -0.582135,-2.063481 -0.353226,-2.287823 0.09873,-0.09676 3.711713,-0.150037 8.249301,-0.121644 l 8.073633,0.05052 0.06682,0.576342 c 0.09268,0.79942 -0.29708,1.966409 -0.709561,2.124524 -0.472397,0.181083 -11.180024,0.286412 -13.326586,0.131092 z m -2.43152,-6.647103 c -0.08619,-0.134041 -0.312496,-0.852537 -0.502903,-1.59666 -0.492921,-1.926367 -2.051857,-4.900493 -3.788532,-7.22773 -1.967088,-2.636001 -2.534186,-3.637947 -3.258793,-5.757606 -2.430626,-7.110197 0.344293,-14.767644 6.845051,-18.889069 6.403962,-4.060054 14.752974,-3.283435 20.309207,1.889151 2.451769,2.282478 3.767568,4.350259 4.714498,7.408849 0.45878,1.481863 0.5288,2.052692 0.54072,4.4082 0.0115,2.267216 -0.0595,2.956582 -0.43754,4.252133 -0.65635,2.249121 -1.57321,3.984695 -3.371711,6.382515 -1.990703,2.654068 -3.430335,5.358287 -4.028696,7.567543 l -0.461928,1.705523 -8.201333,0.05043 c -6.429633,0.03954 -8.235186,-0.0022 -8.35804,-0.193279 z m -6.510966,-56.001997 16.136381,-0.0026 -0.06351,-2.868241 c -0.06261,-2.827238 -0.07197,-2.880196 -0.655152,-3.70439 -0.740616,-1.046693 -1.454456,-1.478002 -2.739781,-1.6554 -1.313434,-0.181277 -25.15553,-0.181277 -26.468964,0 -1.3302,0.183591 -2.127636,0.685939 -2.842466,1.790622 -0.580544,0.89716 -0.587561,0.940642 -0.587561,3.640493 0,1.50287 0.0643,2.795509 0.142894,2.872535 0.07859,0.07702 0.322645,0.09271 0.542337,0.03485 0.219693,-0.05786 7.660812,-0.106381 16.535823,-0.107833 z m -33.91579,73.629093 c -1.759869,-0.38287 -2.167676,-0.55796 -4.505675,-1.93447 -2.106625,-1.24029 -3.034897,-2.05139 -4.493839,-3.92662 -2.160055,-2.77639 -2.736217,-4.49808 -2.822441,-8.434058 -0.04925,-2.248158 -3.94e-4,-2.764307 0.353702,-3.729571 0.654,-1.783277 1.698052,-2.101732 3.105456,-0.947224 l 0.678782,0.556811 -0.258217,2.412728 c -0.14202,1.327002 -0.193806,2.797594 -0.115082,3.267984 0.614461,3.671501 3.651113,7.26488 7.368537,8.71945 0.943675,0.36925 1.517362,0.43989 3.762834,0.46334 l 2.649403,0.0277 0.555311,0.6091 c 0.729156,0.79979 0.726537,1.56877 -0.0081,2.37456 -0.466754,0.51196 -0.762765,0.64231 -1.725615,0.75985 -1.755741,0.21434 -2.777573,0.16498 -4.545064,-0.21954 z"
         id="path341" />
      <path
         style="fill:#616161;stroke-width:0.195236"
         d="m 60.199455,124.27632 c -1.777796,-0.16987 -2.519108,-0.52516 -3.813755,-1.82781 -1.64147,-1.65162 -1.747438,-2.05005 -1.92776,-7.24823 -0.166659,-4.8043 -0.244791,-5.64281 -0.696082,-7.47048 -1.11663,-4.52219 -3.338061,-9.2041 -5.960837,-12.563121 -1.04635,-1.340071 -4.79326,-5.077926 -6.238207,-6.223128 C 38.134241,86.226212 33.729142,84.077 29.192327,82.908093 26.3927,82.186771 26.04493,82.144692 21.234003,81.945147 c -4.60337,-0.190936 -5.178571,-0.35513 -6.795494,-1.939794 -1.311443,-1.285281 -1.566058,-1.948449 -1.778132,-4.631307 -0.411012,-5.199528 -0.10681,-29.013948 0.39868,-31.210674 0.709258,-3.082245 3.282742,-5.950439 7.007432,-7.809904 l 1.380587,-0.689226 11.92059,-0.159998 c 8.640771,-0.115975 11.9593,-0.22138 12.061279,-0.383092 0.07738,-0.122704 0.200937,-1.318019 0.274572,-2.656258 0.195099,-3.545675 0.398556,-4.728731 1.043593,-6.068295 1.274032,-2.645808 3.280506,-4.626637 6.254066,-6.174132 L 54.578881,19.4014 h 15.77705 15.77705 l 1.380492,0.702972 c 2.919543,1.486685 5.04158,3.520317 6.325299,6.061786 0.811047,1.605685 0.985802,2.545781 1.176663,6.329879 l 0.143792,2.850862 5.051713,0.01386 c 2.77844,0.0076 8.20219,0.08052 12.05278,0.162008 l 7.00107,0.14816 1.38058,0.685891 c 3.07575,1.52806 4.95377,3.374434 6.5155,6.405695 l 0.88301,1.713878 -0.0509,35.588925 -0.0509,35.588914 -0.72792,1.44959 c -1.72927,3.44369 -5.17591,6.3204 -8.34388,6.96415 -1.15837,0.23538 -56.33731,0.43134 -58.670905,0.20835 z M 87.28953,108.21841 c 1.686395,-0.27067 2.81923,-0.88199 4.285056,-2.31238 0.945314,-0.92245 1.498146,-1.67839 2.02571,-2.76993 0.583661,-1.20761 0.913714,-1.63371 1.687419,-2.17847 1.765324,-1.24296 2.150798,-2.242782 2.384372,-6.184453 0.302424,-5.103603 0.696973,-6.246352 3.467653,-10.043551 4.08548,-5.599114 4.92422,-8.035861 4.75668,-13.819433 -0.1083,-3.738479 -0.4123,-5.015122 -1.91006,-8.021069 -2.56978,-5.157449 -7.88843,-9.359099 -13.444989,-10.621333 -3.462232,-0.786484 -8.578156,-0.539116 -11.737457,0.567534 -8.128752,2.847367 -13.471737,10.322608 -13.471737,18.847983 0,2.620926 0.449228,5.012036 1.360804,7.243171 0.775764,1.898732 1.638681,3.315685 3.534085,5.803147 2.578704,3.384203 3.235745,5.278246 3.469979,10.002858 0.07248,1.462048 0.263841,3.094063 0.425239,3.626703 0.322772,1.065215 1.133531,2.086793 2.139938,2.696373 0.467971,0.28345 0.885145,0.85751 1.474789,2.02941 2.014686,4.00413 5.366412,5.80531 9.552519,5.13344 z m -3.543315,-3.73288 c -1.054493,-0.59701 -2.52999,-2.16625 -2.332023,-2.48017 0.05916,-0.0938 2.010359,-0.17056 4.336002,-0.17056 3.832319,0 4.228443,0.0305 4.228443,0.32545 0,0.51242 -1.850557,2.13596 -2.697286,2.36639 -1.007311,0.27414 -3.01966,0.25073 -3.535136,-0.0411 z m -3.891253,-6.486893 c -1.348185,-0.09755 -1.800517,-0.204509 -2.000377,-0.47301 -0.332517,-0.446715 -0.582135,-2.063481 -0.353226,-2.287823 0.09873,-0.09676 3.711713,-0.150037 8.249301,-0.121644 l 8.073633,0.05052 0.06682,0.576342 c 0.09268,0.79942 -0.29708,1.966409 -0.709561,2.124524 -0.472397,0.181083 -11.180024,0.286412 -13.326586,0.131092 z m -2.43152,-6.647103 c -0.08619,-0.134041 -0.312496,-0.852537 -0.502903,-1.59666 -0.492921,-1.926367 -2.051857,-4.900493 -3.788532,-7.22773 -1.967088,-2.636001 -2.534186,-3.637947 -3.258793,-5.757606 -2.430626,-7.110197 0.344293,-14.767644 6.845051,-18.889069 6.403962,-4.060054 14.752974,-3.283435 20.309207,1.889151 2.451769,2.282478 3.767568,4.350259 4.714498,7.408849 0.45878,1.481863 0.5288,2.052692 0.54072,4.4082 0.0115,2.267216 -0.0595,2.956582 -0.43754,4.252133 -0.65635,2.249121 -1.57321,3.984695 -3.371711,6.382515 -1.990703,2.654068 -3.430335,5.358287 -4.028696,7.567543 l -0.461928,1.705523 -8.201333,0.05043 c -6.429633,0.03954 -8.235186,-0.0022 -8.35804,-0.193279 z M 98.641701,72.526997 c 0.786174,-0.979519 0.424724,-3.646623 -0.860851,-6.352134 -1.727751,-3.636078 -4.972068,-6.229295 -9.066341,-7.246825 -1.754398,-0.436012 -3.089188,-0.495252 -3.728468,-0.165473 -0.598311,0.308644 -0.720088,0.538861 -0.723565,1.367882 -0.004,0.956181 0.411061,1.203838 2.810435,1.676875 2.519608,0.496742 4.265309,1.350955 5.765456,2.821174 1.485291,1.45566 2.352934,3.151033 2.889902,5.646862 0.521073,2.421943 0.734043,2.760902 1.734699,2.760902 0.59694,0 0.861855,-0.114454 1.178733,-0.509263 z M 60.002242,85.493144 c 0.720311,-0.366037 2.507965,-2.22155 2.750281,-2.854679 0.393089,-1.027068 -0.303811,-2.064333 -1.386947,-2.064333 -0.473073,0 -3.643301,2.907152 -3.843137,3.52422 -0.196401,0.60646 0.08333,1.279513 0.658088,1.583384 0.553279,0.292518 0.957259,0.250696 1.821715,-0.188592 z m 53.489028,-0.03875 c 0.91005,-0.782833 0.49583,-1.676815 -1.67776,-3.621035 -1.52051,-1.360053 -1.95324,-1.493842 -2.77721,-0.858637 -1.04279,0.803892 -0.45351,2.348665 1.49191,3.910984 1.40296,1.12669 2.14812,1.269704 2.96306,0.568688 z M 62.763226,74.526801 c 0.680138,-0.33559 0.803312,-1.669649 0.208024,-2.253061 -0.35951,-0.352337 -0.648979,-0.397153 -2.565303,-0.397153 -1.23076,0 -2.378203,0.09741 -2.667104,0.226415 -0.940689,0.420054 -0.879674,1.939744 0.09733,2.42421 0.653125,0.323868 4.270453,0.323564 4.927053,-3.86e-4 z m 50.617614,0.0436 c 0.30314,-0.112954 0.61817,-0.308648 0.70007,-0.434877 0.25276,-0.389578 0.17061,-1.37789 -0.15206,-1.82937 -0.28822,-0.403282 -0.45167,-0.429564 -2.67134,-0.429564 -2.24734,0 -2.3883,0.02348 -2.84841,0.474413 -0.74468,0.729824 -0.55789,1.864935 0.36698,2.230141 0.61262,0.241908 3.9476,0.234126 4.60476,-0.01075 z M 62.064144,65.958163 c 0.175583,-0.06603 0.452342,-0.372311 0.615018,-0.680616 0.264853,-0.50195 0.262717,-0.628826 -0.02043,-1.213607 -0.420243,-0.867926 -2.84701,-3.146721 -3.529949,-3.314709 -0.389731,-0.09587 -0.688473,-0.02563 -1.066539,0.250732 -1.012821,0.74037 -0.817716,1.609844 0.717499,3.19751 1.615714,1.67091 2.402135,2.092492 3.284399,1.76069 z m 49.358416,-0.630742 c 1.04498,-0.809538 2.05338,-1.961511 2.43435,-2.780974 0.19762,-0.425086 0.18135,-0.59549 -0.0965,-1.011157 -0.45102,-0.674619 -1.08596,-0.939308 -1.69944,-0.708458 -0.65656,0.247057 -2.29096,1.681004 -2.9827,2.616875 -0.67193,0.909058 -0.71277,1.582091 -0.13275,2.187183 0.62964,0.656846 1.35165,0.568392 2.47709,-0.303469 z m -40.510084,-29.977884 16.136381,-0.0026 -0.06351,-2.868241 c -0.06261,-2.827238 -0.07197,-2.880196 -0.655152,-3.70439 -0.740616,-1.046693 -1.454456,-1.478002 -2.739781,-1.6554 -1.313434,-0.181277 -25.15553,-0.181277 -26.468964,0 -1.3302,0.183591 -2.127636,0.685939 -2.842466,1.790622 -0.580544,0.89716 -0.587561,0.940642 -0.587561,3.640493 0,1.50287 0.0643,2.795509 0.142894,2.872535 0.07859,0.07702 0.322645,0.09271 0.542337,0.03485 0.219693,-0.05786 7.660812,-0.106381 16.535823,-0.107833 z"
         id="path339" />
      <path
         style="fill:#a26b04;stroke-width:0.195236"
         d="m 62.566012,124.08685 c -4.133502,-0.13781 -4.529171,-0.25523 -6.054869,-1.79687 -1.53387,-1.54991 -1.671712,-2.10886 -1.849445,-7.49953 -0.167623,-5.08401 -0.374418,-6.50592 -1.405699,-9.66552 -1.672296,-5.12352 -4.174359,-9.22056 -7.981669,-13.069697 -4.292008,-4.339162 -8.506015,-6.976689 -14.004826,-8.765556 -3.392218,-1.103552 -4.969745,-1.358726 -9.607934,-1.554135 -2.313402,-0.09746 -4.503177,-0.284647 -4.934953,-0.421844 -0.95957,-0.304899 -2.904921,-2.03879 -3.373714,-3.006991 -0.280822,-0.579981 -0.37633,-1.508301 -0.492078,-4.782884 -0.367338,-10.392263 -0.08344,-27.385847 0.493345,-29.530946 0.441176,-1.640753 1.139497,-2.860545 2.403893,-4.198999 1.342445,-1.421072 3.08184,-2.672218 4.702947,-3.382823 l 1.183279,-0.518686 11.786294,-0.108482 c 8.359259,-0.07694 11.875788,-0.172615 12.094079,-0.329049 0.24545,-0.175898 0.345966,-0.918167 0.496307,-3.665063 0.138308,-2.527067 0.289795,-3.72689 0.568759,-4.504755 1.037388,-2.892678 3.85881,-5.755895 7.023505,-7.127553 l 1.075501,-0.466148 h 15.64828 15.648282 l 1.158515,0.501502 c 2.677454,1.159027 5.013964,3.317194 6.382621,5.895445 0.8895,1.675623 0.932495,1.893912 1.252562,6.359452 l 0.228578,3.189099 1.353935,-0.06213 c 0.744665,-0.03417 6.176643,0.03424 12.071063,0.152022 l 10.71712,0.214154 1.12134,0.486021 c 2.96587,1.28548 5.14889,3.385013 6.68318,6.427588 l 0.69213,1.372536 v 35.780739 35.780733 l -0.82677,1.57574 c -0.62388,1.18904 -1.24096,1.98127 -2.51447,3.22817 -2.02416,1.98187 -3.79265,2.97275 -5.85255,3.27916 -1.53883,0.2289 -49.891284,0.41518 -55.886538,0.2153 z m 26.68694,-16.21578 c 1.857326,-0.85181 3.540757,-2.58095 4.619002,-4.7444 0.460082,-0.92314 0.913505,-1.67843 1.007603,-1.67843 0.0941,0 0.570575,-0.34463 1.058833,-0.76583 1.395472,-1.203842 1.744384,-2.230488 1.956153,-5.755845 0.200116,-3.33136 0.56075,-5.293339 1.234501,-6.716118 0.252167,-0.532508 1.321406,-2.142366 2.376076,-3.577461 2.05235,-2.792636 3.64442,-5.738449 4.14117,-7.662448 0.4649,-1.800604 0.74777,-4.995871 0.60496,-6.83346 -0.38505,-4.954494 -2.45856,-9.262207 -6.14779,-12.772006 -2.740534,-2.607242 -5.602878,-4.271896 -8.941544,-5.200131 -1.876134,-0.521613 -6.054999,-0.72349 -8.684635,-0.419548 -7.751979,0.896002 -14.724571,7.075072 -16.770504,14.86192 -0.854812,3.253425 -0.848489,6.935171 0.01751,10.197883 0.603987,2.275556 2.092737,5.105963 4.068743,7.735488 2.748008,3.65685 3.617867,5.992914 3.621188,9.724924 0.0032,3.608294 0.687288,5.536569 2.389299,6.734952 0.811563,0.57141 1.131944,0.97917 1.705156,2.1702 0.51899,1.07836 1.075225,1.83016 2.101296,2.84008 2.170267,2.1361 3.38437,2.60982 6.4465,2.51532 1.63254,-0.0504 2.076165,-0.1413 3.196478,-0.65509 z m -5.796273,-3.86818 c -0.871217,-0.55032 -1.760993,-1.46364 -1.760993,-1.8076 0,-0.21392 7.831331,-0.221 7.966156,-0.007 0.138294,0.2193 -1.194106,1.53543 -1.937158,1.91351 -0.333101,0.16948 -1.226859,0.34471 -1.986129,0.3894 -1.26516,0.0745 -1.455798,0.0337 -2.281876,-0.48812 z M 80.87392,97.800168 c -1.482409,-0.06648 -2.750614,-0.175104 -2.81823,-0.241397 -0.169921,-0.166589 -0.465212,-2.07329 -0.340085,-2.195921 0.212665,-0.208423 15.787223,-0.103285 15.920129,0.10747 0.07179,0.113851 0.07092,0.596648 -0.002,1.072881 -0.09854,0.643978 -0.242722,0.906547 -0.562627,1.024569 -0.597096,0.220284 -8.927777,0.37901 -12.197233,0.232398 z m -3.253235,-6.641866 c -0.08621,-0.134066 -0.314463,-0.852584 -0.507238,-1.596707 -0.506773,-1.956175 -2.081192,-4.901747 -3.925715,-7.344593 -1.716086,-2.272752 -2.875016,-4.445377 -3.453833,-6.474839 -0.276451,-0.969307 -0.357711,-1.940711 -0.355692,-4.252133 0.0025,-2.878165 0.02797,-3.067934 0.648157,-4.83197 1.514489,-4.307751 4.4111,-7.526377 8.615082,-9.572821 2.26579,-1.102957 3.890084,-1.436486 7.016259,-1.440713 2.976909,-0.004 4.83412,0.393191 7.180522,1.535746 3.45141,1.680627 5.959888,4.14071 7.594893,7.448361 1.23613,2.500736 1.66025,4.377701 1.63774,7.247954 -0.0293,3.740395 -1.1135,6.722994 -3.653335,10.050496 -2.378308,3.11588 -3.499622,5.199839 -4.211893,7.827791 l -0.419084,1.54623 -8.004563,0.05048 c -6.272174,0.03955 -8.038486,-0.0023 -8.1613,-0.193279 z M 98.641701,72.526997 c 0.786174,-0.979519 0.424724,-3.646623 -0.860851,-6.352134 -1.727751,-3.636078 -4.972068,-6.229295 -9.066341,-7.246825 -1.754398,-0.436012 -3.089188,-0.495252 -3.728468,-0.165473 -0.598311,0.308644 -0.720088,0.538861 -0.723565,1.367882 -0.004,0.956181 0.411061,1.203838 2.810435,1.676875 2.519608,0.496742 4.265309,1.350955 5.765456,2.821174 1.485291,1.45566 2.352934,3.151033 2.889902,5.646862 0.521073,2.421943 0.734043,2.760902 1.734699,2.760902 0.59694,0 0.861855,-0.114454 1.178733,-0.509263 z M 60.002242,85.493144 c 0.720311,-0.366037 2.507965,-2.22155 2.750281,-2.854679 0.393089,-1.027068 -0.303811,-2.064333 -1.386947,-2.064333 -0.473073,0 -3.643301,2.907152 -3.843137,3.52422 -0.196401,0.60646 0.08333,1.279513 0.658088,1.583384 0.553279,0.292518 0.957259,0.250696 1.821715,-0.188592 z m 53.489028,-0.03875 c 0.91005,-0.782833 0.49583,-1.676815 -1.67776,-3.621035 -1.52051,-1.360053 -1.95324,-1.493842 -2.77721,-0.858637 -1.04279,0.803892 -0.45351,2.348665 1.49191,3.910984 1.40296,1.12669 2.14812,1.269704 2.96306,0.568688 z M 62.763226,74.526801 c 0.680138,-0.33559 0.803312,-1.669649 0.208024,-2.253061 -0.35951,-0.352337 -0.648979,-0.397153 -2.565303,-0.397153 -1.23076,0 -2.378203,0.09741 -2.667104,0.226415 -0.940689,0.420054 -0.879674,1.939744 0.09733,2.42421 0.653125,0.323868 4.270453,0.323564 4.927053,-3.86e-4 z m 50.617614,0.0436 c 0.30314,-0.112954 0.61817,-0.308648 0.70007,-0.434877 0.25276,-0.389578 0.17061,-1.37789 -0.15206,-1.82937 -0.28822,-0.403282 -0.45167,-0.429564 -2.67134,-0.429564 -2.24734,0 -2.3883,0.02348 -2.84841,0.474413 -0.74468,0.729824 -0.55789,1.864935 0.36698,2.230141 0.61262,0.241908 3.9476,0.234126 4.60476,-0.01075 z M 62.064144,65.958163 c 0.175583,-0.06603 0.452342,-0.372311 0.615018,-0.680616 0.264853,-0.50195 0.262717,-0.628826 -0.02043,-1.213607 -0.420243,-0.867926 -2.84701,-3.146721 -3.529949,-3.314709 -0.389731,-0.09587 -0.688473,-0.02563 -1.066539,0.250732 -1.012821,0.74037 -0.817716,1.609844 0.717499,3.19751 1.615714,1.67091 2.402135,2.092492 3.284399,1.76069 z m 49.358416,-0.630742 c 1.04498,-0.809538 2.05338,-1.961511 2.43435,-2.780974 0.19762,-0.425086 0.18135,-0.59549 -0.0965,-1.011157 -0.45102,-0.674619 -1.08596,-0.939308 -1.69944,-0.708458 -0.65656,0.247057 -2.29096,1.681004 -2.9827,2.616875 -0.67193,0.909058 -0.71277,1.582091 -0.13275,2.187183 0.62964,0.656846 1.35165,0.568392 2.47709,-0.303469 z M 87.194924,35.464355 c 0.218751,-0.138144 0.253881,-0.696003 0.176544,-2.803555 -0.07894,-2.151208 -0.170556,-2.771916 -0.502326,-3.403195 -0.547854,-1.042439 -1.555295,-1.941028 -2.511079,-2.23976 -0.978086,-0.305703 -23.795748,-0.490705 -26.367208,-0.213781 -2.093614,0.225464 -2.892132,0.597787 -3.730862,1.73958 l -0.667178,0.908253 -0.114285,2.995821 c -0.06286,1.647701 -0.0934,3.039308 -0.06787,3.09246 0.08472,0.176419 33.503612,0.101417 33.784267,-0.07582 z"
         id="path337" />
      <path
         style="fill:#010100;stroke-width:0.195236"
         d="m 62.566012,124.08685 c -4.133502,-0.13781 -4.529171,-0.25523 -6.054869,-1.79687 -1.53387,-1.54991 -1.671712,-2.10886 -1.849445,-7.49953 -0.167623,-5.08401 -0.374418,-6.50592 -1.405699,-9.66552 -1.672296,-5.12352 -4.174359,-9.22056 -7.981669,-13.069697 -4.292008,-4.339162 -8.506015,-6.976689 -14.004826,-8.765556 -3.392218,-1.103552 -4.969745,-1.358726 -9.607934,-1.554135 -2.313402,-0.09746 -4.503177,-0.284647 -4.934953,-0.421844 -0.95957,-0.304899 -2.904921,-2.03879 -3.373714,-3.006991 -0.280822,-0.579981 -0.37633,-1.508301 -0.492078,-4.782884 -0.367338,-10.392263 -0.08344,-27.385847 0.493345,-29.530946 0.441176,-1.640753 1.139497,-2.860545 2.403893,-4.198999 1.342445,-1.421072 3.08184,-2.672218 4.702947,-3.382823 l 1.183279,-0.518686 11.786294,-0.108482 c 8.359259,-0.07694 11.875788,-0.172615 12.094079,-0.329049 0.24545,-0.175898 0.345966,-0.918167 0.496307,-3.665063 0.138308,-2.527067 0.289795,-3.72689 0.568759,-4.504755 1.037388,-2.892678 3.85881,-5.755895 7.023505,-7.127553 l 1.075501,-0.466148 h 15.64828 15.648282 l 1.158515,0.501502 c 2.677454,1.159027 5.013964,3.317194 6.382621,5.895445 0.8895,1.675623 0.932495,1.893912 1.252562,6.359452 l 0.228578,3.189099 1.353935,-0.06213 c 0.744665,-0.03417 6.176643,0.03424 12.071063,0.152022 l 10.71712,0.214154 1.12134,0.486021 c 2.96587,1.28548 5.14889,3.385013 6.68318,6.427588 l 0.69213,1.372536 v 35.780739 35.780733 l -0.82677,1.57574 c -0.62388,1.18904 -1.24096,1.98127 -2.51447,3.22817 -2.02416,1.98187 -3.79265,2.97275 -5.85255,3.27916 -1.53883,0.2289 -49.891284,0.41518 -55.886538,0.2153 z m 26.68694,-16.21578 c 1.857326,-0.85181 3.540757,-2.58095 4.619002,-4.7444 0.460082,-0.92314 0.913505,-1.67843 1.007603,-1.67843 0.0941,0 0.570575,-0.34463 1.058833,-0.76583 1.395472,-1.203842 1.744384,-2.230488 1.956153,-5.755845 0.200116,-3.33136 0.56075,-5.293339 1.234501,-6.716118 0.252167,-0.532508 1.321406,-2.142366 2.376076,-3.577461 2.05235,-2.792636 3.64442,-5.738449 4.14117,-7.662448 0.4649,-1.800604 0.74777,-4.995871 0.60496,-6.83346 -0.38505,-4.954494 -2.45856,-9.262207 -6.14779,-12.772006 -2.740534,-2.607242 -5.602878,-4.271896 -8.941544,-5.200131 -1.876134,-0.521613 -6.054999,-0.72349 -8.684635,-0.419548 -7.751979,0.896002 -14.724571,7.075072 -16.770504,14.86192 -0.854812,3.253425 -0.848489,6.935171 0.01751,10.197883 0.603987,2.275556 2.092737,5.105963 4.068743,7.735488 2.748008,3.65685 3.617867,5.992914 3.621188,9.724924 0.0032,3.608294 0.687288,5.536569 2.389299,6.734952 0.811563,0.57141 1.131944,0.97917 1.705156,2.1702 0.51899,1.07836 1.075225,1.83016 2.101296,2.84008 2.170267,2.1361 3.38437,2.60982 6.4465,2.51532 1.63254,-0.0504 2.076165,-0.1413 3.196478,-0.65509 z m -5.796273,-3.86818 c -0.871217,-0.55032 -1.760993,-1.46364 -1.760993,-1.8076 0,-0.21392 7.831331,-0.221 7.966156,-0.007 0.138294,0.2193 -1.194106,1.53543 -1.937158,1.91351 -0.333101,0.16948 -1.226859,0.34471 -1.986129,0.3894 -1.26516,0.0745 -1.455798,0.0337 -2.281876,-0.48812 z M 80.87392,97.800168 c -1.482409,-0.06648 -2.750614,-0.175104 -2.81823,-0.241397 -0.169921,-0.166589 -0.465212,-2.07329 -0.340085,-2.195921 0.212665,-0.208423 15.787223,-0.103285 15.920129,0.10747 0.07179,0.113851 0.07092,0.596648 -0.002,1.072881 -0.09854,0.643978 -0.242722,0.906547 -0.562627,1.024569 -0.597096,0.220284 -8.927777,0.37901 -12.197233,0.232398 z m -3.253235,-6.641866 c -0.08621,-0.134066 -0.314463,-0.852584 -0.507238,-1.596707 -0.506773,-1.956175 -2.081192,-4.901747 -3.925715,-7.344593 -1.716086,-2.272752 -2.875016,-4.445377 -3.453833,-6.474839 -0.276451,-0.969307 -0.357711,-1.940711 -0.355692,-4.252133 0.0025,-2.878165 0.02797,-3.067934 0.648157,-4.83197 1.514489,-4.307751 4.4111,-7.526377 8.615082,-9.572821 2.26579,-1.102957 3.890084,-1.436486 7.016259,-1.440713 2.976909,-0.004 4.83412,0.393191 7.180522,1.535746 3.45141,1.680627 5.959888,4.14071 7.594893,7.448361 1.23613,2.500736 1.66025,4.377701 1.63774,7.247954 -0.0293,3.740395 -1.1135,6.722994 -3.653335,10.050496 -2.378308,3.11588 -3.499622,5.199839 -4.211893,7.827791 l -0.419084,1.54623 -8.004563,0.05048 c -6.272174,0.03955 -8.038486,-0.0023 -8.1613,-0.193279 z M 98.469725,73.22381 c 1.465185,-0.768502 1.240725,-3.935761 -0.532872,-7.519099 -1.561458,-3.154739 -4.690684,-5.783848 -8.172297,-6.866192 -3.765212,-1.17051 -5.899526,-0.715618 -5.899526,1.257377 0,1.100926 0.618226,1.515018 3.044645,2.039327 2.809226,0.607029 4.075463,1.227771 5.647709,2.768651 1.447067,1.418198 2.158878,2.700218 2.644581,4.763075 0.563081,2.391486 0.900767,3.355706 1.243888,3.551762 0.44259,0.252892 1.546141,0.255671 2.023872,0.0051 z M 60.523044,85.53377 c 0.527062,-0.354995 1.335466,-1.097545 1.796452,-1.65011 0.703106,-0.842785 0.838156,-1.141377 0.838156,-1.853149 0,-0.688653 -0.09891,-0.924739 -0.525076,-1.253272 -0.735063,-0.566664 -1.370801,-0.683291 -1.892223,-0.347129 -0.820028,0.528676 -2.57778,2.167759 -3.139086,2.927163 -0.710017,0.960593 -0.705014,1.547162 0.01925,2.256974 0.797839,0.781925 1.657507,0.75809 2.902529,-0.08048 z m 53.014746,0.342776 c 0.66155,-0.424817 0.91172,-1.225055 0.60448,-1.933598 -0.34217,-0.789109 -3.54357,-3.755374 -4.05306,-3.755374 -0.57421,0 -1.52263,0.513855 -1.76391,0.955689 -0.28417,0.520391 -0.25282,1.290304 0.0776,1.904772 0.30032,0.55854 2.0646,2.288256 2.86936,2.813147 0.61558,0.401498 1.65329,0.408533 2.26556,0.01537 z M 63.243229,74.594487 c 0.679442,-0.625568 0.692689,-1.710589 0.0301,-2.465524 l -0.475956,-0.542294 h -2.575369 c -2.417288,0 -2.602941,0.02703 -3.024575,0.440337 -0.340679,0.333951 -0.444684,0.647316 -0.43048,1.29704 0.0337,1.541603 0.693845,1.84578 3.863202,1.780065 1.92295,-0.03987 2.15122,-0.08439 2.613074,-0.509624 z m 50.050051,0.365971 c 1.19346,-0.324845 1.66161,-1.401062 1.11804,-2.570267 -0.33389,-0.718184 -0.99119,-0.900161 -3.25134,-0.900161 -2.50377,0 -3.11338,0.233975 -3.44621,1.322695 -0.30212,0.988248 0.13466,1.874331 1.0519,2.133995 0.87737,0.248377 3.63482,0.256744 4.52761,0.01374 z m -50.7424,-8.996054 c 0.757628,-0.624783 0.83193,-1.666198 0.17963,-2.517698 -1.248128,-1.629284 -3.162672,-3.166845 -3.943294,-3.166845 -0.600258,0 -1.743171,1.135955 -1.743171,1.73256 0,0.944722 1.529727,2.837474 3.139917,3.88506 1.072766,0.69794 1.584197,0.712401 2.366918,0.06692 z m 48.33777,0.182521 c 0.93528,-0.609677 2.7893,-2.490173 3.17514,-3.220473 0.42901,-0.812024 0.36037,-1.333127 -0.26373,-2.002082 -0.93739,-1.004763 -1.84131,-0.751412 -3.74832,1.050575 -2.10733,1.991291 -2.39647,2.842767 -1.32269,3.895133 0.68758,0.673863 1.40874,0.76631 2.1596,0.276847 z M 87.194924,35.464355 c 0.218751,-0.138144 0.253881,-0.696003 0.176544,-2.803555 -0.07894,-2.151208 -0.170556,-2.771916 -0.502326,-3.403195 -0.547854,-1.042439 -1.555295,-1.941028 -2.511079,-2.23976 -0.978086,-0.305703 -23.795748,-0.490705 -26.367208,-0.213781 -2.093614,0.225464 -2.892132,0.597787 -3.730862,1.73958 l -0.667178,0.908253 -0.114285,2.995821 c -0.06286,1.647701 -0.0934,3.039308 -0.06787,3.09246 0.08472,0.176419 33.503612,0.101417 33.784267,-0.07582 z"
         id="path335" />
  </g>
</svg>
