<?xml version="1.0" encoding="UTF-8" standalone="no"?>
<!-- Created with Inkscape (http://www.inkscape.org/) -->

<svg
   width="512.1181"
   height="512.1181"
   viewBox="0 0 135.49791 135.49791"
   version="1.1"
   id="svg5"
   inkscape:version="1.1.2 (b8e25be833, 2022-02-05)"
   sodipodi:docname="menu.svg"
   xmlns:inkscape="http://www.inkscape.org/namespaces/inkscape"
   xmlns:sodipodi="http://sodipodi.sourceforge.net/DTD/sodipodi-0.dtd"
   xmlns="http://www.w3.org/2000/svg"
   xmlns:svg="http://www.w3.org/2000/svg">
  <sodipodi:namedview
     id="namedview7"
     pagecolor="#ffffff"
     bordercolor="#666666"
     borderopacity="1.0"
     inkscape:pageshadow="2"
     inkscape:pageopacity="0.0"
     inkscape:pagecheckerboard="0"
     inkscape:document-units="mm"
     showgrid="false"
     width="512mm"
     units="px"
     inkscape:zoom="0.7198092"
     inkscape:cx="213.25096"
     inkscape:cy="282.71381"
     inkscape:window-width="1920"
     inkscape:window-height="1001"
     inkscape:window-x="-9"
     inkscape:window-y="-9"
     inkscape:window-maximized="1"
     inkscape:current-layer="layer1" />
  <defs
     id="defs2" />
  <g
     inkscape:label="Capa 1"
     inkscape:groupmode="layer"
     id="layer1">
    <g
       id="g73"
       transform="translate(-1.1027181,3.308168)">
      <path
         style="fill:#ebd6ad;stroke-width:0.352778"
         d="m 31.470371,121.56853 c 0.927488,-0.0729 2.356238,-0.072 3.175,0.002 0.818766,0.074 0.05991,0.13364 -1.686338,0.13256 -1.74625,-0.001 -2.416146,-0.0616 -1.488662,-0.13452 z m 19.594728,-0.005 c 7.630001,-0.0531 20.012501,-0.0531 27.516666,5e-5 7.504162,0.0531 1.261435,0.0966 -13.872732,0.0965 -15.134166,-3e-5 -21.273939,-0.0435 -13.643934,-0.0966 z m 58.358521,0.002 c 1.69774,-0.0647 4.47586,-0.0647 6.17361,0 1.69774,0.0647 0.30868,0.11758 -3.08681,0.11758 -3.39548,0 -4.78455,-0.0529 -3.0868,-0.11758 z m -91.523788,-0.33109 c 0.25466,-0.10191 0.558931,-0.0894 0.676159,0.0278 0.117224,0.11722 -0.09114,0.2006 -0.463021,0.18529 -0.410968,-0.0169 -0.494559,-0.10052 -0.213138,-0.21314 z m 103.782808,-0.28811 c 0.48507,-0.27729 1.0407,-0.50417 1.23473,-0.50417 0.19402,0 -0.0441,0.22688 -0.52917,0.50417 -0.48507,0.27729 -1.0407,0.50416 -1.23472,0.50416 -0.19403,0 0.0441,-0.22687 0.52916,-0.50416 z m 2.99861,-1.94028 c 0.35119,-0.38806 0.7179,-0.70556 0.81491,-0.70556 0.097,0 -0.11094,0.3175 -0.46213,0.70556 -0.35118,0.38805 -0.71789,0.70555 -0.81491,0.70555 -0.097,0 0.11095,-0.3175 0.46213,-0.70555 z m 1.45003,-2.64584 c 0.29015,-1.29713 0.49206,-1.57871 0.48485,-0.67615 -0.003,0.37188 -0.16654,0.91428 -0.36349,1.20532 -0.26152,0.38646 -0.29425,0.24374 -0.12136,-0.52917 z M 21.801533,101.45535 c -0.438809,-0.55952 -0.426332,-0.572 0.133195,-0.13319 0.339549,0.26629 0.617361,0.54411 0.617361,0.61736 0,0.29035 -0.289697,0.10347 -0.750556,-0.48417 z m -1.637044,-4.321524 c 0,-0.679097 0.0726,-0.95691 0.161336,-0.617361 0.08873,0.339548 0.08873,0.895173 0,1.234722 -0.08873,0.339549 -0.161336,0.06174 -0.161336,-0.617361 z m 1.858433,-4.586111 c 0.351187,-0.388056 0.717896,-0.705556 0.81491,-0.705556 0.09701,0 -0.110945,0.3175 -0.462132,0.705556 -0.351186,0.388055 -0.717895,0.705555 -0.814909,0.705555 -0.09701,0 0.110945,-0.3175 0.462131,-0.705555 z m 36.247917,-1.675504 c 5.966354,-0.05422 15.729479,-0.05422 21.695833,0 5.966354,0.05422 1.084791,0.09858 -10.847917,0.09858 -11.932708,0 -16.81427,-0.04436 -10.847916,-0.09858 z M 111.01112,74.675189 c 0.24253,-0.09786 0.63941,-0.09786 0.88194,0 0.24253,0.09786 0.0441,0.177937 -0.44097,0.177937 -0.48507,0 -0.68351,-0.08007 -0.44097,-0.177937 z M 25.815284,74.312868 c 0.339548,-0.08873 0.895173,-0.08873 1.234722,0 0.339548,0.08873 0.06174,0.161336 -0.617361,0.161336 -0.679098,0 -0.95691,-0.0726 -0.617361,-0.161336 z m -6.029717,-6.459597 c 0,-0.48507 0.08007,-0.683507 0.177938,-0.440972 0.09786,0.242534 0.09786,0.639409 0,0.881944 -0.09786,0.242535 -0.177938,0.0441 -0.177938,-0.440972 z M 59.17783,61.591649 c 5.495061,-0.0547 14.385061,-0.05466 19.755556,9.1e-5 5.370494,0.05475 0.874536,0.0995 -9.99102,0.09945 -10.865555,-5.3e-5 -15.259596,-0.04485 -9.764536,-0.09954 z M 25.638895,44.3363 c 0.242534,-0.09786 0.639409,-0.09786 0.881944,0 0.242535,0.09786 0.0441,0.177938 -0.440972,0.177938 -0.48507,0 -0.683507,-0.08007 -0.440972,-0.177938 z m 4.056944,-0.02797 c 1.309688,-0.06788 3.452813,-0.06788 4.7625,0 1.309687,0.06788 0.238125,0.123412 -2.38125,0.123412 -2.619375,0 -3.690937,-0.05553 -2.38125,-0.123412 z m 74.083331,0 c 1.30969,-0.06788 3.45281,-0.06788 4.7625,0 1.30969,0.06788 0.23813,0.123412 -2.38125,0.123412 -2.61937,0 -3.69094,-0.05553 -2.38125,-0.123412 z m 7.95955,0.0206 c 0.25466,-0.101907 0.55893,-0.08938 0.67616,0.02783 0.11722,0.117225 -0.0911,0.200604 -0.46302,0.185286 -0.41097,-0.01693 -0.49456,-0.10052 -0.21314,-0.213134 z M 62.327783,43.953494 c 2.570868,-0.06028 6.777743,-0.06028 9.348611,0 2.570868,0.06028 0.467431,0.109594 -4.674305,0.109594 -5.141736,0 -7.245174,-0.04932 -4.674306,-0.109594 z M 117.88393,37.86716 c 0,-0.679097 0.0726,-0.95691 0.16134,-0.617361 0.0887,0.339548 0.0887,0.895173 0,1.234722 -0.0887,0.339549 -0.16134,0.06174 -0.16134,-0.617361 z M 14.4382,15.861743 c 0,-0.07325 0.277813,-0.351067 0.617361,-0.617361 0.559527,-0.43881 0.572005,-0.426332 0.133195,0.133195 -0.460858,0.58764 -0.750556,0.774516 -0.750556,0.484166 z m 115.16451,-3.110932 c -1.72839,-2.163184 -4.26276,-4.044654 -5.62701,-4.1773994 -0.50654,-0.049287 -0.55044,-0.1104956 -0.15566,-0.2169925 1.29906,-0.3504375 4.54039,2.1386639 6.84605,5.2572689 1.55679,2.105681 0.85076,1.532777 -1.06338,-0.862877 z M 8.793756,13.745077 c 0,-0.07325 0.2778125,-0.351067 0.6173611,-0.617361 0.5595253,-0.43881 0.572003,-0.426332 0.133193,0.133194 -0.460858,0.58764 -0.7505541,0.774517 -0.7505541,0.484167 z m 35.746358,-0.484138 c 13.936676,-0.0511 36.637926,-0.05109 50.447222,1.7e-5 13.809294,0.05111 2.406558,0.09292 -25.339414,0.09291 -27.745972,-7e-6 -39.044485,-0.04183 -25.107808,-0.09292 z M 9.8520893,12.356773 c 0,-0.06071 0.5159377,-0.576651 1.1465277,-1.146528 l 1.146528,-1.03614 -1.036141,1.146528 c -0.965828,1.068726 -1.2569147,1.308682 -1.2569147,1.03614 z M 15.07761,8.3456174 c 0.25466,-0.1019073 0.558931,-0.089374 0.676159,0.027852 0.117224,0.1172252 -0.09114,0.2006039 -0.463021,0.1852859 -0.410969,-0.016927 -0.494559,-0.100521 -0.213138,-0.2131379 z"
         id="path87" />
      <path
         style="fill:#a5a4a2;stroke-width:0.352778"
         d="m 7.1618296,110.01021 c 8.114e-4,-2.1343 0.0589,-2.96194 0.1291206,-1.8392 0.07022,1.12274 0.069569,2.86899 -0.00145,3.88056 -0.071017,1.01156 -0.12847,0.093 -0.1276742,-2.04136 z M 111.54028,103.59342 c 0.33955,-0.0887 0.89518,-0.0887 1.23472,0 0.33955,0.0887 0.0617,0.16134 -0.61736,0.16134 -0.67909,0 -0.95691,-0.0726 -0.61736,-0.16134 z m 4.8507,-1.69709 c 0.4557,-0.48507 0.90792,-0.88195 1.00493,-0.88195 0.097,0 -0.19645,0.39688 -0.65216,0.88195 -0.4557,0.48507 -0.90791,0.88194 -1.00493,0.88194 -0.097,0 0.19646,-0.39687 0.65216,-0.88194 z M 25.308165,90.895618 c 0.25466,-0.101907 0.558931,-0.08938 0.676159,0.02783 0.117225,0.117224 -0.09114,0.200603 -0.463021,0.185286 -0.410968,-0.01693 -0.494559,-0.100521 -0.213138,-0.213134 z m 1.741841,0.0073 c 0.242534,-0.09786 0.639409,-0.09786 0.881944,0 0.242535,0.09786 0.0441,0.177937 -0.440972,0.177937 -0.485069,0 -0.683507,-0.08007 -0.440972,-0.177937 z M 116.0382,72.615771 c 0.4557,-0.48507 0.90792,-0.881945 1.00493,-0.881945 0.097,0 -0.19645,0.396875 -0.65215,0.881945 -0.4557,0.485069 -0.90792,0.881944 -1.00494,0.881944 -0.097,0 0.19646,-0.396875 0.65216,-0.881944 z m -94.401573,-0.264584 -0.672038,-0.79375 0.79375,0.672038 c 0.745928,0.63155 0.954349,0.915462 0.672038,0.915462 -0.06694,0 -0.42413,-0.357187 -0.79375,-0.79375 z m 96.193313,-5.409258 c 0.0169,-0.410968 0.10052,-0.494559 0.21313,-0.213137 0.10191,0.254659 0.0894,0.558934 -0.0278,0.676158 -0.11722,0.117225 -0.2006,-0.09114 -0.18529,-0.463021 z M 25.643008,61.606543 c 0.438824,-0.08438 1.073824,-0.08118 1.411111,0.0071 0.337287,0.0883 -0.02177,0.157339 -0.797863,0.153423 -0.776111,-0.0039 -1.052072,-0.07616 -0.613248,-0.160542 z m -5.4714,-23.562994 c 0.0039,-0.776111 0.07616,-1.052072 0.160542,-0.613248 0.08438,0.438824 0.08118,1.073824 -0.0071,1.411111 -0.0883,0.337288 -0.157339,-0.02177 -0.153423,-0.797863 z M 120.20539,13.284508 c 0.25466,-0.101907 0.55893,-0.08938 0.67616,0.02783 0.11722,0.117228 -0.0911,0.200603 -0.46303,0.185286 -0.41096,-0.01693 -0.49455,-0.100521 -0.21313,-0.213135 z M 39.070312,7.6165841 c 6.853703,-0.053568 17.966203,-0.05354 24.694444,6.24e-5 6.728242,0.053603 1.120666,0.097431 -12.461278,0.097396 -13.581945,-3.39e-5 -19.086869,-0.04389 -12.233166,-0.097458 z m 51.680903,8.43e-5 c 5.203896,-0.055008 13.617645,-0.054961 18.697225,1.041e-4 5.07957,0.055065 0.82184,0.1000721 -9.46163,0.1000146 -10.283472,-5.75e-5 -14.43949,-0.045111 -9.235595,-0.1001187 z"
         id="path85" />
      <path
         style="fill:#cda457;stroke-width:0.352778"
         d="m 128.38542,123.41577 c 0.65821,-0.6791 1.27611,-1.23472 1.37313,-1.23472 0.097,0 -0.36215,0.55562 -1.02035,1.23472 -0.65821,0.6791 -1.27611,1.23472 -1.37313,1.23472 -0.097,0 0.36215,-0.55562 1.02035,-1.23472 z M 21.246494,121.56535 c 1.707271,-0.0648 4.406021,-0.0645 5.997222,7.1e-4 1.591204,0.0652 0.194345,0.11823 -3.104127,0.11783 -3.298472,-3.5e-4 -4.600363,-0.0538 -2.893095,-0.11857 z m 14.975734,0.0293 c 0.242535,-0.0979 0.63941,-0.0979 0.881944,0 0.242535,0.0979 0.0441,0.17794 -0.440972,0.17794 -0.485069,0 -0.683507,-0.0801 -0.440972,-0.17794 z m 59.462228,-0.0298 c 2.096343,-0.0625 5.430094,-0.0622 7.408334,3.6e-4 1.97824,0.0628 0.26305,0.11388 -3.811535,0.11359 -4.074583,-2.9e-4 -5.693142,-0.0516 -3.596799,-0.11412 z m 23.270874,0.019 c 0.34324,-0.0894 0.81949,-0.0836 1.05833,0.0131 0.23884,0.0966 -0.042,0.16982 -0.62407,0.16263 -0.58209,-0.007 -0.7775,-0.0863 -0.43426,-0.1757 z m 4.84398,-1.29984 c 0,-0.0732 0.27781,-0.35106 0.61736,-0.61736 0.55953,-0.43881 0.57201,-0.42633 0.1332,0.1332 -0.46086,0.58764 -0.75056,0.77451 -0.75056,0.48416 z m -109.758886,-1.5425 c -0.43881,-0.55952 -0.426332,-0.572 0.133193,-0.13319 0.339549,0.26629 0.617361,0.54411 0.617361,0.61736 0,0.29035 -0.289697,0.10347 -0.750554,-0.48417 z m -6.9548551,-3.61597 c 0,-0.48507 0.080071,-0.6835 0.1779362,-0.44097 0.097865,0.24253 0.097865,0.63941 0,0.88194 -0.097865,0.24254 -0.1779362,0.0441 -0.1779362,-0.44097 z m 0.01307,-33.690275 c 0.00719,-0.582083 0.086253,-0.777501 0.1756981,-0.434259 0.089444,0.343242 0.083562,0.819492 -0.01307,1.058333 -0.096634,0.238842 -0.1698159,-0.04199 -0.1626263,-0.624074 z M 124.02108,15.518642 c -0.94517,-0.941059 -1.42142,-1.5494 -1.05833,-1.351869 0.77278,0.420405 3.15214,2.832499 2.92911,2.969408 -0.0837,0.05141 -0.9256,-0.676479 -1.87078,-1.617539 z m -2.86511,-1.989109 c -0.12359,-0.199976 0.018,-0.259115 0.33196,-0.138645 0.61116,0.234523 0.72298,0.487383 0.21553,0.487383 -0.18257,0 -0.42895,-0.156933 -0.54749,-0.348738 z M 18.25261,13.284508 c 0.25466,-0.101907 0.558931,-0.08938 0.676159,0.02783 0.117224,0.117228 -0.09114,0.200603 -0.463021,0.185286 -0.410969,-0.01693 -0.494559,-0.100521 -0.213138,-0.213135 z m 1.932901,-5.6653955 c 1.317756,-0.068061 3.381506,-0.067556 4.586111,0.00113 1.204602,0.068678 0.126439,0.1243637 -2.395922,0.1237467 -2.522361,-5.997e-4 -3.507948,-0.056808 -2.190189,-0.1248685 z m 99.296389,0.012432 c 0.43882,-0.084382 1.07382,-0.081178 1.41111,0.00712 0.33728,0.088297 -0.0218,0.1573375 -0.79787,0.153422 -0.77611,-0.00392 -1.05207,-0.076159 -0.61324,-0.160542 z"
         id="path83" />
      <path
         style="fill:#b4975f;stroke-width:0.352778"
         d="m 14.745978,119.7998 c -0.438808,-0.55953 -0.426331,-0.57201 0.133195,-0.1332 0.339548,0.2663 0.617361,0.54411 0.617361,0.61736 0,0.29035 -0.289698,0.10348 -0.750556,-0.48416 z m 110.111662,-0.57417 c 0,-0.0733 0.27782,-0.35107 0.61736,-0.61736 0.55953,-0.43881 0.57201,-0.42633 0.1332,0.13319 -0.46086,0.58764 -0.75056,0.77452 -0.75056,0.48417 z M 7.1855783,96.251881 c 1.675e-4,-5.626805 0.048875,-7.87928 0.10824,-5.005503 0.059364,2.87378 0.059228,7.47753 -3.045e-4,10.230552 -0.059532,2.75303 -0.1081027,0.40176 -0.1079355,-5.225049 z M 22.022922,92.900493 c 0.351187,-0.388056 0.717896,-0.705556 0.81491,-0.705556 0.09701,0 -0.110945,0.3175 -0.462132,0.705556 -0.351186,0.388055 -0.717895,0.705555 -0.814909,0.705555 -0.09701,0 0.110945,-0.3175 0.462131,-0.705555 z M 7.198563,50.214382 c 0,-16.783403 0.043105,-23.64934 0.095788,-15.257639 0.052684,8.391702 0.052684,22.123576 0,30.515278 C 7.241667,73.863722 7.198563,66.997785 7.198563,50.214382 Z M 117.85779,68.206049 c 0,-0.48507 0.0801,-0.683507 0.17794,-0.440973 0.0979,0.242535 0.0979,0.63941 0,0.881945 -0.0979,0.242534 -0.17794,0.0441 -0.17794,-0.440972 z m -15.84251,-55.29738 c 3.444,-0.05776 9.07962,-0.05776 12.52361,0 3.444,0.05776 0.62618,0.105015 -6.2618,0.105015 -6.88799,0 -9.7058,-0.04726 -6.26181,-0.105015 z M 77.14445,7.6227436 c 0.824618,-0.074272 2.173993,-0.074272 2.998611,0 0.824618,0.074272 0.14993,0.1350402 -1.499306,0.1350402 -1.649236,0 -2.323923,-0.060768 -1.499305,-0.1350402 z"
         id="path81" />
      <path
         style="fill:#e79800;stroke-width:0.352778"
         d="M 11.5387,124.73869 C 10.322158,123.50202 9.3202824,122.09054 8.9720795,121.12271 8.6579468,120.24959 8.2253707,119.05896 8.0107989,118.47688 7.5268509,117.16404 7.5177069,116.25976 7.4468409,62.703276 7.3851944,16.114604 7.3459186,17.358022 8.977937,14.231049 c 1.239406,-2.37472 5.014791,-5.3895393 7.486848,-5.9785935 1.455187,-0.3467488 13.016339,-0.4014343 54.151388,-0.2561414 28.765655,0.1016028 52.698067,0.3178214 53.183137,0.4804854 2.76665,0.9277735 4.32801,2.1956175 6.82835,5.5446995 l 1.29211,1.730724 -0.0101,51.652078 -0.0101,51.652079 -0.88022,1.73703 c -0.48412,0.95537 -1.00448,1.6981 -1.15635,1.65053 -0.39013,-0.12221 -2.53592,1.72939 -2.53592,2.18823 0,0.209 -0.89288,0.77487 -1.98418,1.25749 l -1.98418,0.8775 H 68.446456 13.53417 Z m 110.95521,-3.47986 c 1.45279,-0.73274 2.99818,-2.17249 3.62995,-3.38179 0.74889,-1.4335 0.7451,-98.3869 -0.004,-100.163326 -0.57353,-1.360213 -2.26258,-3.033575 -4.13385,-4.095457 l -1.28404,-0.728652 -51.103456,0.171199 c -34.042897,0.11405 -51.504476,0.294238 -52.304675,0.539743 -0.660671,0.202699 -1.890984,1.058305 -2.734027,1.901349 l -1.532813,1.532809 v 50.172958 50.172957 l 0.940098,1.35657 c 0.517054,0.74611 1.588617,1.74532 2.381252,2.22048 l 1.44115,0.86393 51.787657,0.003 c 46.964054,0.003 51.892814,-0.0497 52.916664,-0.5661 z"
         id="path79" />
      <path
         style="fill:#ae7e21;stroke-width:0.352778"
         d="m 7.5059104,109.83383 c 0,-1.64924 0.060768,-2.32393 0.1350401,-1.49931 0.074272,0.82462 0.074272,2.17399 0,2.99861 -0.074272,0.82462 -0.1350401,0.14993 -0.1350401,-1.4993 z M 63.386116,103.2203 c 2.376841,-0.061 6.266216,-0.061 8.643056,0 2.37684,0.061 0.432153,0.11097 -4.321528,0.11097 -4.75368,0 -6.698368,-0.0499 -4.321528,-0.11097 z m 54.796604,-5.939482 c 0.0169,-0.410969 0.10052,-0.494559 0.21313,-0.213138 0.10191,0.25466 0.0894,0.558934 -0.0278,0.676159 -0.11723,0.117224 -0.20061,-0.09114 -0.18529,-0.463021 z m -87.415668,-6.05252 c 1.122744,-0.07022 2.868994,-0.06957 3.880556,0.0014 1.011562,0.07102 0.09295,0.128471 -2.041352,0.127674 -2.134306,-7.06e-4 -2.961947,-0.0589 -1.839204,-0.12912 z m 73.377778,0 c 1.12274,-0.07022 2.86899,-0.06957 3.88055,0.0014 1.01157,0.07102 0.093,0.128471 -2.04135,0.127674 -2.1343,-7.06e-4 -2.96194,-0.0589 -1.8392,-0.12912 z M 63.033339,73.939746 c 2.37684,-0.06103 6.266215,-0.06103 8.643055,0 2.37684,0.06103 0.432153,0.110969 -4.321528,0.110969 -4.75368,0 -6.698368,-0.04993 -4.321527,-0.110969 z M 30.577783,61.948744 c 1.018646,-0.07126 2.685521,-0.07126 3.704167,0 1.018646,0.07126 0.185208,0.129569 -1.852083,0.129569 -2.037292,0 -2.870729,-0.05831 -1.852084,-0.129569 z m 73.377777,0 c 1.01865,-0.07126 2.68552,-0.07126 3.70417,0 1.01864,0.07126 0.18521,0.129569 -1.85209,0.129569 -2.03729,0 -2.87073,-0.05831 -1.85208,-0.129569 z M 53.147694,43.96255 c 0.626262,-0.07793 1.737512,-0.07921 2.469444,-0.0028 0.73193,0.07637 0.219534,0.140131 -1.13866,0.141697 -1.358195,0.0014 -1.957049,-0.06092 -1.330784,-0.13885 z m 25.598928,-0.0073 c 1.317755,-0.06806 3.381505,-0.06755 4.586111,0.0011 1.204602,0.06868 0.126439,0.124365 -2.395922,0.123748 -2.522361,-7.06e-4 -3.507948,-0.05681 -2.190189,-0.12487 z M 95.818917,7.9699083 c 3.334463,-0.057929 8.890713,-0.058027 12.347223,-2.194e-4 3.45651,0.057808 0.72831,0.1052036 -6.06266,0.1053246 -6.790975,1.207e-4 -9.619029,-0.047177 -6.284563,-0.1051052 z"
         id="path77" />
      <path
         style="fill:#030201;stroke-width:0.352778"
         d="m 23.477785,102.42822 c -2.260307,-1.56038 -3.345593,-4.269275 -2.688336,-6.710137 0.479965,-1.782463 2.160979,-3.723326 3.632355,-4.193843 0.750302,-0.239935 16.035969,-0.335891 45.578896,-0.286124 l 44.45,0.07488 1.15415,0.865727 c 1.78894,1.341885 2.55002,2.916294 2.55002,5.275118 0,1.702265 -0.17351,2.283082 -1.03885,3.477649 -0.57136,0.78875 -1.36511,1.53764 -1.76389,1.66421 -0.39877,0.12656 -0.72504,0.36568 -0.72504,0.53137 0,0.16569 -20.200939,0.28862 -44.890974,0.27318 l -44.890971,-0.0281 z M 91.343755,74.209487 C 80.769241,74.079107 61.478742,74.049915 48.475978,74.144621 L 24.834593,74.316809 23.327777,73.3656 c -3.565945,-2.251082 -4.197876,-6.421304 -1.447698,-9.553582 0.583033,-0.664034 1.568059,-1.369145 2.188948,-1.566908 0.74725,-0.238016 16.156131,-0.334744 45.578895,-0.286124 l 44.449998,0.07345 1.15415,0.865728 c 1.86371,1.397966 2.50198,2.806001 2.4334,5.368067 -0.094,3.512901 -2.10471,5.77076 -5.3772,6.03824 -0.95597,0.07814 -10.39,0.03539 -20.964515,-0.09499 z M 24.05168,43.663934 c -1.227829,-0.53037 -2.754051,-2.149574 -3.241036,-3.43849 -0.940252,-2.488582 0.137446,-5.978803 2.249089,-7.28387 1.154366,-0.71344 1.501796,-0.718858 46.078831,-0.718858 h 44.915696 l 1.17359,0.79375 c 1.36712,0.924641 2.57424,3.174068 2.57424,4.797015 0,2.12095 -1.52378,4.765174 -3.35139,5.815687 -1.0333,0.59394 -89.026167,0.627782 -90.39902,0.03478 z"
         id="path75" />
    </g>
  </g>
</svg>
