<?xml version="1.0" encoding="UTF-8" standalone="no"?>
<!-- Created with Inkscape (http://www.inkscape.org/) -->

<svg
   width="512"
   height="512"
   viewBox="0 0 135.46666 135.46667"
   version="1.1"
   id="svg5"
   inkscape:version="1.1.2 (b8e25be833, 2022-02-05)"
   sodipodi:docname="registre.svg"
   xmlns:inkscape="http://www.inkscape.org/namespaces/inkscape"
   xmlns:sodipodi="http://sodipodi.sourceforge.net/DTD/sodipodi-0.dtd"
   xmlns="http://www.w3.org/2000/svg"
   xmlns:svg="http://www.w3.org/2000/svg">
  <sodipodi:namedview
     id="namedview7"
     pagecolor="#ffffff"
     bordercolor="#666666"
     borderopacity="1.0"
     inkscape:pageshadow="2"
     inkscape:pageopacity="0.0"
     inkscape:pagecheckerboard="0"
     inkscape:document-units="mm"
     showgrid="false"
     units="px"
     inkscape:zoom="0.7198092"
     inkscape:cx="396.63288"
     inkscape:cy="228.53278"
     inkscape:window-width="1920"
     inkscape:window-height="1001"
     inkscape:window-x="-9"
     inkscape:window-y="-9"
     inkscape:window-maximized="1"
     inkscape:current-layer="layer1" />
  <defs
     id="defs2" />
  <g
     inkscape:label="Capa 1"
     inkscape:groupmode="layer"
     id="layer1">
    <g
       id="g21"
       transform="translate(0.69443053,1.8264078)">
      <path
         style="fill:#ecebeb;stroke-width:0.264583"
         d="m 76.331163,122.73314 c -0.329107,-0.41964 -0.319749,-0.429 0.0999,-0.0999 0.254661,0.19972 0.463021,0.40808 0.463021,0.46302 0,0.21777 -0.217273,0.0776 -0.562917,-0.36312 z m 41.837917,-0.19844 c 0.34177,-0.3638 0.68094,-0.66146 0.7537,-0.66146 0.0728,0 -0.14734,0.29766 -0.48912,0.66146 -0.34177,0.3638 -0.68094,0.66146 -0.7537,0.66146 -0.0728,0 0.14734,-0.29766 0.48912,-0.66146 z M 93.839882,122.36593 C 82.81261,120.53765 74.917777,110.0155 76.308949,99.000895 77.310084,91.07441 82.626711,84.3513 90.005123,81.68148 c 12.811587,-4.635773 26.508657,3.770537 28.219917,17.319415 1.19021,9.423485 -4.49558,18.840335 -13.42066,22.227435 -3.41448,1.29581 -7.471485,1.71673 -10.964498,1.1376 z m 5.848456,-8.62655 c 1.458472,-0.85841 1.924162,-2.00239 2.035092,-4.99927 l 0.0994,-2.68399 2.68398,-0.0994 c 3.03934,-0.11251 4.13496,-0.5726 5.05566,-2.12306 0.70579,-1.18855 0.70579,-3.47821 0,-4.66676 -0.9207,-1.550458 -2.01632,-2.010553 -5.05566,-2.123059 l -2.68398,-0.09935 -0.0994,-2.683986 c -0.0806,-2.176375 -0.20768,-2.858947 -0.67212,-3.609083 -0.82826,-1.33776 -2.040234,-1.96805 -3.784314,-1.96805 -1.744081,0 -2.956052,0.63029 -3.784317,1.96805 -0.464442,0.750136 -0.591558,1.432708 -0.672121,3.609083 l -0.09935,2.683986 -2.683041,0.102675 c -3.05725,0.116996 -4.05851,0.530664 -5.01201,2.070697 -0.7575,1.223457 -0.77883,3.479337 -0.04459,4.715797 0.923298,1.55483 2.013945,2.01046 5.084595,2.12413 l 2.712924,0.10042 0.0016,2.15281 c 7.93e-4,1.18404 0.12411,2.59436 0.273999,3.13405 0.330923,1.19152 1.575695,2.49281 2.718348,2.84178 1.112575,0.33979 2.942156,0.1312 3.925435,-0.44752 z m 18.587892,-33.207279 -0.50403,-0.595313 0.59532,0.504029 c 0.32742,0.277214 0.59531,0.545105 0.59531,0.595312 0,0.211733 -0.21294,0.05542 -0.6866,-0.504028 z"
         id="path37" />
      <path
         style="fill:#d2d1d1;stroke-width:0.264583"
         d="m 112.34824,116.2171 c 0,-0.0549 0.20836,-0.2633 0.46303,-0.46302 0.41964,-0.32911 0.429,-0.31975 0.0999,0.0999 -0.34564,0.44073 -0.56292,0.58089 -0.56292,0.36313 z m 0.23084,-29.202708 c -0.32911,-0.419645 -0.31975,-0.429003 0.0999,-0.0999 0.25467,0.199721 0.46302,0.40808 0.46302,0.463021 0,0.217762 -0.21727,0.07761 -0.56291,-0.363125 z m -1.05834,-1.058333 c -0.3291,-0.419645 -0.31974,-0.429004 0.0999,-0.0999 0.44073,0.345643 0.58089,0.562916 0.36313,0.562916 -0.055,0 -0.2633,-0.208359 -0.46303,-0.46302 z"
         id="path35" />
      <path
         style="fill:#eac888;stroke-width:0.264583"
         d="m 96.803975,114.28253 c 0.254661,-0.0665 0.67138,-0.0665 0.926041,0 0.254662,0.0666 0.0463,0.121 -0.46302,0.121 -0.509323,0 -0.717683,-0.0545 -0.463021,-0.121 z m -2.013135,-0.58435 c -0.853258,-0.56254 -1.758035,-1.81117 -1.745078,-2.40827 0.0047,-0.21828 0.167367,-0.0397 0.361397,0.39688 0.416917,0.93804 1.350687,1.84872 2.272472,2.21629 0.363728,0.14504 0.482729,0.27047 0.264448,0.27873 -0.218281,0.008 -0.73724,-0.20937 -1.153239,-0.48363 z m 4.063521,0.2049 c 0.921784,-0.36757 1.855559,-1.27825 2.272469,-2.21629 0.19403,-0.43657 0.35666,-0.61516 0.3614,-0.39688 0.0212,0.97564 -1.935867,2.92835 -2.898318,2.8919 -0.218281,-0.008 -0.09928,-0.13369 0.264449,-0.27873 z m -6.085282,-5.51366 v -2.37132 l -2.447396,-0.0873 -2.447395,-0.0873 2.579687,-0.0549 2.579687,-0.0549 v 2.51354 c 0,1.38245 -0.05953,2.51354 -0.132291,2.51354 -0.07276,0 -0.132292,-1.06709 -0.132292,-2.37132 z m 8.786161,-0.0761 -0.0549,-2.57969 2.57969,0.0549 2.57968,0.0549 -2.43759,0.0872 -2.4376,0.0872 -0.0872,2.4376 -0.0872,2.4376 z m -15.231067,-3.08184 c -0.853257,-0.56254 -1.758034,-1.81117 -1.745077,-2.40826 0.0047,-0.21829 0.167367,-0.0397 0.361397,0.39687 0.416917,0.93804 1.350687,1.84873 2.272471,2.2163 0.363728,0.14503 0.48273,0.27046 0.264449,0.27873 -0.218282,0.008 -0.737241,-0.20937 -1.15324,-0.48364 z m 20.996857,0.20491 c 0.92178,-0.36757 1.85555,-1.27826 2.27247,-2.2163 0.19403,-0.43656 0.35666,-0.61516 0.3614,-0.39687 0.0212,0.97563 -1.93587,2.92834 -2.89832,2.8919 -0.21828,-0.008 -0.0993,-0.1337 0.26445,-0.27873 z M 84.363796,101.5003 c 0,-0.50932 0.05445,-0.71768 0.121002,-0.46302 0.06655,0.25466 0.06655,0.67138 0,0.92604 -0.06655,0.25466 -0.121002,0.0463 -0.121002,-0.46302 z m 25.664584,0 c 0,-0.50932 0.0545,-0.71768 0.121,-0.46302 0.0666,0.25466 0.0666,0.67138 0,0.92604 -0.0665,0.25466 -0.121,0.0463 -0.121,-0.46302 z m -25.442868,-1.32292 c -0.03644,-0.962449 1.916263,-2.919487 2.891901,-2.898315 0.218281,0.0047 0.03969,0.167367 -0.396875,0.361397 -0.938043,0.416917 -1.848729,1.350687 -2.216296,2.272472 -0.145036,0.363726 -0.270467,0.482726 -0.27873,0.264446 z m 25.116898,-0.0679 c 0,-0.620474 -1.30882,-2.066578 -2.23584,-2.470362 -0.44378,-0.193299 -0.64233,-0.35611 -0.44122,-0.361807 1.0658,-0.03019 3.42954,2.500363 2.86389,3.066009 -0.10275,0.10276 -0.18683,-0.002 -0.18683,-0.23384 z m -19.390527,-3.039528 2.437598,-0.08718 0.08718,-2.437599 0.08718,-2.437595 0.05491,2.579687 0.05491,2.579688 -2.579687,-0.05491 -2.579687,-0.05491 z m 11.243357,-2.382684 0.0549,-2.579687 0.0872,2.437595 0.0872,2.437599 2.4376,0.08718 2.43759,0.08718 -2.57968,0.05491 -2.57969,0.05491 z m -8.503062,-2.976562 c -0.03644,-0.962451 1.916263,-2.919489 2.891901,-2.898317 0.218281,0.0047 0.03969,0.167367 -0.396875,0.361397 -0.938043,0.416917 -1.848728,1.350687 -2.216295,2.272471 -0.145037,0.363728 -0.270468,0.48273 -0.278731,0.264449 z m 8.183572,-0.0679 c 0,-0.620472 -1.308824,-2.066576 -2.235845,-2.470359 -0.443778,-0.193299 -0.642329,-0.35611 -0.441222,-0.361807 1.0658,-0.03019 3.429537,2.500363 2.863897,3.066005 -0.10276,0.102759 -0.18683,-0.0024 -0.18683,-0.233839 z m -4.431775,-3.024907 c 0.254661,-0.06655 0.67138,-0.06655 0.926041,0 0.254662,0.06655 0.0463,0.121002 -0.46302,0.121002 -0.509323,0 -0.717683,-0.05445 -0.463021,-0.121002 z"
         id="path33" />
      <path
         style="fill:#e89900;stroke-width:0.264583"
         d="m 17.035265,130.61988 c -3.873302,-1.2382 -7.1416892,-4.61765 -8.2702445,-8.55128 -0.3763631,-1.31183 -0.4232409,-2.69556 -0.3361298,-9.92187 0.089858,-7.45419 0.1686983,-8.72345 0.7018856,-11.29981 C 12.402903,85.036084 23.302433,72.106635 38.123831,66.454228 c 2.210533,-0.843029 3.434967,-1.222409 6.442938,-1.9963 L 45.70925,64.163989 43.229281,61.580214 C 39.513796,57.70921 37.02839,53.622069 35.357967,48.63619 33.050933,41.750152 33.159801,33.504249 35.651007,26.441107 39.624135,15.17637 49.130765,7.035668 61.283664,4.4913941 64.051441,3.911945 70.549327,3.8444619 73.454497,4.3649952 c 6.938782,1.2432551 13.34677,4.5857809 18.264829,9.5272768 5.00221,5.026045 8.303294,11.346739 9.550804,18.287227 0.51578,2.869538 0.44479,9.382087 -0.13267,12.170833 -2.552728,12.327947 -11.108763,22.102433 -22.65588,25.882265 -4.203144,1.375857 -4.601882,1.416447 -16.139583,1.642922 -11.672442,0.229119 -13.605821,0.412284 -18.131847,1.717776 -2.49069,0.718417 -7.007762,2.750999 -9.252526,4.16343 -9.371143,5.896424 -15.682156,15.410814 -17.502357,26.386295 -0.288454,1.73932 -0.428484,4.47809 -0.453342,8.86668 -0.03348,5.91072 6.35e-4,6.41215 0.493199,7.24839 0.680775,1.15577 1.629927,1.85384 2.930894,2.15557 0.577029,0.13383 10.671208,0.24395 22.733689,0.24801 21.176545,0.007 21.716472,0.0199 22.558146,0.53306 1.291084,0.78719 1.913832,1.99296 1.913832,3.7056 0,1.71263 -0.622748,2.91841 -1.913832,3.70559 -0.843558,0.51433 -1.365864,0.52548 -24.013355,0.51252 -21.704602,-0.0124 -23.245894,-0.0436 -24.669233,-0.49856 z M 74.150703,62.349324 c 8.456773,-2.320084 15.132192,-8.848921 17.726788,-17.337534 0.668068,-2.185686 0.729137,-2.750648 0.74357,-6.879166 0.01373,-3.930071 -0.06066,-4.761632 -0.589304,-6.58681 C 87.16567,14.745429 68.39066,7.6035419 53.718624,16.971756 c -4.559967,2.911575 -8.617312,8.417768 -10.328788,14.017118 -0.668068,2.185686 -0.729136,2.750648 -0.743569,6.879166 -0.01757,5.025998 0.334123,6.813896 2.086403,10.606473 5.148374,11.142977 17.735846,17.079772 29.418033,13.874811 z m 21.876783,51.567686 c -1.139571,-0.34085 -2.386634,-1.6421 -2.718347,-2.83647 -0.149889,-0.53969 -0.273191,-1.95001 -0.274,-3.13406 l -0.0015,-2.1528 -2.712923,-0.10043 c -2.20513,-0.0816 -2.88608,-0.20763 -3.638021,-0.67319 -2.63099,-1.62896 -2.604256,-5.508265 0.04882,-7.084015 0.675701,-0.40132 1.496766,-0.545246 3.561212,-0.62425 l 2.683041,-0.102674 0.09935,-2.683986 c 0.08056,-2.176376 0.20768,-2.858948 0.672121,-3.609084 1.62047,-2.617279 5.418997,-2.617279 7.039471,0 0.46444,0.750136 0.59156,1.432708 0.67212,3.609084 l 0.0994,2.683986 2.68399,0.09935 c 2.17637,0.08056 2.85895,0.20768 3.60908,0.672121 2.61728,1.62047 2.61728,5.418998 0,7.039468 -0.75013,0.46444 -1.43271,0.59156 -3.60908,0.67212 l -2.68399,0.0994 -0.10267,2.68304 c -0.079,2.06444 -0.22293,2.88551 -0.62425,3.56121 -0.9445,1.59024 -3.036984,2.40968 -4.803797,1.88122 z"
         id="path31" />
      <path
         style="fill:#4d4d4d;stroke-width:0.264583"
         d="m 75.678317,121.8071 -0.504029,-0.59531 0.595313,0.50402 c 0.327422,0.27722 0.595312,0.54511 0.595312,0.59532 0,0.21173 -0.212934,0.0554 -0.686596,-0.50403 z m 0.554305,-41.208854 c 0.568388,-0.582083 1.092967,-1.058333 1.165727,-1.058333 0.07276,0 -0.332756,0.47625 -0.901144,1.058333 -0.568389,0.582084 -1.092967,1.058334 -1.165728,1.058334 -0.07276,0 0.332756,-0.47625 0.901145,-1.058334 z m 41.249858,-0.595312 -0.50403,-0.595313 0.59532,0.504029 c 0.55944,0.473662 0.71576,0.686596 0.50402,0.686596 -0.0502,0 -0.31809,-0.26789 -0.59531,-0.595312 z"
         id="path29" />
      <path
         style="fill:#2e2e2e;stroke-width:0.264583"
         d="m 118.03679,122.40241 c 0.26339,-0.29104 0.53842,-0.52917 0.61118,-0.52917 0.0728,0 -0.0832,0.23813 -0.3466,0.52917 -0.26339,0.29104 -0.53842,0.52917 -0.61118,0.52917 -0.0728,0 0.0832,-0.23813 0.3466,-0.52917 z"
         id="path27" />
      <path
         style="fill:#181818;stroke-width:0.264583"
         d="m 96.539391,130.94415 c 0.400183,-0.0606 1.055026,-0.0606 1.455209,0 0.400182,0.0606 0.07276,0.11023 -0.727604,0.11023 -0.800365,0 -1.127787,-0.0496 -0.727605,-0.11023 z M 126.69713,102.0295 c 0,-0.50933 0.0545,-0.71769 0.121,-0.46303 0.0666,0.25467 0.0666,0.67138 0,0.92605 -0.0665,0.25466 -0.121,0.0463 -0.121,-0.46302 z m -59.042577,-1.47726 c 0.0127,-0.30823 0.07539,-0.37092 0.15985,-0.15985 0.07643,0.19099 0.06703,0.4192 -0.02088,0.50711 -0.08792,0.0879 -0.150453,-0.0684 -0.138965,-0.34726 z m 28.22338,-28.595888 c 0.181901,-0.0734 0.479557,-0.0734 0.661458,0 0.181901,0.0734 0.03307,0.133453 -0.330729,0.133453 -0.363802,0 -0.51263,-0.06005 -0.330729,-0.133453 z m 2.133203,-0.0055 c 0.190995,-0.07643 0.419201,-0.06703 0.507119,0.02087 0.08792,0.08792 -0.06835,0.150453 -0.347266,0.138965 -0.308226,-0.0127 -0.370919,-0.07539 -0.159853,-0.159851 z"
         id="path25" />
      <path
         style="fill:#000000;stroke-width:0.264583"
         d="m 91.611651,130.45795 c -4.196974,-0.83393 -8.456641,-2.73878 -11.94568,-5.3419 -13.037391,-9.72704 -15.731645,-28.192917 -6.01387,-41.217852 5.618591,-7.530716 14.182467,-11.815616 23.614895,-11.815616 11.230734,0 21.289154,6.184815 26.327624,16.188581 2.16205,4.292689 3.07053,8.217884 3.06187,13.229167 -0.009,5.26527 -0.93675,9.06802 -3.35624,13.75833 -4.02269,7.79823 -11.76732,13.5456 -20.47988,15.19835 -2.67631,0.50769 -8.655836,0.50819 -11.208719,0.001 z m 10.202449,-8.17506 c 3.7903,-0.80331 6.97673,-2.50075 9.95746,-5.30444 4.54128,-4.27154 6.6621,-9.19887 6.6621,-15.47812 0,-5.954266 -1.83703,-10.536191 -5.92338,-14.774096 -4.15776,-4.311959 -9.11904,-6.392571 -15.243284,-6.392571 -6.124244,0 -11.085526,2.080612 -15.243281,6.392571 -4.04764,4.19776 -5.927835,8.841385 -5.918792,14.617976 0.0094,6.03579 1.711423,10.42811 5.683948,14.66872 2.948538,3.14752 6.814579,5.37993 10.847916,6.26402 2.126568,0.46614 6.991083,0.46929 9.177313,0.006 z"
         id="path23" />
    </g>
  </g>
</svg>
