<?xml version="1.0" encoding="UTF-8" ?>
<svg xmlns="http://www.w3.org/2000/svg" width="512" height="512" id="telefon" version="1.1" viewBox="0 0 135.49791 135.49791">
    <g transform="translate(-1.1027181,3.308168)">
      <path
         style="fill:#fefefe;stroke-width:0.282222"
         d="m 88.068385,67.324687 c 0,-1.687101 -0.762578,-4.185925 -2.007968,-6.579722 -1.486964,-2.85813 -4.553199,-5.854737 -7.210925,-7.047179 -2.140898,-0.960555 -4.721061,-1.672393 -6.061842,-1.672393 h -0.947042 v -2.539999 -2.54 l 1.128889,0.0049 c 4.424956,0.01922 10.169685,2.66507 13.85562,6.381513 3.441779,3.470263 5.786289,8.412686 6.223818,13.120318 l 0.180504,1.942146 h -2.580527 -2.580527 z m 13.717275,-0.12985 c -0.0804,-0.659694 -0.21762,-1.85157 -0.30492,-2.64861 -0.42655,-3.8943 -2.482498,-9.303856 -4.873016,-12.821725 -2.836712,-4.174481 -7.843147,-8.540667 -11.84056,-10.32633 -3.870014,-1.728752 -6.820159,-2.50508 -11.656556,-3.067425 l -1.27,-0.147667 v -2.392175 -2.392177 h 1.573045 c 4.003505,0 9.425736,1.475407 14.231399,3.872413 10.502335,5.238436 18.245408,16.822588 18.964038,28.371474 l 0.17123,2.751666 h -2.42423 -2.42423 z"
         id="path5813" />
      <path
         style="fill:#fcfcfc;stroke-width:0.282222"
         d="m 71.798108,49.485394 c 0,-1.319389 0.04862,-1.859139 0.108035,-1.199445 0.05942,0.659695 0.05942,1.739195 0,2.398889 -0.05942,0.659694 -0.108035,0.119944 -0.108035,-1.199444 z m -0.002,-13.687777 c 0.0011,-1.241778 0.05064,-1.714673 0.110261,-1.050875 0.05962,0.663798 0.05878,1.679798 -0.002,2.257778 -0.06064,0.57798 -0.109421,0.03487 -0.108396,-1.206903 z"
         id="path5811" />
      <path
         style="fill:#ee8253;stroke-width:0.282222"
         d="M 85.246163,108.57939 C 74.509778,106.24879 61.004551,97.776379 50.491018,86.775984 40.732364,76.565424 34.087684,65.413332 31.635489,55.129838 c -1.019547,-4.275576 -0.869701,-4.821897 2.601711,-9.48548 3.147252,-4.228095 7.462407,-9.040241 9.940459,-11.085333 1.507064,-1.243753 2.44123,-1.441647 3.454634,-0.73183 2.236902,1.566784 11.367205,17.104726 11.367205,19.344692 0,0.766648 -0.317963,1.202704 -2.023008,2.774341 -1.112653,1.025595 -2.781283,2.574281 -3.708067,3.441522 l -1.685059,1.576803 0.364039,1.517481 c 0.499482,2.082083 3.798073,8.462853 5.714762,11.054604 2.086943,2.821965 5.741447,6.499318 8.533999,8.587356 3.603707,2.694547 9.745819,5.798608 12.256301,6.194004 0.995079,0.156724 1.046212,0.114421 3.945853,-3.264365 3.154324,-3.675547 3.496313,-3.959352 4.771093,-3.959352 1.040015,0 7.16383,3.121346 10.857058,5.533909 1.518781,0.992127 2.838051,1.803868 2.931701,1.803868 0.40542,0 4.71116,3.303301 5.19929,3.988819 0.89398,1.255488 0.68461,1.947714 -1.27494,4.215056 -2.78603,3.223641 -11.840917,10.722427 -14.457898,11.973277 -1.073839,0.51327 -2.720301,0.50379 -5.178459,-0.0298 z"
         id="path5809" />
      <path
         style="fill:#ec8152;stroke-width:0.282222"
         d="m 79.74283,87.867614 c 0.280949,-0.310445 0.574317,-0.564445 0.651928,-0.564445 0.07761,0 -0.08876,0.254 -0.369706,0.564445 -0.280949,0.310444 -0.574316,0.564444 -0.651927,0.564444 -0.07761,0 0.08876,-0.254 0.369705,-0.564444 z"
         id="path5807" />
      <path
         style="fill:#6a6a6a;stroke-width:0.282222"
         d="m 89.408941,68.469858 c 0.659694,-0.05942 1.739194,-0.05942 2.398888,0 0.659695,0.05942 0.119945,0.108034 -1.199444,0.108034 -1.319389,0 -1.859139,-0.04862 -1.199444,-0.108034 z m 13.836349,-2.83e-4 c 0.6638,-0.05962 1.6798,-0.05878 2.25778,0.002 0.57798,0.06064 0.0349,0.10942 -1.20691,0.108396 -1.24178,-0.0011 -1.71467,-0.05064 -1.05087,-0.110261 z"
         id="path5805" />
      <path
         style="fill:#666666;stroke-width:0.282222"
         d="m 71.515886,49.485394 c 0,-1.319389 0.04862,-1.859139 0.108035,-1.199445 0.05942,0.659695 0.05942,1.739195 0,2.398889 -0.05942,0.659694 -0.108035,0.119944 -0.108035,-1.199444 z m 0,-13.828889 c 0,-1.319388 0.04862,-1.859138 0.108035,-1.199444 0.05942,0.659694 0.05942,1.739194 0,2.398889 -0.05942,0.659694 -0.108035,0.119944 -0.108035,-1.199445 z"
         id="path5803" />
      <path
         style="fill:#1c1c1c;stroke-width:0.282222"
         d="m 68.953201,134.52092 c 0.274594,-0.0716 0.655594,-0.0668 0.846667,0.0105 0.191073,0.0773 -0.03359,0.13586 -0.49926,0.1301 -0.465666,-0.006 -0.622,-0.069 -0.347407,-0.14055 z"
         id="path5801" />
      <path
         style="fill:#141414;stroke-width:0.282222"
         d="m 5.3995591,70.205208 c 0.013541,-0.328775 0.080417,-0.395647 0.1705094,-0.17051 0.081526,0.203728 0.071499,0.447144 -0.022282,0.540927 -0.09378,0.09378 -0.1604831,-0.07291 -0.1482287,-0.370417 z"
         id="path5799" />
      <path
         style="fill:#101010;stroke-width:0.282222"
         d="m 5.3995591,71.616319 c 0.013541,-0.328775 0.080417,-0.395647 0.1705094,-0.17051 0.081526,0.203728 0.071499,0.447147 -0.022282,0.540927 -0.09378,0.09378 -0.1604831,-0.07291 -0.1482287,-0.370417 z"
         id="path5797" />
      <path
         style="fill:#0d0d0d;stroke-width:0.282222"
         d="m 68.824358,7.8059392 c 0.203728,-0.081526 0.447148,-0.071499 0.540927,0.022281 0.09378,0.09378 -0.07291,0.1604831 -0.370416,0.1482288 C 68.666094,7.962908 68.599221,7.896033 68.824358,7.8059392 Z"
         id="path5795" />
      <path
         style="fill:#0a0a0a;stroke-width:0.282222"
         d="m 72.493247,32.923717 c 0.203728,-0.08153 0.447147,-0.0715 0.540927,0.02227 0.09378,0.09378 -0.07291,0.160483 -0.370417,0.148229 -0.328774,-0.01355 -0.395647,-0.08042 -0.17051,-0.170508 z"
         id="path5793" />
      <path
         style="fill:#080808;stroke-width:0.282222"
         d="m 106.99955,66.818542 c 0.0135,-0.328775 0.0804,-0.395648 0.17051,-0.17051 0.0815,0.203727 0.0715,0.447144 -0.0223,0.540926 -0.0938,0.09378 -0.16048,-0.07291 -0.14822,-0.370416 z"
         id="path5791" />
      <path
         style="fill:#000000;stroke-width:0.282222"
         d="M 60.425242,133.97608 C 46.732171,132.11793 33.631134,125.53642 23.778046,115.5658 14.065157,105.73705 7.6480412,92.316796 5.9489656,78.279461 5.5763143,75.200713 5.5763143,67.232294 5.9489656,64.153546 7.825235,48.652282 15.399994,34.045446 26.778843,23.98612 33.445846,18.092241 40.362825,14.11346 48.889979,11.267367 56.269049,8.8044687 61.259305,7.9987291 69.13392,7.9987291 c 7.433707,0 12.875688,0.9147703 20.183473,3.3927429 5.543725,1.879803 10.777977,4.434663 14.647187,7.149354 0.91727,0.643568 2.25612,1.583009 2.97523,2.087645 2.23641,1.569415 6.70534,5.700858 9.09086,8.404347 8.43101,9.554763 14.00885,21.73437 15.63514,34.140423 0.49254,3.757261 0.56504,11.592816 0.13978,15.10622 -1.14617,9.469332 -5.01454,20.168254 -9.94643,27.509259 -6.07152,9.03733 -13.5015,15.96537 -22.219664,20.71861 -4.130345,2.25191 -5.979338,3.04783 -10.865555,4.67724 -4.590542,1.53081 -8.528484,2.43914 -12.833708,2.96024 -3.337642,0.40399 -11.987766,0.30992 -15.514991,-0.16873 z M 91.04702,108.71412 c 4.810255,-3.04852 13.1318,-10.255596 15.40214,-13.339407 1.12472,-1.527708 1.04518,-2.220736 -0.41742,-3.637071 -2.7158,-2.629885 -14.600017,-9.812533 -18.082602,-10.928866 -1.539387,-0.493445 -2.350745,0.0017 -4.966818,3.031448 -1.16083,1.344365 -2.446914,2.829427 -2.857965,3.300134 l -0.747361,0.855836 -1.651528,-0.345403 C 75.690193,87.225129 71.240739,85.043044 67.840777,82.803176 64.966415,80.909569 60.31559,76.50031 58.330101,73.786489 56.266469,70.965859 53.975626,66.717882 52.909414,63.734753 l -0.974271,-2.725894 0.93371,-0.8934 c 0.513542,-0.491368 2.096293,-1.898599 3.517222,-3.127177 2.963308,-2.562163 3.395133,-3.290668 2.890108,-4.875736 -0.981484,-3.08048 -8.524087,-15.615885 -10.86814,-18.062274 -1.396501,-1.457469 -2.145358,-1.540578 -3.688978,-0.409409 -2.847941,2.086983 -9.852625,10.086571 -12.885464,14.715642 l -1.386783,2.116666 0.194789,1.830158 c 0.706956,6.642246 5.3945,16.873196 11.58943,25.294876 11.57807,15.739773 28.885982,28.307555 43.297348,31.439465 3.350111,0.72806 3.911213,0.69516 5.518635,-0.32355 z m 2.665809,-40.440528 c 0,-1.342229 -0.692618,-4.955071 -1.282327,-6.688887 -2.237689,-6.579085 -7.151226,-11.506332 -13.846725,-13.885366 -1.700995,-0.604396 -5.363918,-1.31839 -6.76359,-1.31839 -0.323486,0 -0.402912,0.584161 -0.402912,2.963333 0,2.883487 0.0171,2.963466 0.635,2.968233 1.568297,0.01211 4.777466,0.925909 6.865267,1.954874 2.499069,1.231657 4.644954,3.132111 6.193897,5.485477 1.111741,1.689108 2.263286,4.995234 2.542935,7.30086 l 0.196827,1.622778 h 2.930813 c 2.351001,0 2.930815,-0.07971 2.930815,-0.402912 z m 13.545001,-0.937644 c -0.003,-2.304556 -0.8003,-6.768312 -1.67619,-9.382689 C 101.74672,46.50682 93.425011,38.219783 82.014919,34.48475 79.330549,33.606034 75.022723,32.838759 72.75783,32.835948 l -1.340555,-0.0017 v 2.921074 2.92107 l 2.469444,0.176059 C 88.326935,39.881984 100.0835,51.702653 101.23331,66.34817 l 0.18279,2.328334 h 2.9217 2.9217 l -0.002,-1.340556 z"
         id="path5789" />
    </g>
  </g>
</svg>
