<?xml version="1.0" encoding="UTF-8" ?>
<svg xmlns="http://www.w3.org/2000/svg" width="512" height="512" id="fe_twitter" version="1.1" viewBox="0 0 135.49791 135.49791">
    <g transform="translate(-1.1027181,3.308168)">
      <path
         style="fill:#EF8354;stroke-width:0.264583"
         d="m 64.45521,106.77992 c 0.257432,-0.0671 0.61462,-0.0627 0.79375,0.01 0.179131,0.0725 -0.03149,0.12737 -0.468055,0.12197 -0.436563,-0.005 -0.583126,-0.0647 -0.325695,-0.13177 z m 3.968751,0 c 0.257431,-0.0671 0.614619,-0.0627 0.79375,0.01 0.17913,0.0725 -0.03149,0.12737 -0.468056,0.12197 -0.436563,-0.005 -0.583126,-0.0647 -0.325694,-0.13177 z M 44.771113,98.827334 c -0.329107,-0.419645 -0.319749,-0.429003 0.0999,-0.0999 0.254662,0.199721 0.463021,0.40808 0.463021,0.463021 0,0.217762 -0.217272,0.0776 -0.562916,-0.363125 z m 43.425417,0.363125 c 0,-0.05494 0.20836,-0.2633 0.463021,-0.463021 0.419645,-0.329107 0.429004,-0.319749 0.0999,0.0999 -0.345644,0.44073 -0.562917,0.580887 -0.562917,0.363125 z M 40.802363,94.858584 c -0.329107,-0.419645 -0.319749,-0.429003 0.0999,-0.0999 0.254661,0.199721 0.463021,0.40808 0.463021,0.463021 0,0.217762 -0.217272,0.0776 -0.562916,-0.363125 z m 51.362917,0.363125 c 0,-0.05494 0.20836,-0.2633 0.463021,-0.463021 0.419645,-0.329107 0.429004,-0.319749 0.0999,0.0999 -0.345643,0.44073 -0.562917,0.580887 -0.562917,0.363125 z M 32.950192,75.080979 c 0.0054,-0.436562 0.06469,-0.583126 0.131774,-0.325694 0.06708,0.257432 0.06267,0.614619 -0.0098,0.79375 -0.07248,0.179131 -0.127363,-0.03149 -0.121971,-0.468056 z m 67.478558,-0.132292 c 0,-0.509323 0.0545,-0.717682 0.121,-0.46302 0.0665,0.254661 0.0665,0.67138 0,0.926041 -0.0666,0.254662 -0.121,0.0463 -0.121,-0.463021 z M 32.950192,71.112229 c 0.0054,-0.436563 0.06469,-0.583126 0.131774,-0.325694 0.06708,0.257431 0.06267,0.614619 -0.0098,0.79375 -0.07248,0.179131 -0.127363,-0.03149 -0.121971,-0.468056 z m 67.468748,0 c 0.005,-0.436563 0.0647,-0.583126 0.13178,-0.325694 0.0671,0.257431 0.0627,0.614619 -0.01,0.79375 -0.0725,0.179131 -0.12736,-0.03149 -0.12197,-0.468056 z M 40.571529,51.565458 c 0,-0.05494 0.208359,-0.263301 0.463021,-0.46302 0.419644,-0.329108 0.429002,-0.31975 0.09989,0.09989 -0.345643,0.44073 -0.562915,0.580888 -0.562915,0.363126 z m 51.824585,-0.363126 c -0.329108,-0.419644 -0.319749,-0.429002 0.0999,-0.09989 0.254661,0.199719 0.46302,0.408078 0.46302,0.46302 0,0.217762 -0.217273,0.0776 -0.562916,-0.363126 z M 44.540279,47.596708 c 0,-0.05494 0.208359,-0.263301 0.463021,-0.463021 0.419644,-0.329107 0.429002,-0.319749 0.09989,0.09989 -0.345643,0.440729 -0.562915,0.580887 -0.562915,0.363126 z m 43.887084,-0.363126 c -0.329107,-0.419644 -0.319749,-0.429002 0.0999,-0.09989 0.254662,0.19972 0.463021,0.408079 0.463021,0.463021 0,0.217761 -0.217273,0.0776 -0.562917,-0.363126 z M 64.45521,39.311166 c 0.257432,-0.06708 0.61462,-0.06267 0.79375,0.0098 0.179131,0.07248 -0.03149,0.127362 -0.468055,0.12197 -0.436563,-0.0054 -0.583126,-0.06469 -0.325695,-0.131774 z m 3.968751,0 c 0.257431,-0.06708 0.614619,-0.06267 0.79375,0.0098 0.17913,0.07248 -0.03149,0.127362 -0.468056,0.12197 -0.436563,-0.0054 -0.583126,-0.06469 -0.325694,-0.131774 z"
         id="path1139" />
      <path
         style="fill:#EF8354;stroke-width:0.264583"
         d="m 55.652779,88.345315 c -2.235822,-0.521454 -3.408567,-0.950521 -5.423958,-1.984444 l -1.852084,-0.950143 2.38125,-0.165851 c 1.309688,-0.09122 2.914028,-0.313849 3.5652,-0.494734 1.223338,-0.33982 3.724273,-1.533216 4.615331,-2.202344 0.472657,-0.354933 0.414031,-0.403638 -0.851241,-0.707171 -2.365576,-0.567494 -4.819567,-2.665066 -5.439984,-4.64988 -0.152223,-0.486987 -0.07066,-0.526825 0.890873,-0.435128 1.856705,0.177064 2.118331,-0.167707 0.646001,-0.851308 -2.296946,-1.066469 -4.333718,-3.895524 -4.34641,-6.037117 l -0.0058,-0.980451 1.091598,0.385138 c 0.600379,0.211826 1.323889,0.385138 1.607801,0.385138 0.437736,0 0.394795,-0.102155 -0.282496,-0.67206 -0.439283,-0.369631 -1.162793,-1.40068 -1.6078,-2.291217 -0.646271,-1.293302 -0.809103,-1.955684 -0.809103,-3.291338 0,-1.473586 0.606157,-3.799552 0.99018,-3.799552 0.07644,0 1.002023,0.819812 2.05686,1.821805 3.242011,3.079591 6.957904,4.941538 11.41196,5.71826 1.253485,0.218591 2.323,0.397436 2.3767,0.397436 0.0537,0 0.09763,-0.752698 0.09763,-1.672659 0,-3.288075 1.40903,-5.605502 4.280733,-7.04051 2.700878,-1.349642 5.93683,-1.033129 8.228574,0.804855 l 0.999932,0.801946 1.381318,-0.451836 c 0.759725,-0.24851 1.827803,-0.676061 2.373506,-0.950111 0.545703,-0.27405 0.992187,-0.430411 0.992187,-0.347464 0,0.467458 -0.995587,1.994786 -1.947,2.986886 l -1.095708,1.142564 0.79375,-0.189381 c 0.436562,-0.104161 1.323975,-0.346059 1.972029,-0.537551 0.648052,-0.191493 1.22382,-0.302626 1.27948,-0.246965 0.05566,0.05566 -0.722201,0.939435 -1.728583,1.963944 l -1.829787,1.862746 -0.297522,2.722705 c -1.043527,9.549671 -7.044222,17.027889 -15.674734,19.534252 -2.464002,0.715566 -8.563113,0.95273 -10.840676,0.42154 z"
         id="path1137" />
      <path
         style="fill:#EF8354;stroke-width:0.264583"
         d="m 59.819967,88.796376 c 0.181901,-0.0734 0.479557,-0.0734 0.661458,0 0.181901,0.0734 0.03307,0.133453 -0.330729,0.133453 -0.363802,0 -0.51263,-0.06005 -0.330729,-0.133453 z M 52.957336,76.620031 c 0.190997,-0.07643 0.4192,-0.06703 0.507119,0.02088 0.08792,0.08792 -0.06835,0.150453 -0.347266,0.138964 -0.308225,-0.0127 -0.370919,-0.07539 -0.159853,-0.15985 z m 1.63711,0.07676 c 0,-0.05719 0.184777,-0.17489 0.410617,-0.261554 0.235458,-0.09035 0.341662,-0.046 0.248968,0.103984 -0.155379,0.25141 -0.659585,0.371859 -0.659585,0.15757 z M 49.58825,69.238098 c 0.0127,-0.308227 0.07539,-0.37092 0.159853,-0.159854 0.07643,0.190995 0.06703,0.419198 -0.02089,0.507119 -0.08792,0.08792 -0.150453,-0.06835 -0.138964,-0.347265 z m 32.543752,-1.058334 c 0.0127,-0.308226 0.07539,-0.370919 0.159851,-0.159853 0.07643,0.190995 0.06703,0.419198 -0.02088,0.507119 -0.08792,0.08792 -0.150452,-0.06835 -0.138964,-0.347266 z m -15.945498,-0.82015 c 0.190994,-0.07643 0.419197,-0.06703 0.507118,0.02088 0.08792,0.08792 -0.06835,0.150453 -0.347265,0.138964 -0.308227,-0.0127 -0.37092,-0.07539 -0.159853,-0.15985 z m 0.380915,-1.539052 c 0.0029,-0.582083 0.05712,-0.789054 0.120406,-0.459936 0.06329,0.329118 0.06088,0.805368 -0.0053,1.058334 -0.06622,0.252965 -0.118004,-0.01632 -0.115067,-0.598398 z M 83.037155,61.71952 c 0.26339,-0.291041 0.538422,-0.529166 0.611182,-0.529166 0.07276,0 -0.08321,0.238125 -0.346599,0.529166 -0.26339,0.291042 -0.538421,0.529167 -0.611182,0.529167 -0.07276,0 0.08321,-0.238125 0.346599,-0.529167 z m -8.929688,-3.879395 c 0.181901,-0.0734 0.479558,-0.0734 0.661459,0 0.181901,0.0734 0.03307,0.133453 -0.330729,0.133453 -0.363803,0 -0.512631,-0.06006 -0.33073,-0.133453 z"
         id="path1135" />
      <path
         style="fill:#EF8354;stroke-width:0.264583"
         d="m 66.037675,106.77376 c 0.400183,-0.0606 1.055026,-0.0606 1.455209,0 0.400182,0.0606 0.07276,0.11023 -0.727604,0.11023 -0.800365,0 -1.127787,-0.0496 -0.727605,-0.11023 z m -3.434548,-0.25843 c 0.257432,-0.0671 0.614619,-0.0627 0.79375,0.01 0.179131,0.0725 -0.03149,0.12736 -0.468056,0.12197 -0.436562,-0.005 -0.583126,-0.0647 -0.325694,-0.13177 z m 7.672917,0 c 0.257432,-0.0671 0.614619,-0.0627 0.79375,0.01 0.179131,0.0725 -0.03149,0.12736 -0.468056,0.12197 -0.436562,-0.005 -0.583126,-0.0647 -0.325694,-0.13177 z M 60.8783,106.25888 c 0.181901,-0.0734 0.479558,-0.0734 0.661459,0 0.181901,0.0734 0.03307,0.13345 -0.33073,0.13345 -0.363802,0 -0.51263,-0.0601 -0.330729,-0.13345 z m 11.39362,-0.006 c 0.190995,-0.0764 0.419198,-0.067 0.507119,0.0209 0.08792,0.0879 -0.06835,0.15045 -0.347265,0.13896 -0.308227,-0.0127 -0.37092,-0.0754 -0.159854,-0.15985 z m -12.7,-0.26458 c 0.190995,-0.0764 0.419198,-0.067 0.507119,0.0209 0.08792,0.0879 -0.06835,0.15045 -0.347266,0.13896 -0.308226,-0.0127 -0.370919,-0.0754 -0.159853,-0.15985 z m 14.022917,0 c 0.190995,-0.0764 0.419198,-0.067 0.507119,0.0209 0.08792,0.0879 -0.06835,0.15045 -0.347266,0.13896 -0.308226,-0.0127 -0.370919,-0.0754 -0.159853,-0.15985 z m -15.08125,-0.26458 c 0.190994,-0.0764 0.419198,-0.067 0.507119,0.0209 0.08792,0.0879 -0.06835,0.15046 -0.347266,0.13897 -0.308226,-0.0127 -0.370919,-0.0754 -0.159853,-0.15985 z m 16.139583,0 c 0.190995,-0.0764 0.419198,-0.067 0.507119,0.0209 0.08792,0.0879 -0.06835,0.15046 -0.347265,0.13897 -0.308227,-0.0127 -0.37092,-0.0754 -0.159854,-0.15985 z m -17.197917,-0.26459 c 0.190995,-0.0764 0.419198,-0.067 0.507119,0.0209 0.08792,0.0879 -0.06835,0.15045 -0.347265,0.13896 -0.308227,-0.0127 -0.37092,-0.0754 -0.159854,-0.15985 z m 18.256251,0 c 0.190995,-0.0764 0.419198,-0.067 0.507119,0.0209 0.08792,0.0879 -0.06835,0.15045 -0.347266,0.13896 -0.308226,-0.0127 -0.370919,-0.0754 -0.159853,-0.15985 z m -21.117058,-0.8776 c -0.218281,-0.14106 -0.277813,-0.25648 -0.132292,-0.25648 0.145521,0 0.443177,0.11542 0.661459,0.25648 0.218281,0.14107 0.277812,0.25648 0.132291,0.25648 -0.145521,0 -0.443177,-0.11541 -0.661458,-0.25648 z m 23.812501,0 c 0.218281,-0.14106 0.515937,-0.25648 0.661458,-0.25648 0.145521,0 0.08599,0.11542 -0.132292,0.25648 -0.218281,0.14107 -0.515937,0.25648 -0.661458,0.25648 -0.145521,0 -0.08599,-0.11541 0.132292,-0.25648 z m -25.400001,-0.66146 c -0.363802,-0.20796 -0.542396,-0.37812 -0.396875,-0.37812 0.145521,0 0.562239,0.17016 0.926042,0.37812 0.363802,0.20797 0.542395,0.37813 0.396875,0.37813 -0.145521,0 -0.56224,-0.17016 -0.926042,-0.37813 z m 26.987501,0 c 0.363802,-0.20796 0.780521,-0.37812 0.926041,-0.37812 0.145521,0 -0.03307,0.17016 -0.396875,0.37812 -0.363802,0.20797 -0.78052,0.37813 -0.926041,0.37813 -0.145521,0 0.03307,-0.17016 0.396875,-0.37813 z M 50.55955,102.71192 c -0.545703,-0.28808 -0.992188,-0.5829 -0.992188,-0.65514 0,-0.0722 0.47625,0.11162 1.058334,0.40858 0.582083,0.29695 1.058333,0.59703 1.058333,0.66683 0,0.17308 -0.0019,0.17239 -1.124479,-0.42027 z m 31.28698,0.42381 c 0,-0.0728 0.571288,-0.42179 1.269529,-0.77561 3.391951,-1.71883 7.857049,-5.687997 10.65461,-9.471214 1.877833,-2.539439 2.107713,-2.796627 1.412322,-1.58007 -1.629479,2.850708 -5.50971,6.898593 -8.970836,9.358444 -1.810933,1.28705 -4.365625,2.73154 -4.365625,2.46845 z m -34.685069,-2.5721 c -3.688607,-2.583452 -8.067548,-7.493418 -9.925373,-11.129005 -0.353223,-0.691224 -0.582692,-1.25677 -0.509932,-1.25677 0.07276,0 0.421785,0.571288 0.775611,1.269529 1.718831,3.39195 5.687995,7.857048 9.47121,10.654606 2.426238,1.79413 2.476118,1.8342 2.283102,1.8342 -0.07419,0 -1.01677,-0.61766 -2.094618,-1.37256 z m 48.97257,-11.327442 c 0.296957,-0.582083 0.599453,-1.058333 0.672213,-1.058333 0.07276,0 -0.110672,0.47625 -0.40763,1.058333 -0.296958,0.582083 -0.599453,1.058333 -0.672214,1.058333 -0.07276,0 0.110673,-0.47625 0.407631,-1.058333 z M 35.852008,86.711314 c -0.443307,-0.97295 -0.358732,-1.180515 0.120611,-0.296005 0.223844,0.413046 0.35748,0.800502 0.29697,0.861012 -0.06051,0.06051 -0.248422,-0.193741 -0.417581,-0.565007 z m 61.359107,0.540499 c 0,-0.145521 0.170156,-0.56224 0.378124,-0.926042 0.207968,-0.363802 0.378124,-0.542396 0.378124,-0.396875 0,0.145521 -0.170156,0.56224 -0.378124,0.926042 -0.207968,0.363802 -0.378124,0.542396 -0.378124,0.396875 z M 35.180257,85.124917 c -0.255318,-0.665345 -0.179999,-0.837022 0.131903,-0.300656 0.154435,0.265575 0.225054,0.538601 0.156932,0.606724 -0.06812,0.06812 -0.198098,-0.06961 -0.288835,-0.306068 z m 62.813961,0.274812 c 0,-0.14552 0.115414,-0.443177 0.256479,-0.661458 0.141066,-0.218281 0.256479,-0.277812 0.256479,-0.132292 0,0.145521 -0.115413,0.443177 -0.256479,0.661459 -0.141065,0.218281 -0.256479,0.277812 -0.256479,0.132291 z M 34.242417,82.202682 c 0.01269,-0.308227 0.07539,-0.37092 0.159852,-0.159854 0.07643,0.190995 0.06703,0.419198 -0.02089,0.507119 -0.08792,0.08792 -0.150453,-0.06835 -0.138964,-0.347265 z m 64.822919,0 c 0.0127,-0.308227 0.07539,-0.37092 0.159851,-0.159854 0.07643,0.190995 0.06703,0.419198 -0.02088,0.507119 -0.08792,0.08792 -0.150452,-0.06835 -0.138964,-0.347265 z M 33.977833,81.144348 c 0.0127,-0.308226 0.07539,-0.370919 0.159853,-0.159853 0.07643,0.190995 0.06703,0.419198 -0.02089,0.507119 -0.08792,0.08792 -0.150453,-0.06835 -0.138965,-0.347266 z m 65.352087,0 c 0.0127,-0.308226 0.07539,-0.370919 0.15985,-0.159853 0.07643,0.190995 0.06703,0.419198 -0.02087,0.507119 -0.08792,0.08792 -0.150453,-0.06835 -0.138965,-0.347266 z M 33.71325,80.086015 c 0.0127,-0.308227 0.07539,-0.37092 0.159852,-0.159854 0.07643,0.190995 0.06703,0.419198 -0.02089,0.507119 -0.08792,0.08792 -0.150453,-0.06835 -0.138965,-0.347265 z m 65.881253,0 c 0.0127,-0.308227 0.07539,-0.37092 0.159851,-0.159854 0.07643,0.190995 0.06703,0.419198 -0.02088,0.507119 -0.08792,0.08792 -0.150453,-0.06835 -0.138965,-0.347265 z M 33.448667,78.763098 c 0.01269,-0.308226 0.07539,-0.370919 0.159852,-0.159853 0.07643,0.190995 0.06703,0.419198 -0.02089,0.507119 -0.08792,0.08792 -0.150453,-0.06835 -0.138964,-0.347266 z m 66.431305,-0.110244 c 0,-0.363802 0.06006,-0.51263 0.133458,-0.330729 0.0734,0.181901 0.0734,0.479557 0,0.661458 -0.0734,0.181901 -0.133458,0.03307 -0.133458,-0.330729 z M 33.214775,76.933062 c 0.0054,-0.436562 0.06469,-0.583125 0.131774,-0.325694 0.06708,0.257432 0.06267,0.614619 -0.0098,0.79375 -0.07248,0.179131 -0.127363,-0.03149 -0.121971,-0.468056 z m 66.939585,0 c 0.005,-0.436562 0.0647,-0.583125 0.13177,-0.325694 0.0671,0.257432 0.0627,0.614619 -0.01,0.79375 -0.0725,0.179131 -0.12736,-0.03149 -0.12197,-0.468056 z M 32.977898,73.096604 c 0,-0.800365 0.0496,-1.127787 0.110223,-0.727604 0.06062,0.400182 0.06062,1.055026 0,1.455208 -0.06062,0.400182 -0.110223,0.07276 -0.110223,-0.727604 z m 67.465142,-0.132292 c 0.002,-0.727604 0.0534,-0.993857 0.11418,-0.591674 0.0608,0.402182 0.0592,0.997495 -0.004,1.322917 -0.0628,0.325421 -0.11256,-0.0036 -0.11058,-0.731243 z M 33.214775,69.260145 c 0.0054,-0.436562 0.06469,-0.583125 0.131774,-0.325694 0.06708,0.257432 0.06267,0.614619 -0.0098,0.79375 -0.07248,0.179131 -0.127363,-0.03149 -0.121971,-0.468056 z m 66.939585,0 c 0.005,-0.436562 0.0647,-0.583125 0.13177,-0.325694 0.0671,0.257432 0.0627,0.614619 -0.01,0.79375 -0.0725,0.179131 -0.12736,-0.03149 -0.12197,-0.468056 z m -0.274388,-1.719791 c 0,-0.363802 0.06006,-0.51263 0.133458,-0.330729 0.0734,0.181901 0.0734,0.479557 0,0.661458 -0.0734,0.181901 -0.133458,0.03307 -0.133458,-0.330729 z m -66.431305,-0.15434 c 0.01269,-0.308226 0.07539,-0.370919 0.159852,-0.159853 0.07643,0.190995 0.06703,0.419198 -0.02089,0.507119 -0.08792,0.08792 -0.150453,-0.06835 -0.138964,-0.347266 z m 0.264583,-1.322916 c 0.0127,-0.308227 0.07539,-0.37092 0.159852,-0.159854 0.07643,0.190995 0.06703,0.419198 -0.02089,0.507119 -0.08792,0.08792 -0.150453,-0.06835 -0.138965,-0.347265 z m 65.881253,0 c 0.0127,-0.308227 0.07539,-0.37092 0.159851,-0.159854 0.07643,0.190995 0.06703,0.419198 -0.02088,0.507119 -0.08792,0.08792 -0.150453,-0.06835 -0.138965,-0.347265 z m -65.61667,-1.058334 c 0.0127,-0.308226 0.07539,-0.370919 0.159853,-0.159853 0.07643,0.190995 0.06703,0.419198 -0.02089,0.507119 -0.08792,0.08792 -0.150453,-0.06835 -0.138965,-0.347266 z m 65.352087,0 c 0.0127,-0.308226 0.07539,-0.370919 0.15985,-0.159853 0.07643,0.190995 0.06703,0.419198 -0.02087,0.507119 -0.08792,0.08792 -0.150453,-0.06835 -0.138965,-0.347266 z M 34.242417,63.946431 c 0.01269,-0.308226 0.07539,-0.370919 0.159852,-0.159853 0.07643,0.190994 0.06703,0.419197 -0.02089,0.507119 -0.08792,0.08792 -0.150453,-0.06835 -0.138964,-0.347266 z m 64.822919,0 c 0.0127,-0.308226 0.07539,-0.370919 0.159851,-0.159853 0.07643,0.190994 0.06703,0.419197 -0.02088,0.507119 -0.08792,0.08792 -0.150452,-0.06835 -0.138964,-0.347266 z M 35.023382,61.587229 c 0,-0.145521 0.115416,-0.443178 0.25648,-0.661459 0.141064,-0.218281 0.25648,-0.277812 0.25648,-0.132291 0,0.14552 -0.115416,0.443177 -0.25648,0.661458 -0.141064,0.218281 -0.25648,0.277812 -0.25648,0.132292 z m 63.12771,-0.274813 c -0.255317,-0.665345 -0.179998,-0.837022 0.131903,-0.300656 0.154435,0.265575 0.225055,0.538601 0.156932,0.606724 -0.06812,0.06812 -0.198099,-0.06961 -0.288835,-0.306068 z M 35.563197,60.264312 c 0,-0.145521 0.170155,-0.56224 0.378123,-0.926042 0.207968,-0.363802 0.378124,-0.542396 0.378124,-0.396875 0,0.145521 -0.170156,0.56224 -0.378124,0.926042 -0.207968,0.363802 -0.378123,0.542396 -0.378123,0.396875 z m 61.936729,-0.540499 c -0.443307,-0.97295 -0.35873,-1.180515 0.120613,-0.296005 0.223843,0.413046 0.357479,0.800502 0.296968,0.861012 -0.06051,0.06051 -0.248422,-0.193741 -0.417581,-0.565007 z m -60.263838,-2.96523 c 0.892584,-1.746703 2.992254,-4.651044 4.779694,-6.611448 1.561335,-1.712421 5.002884,-4.591182 6.537265,-5.468244 1.216557,-0.695391 0.95937,-0.465508 -1.58007,1.412323 -3.783215,2.797561 -7.752379,7.26266 -9.47121,10.65461 -0.353826,0.698241 -0.702851,1.269529 -0.775611,1.269529 -0.07276,0 0.156709,-0.565546 0.509932,-1.25677 z m 58.792705,-0.01275 c -0.934308,-1.843773 -3.623446,-5.379377 -5.578404,-7.334335 -1.835555,-1.835553 -5.448218,-4.619053 -7.066556,-5.444668 -0.554476,-0.282872 -1.008136,-0.573843 -1.008136,-0.646604 0,-0.251786 1.992677,0.896022 3.96875,2.286052 3.725355,2.620528 8.090175,7.51276 9.950024,11.152308 0.353224,0.691224 0.582692,1.25677 0.509932,1.25677 -0.07276,0 -0.421786,-0.571288 -0.77561,-1.269529 z M 49.567362,44.135483 c 0,-0.07276 0.47625,-0.375257 1.058334,-0.672213 0.582083,-0.296957 1.058333,-0.480391 1.058333,-0.40763 0,0.07276 -0.47625,0.375256 -1.058333,0.672213 -0.582084,0.296957 -1.058334,0.48039 -1.058334,0.40763 z m 3.439584,-1.862838 c 0.363802,-0.207969 0.780521,-0.378124 0.926042,-0.378124 0.14552,0 -0.03307,0.170155 -0.396875,0.378124 -0.363803,0.207968 -0.780521,0.378123 -0.926042,0.378123 -0.145521,0 0.03307,-0.170155 0.396875,-0.378123 z m 26.987501,0 c -0.363802,-0.207969 -0.542396,-0.378124 -0.396875,-0.378124 0.145521,0 0.562239,0.170155 0.926041,0.378124 0.363802,0.207968 0.542396,0.378123 0.396875,0.378123 -0.14552,0 -0.562239,-0.170155 -0.926041,-0.378123 z M 54.594446,41.611186 c 0.218281,-0.141064 0.515937,-0.25648 0.661458,-0.25648 0.145521,0 0.08599,0.115416 -0.132291,0.25648 -0.218282,0.141064 -0.515938,0.25648 -0.661459,0.25648 -0.145521,0 -0.08599,-0.115416 0.132292,-0.25648 z m 23.812501,0 c -0.218282,-0.141064 -0.277813,-0.25648 -0.132292,-0.25648 0.145521,0 0.443177,0.115416 0.661458,0.25648 0.218282,0.141064 0.277813,0.25648 0.132292,0.25648 -0.145521,0 -0.443177,-0.115416 -0.661458,-0.25648 z m -20.951694,-0.97449 c 0.190995,-0.07643 0.419198,-0.06703 0.507119,0.02089 0.08792,0.08792 -0.06835,0.150453 -0.347265,0.138965 -0.308227,-0.0127 -0.37092,-0.07539 -0.159854,-0.159853 z m 18.256251,0 c 0.190995,-0.07643 0.419198,-0.06703 0.507119,0.02089 0.08792,0.08792 -0.06835,0.150453 -0.347266,0.138965 -0.308226,-0.0127 -0.370919,-0.07539 -0.159853,-0.159853 z M 58.513587,40.372112 c 0.190994,-0.07643 0.419198,-0.06703 0.507119,0.02089 0.08792,0.08792 -0.06835,0.150453 -0.347266,0.138965 -0.308226,-0.01269 -0.370919,-0.07539 -0.159853,-0.159853 z m 16.139583,0 c 0.190995,-0.07643 0.419198,-0.06703 0.507119,0.02089 0.08792,0.08792 -0.06835,0.150453 -0.347265,0.138965 -0.308227,-0.01269 -0.37092,-0.07539 -0.159854,-0.159853 z M 59.57192,40.107529 c 0.190995,-0.07643 0.419198,-0.06703 0.507119,0.02089 0.08792,0.08792 -0.06835,0.150453 -0.347266,0.138964 -0.308226,-0.0127 -0.370919,-0.07539 -0.159853,-0.159852 z m 14.022917,0 c 0.190995,-0.07643 0.419198,-0.06703 0.507119,0.02089 0.08792,0.08792 -0.06835,0.150453 -0.347266,0.138964 -0.308226,-0.0127 -0.370919,-0.07539 -0.159853,-0.159852 z M 60.8783,39.848458 c 0.181901,-0.0734 0.479558,-0.0734 0.661459,0 0.181901,0.0734 0.03307,0.133452 -0.33073,0.133452 -0.363802,0 -0.51263,-0.06005 -0.330729,-0.133452 z m 11.39362,-0.0055 c 0.190995,-0.07643 0.419198,-0.06703 0.507119,0.02089 0.08792,0.08792 -0.06835,0.150453 -0.347265,0.138965 -0.308227,-0.0127 -0.37092,-0.07539 -0.159854,-0.159853 z M 62.603127,39.57575 c 0.257432,-0.06708 0.614619,-0.06267 0.79375,0.0098 0.179131,0.07248 -0.03149,0.127362 -0.468056,0.12197 -0.436562,-0.0054 -0.583126,-0.06469 -0.325694,-0.131773 z m 7.672917,0 c 0.257432,-0.06708 0.614619,-0.06267 0.79375,0.0098 0.179131,0.07248 -0.03149,0.127362 -0.468056,0.12197 -0.436562,-0.0054 -0.583126,-0.06469 -0.325694,-0.131773 z m -4.238369,-0.270739 c 0.400183,-0.06062 1.055026,-0.06062 1.455209,0 0.400182,0.06062 0.07276,0.110222 -0.727604,0.110222 -0.800365,0 -1.127787,-0.0496 -0.727605,-0.110222 z"
         id="path1133" />
      <path
         style="fill:#EF8354;stroke-width:0.264583"
         d="m 59.042753,88.790865 c 0.190995,-0.07643 0.419198,-0.06703 0.507119,0.02088 0.08792,0.08792 -0.06835,0.150452 -0.347265,0.138964 -0.308227,-0.0127 -0.37092,-0.07539 -0.159854,-0.159851 z m 1.852084,0 c 0.190994,-0.07643 0.4192,-0.06703 0.507119,0.02088 0.08792,0.08792 -0.06835,0.150452 -0.347266,0.138964 -0.308226,-0.0127 -0.370919,-0.07539 -0.159853,-0.159851 z M 53.73455,76.625543 c 0.181901,-0.0734 0.479557,-0.0734 0.661458,0 0.181901,0.0734 0.03307,0.133453 -0.330729,0.133453 -0.363802,0 -0.51263,-0.06005 -0.330729,-0.133453 z M 49.609139,63.30702 c 0,-0.363802 0.06005,-0.51263 0.133452,-0.330729 0.0734,0.181901 0.0734,0.479557 0,0.661458 -0.0734,0.181901 -0.133452,0.03307 -0.133452,-0.330729 z m 30.254889,-3.17197 c -0.09269,-0.149982 0.01352,-0.194337 0.248968,-0.103984 0.458369,0.175892 0.542234,0.365537 0.16165,0.365537 -0.136933,0 -0.321712,-0.117699 -0.410618,-0.261553 z"
         id="path1131" />
      <path
         style="fill:#EF8354;stroke-width:0.264583"
         d="m 57.571008,88.789219 c 0.254662,-0.06655 0.671381,-0.06655 0.926042,0 0.254662,0.06655 0.0463,0.121002 -0.463021,0.121002 -0.509323,0 -0.717682,-0.05445 -0.463021,-0.121002 z m 4.233334,0 c 0.254661,-0.06655 0.67138,-0.06655 0.926042,0 0.254661,0.06655 0.0463,0.121002 -0.463021,0.121002 -0.509323,0 -0.717683,-0.05445 -0.463021,-0.121002 z m -5.936589,-0.262937 c 0.190995,-0.07643 0.419198,-0.06703 0.507119,0.02088 0.08792,0.08792 -0.06835,0.150453 -0.347265,0.138965 -0.308227,-0.0127 -0.37092,-0.07539 -0.159854,-0.159851 z m 8.466667,0 c 0.190995,-0.07643 0.419198,-0.06703 0.507119,0.02088 0.08792,0.08792 -0.06835,0.150453 -0.347266,0.138965 -0.308226,-0.0127 -0.370919,-0.07539 -0.159853,-0.159851 z M 49.7658,86.572339 c -0.545703,-0.288086 -0.992188,-0.582898 -0.992188,-0.65514 0,-0.117883 2.089848,0.85879 2.359202,1.102553 0.304471,0.275545 -0.490296,0.01543 -1.367014,-0.447413 z m 19.667361,0.44854 c 0.272269,-0.24362 1.830035,-0.959488 1.830035,-0.840989 0,0.152395 -1.466802,0.939631 -1.75075,0.939631 -0.104241,0 -0.139917,-0.04439 -0.07928,-0.09864 z m 2.094619,-1.055444 c 0,-0.06912 0.446484,-0.397674 0.992187,-0.730123 1.335186,-0.813406 4.129591,-3.503046 5.31104,-5.111927 0.528116,-0.719178 1.406398,-2.147928 1.951739,-3.175001 1.125095,-2.118958 1.368287,-2.175533 0.312377,-0.07267 -1.115973,2.222479 -2.804774,4.42558 -4.912479,6.408505 -1.733693,1.631056 -3.654864,3.040431 -3.654864,2.681219 z M 48.710551,85.080309 c 0.329119,-0.06329 0.805369,-0.06088 1.058334,0.0053 0.252965,0.06622 -0.01631,0.118004 -0.598398,0.115067 -0.582083,-0.0029 -0.789054,-0.05712 -0.459936,-0.120406 z m 1.981291,0.0047 c 0.254661,-0.06655 0.67138,-0.06655 0.926041,0 0.254662,0.06655 0.0463,0.121001 -0.463021,0.121001 -0.509323,0 -0.717682,-0.05445 -0.46302,-0.121001 z m 2.265494,-0.262938 c 0.190997,-0.07643 0.4192,-0.06703 0.507119,0.02088 0.08792,0.08792 -0.06835,0.150452 -0.347266,0.138964 -0.308225,-0.0127 -0.370919,-0.07539 -0.159853,-0.159851 z m 1.058334,-0.264583 c 0.190995,-0.07643 0.419198,-0.06703 0.507119,0.02088 0.08792,0.08792 -0.06835,0.150453 -0.347266,0.138965 -0.308225,-0.0127 -0.37092,-0.07539 -0.159853,-0.159851 z m 1.107943,-0.34842 c 0.218281,-0.141065 0.515937,-0.256479 0.661458,-0.256479 0.145521,0 0.08599,0.115414 -0.132292,0.256479 -0.218281,0.141066 -0.515937,0.25648 -0.661458,0.25648 -0.145521,0 -0.08599,-0.115414 0.132292,-0.25648 z m 1.080381,-0.361037 c 0.06063,-0.05305 0.4079,-0.23821 0.771702,-0.411469 0.623694,-0.297035 0.632137,-0.291526 0.147868,0.09645 -0.421482,0.337677 -1.282663,0.632693 -0.91957,0.315019 z m 2.094619,-1.202822 c 0.363802,-0.297572 0.780521,-0.541864 0.926041,-0.542872 0.283123,-0.0019 -0.195323,0.364418 -1.058333,0.810432 -0.351475,0.181647 -0.307052,0.0918 0.132292,-0.26756 z m -3.864671,-2.459144 c -1.157133,-1.066606 -2.223614,-2.720993 -2.218161,-3.440935 0.0014,-0.187698 0.281911,0.25858 0.623311,0.991727 0.351124,0.754034 1.170601,1.817018 1.886749,2.447396 0.696312,0.612921 1.187069,1.114399 1.09057,1.114399 -0.0965,0 -0.718611,-0.500664 -1.382469,-1.112587 z M 53.670277,76.01005 c -0.09269,-0.149982 0.01351,-0.194336 0.248969,-0.103984 0.458369,0.175893 0.542234,0.365538 0.161649,0.365538 -0.136934,0 -0.321711,-0.1177 -0.410618,-0.261554 z M 52.391041,75.201833 C 52.013043,74.904499 51.451366,74.279421 51.142868,73.81277 l -0.560904,-0.848458 0.675514,0.79375 c 0.371533,0.436563 1.006451,1.061048 1.410929,1.387748 0.404477,0.326699 0.662173,0.59459 0.572658,0.595312 -0.08952,7.94e-4 -0.472027,-0.241956 -0.850024,-0.539289 z m 29.211795,-3.053318 c 0.0127,-0.308227 0.07539,-0.37092 0.15985,-0.159854 0.07643,0.190995 0.06703,0.419198 -0.02088,0.507119 -0.08792,0.08792 -0.150453,-0.06835 -0.138965,-0.347265 z m 0.264583,-1.058334 c 0.0127,-0.308226 0.07539,-0.370919 0.159851,-0.159853 0.07643,0.190995 0.06703,0.419198 -0.02088,0.507119 -0.08792,0.08792 -0.150453,-0.06835 -0.138964,-0.347266 z M 49.58825,70.296431 c 0.0127,-0.308226 0.07539,-0.370919 0.159853,-0.159853 0.07643,0.190995 0.06703,0.419198 -0.02089,0.507119 -0.08792,0.08792 -0.150453,-0.06835 -0.138964,-0.347266 z m 32.564639,-0.903994 c 0,-0.363802 0.06005,-0.51263 0.133453,-0.330729 0.0734,0.181901 0.0734,0.479557 0,0.661458 -0.0734,0.181901 -0.133453,0.03307 -0.133453,-0.330729 z m -30.064843,0.01156 c -0.08601,-0.139165 -0.360927,-0.187465 -0.610928,-0.10733 -0.299314,0.09594 -0.346978,0.06739 -0.139569,-0.08358 0.230699,-0.167929 0.106806,-0.53924 -0.463021,-1.387692 -0.427899,-0.637128 -0.773232,-1.289326 -0.767406,-1.449327 0.0058,-0.160004 0.198095,0.06627 0.427264,0.502835 0.229168,0.436563 0.843877,1.240235 1.36602,1.785938 0.522142,0.545703 0.813151,0.992187 0.646685,0.992187 -0.166466,0 -0.373036,-0.113863 -0.459045,-0.253029 z M 50.096529,68.86327 c -0.218281,-0.141065 -0.277812,-0.256479 -0.132292,-0.256479 0.145521,0 0.443177,0.115414 0.661459,0.256479 0.218281,0.141066 0.277812,0.25648 0.132291,0.25648 -0.14552,0 -0.443177,-0.115414 -0.661458,-0.25648 z M 64.84705,67.100542 c 0.181901,-0.0734 0.479558,-0.0734 0.661459,0 0.181901,0.0734 0.03307,0.133453 -0.330729,0.133453 -0.363803,0 -0.512631,-0.06005 -0.33073,-0.133453 z m -2.629297,-0.534678 c 0.190995,-0.07643 0.419198,-0.06703 0.507119,0.02088 0.08792,0.08792 -0.06835,0.150452 -0.347265,0.138964 -0.308227,-0.0127 -0.37092,-0.07539 -0.159854,-0.15985 z M 83.301738,64.96908 c 0.582084,-0.569696 1.445287,-1.478513 1.91823,-2.019599 0.472942,-0.541084 0.859896,-0.913135 0.859896,-0.826778 0,0.352123 -1.708442,2.248691 -2.73653,3.037866 l -1.099929,0.84432 z M 57.76983,64.87688 c -0.800153,-0.440992 -1.57406,-0.925976 -1.719792,-1.077746 -0.212111,-0.220898 3.145494,1.48396 3.549444,1.802265 0.469405,0.369885 -0.643631,-0.07086 -1.829652,-0.724519 z m -8.160691,-0.511527 c 0,-0.363802 0.06005,-0.512631 0.133452,-0.33073 0.0734,0.181902 0.0734,0.479558 0,0.661459 -0.0734,0.181901 -0.133452,0.03307 -0.133452,-0.330729 z m 16.912446,-0.15434 c 0.0127,-0.308226 0.07539,-0.370919 0.159851,-0.159853 0.07643,0.190995 0.06703,0.419198 -0.02088,0.507119 -0.08792,0.08792 -0.150453,-0.06835 -0.138964,-0.347266 z M 53.763858,62.127838 c -0.956665,-0.794072 -1.947581,-1.776338 -2.202036,-2.182812 -0.341463,-0.545468 -0.195466,-0.460301 0.557385,0.325138 0.561017,0.585304 1.615343,1.566802 2.342947,2.181106 0.727604,0.614305 1.259507,1.117685 1.182005,1.118624 -0.0775,0.0011 -0.923637,-0.647985 -1.880301,-1.442056 z m 13.013741,1.099897 c -0.01765,-0.302993 0.768884,-1.77723 1.412973,-2.648418 0.579045,-0.783217 2.698649,-2.30681 3.18413,-2.288786 0.156954,0.0058 -0.07182,0.198093 -0.508381,0.427262 -1.219911,0.640379 -2.755984,2.21256 -3.449799,3.530894 -0.344633,0.654844 -0.632147,1.095415 -0.638923,0.979048 z m -17.16846,-0.979048 c 0,-0.363802 0.06005,-0.51263 0.133452,-0.330729 0.0734,0.181901 0.0734,0.479557 0,0.661458 -0.0734,0.181901 -0.133452,0.03307 -0.133452,-0.330729 z m 33.616122,-0.463021 c 0.376192,-0.400182 0.933802,-1.144323 1.239136,-1.653646 0.305337,-0.509323 0.555601,-0.786334 0.556144,-0.615579 5.29e-4,0.170756 -0.406694,0.844558 -0.904973,1.497338 -0.498277,0.65278 -0.835621,1.257212 -0.749652,1.343183 0.08597,0.08597 -0.0644,0.156308 -0.334164,0.156308 -0.430665,0 -0.407069,-0.08872 0.193509,-0.727604 z m 0.688326,0.282281 c 0.190995,-0.07643 0.419198,-0.06703 0.507119,0.02088 0.08792,0.08792 -0.06835,0.150453 -0.347265,0.138964 -0.308227,-0.0127 -0.37092,-0.07539 -0.159854,-0.15985 z M 85.02153,61.71952 c 0.218281,-0.141065 0.515938,-0.256479 0.661459,-0.256479 0.14552,0 0.08599,0.115414 -0.132292,0.256479 -0.218281,0.141065 -0.515938,0.256479 -0.661458,0.256479 -0.145521,0 -0.08599,-0.115414 0.132291,-0.256479 z M 50.104632,60.264312 c 0,-0.145521 0.115416,-0.443177 0.25648,-0.661459 0.141065,-0.218281 0.256481,-0.277812 0.256481,-0.132291 0,0.145521 -0.115416,0.443177 -0.256481,0.661458 -0.141064,0.218281 -0.25648,0.277813 -0.25648,0.132292 z m 29.330184,-0.62288 c -0.347046,-0.269824 -0.988182,-0.681775 -1.424744,-0.915447 -0.436563,-0.233675 -0.665335,-0.429628 -0.508381,-0.435454 0.291787,-0.01082 2.757339,1.539787 2.757339,1.734132 0,0.198318 -0.189635,0.110146 -0.824214,-0.383231 z M 82.64028,59.33827 c 0.218281,-0.141065 0.515938,-0.256479 0.661458,-0.256479 0.145521,0 0.08599,0.115414 -0.132291,0.256479 -0.218281,0.141065 -0.515938,0.256479 -0.661459,0.256479 -0.14552,0 -0.08599,-0.115414 0.132292,-0.256479 z m -9.855729,-1.498145 c 0.181901,-0.0734 0.479557,-0.0734 0.661458,0 0.181901,0.0734 0.03307,0.133453 -0.330729,0.133453 -0.363802,0 -0.51263,-0.06006 -0.330729,-0.133453 z m 2.645833,0 c 0.181901,-0.0734 0.479557,-0.0734 0.661458,0 0.181901,0.0734 0.03307,0.133453 -0.330729,0.133453 -0.363802,0 -0.51263,-0.06006 -0.330729,-0.133453 z"
         id="path1129" />
      <path
         style="fill:#000000;stroke-width:0.264583"
         d="M 61.738196,106.32264 C 55.794794,105.25059 51.201261,103.28884 46.677832,99.890853 40.352219,95.139069 36.02489,88.532251 34.027933,80.577418 c -0.641898,-2.556987 -0.715607,-3.327525 -0.715607,-7.480814 0,-4.153289 0.07371,-4.923827 0.715607,-7.480814 3.298836,-13.140842 13.161572,-22.674645 26.387346,-25.507304 1.680655,-0.359957 3.352136,-0.478396 6.614584,-0.468699 3.827357,0.01137 4.717095,0.100646 7.21623,0.724027 13.125877,3.2741 22.672885,13.14879 25.507303,26.38279 0.348404,1.626682 0.481674,3.383695 0.481674,6.35 0,5.834031 -0.949074,9.91107 -3.479898,14.948959 -4.456859,8.871871 -12.569027,15.306857 -22.370792,17.745657 -3.385103,0.84226 -9.498653,1.09916 -12.646184,0.53142 z m 2.38125,-17.633679 c 4.283237,-0.693981 8.172085,-2.608602 11.208147,-5.518177 4.247375,-4.070424 6.644225,-9.075378 6.978505,-14.572097 l 0.152861,-2.513542 1.810451,-1.794954 c 2.057312,-2.039702 2.498415,-3.475736 0.800872,-2.607271 -0.245094,0.125389 -0.774218,0.306547 -1.175829,0.402567 l -0.730203,0.174585 0.92864,-1.216583 c 0.834107,-1.09274 1.24578,-2.500916 0.730203,-2.497752 -0.109141,7.94e-4 -1.131459,0.364144 -2.271819,0.807718 l -2.073383,0.806497 -0.934413,-0.712711 c -3.137464,-2.393061 -7.926391,-2.2035 -10.630541,0.420788 -1.595422,1.548305 -2.214253,2.953857 -2.357644,5.354932 l -0.122322,2.048232 -1.090615,-0.153749 c -4.716463,-0.664901 -9.185418,-2.871933 -12.535061,-6.190549 -0.881913,-0.873744 -1.788474,-1.588625 -2.01458,-1.588625 -0.522213,0 -1.225353,2.280801 -1.225353,3.974722 0,1.688063 0.607143,3.56326 1.602413,4.949148 l 0.833099,1.160071 -0.985484,-0.411763 c -1.479136,-0.618022 -1.540562,-0.571654 -1.374478,1.037545 0.257539,2.495314 1.788868,4.754068 4.021574,5.931937 l 1.054415,0.556257 h -1.252853 c -0.690845,0 -1.252852,0.123415 -1.252852,0.275125 0,0.598247 1.066518,2.289514 2.028103,3.216129 1.112803,1.072338 3.02215,2.045338 4.057314,2.0676 0.650242,0.014 0.652486,0.02133 0.132291,0.433787 -0.794938,0.630283 -3.533375,1.826408 -5.004184,2.185781 -0.715009,0.174705 -2.173525,0.317643 -3.241146,0.317643 -1.491945,0 -1.941128,0.08613 -1.941128,0.372235 0,0.730636 5.311517,2.853483 8.466667,3.383864 1.359119,0.228468 5.748242,0.169583 7.408333,-0.09939 z"
         id="path1127" />
  </g>
</svg>
