<?xml version="1.0" encoding="UTF-8" standalone="no"?>
<!-- Created with Inkscape (http://www.inkscape.org/) -->

<svg
   width="512"
   height="512"
   viewBox="0 0 135.46666 135.46667"
   version="1.1"
   id="svg5"
   inkscape:version="1.1.2 (b8e25be833, 2022-02-05)"
   sodipodi:docname="x.svg"
   xmlns:inkscape="http://www.inkscape.org/namespaces/inkscape"
   xmlns:sodipodi="http://sodipodi.sourceforge.net/DTD/sodipodi-0.dtd"
   xmlns="http://www.w3.org/2000/svg"
   xmlns:svg="http://www.w3.org/2000/svg">
  <sodipodi:namedview
     id="namedview7"
     pagecolor="#ffffff"
     bordercolor="#666666"
     borderopacity="1.0"
     inkscape:pageshadow="2"
     inkscape:pageopacity="0.0"
     inkscape:pagecheckerboard="0"
     inkscape:document-units="mm"
     showgrid="false"
     units="px"
     inkscape:zoom="0.7198092"
     inkscape:cx="293.82786"
     inkscape:cy="367.45849"
     inkscape:window-width="1920"
     inkscape:window-height="1001"
     inkscape:window-x="-9"
     inkscape:window-y="-9"
     inkscape:window-maximized="1"
     inkscape:current-layer="layer1" />
  <defs
     id="defs2" />
  <g
     inkscape:label="Capa 1"
     inkscape:groupmode="layer"
     id="layer1">
    <g
       id="g579"
       transform="translate(2.0216583,1.1027228)">
      <path
         style="fill:#f3d7a2;stroke-width:0.352778"
         d="m 109.84852,119.92349 c 0.34324,-0.0894 0.81949,-0.0836 1.05834,0.0131 0.23884,0.0966 -0.042,0.16982 -0.62408,0.16263 -0.58208,-0.007 -0.7775,-0.0862 -0.43426,-0.1757 z m -75.765738,-7.51664 c 0.351187,-0.38806 0.717896,-0.70556 0.81491,-0.70556 0.09701,0 -0.110946,0.3175 -0.462132,0.70556 -0.351187,0.38805 -0.717896,0.70555 -0.81491,0.70555 -0.09701,0 0.110945,-0.3175 0.462132,-0.70555 z m 61.514721,-3.08681 c -0.43881,-0.55953 -0.426332,-0.572 0.133195,-0.13319 0.587639,0.46085 0.774516,0.75055 0.484166,0.75055 -0.07325,0 -0.351067,-0.27781 -0.617361,-0.61736 z m -51.813332,-6.57139 c 0,-0.0733 0.277812,-0.35106 0.617361,-0.61736 0.559527,-0.43881 0.572004,-0.42633 0.133195,0.1332 -0.460859,0.58764 -0.750556,0.77451 -0.750556,0.48416 z m 68.393889,-3.306386 c -0.43881,-0.559527 -0.42633,-0.572005 0.13319,-0.133195 0.58764,0.460858 0.77452,0.750551 0.48417,0.750551 -0.0732,0 -0.35107,-0.277808 -0.61736,-0.617356 z M 53.132782,93.356847 c 0.351186,-0.388056 0.717895,-0.705556 0.814909,-0.705556 0.09701,0 -0.110945,0.3175 -0.462132,0.705556 -0.351186,0.388056 -0.717895,0.705556 -0.814909,0.705556 -0.09701,0 0.110945,-0.3175 0.462132,-0.705556 z m 4.586111,-0.02127 c 0.625859,-0.183579 2.569411,-1.828388 4.756196,-4.025128 2.033827,-2.043098 3.79665,-3.714711 3.917389,-3.714711 0.120738,0 1.208712,1.150937 2.417716,2.557639 l 2.19819,2.557639 -2.309287,-2.463677 -2.309283,-2.463673 -4.01671,3.962979 c -2.973465,2.933693 -4.236935,3.95472 -4.864626,3.931165 -0.759343,-0.0285 -0.737365,-0.06424 0.210415,-0.342248 z m 15.500029,-0.772478 -1.036141,-1.146528 1.146528,1.03614 c 1.068726,0.965828 1.308682,1.256916 1.03614,1.256916 -0.06071,0 -0.57665,-0.515938 -1.146527,-1.146528 z m 2.315248,1.007883 c 0,-0.07626 0.24637,-0.233187 0.54749,-0.348739 0.313944,-0.12047 0.455549,-0.06133 0.331957,0.138645 -0.207172,0.335213 -0.879447,0.495812 -0.879447,0.210094 z M 55.778615,92.651291 c -0.20768,-0.388055 -0.298228,-0.705555 -0.201214,-0.705555 0.09701,0 0.346312,0.3175 0.553992,0.705555 0.20768,0.388056 0.298228,0.705556 0.201214,0.705556 -0.09701,0 -0.346312,-0.3175 -0.553992,-0.705556 z m 20.964553,-1.251976 c -0.01415,-0.650039 0.104913,-1.101154 0.264583,-1.002471 0.3631,0.224409 0.383184,1.803104 0.02572,2.0222 -0.145521,0.08919 -0.276162,-0.369687 -0.290308,-1.019729 z m 24.164302,-3.24594 -0.85524,-0.970139 0.97013,0.855243 c 0.90675,0.799355 1.13192,1.085035 0.85525,1.085035 -0.0632,0 -0.49975,-0.436563 -0.97014,-0.970139 z m -29.272845,-2.822222 -1.215732,-1.322917 1.322916,1.215732 c 0.727604,0.668652 1.322917,1.263964 1.322917,1.322917 0,0.269388 -0.298528,0.01559 -1.430101,-1.215732 z M 40.412014,76.926519 c -0.376633,-0.305428 -0.46052,-0.438845 -0.186415,-0.296482 0.274105,0.142364 0.98848,0.376012 1.5875,0.519218 1.001346,0.239385 1.01637,0.263282 0.186415,0.296482 -0.496493,0.01986 -1.210868,-0.213787 -1.5875,-0.519218 z m 52.055489,-0.482184 c 0,-0.182577 0.156934,-0.42895 0.348739,-0.54749 0.199976,-0.123592 0.259115,0.01803 0.138645,0.331957 -0.234523,0.611159 -0.487384,0.722979 -0.487384,0.215533 z m -2.630787,-4.198758 -2.807176,-3.054007 2.567541,2.469444 c 2.0906,2.010724 3.656535,3.837344 3.147417,3.671369 -0.05533,-0.01803 -1.363836,-1.4071 -2.907782,-3.086806 z m -49.893681,1.620298 c 0.08636,-0.04851 1.422505,-1.278819 2.969214,-2.734028 l 2.812199,-2.645833 -2.637003,2.734028 c -1.450354,1.503715 -2.7865,2.734027 -2.969214,2.734027 -0.182714,0 -0.261553,-0.03969 -0.175196,-0.08819 z m 45.643344,-5.91119 c -0.352263,-0.389245 -0.575303,-0.770573 -0.495649,-0.847394 0.07966,-0.07682 0.430053,0.241653 0.778658,0.707718 0.769899,1.029307 0.598604,1.113847 -0.283009,0.139676 z M 46.565107,67.541991 c 0.495187,-0.569556 0.715603,-1.129305 0.555657,-1.411111 -0.214566,-0.378051 -0.17362,-0.382111 0.214796,-0.02131 0.399859,0.371433 0.307185,0.606785 -0.555657,1.411111 l -1.035554,0.965327 0.820758,-0.944022 z m 40.257952,-2.230977 c 0.455701,-0.485069 0.90792,-0.881944 1.004933,-0.881944 0.09701,0 -0.196454,0.396875 -0.652155,0.881944 -0.455701,0.485069 -0.90792,0.881944 -1.004933,0.881944 -0.09701,0 0.196454,-0.396875 0.652155,-0.881944 z m -42.87576,-2.028472 -1.750628,-1.852083 1.852083,1.750627 c 1.018646,0.962844 1.852083,1.796281 1.852083,1.852084 0,0.263239 -0.326824,-0.02963 -1.953538,-1.750628 z m 44.639649,0.08819 c 0.20768,-0.388055 0.456978,-0.705555 0.553992,-0.705555 0.09701,0 0.0065,0.3175 -0.201214,0.705555 -0.207681,0.388056 -0.456978,0.705556 -0.553992,0.705556 -0.09701,0 -0.0065,-0.3175 0.201214,-0.705556 z m 1.446526,-1.306872 c 0.256876,-0.42774 0.542978,-0.70177 0.635787,-0.608962 0.09281,0.09281 -0.117358,0.442775 -0.467042,0.777706 -0.607463,0.581833 -0.61498,0.574315 -0.168745,-0.168744 z m 1.022918,-1.141751 c 0,-0.182577 0.156934,-0.42895 0.348739,-0.54749 0.199975,-0.123592 0.259115,0.01803 0.138645,0.331957 -0.234523,0.611159 -0.487384,0.722979 -0.487384,0.215533 z M 39.686318,58.628842 c -0.107332,-0.279707 -0.132976,-0.795644 -0.05699,-1.146528 0.08628,-0.39836 0.207028,-0.207355 0.321515,0.508561 0.192123,1.201388 0.06725,1.502555 -0.264527,0.637967 z m 52.252019,-1.608106 c -0.119916,-0.194027 -0.526161,-0.352777 -0.902766,-0.352777 -0.75578,0 -0.914019,-0.52221 -0.277449,-0.915632 0.252342,-0.155956 0.311524,-0.09677 0.155568,0.155568 -0.145651,0.235666 -0.03817,0.407286 0.255076,0.407286 0.278733,0 0.704416,0.238125 0.94596,0.529166 0.241543,0.291042 0.349726,0.529167 0.240404,0.529167 -0.109319,0 -0.296877,-0.15875 -0.416793,-0.352778 z m -51.09827,-1.146527 c 0.08994,-0.145521 0.462284,-0.264584 0.827437,-0.264584 0.365153,0 0.7375,0.119063 0.827437,0.264584 0.08994,0.14552 -0.282409,0.264583 -0.827437,0.264583 -0.545027,0 -0.917374,-0.119063 -0.827437,-0.264583 z m -1.687008,-2.998611 c -0.438809,-0.559527 -0.426332,-0.572005 0.133195,-0.133195 0.339549,0.266294 0.617361,0.544107 0.617361,0.617361 0,0.29035 -0.289697,0.103473 -0.750556,-0.484166 z m 25.599196,-5.820834 -1.03614,-1.146528 1.146528,1.036141 1.146527,1.03614 1.146528,-1.03614 1.146528,-1.036141 -1.03614,1.146528 c -0.569877,0.630591 -1.135489,1.146528 -1.256916,1.146528 -0.121426,0 -0.687038,-0.515937 -1.256915,-1.146528 z m 3.72636,-1.456111 c 0,-0.07325 0.277812,-0.351067 0.617361,-0.617361 0.559527,-0.43881 0.572004,-0.426332 0.133195,0.133194 -0.460859,0.58764 -0.750556,0.774517 -0.750556,0.484167 z m -8.118387,-2.676056 c -1.26365,-1.329708 -2.0574,-2.286042 -1.763889,-2.125183 0.510353,0.279693 2.28303,2.101035 3.686694,3.787906 1.268501,1.524434 0.356842,0.736085 -1.922805,-1.662723 z m 9.529498,1.51161 c 0,-0.196292 0.357187,-0.659313 0.79375,-1.028932 l 0.79375,-0.672038 -0.701795,0.881944 c -0.385988,0.485069 -0.743176,0.94809 -0.79375,1.028936 -0.05057,0.08084 -0.09195,-0.01361 -0.09195,-0.20991 z m 6.758478,-1.877359 c 0,-0.48507 0.08007,-0.683507 0.177937,-0.440973 0.09786,0.242535 0.09786,0.63941 0,0.881945 -0.09786,0.242535 -0.177937,0.0441 -0.177937,-0.440972 z m -3.669291,-1.322917 c 0.475297,-0.454148 1.237368,-0.778302 1.781178,-0.75764 0.882883,0.03355 0.867915,0.05567 -0.210509,0.311179 -0.638535,0.151285 -1.440067,0.492223 -1.781179,0.757639 -0.341108,0.265413 -0.24638,0.125384 0.21051,-0.311178 z M 55.425837,41.36532 c 0,-0.07325 0.277813,-0.351067 0.617361,-0.617362 0.559527,-0.438809 0.572005,-0.426332 0.133195,0.133195 -0.460858,0.58764 -0.750556,0.774517 -0.750556,0.484167 z m -34.97,-7.539722 c -0.438809,-0.559527 -0.426332,-0.572005 0.133195,-0.133195 0.339549,0.266294 0.617361,0.544107 0.617361,0.617361 0,0.29035 -0.289697,0.103473 -0.750556,-0.484166 z m 24.007188,-2.469445 -0.855243,-0.970139 0.970139,0.855243 c 0.906741,0.799356 1.131919,1.085035 0.855242,1.085035 -0.06319,0 -0.499752,-0.436562 -0.970138,-0.970139 z m -7.426632,-7.055555 c -0.43881,-0.559527 -0.426332,-0.572005 0.133194,-0.133195 0.339549,0.266294 0.617362,0.544107 0.617362,0.617361 0,0.29035 -0.289698,0.103473 -0.750556,-0.484166 z m 80.080557,-7.055556 c -0.43881,-0.559526 -0.42633,-0.572004 0.13319,-0.133194 0.33955,0.266294 0.61736,0.544106 0.61736,0.617361 0,0.29035 -0.28969,0.103473 -0.75055,-0.484167 z M 22.712412,13.737377 c 0.343242,-0.08944 0.819492,-0.08356 1.058333,0.01305 0.238842,0.09664 -0.04199,0.169817 -0.624074,0.162627 -0.582083,-0.0072 -0.777501,-0.08625 -0.434259,-0.175697 z"
         id="path593" />
      <path
         style="fill:#a2a09f;stroke-width:0.352778"
         d="m 107.92358,119.57419 c 0.25466,-0.1019 0.55893,-0.0894 0.67616,0.0278 0.11722,0.11722 -0.0911,0.2006 -0.46302,0.18528 -0.41097,-0.0169 -0.49456,-0.10052 -0.21314,-0.21313 z m -3.67154,-1.61109 c -0.66631,-0.78699 -0.66603,-0.78889 0.0335,-0.22243 0.38805,0.31423 0.94368,0.65889 1.23472,0.7659 0.44913,0.16515 0.44406,0.19879 -0.0335,0.22242 -0.30947,0.0153 -0.8651,-0.32933 -1.23472,-0.76589 z m -73.424384,-2.73403 c 0.493331,-0.38806 1.012401,-0.70556 1.153484,-0.70556 0.141083,0 -0.147122,0.3175 -0.640454,0.70556 -0.493331,0.38805 -1.012401,0.70555 -1.153484,0.70555 -0.141083,0 0.147122,-0.3175 0.640454,-0.70555 z m 1.344245,-1.15816 c 0.08085,-0.0549 0.464492,-0.33272 0.852548,-0.61736 0.652642,-0.47872 0.669244,-0.47124 0.221389,0.0998 -0.266294,0.33955 -0.64994,0.61737 -0.852548,0.61737 -0.202607,0 -0.302231,-0.0449 -0.221389,-0.0998 z m 61.886627,-6.24649 c -0.555731,-0.58006 -0.942619,-1.11099 -0.859751,-1.17985 0.08287,-0.0688 0.602869,0.40574 1.155555,1.05466 1.247874,1.46513 1.062933,1.5434 -0.295804,0.12519 z M 13.805807,107.5421 c -0.01115,-0.65532 1.313042,-3.15305 1.839295,-3.46931 0.353222,-0.21228 0.357004,-0.15799 0.0182,0.26095 -0.235306,0.29095 -0.747758,1.23423 -1.13878,2.09619 -0.391026,0.86196 -0.714442,1.36243 -0.718704,1.11217 z m 28.390864,-3.24914 c 0.351186,-0.38806 0.717895,-0.70556 0.814909,-0.70556 0.09701,0 -0.110945,0.3175 -0.462131,0.70556 -0.351187,0.38805 -0.717896,0.70555 -0.81491,0.70555 -0.09701,0 0.110945,-0.3175 0.462132,-0.70555 z m 48.109165,0.0882 c -0.438809,-0.55952 -0.426331,-0.572 0.133195,-0.13319 0.58764,0.46086 0.774517,0.75055 0.484167,0.75055 -0.07326,0 -0.351067,-0.27781 -0.617362,-0.61736 z m 24.213804,-2.20118 c -0.55573,-0.58006 -0.94262,-1.11099 -0.85975,-1.17984 0.0829,-0.0688 0.60287,0.40574 1.15555,1.05465 1.24788,1.46514 1.06294,1.54341 -0.2958,0.12519 z m -28.766965,-2.737706 -1.928227,-2.028473 2.028472,1.928227 c 1.11566,1.060522 2.028472,1.973332 2.028472,2.028472 0,0.26185 -0.337333,-0.0437 -2.128717,-1.928226 z M 50.163568,96.090875 c 0.08085,-0.04851 0.623242,-0.48507 1.205325,-0.970139 l 1.058333,-0.881945 -0.855243,0.970139 c -0.470386,0.533577 -1.012782,0.970139 -1.205325,0.970139 -0.192542,0 -0.283933,-0.03969 -0.20309,-0.08819 z M 25.821901,93.61767 c 0.08085,-0.05057 0.543867,-0.407762 1.028937,-0.79375 l 0.881944,-0.701795 -0.672038,0.79375 c -0.369619,0.436562 -0.83264,0.79375 -1.028933,0.79375 -0.196296,0 -0.290752,-0.04138 -0.20991,-0.09195 z M 104.9576,92.599959 c -0.66844,-0.752832 -0.66779,-0.754655 0.12171,-0.340367 0.43656,0.22909 0.79375,0.569686 0.79375,0.756888 0,0.50117 -0.16887,0.424339 -0.91546,-0.416521 z m -2.28624,-2.682695 -0.85525,-0.970139 0.97014,0.855243 c 0.90674,0.799355 1.13192,1.085035 0.85525,1.085035 -0.0632,0 -0.49976,-0.436563 -0.97014,-0.970139 z M 33.553615,86.168097 c 0,-0.07326 0.277813,-0.351067 0.617361,-0.617361 0.559527,-0.43881 0.572005,-0.426332 0.133195,0.133194 -0.460858,0.58764 -0.750556,0.774517 -0.750556,0.484167 z m 62.11818,-3.357841 c -0.662986,-0.893332 -0.93339,-1.400218 -0.600894,-1.126406 0.722517,0.594988 2.112539,2.497745 1.933004,2.646024 -0.06967,0.05754 -0.669125,-0.626286 -1.33211,-1.519618 z M 37.088653,50.854523 c -0.852918,-0.869057 -1.481282,-1.631481 -1.396368,-1.694275 0.08491,-0.0628 0.85151,0.648254 1.703549,1.580102 1.952745,2.135657 1.750519,2.210816 -0.307181,0.114173 z m 60.317739,-1.728092 c 0,-0.07325 0.277813,-0.351067 0.617361,-0.617362 0.559527,-0.438809 0.572005,-0.426331 0.133195,0.133195 -0.460858,0.58764 -0.750556,0.774517 -0.750556,0.484167 z m 1.438963,-1.483703 c 0.01693,-0.410968 0.100521,-0.494559 0.213134,-0.213137 0.101907,0.254659 0.08938,0.55893 -0.02783,0.676158 -0.117224,0.117225 -0.200603,-0.09114 -0.185286,-0.463021 z M 33.155837,46.878375 c -0.438809,-0.559526 -0.426332,-0.572004 0.133195,-0.133194 0.339549,0.266294 0.617361,0.544106 0.617361,0.617361 0,0.29035 -0.289698,0.103473 -0.750556,-0.484167 z m -4.92059,-4.938888 -0.855243,-0.970139 1.058334,0.881944 c 0.582083,0.48507 1.124479,0.921632 1.205325,0.970139 0.08084,0.04851 -0.01055,0.08819 -0.203091,0.08819 -0.192542,0 -0.734938,-0.436562 -1.205325,-0.970138 z M 105.42621,41.10196 c 0.2393,-0.241095 0.52396,-0.349486 0.63257,-0.240869 0.10862,0.108616 -0.0872,0.305876 -0.43509,0.438354 -0.50278,0.191446 -0.5433,0.150926 -0.19748,-0.197485 z m 2.03435,-2.07289 c 0.35119,-0.388056 0.71789,-0.705556 0.81491,-0.705556 0.097,0 -0.11095,0.3175 -0.46213,0.705556 -0.35119,0.388055 -0.7179,0.705555 -0.81491,0.705555 -0.097,0 0.11094,-0.3175 0.46213,-0.705555 z M 81.084539,38.632516 c 0.239304,-0.241095 0.52396,-0.349486 0.632577,-0.24087 0.108617,0.108617 -0.08718,0.305876 -0.435092,0.438355 -0.502778,0.191445 -0.543298,0.150925 -0.197485,-0.197485 z m 1.534584,-1.45929 c 0.08085,-0.05057 0.543867,-0.407762 1.028936,-0.79375 l 0.881945,-0.701795 -0.672039,0.79375 c -0.369619,0.436563 -0.83264,0.79375 -1.028932,0.79375 -0.196297,0 -0.290753,-0.04138 -0.20991,-0.09195 z M 47.311948,34.619348 c -0.856907,-0.873125 -1.478639,-1.5875 -1.381625,-1.5875 0.09701,0 0.877495,0.714375 1.734403,1.5875 0.856908,0.873125 1.47864,1.5875 1.381626,1.5875 -0.09701,0 -0.877496,-0.714375 -1.734404,-1.5875 z m -28.767986,-2.734028 -1.394513,-1.499306 1.499305,1.394513 c 1.39434,1.296882 1.661418,1.604099 1.394513,1.604099 -0.05764,0 -0.732324,-0.674688 -1.499305,-1.499306 z m 70.395764,-1.083585 c 0,-0.284141 0.238125,-0.607999 0.529166,-0.719684 0.291042,-0.111683 0.529167,-0.117327 0.529167,-0.01256 0,0.104785 -0.238125,0.428642 -0.529167,0.719684 -0.458949,0.458946 -0.529166,0.460611 -0.529166,0.01256 z m 1.977654,-1.704086 c 0.367499,-0.514572 0.738735,-0.86735 0.824968,-0.78395 0.08624,0.0834 -0.214443,0.504416 -0.668176,0.935588 l -0.82497,0.78395 z m 27.86374,-1.79844 c 0.14059,-0.436563 0.25712,-0.985206 0.25896,-1.219204 0.002,-0.234001 0.12616,-0.349553 0.27626,-0.256787 0.1501,0.09277 0.10811,0.64141 -0.0933,1.219204 -0.42297,1.213344 -0.82522,1.44708 -0.44191,0.256787 z M 39.005073,26.240876 37.61056,24.74157 l 1.499305,1.394513 c 1.39434,1.296882 1.661418,1.604098 1.394513,1.604098 -0.05764,0 -0.732324,-0.674687 -1.499305,-1.499305 z m 60.776688,-6.305582 c 0.239299,-0.241095 0.523959,-0.349486 0.632579,-0.24087 0.10861,0.108617 -0.0872,0.305876 -0.435094,0.438355 -0.502778,0.191445 -0.543298,0.150925 -0.197485,-0.197485 z m 1.534579,-1.45929 c 0.0808,-0.05057 0.54387,-0.407762 1.02894,-0.79375 l 0.88195,-0.701795 -0.67204,0.79375 c -0.36962,0.436563 -0.83264,0.79375 -1.02894,0.79375 -0.19629,0 -0.29075,-0.04138 -0.20991,-0.09195 z M 28.859639,16.263756 c -0.544396,-0.478938 -0.849884,-0.870797 -0.678857,-0.870797 0.171026,0 0.683799,0.396875 1.1395,0.881945 1.054319,1.12227 0.821274,1.116629 -0.460643,-0.01115 z M 26.49806,14.687404 c -0.644867,-0.416744 -0.08787,-0.416744 0.881944,0 0.465222,0.199912 0.525308,0.309791 0.176389,0.32258 -0.291042,0.01065 -0.767292,-0.134493 -1.058333,-0.32258 z m -2.182813,-0.946542 c 0.25466,-0.101907 0.558931,-0.08938 0.676159,0.02783 0.117224,0.117228 -0.09114,0.200604 -0.463021,0.185286 -0.410968,-0.01693 -0.494559,-0.10052 -0.213138,-0.213134 z"
         id="path591" />
      <path
         style="fill:#e79a06;stroke-width:0.352778"
         d="m 70.389965,89.616245 -4.093379,-4.093379 -3.970094,3.916991 c -4.308207,4.25058 -5.246624,4.702298 -6.330915,3.047456 -0.313359,-0.478243 -0.56974,-0.965687 -0.56974,-1.083211 0,-0.276987 7.003627,-7.172642 8.427928,-8.298003 0.599867,-0.473964 1.092109,-1.001882 1.093872,-1.173149 0.0018,-0.17127 0.344439,-0.607353 0.761507,-0.969073 0.750541,-0.650946 0.774911,-0.64207 2.38125,0.867233 4.347675,4.085054 8.854887,9.035211 8.854887,9.725099 0,0.857134 -1.165722,2.153416 -1.936524,2.153416 -0.288978,0 -2.367435,-1.842022 -4.618792,-4.09338 z M 87.223282,74.184959 c -1.74746,-2.007313 -4.136196,-4.480451 -5.308297,-5.495861 l -2.131095,-1.846196 1.556819,-1.295111 c 0.856248,-0.712311 1.566937,-1.429621 1.579305,-1.594022 0.01986,-0.263973 1.234796,-1.477698 6.071535,-6.065485 0.707601,-0.671177 1.611411,-1.220325 2.008469,-1.220325 0.732018,0 1.820263,1.201712 1.820263,2.010057 0,0.243078 -1.74625,2.224567 -3.880555,4.403312 -2.134306,2.178745 -3.880556,4.034554 -3.880556,4.124018 0,0.08946 1.757271,1.961007 3.905046,4.158989 3.305644,3.382913 3.867583,4.118508 3.66099,4.792334 -0.793306,2.587452 -1.730869,2.24524 -5.401924,-1.97171 z m -46.702306,2.563075 c -0.353666,-0.20599 -0.617361,-0.778446 -0.617361,-1.340231 0,-0.779219 0.800439,-1.776878 3.896851,-4.856981 l 3.89685,-3.876329 -3.89685,-3.89891 c -3.28155,-3.283286 -3.896851,-4.071324 -3.896851,-4.990853 0,-1.12896 0.941917,-1.979437 1.945284,-1.756439 0.554313,0.123194 11.107494,10.387609 11.107494,10.803559 0,0.145027 -0.338801,0.497166 -0.752891,0.782535 -0.414091,0.285369 -0.930028,0.73388 -1.146528,0.996696 -0.2165,0.262816 -1.24599,1.294691 -2.287753,2.293055 -1.041767,0.998365 -2.862291,2.807399 -4.04561,4.020072 -2.145048,2.198261 -2.955738,2.550076 -4.202635,1.823826 z M 64.598059,51.411298 c -1.067152,-1.092239 -3.567465,-3.553164 -5.55625,-5.468719 -1.988784,-1.915558 -3.615972,-3.674505 -3.615972,-3.90877 0,-0.60047 1.175558,-1.593628 1.88631,-1.593628 0.327815,0 2.373831,1.747996 4.546699,3.884433 2.172867,2.136439 4.070297,3.843002 4.216513,3.792361 0.146215,-0.05064 1.917925,-1.719259 3.937134,-3.708044 2.968561,-2.923836 3.868635,-3.615972 4.702316,-3.615972 0.567065,0 1.221528,0.1905 1.454361,0.423333 1.084834,1.084834 0.459359,2.054296 -4.60375,7.135675 l -5.027083,5.045223 z"
         id="path589" />
      <path
         style="fill:#9f6e11;stroke-width:0.352778"
         d="m 75.162403,88.85893 -1.215733,-1.322916 1.322917,1.215732 c 0.727604,0.668651 1.322917,1.263964 1.322917,1.322917 0,0.269388 -0.298528,0.01559 -1.430101,-1.215733 z M 60.563795,85.845104 c 0.132479,-0.347916 0.329738,-0.543708 0.438355,-0.435091 0.108616,0.108616 2.25e-4,0.393273 -0.24087,0.632576 -0.34841,0.345814 -0.38893,0.305294 -0.197485,-0.197485 z m 2.093987,-2.013257 c 0.351186,-0.388055 0.717895,-0.705555 0.814909,-0.705555 0.09701,0 -0.110945,0.3175 -0.462132,0.705555 -0.351186,0.388056 -0.717895,0.705556 -0.814909,0.705556 -0.09701,0 0.110945,-0.3175 0.462132,-0.705556 z m 5.096287,-2.38125 -1.215732,-1.322916 1.322917,1.215732 c 1.231342,1.131573 1.48512,1.430101 1.215732,1.430101 -0.05895,0 -0.654265,-0.595313 -1.322917,-1.322917 z M 43.431393,76.290319 c 0,-0.07325 0.277812,-0.351067 0.617361,-0.617361 0.559527,-0.43881 0.572005,-0.426332 0.133195,0.133195 -0.460858,0.587639 -0.750556,0.774516 -0.750556,0.484166 z m 1.08773,-1.369871 c 0.08085,-0.05057 0.543867,-0.407762 1.028937,-0.79375 l 0.881944,-0.701795 -0.672038,0.79375 c -0.369619,0.436562 -0.83264,0.79375 -1.028933,0.79375 -0.196296,0 -0.290752,-0.04138 -0.20991,-0.09196 z m 39.294283,-4.229573 -2.105625,-2.204861 2.204861,2.105625 c 1.212674,1.158091 2.204862,2.150279 2.204862,2.204861 0,0.260667 -0.348153,-0.0575 -2.304098,-2.105625 z M 50.686017,68.911771 c 0.132479,-0.347917 0.329738,-0.543708 0.438355,-0.435092 0.108617,0.108617 2.26e-4,0.393274 -0.24087,0.632577 -0.34841,0.345814 -0.38893,0.305294 -0.197485,-0.197485 z m 29.434264,-2.476422 c 0,-0.06071 0.515938,-0.576651 1.146528,-1.146528 l 1.146528,-1.03614 -1.03614,1.146527 c -0.965828,1.068727 -1.256916,1.308683 -1.256916,1.036141 z M 48.72306,62.488792 c -1.445497,-1.455208 -2.548799,-2.645833 -2.451785,-2.645833 0.09701,0 1.359066,1.190625 2.804562,2.645833 1.445497,1.455208 2.548799,2.645833 2.451785,2.645833 -0.09701,0 -1.359066,-1.190625 -2.804562,-2.645833 z m 38.452777,-3.351389 c 0.291042,-0.188087 0.687917,-0.341972 0.881944,-0.341972 0.194028,0 0.114653,0.153885 -0.176389,0.341972 -0.291041,0.188087 -0.687916,0.341972 -0.881944,0.341972 -0.194028,0 -0.114653,-0.153885 0.176389,-0.341972 z m 1.665894,-1.428891 c 0.431172,-0.453732 0.852188,-0.754412 0.935588,-0.668175 0.0834,0.08623 -0.269378,0.457468 -0.78395,0.824967 l -0.935588,0.668179 z m -24.789436,-6.773192 -1.394513,-1.499306 1.499305,1.394513 c 1.39434,1.296882 1.661418,1.604098 1.394513,1.604098 -0.05764,0 -0.732324,-0.674687 -1.499305,-1.499305 z m -6.521842,-6.173611 -1.928227,-2.028472 2.028472,1.928226 c 1.11566,1.060524 2.028473,1.973337 2.028473,2.028473 0,0.261849 -0.337334,-0.04371 -2.128718,-1.928227 z"
         id="path587" />
      <path
         style="fill:#605c59;stroke-width:0.352778"
         d="m 26.49806,118.6446 c 0.485069,-0.25337 1.318507,-0.74689 1.852083,-1.09673 0.533577,-0.34983 0.970139,-0.55952 0.970139,-0.46598 0,0.29462 -2.785766,2.02784 -3.255631,2.02556 -0.246694,-0.001 -0.05166,-0.20947 0.433409,-0.46285 z m 74.03833,-4.03289 c -0.44785,-0.57106 -0.43125,-0.57855 0.22139,-0.0998 0.38806,0.28465 0.7717,0.56246 0.85255,0.61736 0.0808,0.0549 -0.0188,0.0998 -0.22139,0.0998 -0.20261,0 -0.58625,-0.27781 -0.85255,-0.61736 z M 37.786949,108.4159 c 0,-0.0607 0.515937,-0.57665 1.146527,-1.14652 l 1.146528,-1.03614 -1.03614,1.14652 c -0.965828,1.06873 -1.256915,1.30869 -1.256915,1.03614 z m 80.258021,-2.00287 c -0.13185,-0.41543 -0.73579,-1.3402 -1.3421,-2.05506 -1.03445,-1.21965 -1.04134,-1.2454 -0.11174,-0.41779 1.03384,0.92041 2.15757,2.76418 1.86376,3.05798 -0.0936,0.0936 -0.27806,-0.1697 -0.40992,-0.58513 z M 17.892381,101.76987 c 0.367499,-0.51457 0.738734,-0.86735 0.824967,-0.78395 0.08624,0.0834 -0.214443,0.50442 -0.668175,0.93559 l -0.824971,0.78395 z m 28.616017,-2.080803 c 0.431172,-0.453732 0.852188,-0.754412 0.935588,-0.668175 0.0834,0.08623 -0.269377,0.457468 -0.78395,0.824967 l -0.935588,0.668181 z m 60.404002,-5.185692 -1.21573,-1.322917 1.32292,1.215732 c 0.7276,0.668652 1.32291,1.263964 1.32291,1.322917 0,0.269388 -0.29852,0.01559 -1.4301,-1.215732 z M 28.692232,91.052164 c 0.527695,-0.55511 1.022713,-0.938333 1.100035,-0.851609 0.07733,0.08672 -0.354425,0.540903 -0.959446,1.00929 l -1.100039,0.851609 z m 43.689763,-5.192018 c -0.86057,-1.01855 -1.12286,-1.455035 -0.58287,-0.969966 0.90969,0.817164 2.515418,2.822445 2.25976,2.82205 -0.06172,-9.5e-5 -0.816317,-0.833533 -1.67689,-1.852084 z m 25.710963,-0.176216 -1.215732,-1.322916 1.322916,1.215732 c 0.727604,0.668651 1.322917,1.263964 1.322917,1.322917 0,0.269388 -0.298528,0.01559 -1.430101,-1.215733 z M 36.033865,84.008236 c 0,-0.194028 0.153885,-0.590903 0.341972,-0.881944 0.188087,-0.291042 0.341973,-0.370417 0.341973,-0.176389 0,0.194027 -0.153886,0.590902 -0.341973,0.881944 -0.188087,0.291042 -0.341972,0.370417 -0.341972,0.176389 z M 48.920216,70.966677 c 0.376633,-0.284868 0.834193,-0.522993 1.016798,-0.529167 0.182605,-0.0062 0.02385,0.221858 -0.352778,0.50673 -0.376633,0.284868 -0.834192,0.522993 -1.016797,0.529167 -0.182605,0.0062 -0.02385,-0.221859 0.352777,-0.50673 z M 94.58417,51.97146 c 0,-0.06071 0.515938,-0.576651 1.146528,-1.146528 l 1.146528,-1.03614 -1.03614,1.146528 c -0.965828,1.068726 -1.256916,1.308682 -1.256916,1.03614 z M 74.652226,45.37907 c 0.351187,-0.388056 0.717896,-0.705556 0.81491,-0.705556 0.09701,0 -0.110946,0.3175 -0.462132,0.705556 -0.351187,0.388055 -0.717896,0.705555 -0.81491,0.705555 -0.09701,0 0.110945,-0.3175 0.462132,-0.705555 z m 28.575004,-2.116667 c 0.35118,-0.388055 0.71789,-0.705555 0.81491,-0.705555 0.097,0 -0.11095,0.3175 -0.46214,0.705555 -0.35118,0.388056 -0.71789,0.705556 -0.81491,0.705556 -0.097,0 0.11095,-0.3175 0.46214,-0.705556 z m -52.933269,-5.732639 -1.394513,-1.499305 1.499306,1.394513 c 1.39434,1.296881 1.661417,1.604098 1.394513,1.604098 -0.05764,0 -0.732324,-0.674688 -1.499306,-1.499306 z m 35.55056,-3.290965 c 0.33493,-0.349684 0.684896,-0.559851 0.777705,-0.467042 0.09281,0.09281 -0.181222,0.378911 -0.608961,0.635786 -0.74306,0.446236 -0.750577,0.438718 -0.168744,-0.168744 z m 28.142429,-1.446258 c 0,-0.196293 0.35719,-0.659313 0.79375,-1.028933 l 0.79375,-0.672038 -0.7018,0.881944 c -0.38599,0.48507 -0.74317,0.948091 -0.79375,1.028937 -0.0506,0.08084 -0.092,-0.01361 -0.092,-0.20991 z M 15.901843,29.135026 c -0.621778,-0.785061 -1.071682,-1.481984 -0.999783,-1.548719 0.0719,-0.06674 0.65169,0.575581 1.288429,1.427377 1.454436,1.945665 1.230729,2.039708 -0.288646,0.121342 z m 25.925452,-0.07193 -1.394513,-1.499306 1.499305,1.394513 c 1.39434,1.296882 1.661418,1.604098 1.394513,1.604098 -0.05764,0 -0.732324,-0.674687 -1.499305,-1.499305 z m 51.192055,-2.13188 c 0.132479,-0.347917 0.329738,-0.543708 0.438355,-0.435092 0.108617,0.108617 2.26e-4,0.393274 -0.24087,0.632577 -0.34841,0.345814 -0.38893,0.305294 -0.197485,-0.197485 z m -61.775388,-8.451451 -1.394513,-1.499306 1.499305,1.394513 c 0.824618,0.766981 1.499306,1.441669 1.499306,1.499305 0,0.266905 -0.307217,-1.72e-4 -1.604098,-1.394512 z m 73.837728,-2.998611 c 0.45689,-0.436563 1.0203,-0.788924 1.25201,-0.783022 0.23172,0.0059 0.1038,0.186873 -0.28425,0.402159 -0.38806,0.21529 -0.95146,0.567648 -1.25201,0.783022 -0.30055,0.215374 -0.17264,0.0344 0.28425,-0.402159 z"
         id="path585" />
      <path
         style="fill:#49371c;stroke-width:0.352778"
         d="m 23.32306,119.67992 c 0,-0.0744 0.39207,-0.21022 0.871269,-0.30182 0.479196,-0.0916 0.78733,-0.0307 0.684735,0.13526 -0.180651,0.2923 -1.556004,0.43952 -1.556004,0.16656 z m 12.7,-9.27627 c 0,-0.19629 0.357187,-0.65931 0.79375,-1.02893 l 0.79375,-0.67204 -0.701795,0.88194 c -0.385989,0.48507 -0.743176,0.94809 -0.79375,1.02894 -0.05057,0.0808 -0.09195,-0.0136 -0.09195,-0.20991 z m 82.74907,-1.77395 c -0.19145,-0.50278 -0.15093,-0.5433 0.19748,-0.19748 0.2411,0.2393 0.34949,0.52396 0.24087,0.63257 -0.10861,0.10862 -0.30587,-0.0872 -0.43835,-0.43509 z m -74.81157,-6.45341 c 0.351186,-0.38805 0.717895,-0.70555 0.814909,-0.70555 0.09701,0 -0.110945,0.3175 -0.462132,0.70555 -0.351186,0.38806 -0.717895,0.70556 -0.814909,0.70556 -0.09701,0 0.110945,-0.3175 0.462132,-0.70556 z m 43.875832,-0.97014 c -0.43881,-0.55952 -0.426332,-0.572 0.133195,-0.13319 0.587639,0.46086 0.774516,0.75055 0.484166,0.75055 -0.07325,0 -0.351067,-0.27781 -0.617361,-0.61736 z m -68.393888,-0.92694 c 0,-0.0733 0.277813,-0.351069 0.617361,-0.617363 0.559527,-0.43881 0.572005,-0.426332 0.133195,0.133194 -0.460858,0.587639 -0.750556,0.774519 -0.750556,0.484169 z m 90.118126,-3.130002 -1.39452,-1.499305 1.49931,1.394512 c 1.39434,1.296882 1.66142,1.604099 1.39451,1.604099 -0.0576,0 -0.73232,-0.674688 -1.4993,-1.499306 z m -29.633336,-3.880555 -1.394513,-1.499306 1.499306,1.394513 c 1.39434,1.296882 1.661417,1.604098 1.394513,1.604098 -0.05764,0 -0.732324,-0.674687 -1.499306,-1.499305 z m -24.677846,-2.38125 c 0.351187,-0.388056 0.717896,-0.705556 0.81491,-0.705556 0.09701,0 -0.110945,0.3175 -0.462132,0.705556 -0.351187,0.388055 -0.717896,0.705555 -0.814909,0.705555 -0.09701,0 0.110945,-0.3175 0.462131,-0.705555 z m 1.940278,-1.743068 c 0,-0.182577 0.156933,-0.42895 0.348739,-0.54749 0.199975,-0.123592 0.259115,0.01803 0.138645,0.331957 -0.234523,0.611159 -0.487384,0.722979 -0.487384,0.215533 z m 43.193084,-1.167349 -1.03614,-1.146528 1.14653,1.03614 c 1.06872,0.965828 1.30868,1.256916 1.03614,1.256916 -0.0607,0 -0.57665,-0.515938 -1.14653,-1.146528 z m -30.519786,-4.7625 -0.855242,-0.970139 0.970138,0.855243 c 0.906742,0.799355 1.13192,1.085035 0.855243,1.085035 -0.06319,0 -0.499752,-0.436563 -0.970139,-0.970139 z m -6.949059,0.06042 c 0.334931,-0.349684 0.684897,-0.559851 0.777706,-0.467043 0.09281,0.09281 -0.181222,0.378912 -0.608962,0.635787 -0.743059,0.446236 -0.750577,0.438718 -0.168744,-0.168744 z m -24.774239,-1.69292 c 0,-0.07326 0.277813,-0.351067 0.617361,-0.617361 0.559527,-0.43881 0.572005,-0.426332 0.133195,0.133194 -0.460858,0.58764 -0.750556,0.774517 -0.750556,0.484167 z m 26.717036,-0.263359 c 0.239303,-0.241096 0.52396,-0.349487 0.632576,-0.24087 0.108617,0.108617 -0.08718,0.305876 -0.435091,0.438355 -0.502779,0.191445 -0.543299,0.150925 -0.197485,-0.197485 z m 0.799631,-0.800425 c 0,-0.07626 0.246369,-0.233186 0.54749,-0.348738 0.313944,-0.120471 0.455549,-0.06133 0.331956,0.138645 -0.207172,0.335213 -0.879446,0.495811 -0.879446,0.210093 z m 24.329615,-2.94816 -1.928227,-2.028473 2.028472,1.928227 c 1.11566,1.060524 2.028473,1.973337 2.028473,2.028473 0,0.261849 -0.337333,-0.04371 -2.128718,-1.928227 z m -2.6673,-2.998611 -0.672038,-0.79375 0.79375,0.672038 c 0.745928,0.63155 0.954349,0.915462 0.672038,0.915462 -0.06694,0 -0.42413,-0.357188 -0.79375,-0.79375 z M 50.134171,69.940319 c 0,-0.07325 0.277812,-0.351067 0.617361,-0.617361 0.559526,-0.43881 0.572004,-0.426332 0.133195,0.133195 -0.460859,0.587639 -0.750556,0.774516 -0.750556,0.484166 z m 30.845862,-1.718888 -1.03614,-1.146528 1.146527,1.03614 c 1.068726,0.965828 1.308682,1.256915 1.03614,1.256915 -0.06071,0 -0.57665,-0.515937 -1.146527,-1.146527 z m -29.100964,-2.998611 -1.215732,-1.322917 1.322917,1.215732 c 1.231343,1.131574 1.48512,1.430101 1.215732,1.430101 -0.05895,0 -0.654265,-0.595312 -1.322917,-1.322916 z m 31.318218,-2.222642 c 0.431172,-0.453732 0.852187,-0.754411 0.935588,-0.668175 0.0834,0.08623 -0.269378,0.457468 -0.78395,0.824968 l -0.935588,0.668178 z M 44.489726,58.255459 c -0.856908,-0.873125 -1.47864,-1.5875 -1.381626,-1.5875 0.09701,0 0.877496,0.714375 1.734404,1.5875 0.856908,0.873125 1.47864,1.5875 1.381626,1.5875 -0.09701,0 -0.877496,-0.714375 -1.734404,-1.5875 z m -2.668026,-3.086806 -1.03614,-1.146528 1.146527,1.03614 c 1.068727,0.965828 1.308682,1.256916 1.03614,1.256916 -0.06071,0 -0.57665,-0.515938 -1.146527,-1.146528 z m 25.598582,-2.557639 c 0.658205,-0.679097 1.276113,-1.234722 1.373127,-1.234722 0.09701,0 -0.362144,0.555625 -1.02035,1.234722 -0.658205,0.679097 -1.276113,1.234722 -1.373127,1.234722 -0.09701,0 0.362144,-0.555625 1.02035,-1.234722 z m 26.14097,0.280628 c 0.256875,-0.42774 0.542978,-0.70177 0.635787,-0.608962 0.09281,0.09281 -0.117359,0.442775 -0.467043,0.777706 -0.607462,0.581833 -0.61498,0.574315 -0.168744,-0.168744 z m -32.150243,-4.249378 -1.928227,-2.028472 2.028472,1.928227 c 1.884514,1.791384 2.190076,2.128717 1.928227,2.128717 -0.05514,0 -0.967948,-0.912812 -2.028472,-2.028472 z M 98.8469,47.043133 c 0.08085,-0.0549 0.464492,-0.332715 0.852548,-0.617361 0.652642,-0.478723 0.669242,-0.471237 0.221389,0.09983 -0.266294,0.339548 -0.64994,0.617361 -0.852547,0.617361 -0.202608,0 -0.302232,-0.04492 -0.22139,-0.09983 z m 2.96921,-2.369619 c 0.35119,-0.388055 0.7179,-0.705555 0.81491,-0.705555 0.097,0 -0.11094,0.3175 -0.46213,0.705555 -0.35118,0.388056 -0.71789,0.705556 -0.81491,0.705556 -0.097,0 0.11095,-0.3175 0.46213,-0.705556 z M 76.416115,43.615181 c 0.351187,-0.388056 0.717895,-0.705556 0.814909,-0.705556 0.09701,0 -0.110945,0.3175 -0.462131,0.705556 -0.351187,0.388056 -0.717896,0.705556 -0.81491,0.705556 -0.09701,0 0.110945,-0.3175 0.462132,-0.705556 z m -23.478712,-3.439583 -1.215732,-1.322917 1.322916,1.215732 c 1.231343,1.131574 1.485121,1.430101 1.215732,1.430101 -0.05895,0 -0.654265,-0.595312 -1.322916,-1.322916 z m -30.529805,-4.7625 -0.672038,-0.79375 0.79375,0.672038 c 0.745927,0.63155 0.954348,0.915462 0.672038,0.915462 -0.06694,0 -0.424131,-0.357188 -0.79375,-0.79375 z m 89.639072,-0.970139 c 0.35119,-0.388056 0.7179,-0.705556 0.81491,-0.705556 0.097,0 -0.11095,0.3175 -0.46213,0.705556 -0.35119,0.388055 -0.7179,0.705555 -0.81491,0.705555 -0.097,0 0.11094,-0.3175 0.46213,-0.705555 z m -67.534743,-2.618715 -1.212526,-1.43823 1.371276,1.311159 c 0.7542,0.721134 1.299834,1.36834 1.212521,1.438229 -0.08731,0.06989 -0.704384,-0.520132 -1.371271,-1.311158 z M 14.018031,25.786265 c -0.120985,-0.315277 -0.203722,-0.917437 -0.183861,-1.338132 0.02282,-0.483549 0.142657,-0.311616 0.325773,0.467434 0.308158,1.311035 0.22436,1.825188 -0.141912,0.870698 z m 80.918917,-0.648723 c 0,-0.07325 0.277812,-0.351067 0.617361,-0.617361 0.559527,-0.43881 0.572004,-0.426332 0.133195,0.133195 -0.460859,0.587639 -0.750556,0.774516 -0.750556,0.484166 z m -61.049545,-4.011944 -1.215732,-1.322917 1.322917,1.215732 c 1.231342,1.131574 1.48512,1.430102 1.215732,1.430102 -0.05895,0 -0.654265,-0.595313 -1.322917,-1.322917 z m 80.407327,-5.997222 c -0.43881,-0.559527 -0.42634,-0.572005 0.13319,-0.133195 0.58764,0.460858 0.77452,0.750556 0.48417,0.750556 -0.0733,0 -0.35107,-0.277813 -0.61736,-0.617361 z m -5.68764,-1.042716 c 0.43656,-0.08409 1.15093,-0.08409 1.5875,0 0.43656,0.08408 0.0794,0.152883 -0.79375,0.152883 -0.87313,0 -1.23032,-0.0688 -0.79375,-0.152883 z"
         id="path583" />
      <path
         style="fill:#0a0401;stroke-width:0.352778"
         d="m 107.81334,119.24181 c -0.77611,-0.29833 -1.75169,-0.62419 -2.16794,-0.72414 -0.75721,-0.18183 -4.81382,-3.96946 -6.475119,-6.04578 -0.485069,-0.60625 -1.040694,-1.11602 -1.234722,-1.13282 -0.194028,-0.0168 -1.305278,-1.1198 -2.469444,-2.45111 -1.164167,-1.33131 -2.324474,-2.43357 -2.57846,-2.44945 -0.253986,-0.0159 -0.363679,-0.18764 -0.243763,-0.38166 0.119917,-0.19403 -0.03883,-0.35278 -0.352777,-0.35278 -0.313944,0 -0.472694,-0.15875 -0.352778,-0.35278 0.119916,-0.19403 -0.03883,-0.35278 -0.352778,-0.35278 -0.313944,0 -0.472694,-0.15875 -0.352778,-0.35277 0.119916,-0.19403 -0.05592,-0.35278 -0.390754,-0.35278 -0.334832,0 -0.52391,-0.0849 -0.420176,-0.18861 0.177091,-0.17709 -18.77284,-19.40414 -22.359433,-22.686406 l -1.650919,-1.510838 -2.172222,2.138761 c -1.194724,1.176317 -2.317122,2.138758 -2.49422,2.138758 -0.177098,0 -0.321998,0.162027 -0.321998,0.360059 0,0.198032 -1.531997,1.864907 -3.404436,3.704167 -1.872442,1.839259 -3.311835,3.344107 -3.198657,3.344107 0.113182,0 -0.766851,0.912813 -1.955623,2.028472 -1.188773,1.11566 -6.475018,6.314722 -11.747208,11.55347 -12.7144,12.63375 -13.104805,12.97863 -15.677408,13.84903 -1.748113,0.59145 -4.855849,0.32218 -6.539611,-0.56663 -1.71334,-0.90443 -3.733846,-2.96098 -4.524626,-4.60535 -0.84122,-1.74926 -0.730052,-5.08299 0.244786,-7.34053 0.764557,-1.77059 3.250695,-4.66978 6.061992,-7.069156 0.73885,-0.630591 1.233,-1.146528 1.098112,-1.146528 -0.134888,0 1.520441,-1.706563 3.678509,-3.792361 3.659075,-3.536541 10.158596,-10.038239 11.82334,-11.827291 0.4015,-0.431483 1.339893,-1.300452 2.085312,-1.931042 0.745423,-0.630591 1.270328,-1.146528 1.16646,-1.146528 -0.290125,0 6.425745,-6.628134 7.799927,-7.698024 0.667593,-0.519769 1.544189,-1.335281 1.947997,-1.812251 0.403803,-0.47697 1.250128,-1.339617 1.880718,-1.916995 0.63059,-0.577377 1.146528,-1.177787 1.146528,-1.334247 0,-0.156461 -4.051801,-4.303992 -9.004,-9.216736 -4.952203,-4.912744 -8.894495,-9.041772 -8.760651,-9.175616 0.133844,-0.133844 -0.03059,-0.243353 -0.365428,-0.243353 -0.334832,0 -0.510671,-0.15875 -0.390754,-0.352778 0.119916,-0.194028 -0.03883,-0.352778 -0.352778,-0.352778 -0.313944,0 -0.472694,-0.15875 -0.352778,-0.352777 0.119916,-0.194028 -0.05592,-0.352778 -0.390754,-0.352778 -0.334832,0 -0.514453,-0.09433 -0.399161,-0.209621 0.252275,-0.252275 -3.234895,-3.80052 -4.037962,-4.108686 -0.311044,-0.119359 -1.018893,-0.820924 -1.572997,-1.559038 -1.682355,-2.241035 -3.992051,-4.403513 -4.420485,-4.138729 -0.249266,0.154055 -0.302585,0.08944 -0.141397,-0.171372 0.162031,-0.262167 -0.971529,-1.584403 -3.032298,-3.537024 -2.922813,-2.769426 -5.989962,-6.383863 -5.417231,-6.383863 0.115895,0 0.05783,-0.285669 -0.129025,-0.634817 -0.186859,-0.349151 -0.447347,-1.556035 -0.578862,-2.681968 -0.184993,-1.583775 -0.09877,-2.358379 0.380911,-3.422128 0.341017,-0.756235 0.735408,-1.374976 0.876427,-1.374976 0.141023,0 0.444349,-0.453743 0.67406,-1.008316 0.80463,-1.94255 3.932241,-3.577795 6.842979,-3.577795 1.828895,0 4.819406,0.905355 4.819406,1.459039 0,0.167669 0.201574,0.30485 0.44794,0.30485 0.246366,0 1.949795,1.508125 3.785393,3.351389 1.835598,1.843264 3.527387,3.351389 3.759528,3.351389 0.232139,0 0.4734,0.233902 0.536134,0.519782 0.121137,0.552034 3.963558,4.467303 20.317707,20.702916 l 10.184014,10.110194 2.445057,-2.394666 c 1.344785,-1.317067 3.495382,-3.486746 4.779108,-4.821512 1.283723,-1.334767 2.936491,-2.94144 3.672812,-3.57039 0.736321,-0.62895 1.222438,-1.143547 1.080262,-1.143547 -0.239183,0 4.811614,-5.016122 8.953821,-8.892346 0.975882,-0.913221 1.774334,-1.852492 1.774334,-2.087269 0,-0.234778 0.09037,-0.336501 0.200809,-0.226057 0.110447,0.110444 0.86451,-0.529904 1.675694,-1.423 1.90046,-2.092349 3.326201,-3.494863 5.00355,-4.922022 0.741136,-0.63059 1.210461,-1.146528 1.042945,-1.146528 -0.455391,0 5.999159,-6.128822 7.518409,-7.138991 1.68619,-1.121177 3.01825,-1.586822 5.11176,-1.786907 1.69878,-0.162363 3.82067,0.350294 4.57594,1.105563 0.22661,0.226603 0.58724,0.412002 0.80141,0.412002 1.24109,0 3.9032,4.332679 4.16748,6.782735 0.35309,3.27334 -0.97716,5.700821 -5.64397,10.29929 -1.29539,1.276414 -2.23529,2.320752 -2.08868,2.320752 0.14661,0 -0.26155,0.434249 -0.90703,0.964999 -0.64548,0.530751 -2.45475,2.237313 -4.02061,3.792361 -3.78209,3.755987 -7.241272,6.884307 -7.612412,6.884307 -0.165163,0 -0.300295,0.210813 -0.300295,0.468475 0,0.257662 -0.971285,1.408599 -2.158414,2.557639 -1.187125,1.149039 -2.417438,2.392179 -2.734028,2.762528 -1.454464,1.701462 -2.515891,2.758878 -2.515891,2.506384 0,-0.151959 -0.350534,0.169344 -0.778965,0.714008 -0.428431,0.544661 -1.320899,1.478883 -1.98326,2.076044 -0.662365,0.597165 -3.01135,2.875866 -5.219968,5.063783 l -4.01567,3.978025 1.324625,1.104074 c 0.728546,0.60724 2.674002,2.53777 4.323238,4.290067 2.754383,2.926507 3.936411,4.116716 9.164147,9.227584 8.309123,8.123371 23.147923,23.549508 23.709013,24.647458 1.4347,2.80743 1.57207,5.26948 0.4372,7.83563 -2.02792,4.58549 -6.47971,6.78685 -10.55619,5.21993 z"
         id="path581" />
    </g>
  </g>
</svg>
