<?xml version="1.0" encoding="UTF-8" ?>
<svg xmlns="http://www.w3.org/2000/svg" width="512" height="512" id="fe_youtube" version="1.1" viewBox="0 0 135.49791 135.49791">
    <g transform="translate(-1.1027181,3.308168)">
      <path
         style="fill:#9d9d9d;stroke-width:0.23125"
         d="m 64.68785,126.80285 -2.428125,-0.14072 2.3125,-0.0417 c 1.271875,-0.0229 2.468594,0.0591 2.659375,0.18244 0.190781,0.12329 0.242813,0.20539 0.115625,0.18244 -0.127187,-0.023 -1.323906,-0.10505 -2.659375,-0.18244 z m 5.72955,-0.16962 c 0.543909,-0.0489 1.376409,-0.0482 1.85,0.002 0.47359,0.0497 0.02858,0.0897 -0.988925,0.0888 -1.0175,-9.3e-4 -1.404985,-0.0415 -0.861075,-0.0904 z m 6.682195,-0.52889 c 0.10526,-0.0987 0.763724,-0.24069 1.463255,-0.3156 1.515465,-0.16229 1.297657,-0.0174 -0.42263,0.28118 -0.677602,0.1176 -1.145883,0.13309 -1.040625,0.0344 z M 57.0566,125.86651 c -0.389878,-0.13251 -0.201631,-0.153 0.578125,-0.0629 0.635938,0.0735 1.19961,0.17224 1.252605,0.21954 0.182096,0.16251 -1.252975,0.0398 -1.83073,-0.1566 z m -3.57065,-0.71119 c -0.501202,-0.11746 -0.969483,-0.27238 -1.040625,-0.34427 -0.212896,-0.21512 1.702099,0.18074 1.940338,0.4011 0.120828,0.11176 0.172859,0.19275 0.115625,0.17997 -0.05724,-0.0128 -0.514136,-0.11933 -1.015338,-0.2368 z m 29.2394,-0.20247 c 0.790683,-0.25322 1.398651,-0.25322 0.809375,0 -0.254375,0.10931 -0.670625,0.19568 -0.925,0.19194 -0.371801,-0.005 -0.349125,-0.0431 0.115625,-0.19194 z m 2.679048,-0.6775 c 0.223107,-0.20961 1.9136,-0.61809 1.714702,-0.41433 -0.06359,0.0652 -0.523023,0.22975 -1.020952,0.36578 -0.497932,0.13603 -0.81012,0.15788 -0.69375,0.0486 z m -36.022407,-0.40547 c 0.166932,-0.0668 0.366385,-0.0586 0.44323,0.0183 0.07684,0.0768 -0.05974,0.13149 -0.303516,0.12145 -0.269395,-0.0111 -0.324189,-0.0659 -0.139714,-0.13971 z M 87.81285,123.4767 c 0,-0.0488 0.208269,-0.14312 0.462819,-0.20969 0.254551,-0.0666 0.404503,-0.0267 0.333227,0.0887 -0.12447,0.20139 -0.796046,0.3035 -0.796046,0.12103 z m 2.08125,-0.70445 c 0,-0.0636 0.208125,-0.22701 0.4625,-0.36315 0.254375,-0.13614 0.4625,-0.19549 0.4625,-0.1319 0,0.0636 -0.208125,0.22701 -0.4625,0.36315 -0.254375,0.13614 -0.4625,0.19549 -0.4625,0.1319 z m 1.85,-0.90307 c 0,-0.0597 0.335828,-0.22566 0.746283,-0.36874 0.410457,-0.14309 0.644598,-0.16496 0.520313,-0.0486 -0.263327,0.24652 -1.266596,0.57711 -1.266596,0.41736 z m 2.3125,-0.94693 c 0,-0.0636 0.208125,-0.22701 0.4625,-0.36315 0.254375,-0.13614 0.4625,-0.19549 0.4625,-0.1319 0,0.0636 -0.208125,0.22701 -0.4625,0.36315 -0.254375,0.13614 -0.4625,0.19549 -0.4625,0.1319 z m -52.607738,-0.3605 c -0.08102,-0.13109 0.01182,-0.16986 0.217602,-0.0909 0.400622,0.15374 0.473922,0.31949 0.141285,0.31949 -0.119682,0 -0.281182,-0.10287 -0.358887,-0.2286 z M 95.4441,120.2241 c 0,-0.0636 0.312188,-0.27706 0.69375,-0.47438 0.381563,-0.19731 0.69375,-0.30672 0.69375,-0.24312 0,0.0636 -0.312187,0.27706 -0.69375,0.47438 -0.381562,0.19731 -0.69375,0.30672 -0.69375,0.24312 z m -55.629238,-0.48713 c -0.42326,-0.3391 -0.41588,-0.34392 0.129238,-0.0843 0.707863,0.33712 0.839054,0.44393 0.545241,0.44393 -0.124077,0 -0.427592,-0.16183 -0.674479,-0.35963 z m -1.75026,-0.97006 c -0.293574,-0.37434 -0.282692,-0.37924 0.145123,-0.0654 0.254375,0.18658 0.50586,0.36869 0.558855,0.40468 0.05299,0.036 -0.0123,0.0654 -0.145123,0.0654 -0.132812,0 -0.384296,-0.18211 -0.558855,-0.40469 z m 59.460748,0.31738 c 0,-0.048 0.18211,-0.23013 0.404688,-0.40469 0.366776,-0.28764 0.374955,-0.27946 0.08731,0.0873 -0.302098,0.38521 -0.491998,0.50771 -0.491998,0.31738 z m -60.616998,-1.01113 c -0.293574,-0.37434 -0.282692,-0.37924 0.145123,-0.0654 0.254375,0.18658 0.50586,0.36869 0.558855,0.40468 0.05299,0.036 -0.0123,0.0654 -0.145123,0.0654 -0.132812,0 -0.384296,-0.18211 -0.558855,-0.40469 z m -1.088406,-0.63183 c -0.868307,-0.47843 -1.14903,-0.87066 -0.331115,-0.46263 0.410341,0.2047 0.806315,0.46966 0.879945,0.58879 0.159838,0.25863 0.142108,0.25455 -0.54883,-0.12616 z m 64.268424,0.0461 c 0.053,-0.036 0.30448,-0.2181 0.55886,-0.40468 0.42781,-0.31381 0.43869,-0.30891 0.14512,0.0654 -0.17456,0.22258 -0.42604,0.40469 -0.55886,0.40469 -0.13281,0 -0.19811,-0.0295 -0.14512,-0.0654 z m -65.955018,-1.26425 c -0.287645,-0.36677 -0.279466,-0.37495 0.08731,-0.0873 0.222578,0.17456 0.404687,0.35667 0.404687,0.40469 0,0.19033 -0.1899,0.0678 -0.491998,-0.31738 z m -1.033098,-0.80937 -0.440529,-0.52032 0.520313,0.44053 c 0.488964,0.41399 0.625586,0.6001 0.440529,0.6001 -0.04388,0 -0.278023,-0.23414 -0.520313,-0.52031 z m 70.225616,-0.23125 c 0.053,-0.0318 0.40854,-0.31797 0.79011,-0.63594 l 0.69375,-0.57813 -0.56063,0.63594 c -0.30834,0.34977 -0.66389,0.63594 -0.7901,0.63594 -0.12622,0 -0.18612,-0.026 -0.13313,-0.0578 z m -71.273767,-0.57813 c -0.287645,-0.36677 -0.279466,-0.37495 0.08731,-0.0873 0.222578,0.17456 0.404687,0.35667 0.404687,0.40469 0,0.19033 -0.1899,0.0678 -0.491997,-0.31738 z m -1.033099,-0.80937 -0.440529,-0.52031 0.520313,0.44052 c 0.488965,0.41399 0.625587,0.6001 0.440528,0.6001 -0.04388,0 -0.278022,-0.23414 -0.520312,-0.52031 z m -1.493603,-1.27188 -0.796926,-0.86719 0.867188,0.79693 c 0.807159,0.74176 0.973513,0.93745 0.796926,0.93745 -0.03864,0 -0.428878,-0.39023 -0.867188,-0.86719 z m -2.998906,-2.775 -1.96052,-2.02343 2.023438,1.96051 c 1.879308,1.82088 2.128779,2.08636 1.960519,2.08636 -0.0346,0 -0.945152,-0.91055 -2.023437,-2.02344 z m -2.782344,-3.00625 -0.796926,-0.86719 0.867188,0.79693 c 0.807159,0.74176 0.973513,0.93745 0.796926,0.93745 -0.03864,0 -0.428878,-0.39023 -0.867188,-0.86719 z m -1.281397,-1.50312 -0.440529,-0.52032 0.520313,0.44053 c 0.488965,0.41399 0.625587,0.6001 0.440528,0.6001 -0.04388,0 -0.278022,-0.23414 -0.520312,-0.52031 z m 91.828226,-0.86719 c 0.2302,-0.25438 0.47058,-0.4625 0.53418,-0.4625 0.0636,0 -0.0727,0.20812 -0.30293,0.4625 -0.23021,0.25438 -0.47059,0.4625 -0.53419,0.4625 -0.0636,0 0.0727,-0.20812 0.30294,-0.4625 z m -93.375629,-0.98281 c -0.564856,-0.66774 -1.147371,-1.47422 -1.294478,-1.79219 -0.22654,-0.48966 -0.222513,-0.5109 0.02632,-0.13878 0.161581,0.24164 0.791875,1.04813 1.400652,1.79219 0.608778,0.74406 1.05909,1.35284 1.000694,1.35284 -0.0584,0 -0.56833,-0.54633 -1.133186,-1.21406 z m -2.044498,-2.89063 c -0.287645,-0.36677 -0.279466,-0.37495 0.08731,-0.0873 0.222578,0.17456 0.404687,0.35667 0.404687,0.40469 0,0.19033 -0.189899,0.0678 -0.491997,-0.31738 z m 99.004497,-1.44531 c 0.13614,-0.254375 0.29955,-0.4625 0.36315,-0.4625 0.0636,0 0.004,0.208125 -0.1319,0.4625 -0.13614,0.254375 -0.29955,0.4625 -0.36315,0.4625 -0.0636,0 -0.004,-0.208125 0.1319,-0.4625 z m 1.15625,-2.067602 c 0,-0.119681 0.10287,-0.281181 0.2286,-0.358886 0.13109,-0.08102 0.16986,0.01182 0.0909,0.217602 -0.15374,0.400622 -0.31949,0.473921 -0.31949,0.141284 z m 2.31958,-4.523023 c 0,-0.127188 0.10088,-0.387344 0.22417,-0.578125 0.12329,-0.190781 0.22417,-0.242813 0.22417,-0.115625 0,0.127187 -0.10088,0.387344 -0.22417,0.578125 -0.12329,0.190781 -0.22417,0.242813 -0.22417,0.115625 z M 14.298566,91.81577 c -0.292513,-0.487084 -0.287585,-0.492012 0.110614,-0.110614 0.229221,0.219551 0.366989,0.448958 0.306151,0.509796 -0.06084,0.06084 -0.248382,-0.118793 -0.416765,-0.399182 z m -1.392459,-3.304065 c 0.01109,-0.269395 0.06589,-0.324189 0.139713,-0.139714 0.0668,0.166932 0.05859,0.366387 -0.01826,0.44323 -0.07684,0.07684 -0.131498,-0.05974 -0.121457,-0.303516 z m -0.863458,-2.534454 c -0.07531,-0.196266 -0.08527,-0.408519 -0.02211,-0.471671 0.06315,-0.06315 0.170329,0.09743 0.238169,0.356849 0.144103,0.551052 -0.01601,0.636143 -0.216057,0.114822 z M 124.0364,85.17785 c 0.1453,-0.190781 0.31534,-0.555 0.37787,-0.809375 0.10798,-0.439289 0.11503,-0.437809 0.14051,0.0295 0.0148,0.270597 -0.15529,0.634816 -0.37787,0.809375 -0.35196,0.276027 -0.37027,0.272184 -0.14051,-0.0295 z M 11.375216,83.774965 c -0.08384,-0.135649 -0.102833,-0.296231 -0.04222,-0.356849 0.06062,-0.06062 0.171834,0.05037 0.247148,0.246635 0.156368,0.407488 0.02309,0.479164 -0.204933,0.110214 z m 113.224644,-0.35076 c 0.0111,-0.269395 0.0659,-0.324189 0.13971,-0.139714 0.0668,0.166932 0.0586,0.366388 -0.0182,0.44323 -0.0768,0.07684 -0.13149,-0.05974 -0.12145,-0.303516 z M 11.12666,82.763232 C 11.0563,82.579881 11.03949,82.241678 11.0893,82.01167 c 0.05655,-0.26113 0.135709,-0.135924 0.210757,0.333368 0.125938,0.787524 0.04408,0.984942 -0.173401,0.418194 z M 125.0441,80.913373 c 0,-0.183275 0.0944,-0.391543 0.20968,-0.462819 0.11533,-0.07128 0.15522,0.07868 0.0887,0.333227 -0.14121,0.539966 -0.29834,0.608222 -0.29834,0.129592 z m 0.28731,-1.071788 c 0.0714,-0.200413 0.20428,-1.060376 0.29538,-1.911027 0.0911,-0.850651 0.23894,-1.591948 0.32855,-1.647328 0.22589,-0.139608 -0.32445,3.532814 -0.56172,3.748364 -0.10558,0.09591 -0.13357,0.01041 -0.0622,-0.190009 z M 10.490487,79.677624 c -0.06169,-0.09981 -0.165838,-0.854265 -0.231448,-1.676562 -0.118561,-1.485955 -0.06267,-1.342844 0.29668,0.7596 0.182355,1.066914 0.166365,1.291694 -0.06523,0.916962 z M 126.27963,72.343475 c 9.2e-4,-1.0175 0.0415,-1.404985 0.0903,-0.861076 0.0489,0.54391 0.0482,1.37641 -0.002,1.85 -0.0497,0.473591 -0.0897,0.02858 -0.0888,-0.988924 z m 0.21811,-3.00625 c 0.002,-0.635937 0.0467,-0.868647 0.0998,-0.517133 0.0532,0.351514 0.0517,0.871827 -0.003,1.15625 -0.0549,0.284424 -0.0984,-0.0032 -0.0966,-0.639117 z m -0.21811,-3.00625 c 9.2e-4,-1.0175 0.0415,-1.404985 0.0903,-0.861076 0.0489,0.54391 0.0482,1.37641 -0.002,1.85 -0.0497,0.473591 -0.0897,0.02858 -0.0888,-0.988924 z M 10.010311,62.399725 c 0.06643,-0.381562 0.216019,-1.318125 0.332416,-2.08125 0.209494,-1.373493 0.210373,-1.370017 0.08705,0.344352 -0.06852,0.952519 -0.218106,1.889081 -0.332416,2.08125 -0.1415769,0.238007 -0.1693294,0.128226 -0.08705,-0.344352 z M 125.7915,61.3591 c 0,-0.445156 0.0476,-0.627266 0.10576,-0.404687 0.0582,0.222578 0.0582,0.586796 0,0.809375 -0.0582,0.222578 -0.10576,0.04047 -0.10576,-0.404688 z m -0.23982,-1.503125 c 0.005,-0.381562 0.0565,-0.509661 0.11517,-0.284662 0.0586,0.224999 0.0548,0.537187 -0.009,0.69375 -0.0633,0.156563 -0.11131,-0.02752 -0.1066,-0.409088 z m -0.25807,-1.17552 c 0.0111,-0.269395 0.0659,-0.324189 0.13971,-0.139714 0.0668,0.166932 0.0586,0.366385 -0.0182,0.44323 -0.0768,0.07684 -0.13149,-0.05974 -0.12145,-0.303516 z m -0.14339,-0.80549 c -0.0838,-0.135649 -0.10284,-0.296231 -0.0422,-0.356849 0.0606,-0.06062 0.17183,0.05037 0.24715,0.246635 0.15637,0.407488 0.0231,0.479164 -0.20493,0.110214 z M 11.03785,56.169623 c 0,-0.183274 0.09436,-0.391543 0.209684,-0.462819 0.115326,-0.07128 0.155221,0.07868 0.08865,0.333227 -0.141204,0.539966 -0.298338,0.608222 -0.298338,0.129592 z m 113.37934,-1.419521 c -0.13328,-0.582449 -0.15891,-0.972684 -0.057,-0.867187 0.20613,0.213277 0.56334,1.926185 0.40169,1.926185 -0.0563,0 -0.21145,-0.476548 -0.34473,-1.058998 z M 11.2691,55.128998 c 0,-0.119681 0.102871,-0.281181 0.228601,-0.358886 0.131087,-0.08102 0.169855,0.01182 0.09088,0.217602 -0.153733,0.400622 -0.319485,0.473921 -0.319485,0.141284 z m 0.712007,-1.998543 c 0.0111,-0.269395 0.06589,-0.324189 0.139713,-0.139714 0.0668,0.166932 0.05859,0.366385 -0.01826,0.44323 -0.07684,0.07684 -0.131498,-0.05974 -0.121457,-0.303516 z m 111.357183,-1.60842 c -0.22315,-0.581522 -0.15732,-0.731571 0.11529,-0.262779 0.13498,0.232117 0.1967,0.470747 0.13716,0.530287 -0.0595,0.05954 -0.17314,-0.06084 -0.25245,-0.267508 z M 13.81285,47.628039 c 0,-0.04802 0.18211,-0.230128 0.404688,-0.404687 0.366775,-0.287645 0.374954,-0.279466 0.08731,0.08731 -0.302098,0.385204 -0.491997,0.507704 -0.491997,0.317376 z m 107.83521,-0.548626 c -0.0792,-0.222579 -0.19609,-0.498814 -0.25972,-0.613856 -0.0636,-0.115042 -0.008,-0.142679 0.12337,-0.06141 0.24089,0.148883 0.5699,1.079958 0.38161,1.079958 -0.0557,0 -0.16605,-0.182109 -0.24526,-0.404687 z m -1.77852,-3.651128 c -0.22315,-0.581522 -0.15732,-0.731571 0.11529,-0.262779 0.13498,0.232117 0.1967,0.470747 0.13716,0.530287 -0.0595,0.05954 -0.17314,-0.06084 -0.25245,-0.267508 z M 118.1066,40.0841 c -0.13614,-0.254375 -0.19549,-0.4625 -0.1319,-0.4625 0.0636,0 0.22701,0.208125 0.36315,0.4625 0.13614,0.254375 0.19549,0.4625 0.1319,0.4625 -0.0636,0 -0.22701,-0.208125 -0.36315,-0.4625 z m -2.4501,-3.989062 -0.44052,-0.520313 0.52031,0.440529 c 0.48896,0.413988 0.62558,0.600096 0.44053,0.600096 -0.0439,0 -0.27803,-0.234141 -0.52032,-0.520312 z M 20.634725,35.69035 c 0.230206,-0.254375 0.470588,-0.4625 0.534182,-0.4625 0.06359,0 -0.07273,0.208125 -0.302932,0.4625 -0.230206,0.254375 -0.470588,0.4625 -0.534182,0.4625 -0.06359,0 0.07273,-0.208125 0.302932,-0.4625 z m 93.859025,-0.982813 c -0.68282,-0.779164 -1.08174,-1.329687 -0.96354,-1.329687 0.0579,0 0.43974,0.41625 0.84858,0.925 0.79371,0.987666 0.87422,1.271089 0.11496,0.404687 z M 21.559725,34.5341 c 0.230206,-0.254375 0.470588,-0.4625 0.534182,-0.4625 0.06359,0 -0.07273,0.208125 -0.302932,0.4625 -0.230206,0.254375 -0.470588,0.4625 -0.534182,0.4625 -0.06359,0 0.07273,-0.208125 0.302932,-0.4625 z m 0.925,-1.15625 c 0.230206,-0.254375 0.470588,-0.4625 0.534182,-0.4625 0.06359,0 -0.07273,0.208125 -0.302932,0.4625 -0.230206,0.254375 -0.470588,0.4625 -0.534182,0.4625 -0.06359,0 0.07273,-0.208125 0.302932,-0.4625 z m 89.828175,-1.329687 -0.79692,-0.867188 0.86718,0.796926 c 0.47696,0.43831 0.86719,0.828544 0.86719,0.867188 0,0.176587 -0.19569,0.01023 -0.93745,-0.796926 z M 23.7566,31.874725 c 0.431463,-0.445156 0.836509,-0.809375 0.900102,-0.809375 0.06359,0 -0.237389,0.364219 -0.668852,0.809375 -0.431462,0.445156 -0.836508,0.809375 -0.900102,0.809375 -0.06359,0 0.23739,-0.364219 0.668852,-0.809375 z M 26.415975,28.9841 c 1.011533,-1.0175 1.891181,-1.85 1.954775,-1.85 0.06359,0 -0.711992,0.8325 -1.723525,1.85 -1.011532,1.0175 -1.891181,1.85 -1.954775,1.85 -0.06359,0 0.711993,-0.8325 1.723525,-1.85 z m 83.013325,-0.05781 -1.84457,-1.907812 1.90781,1.844575 c 1.77192,1.713184 2.01323,1.97105 1.84457,1.97105 -0.0348,0 -0.89329,-0.858516 -1.90781,-1.907813 z M 29.3066,26.324725 c 0.431463,-0.445156 0.836509,-0.809375 0.900102,-0.809375 0.06359,0 -0.237389,0.364219 -0.668852,0.809375 -0.431462,0.445156 -0.836508,0.809375 -0.900102,0.809375 -0.06359,0 0.23739,-0.364219 0.668852,-0.809375 z m 77.22505,-0.05781 -0.79692,-0.867188 0.86718,0.796926 c 0.47696,0.43831 0.86719,0.828544 0.86719,0.867188 0,0.176587 -0.19569,0.01023 -0.93745,-0.796926 z M 30.809725,25.05285 c 0.230206,-0.254375 0.470588,-0.4625 0.534182,-0.4625 0.06359,0 -0.07273,0.208125 -0.302932,0.4625 -0.230206,0.254375 -0.470588,0.4625 -0.534182,0.4625 -0.06359,0 0.07273,-0.208125 0.302932,-0.4625 z m 1.15625,-0.925 c 0.230207,-0.254375 0.470589,-0.4625 0.534183,-0.4625 0.06359,0 -0.07273,0.208125 -0.302933,0.4625 -0.230206,0.254375 -0.470588,0.4625 -0.534182,0.4625 -0.06359,0 0.07273,-0.208125 0.302932,-0.4625 z m 72.004875,0.05781 c -0.28764,-0.366775 -0.27946,-0.374954 0.0873,-0.08731 0.38521,0.302098 0.50771,0.491997 0.31738,0.491997 -0.048,0 -0.23013,-0.182109 -0.40469,-0.404688 z m -1.58925,-1.245414 -1.04062,-0.94255 0.9796,0.735091 c 0.85201,0.639343 1.39893,1.178718 1.17311,1.15691 -0.0393,-0.0038 -0.53975,-0.431048 -1.11209,-0.949451 z M 32.77535,23.57804 c 0,-0.04802 0.18211,-0.230129 0.404688,-0.404687 0.366776,-0.287645 0.374955,-0.279466 0.08731,0.08731 -0.302098,0.385204 -0.491998,0.507704 -0.491998,0.317377 z m 67.85826,-1.891072 c -0.43105,-0.345347 -0.42822,-0.349617 0.0714,-0.107489 0.28617,0.138679 0.52031,0.300513 0.52031,0.359632 0,0.176957 -0.11993,0.125855 -0.59174,-0.252143 z M 35.749406,21.366575 c 0.300264,-0.261924 0.655811,-0.476225 0.790105,-0.476225 0.284372,0 0.270789,0.01155 -0.642286,0.546215 l -0.69375,0.406235 z m 63.59375,-0.48995 -0.545931,-0.476225 0.635938,0.387196 c 0.349765,0.212958 0.635937,0.427259 0.635937,0.476225 0,0.18057 -0.193207,0.07752 -0.725944,-0.387196 z M 37.6316,20.343718 c 0,-0.06359 0.312188,-0.337921 0.69375,-0.609618 0.381563,-0.271697 0.69375,-0.441962 0.69375,-0.378368 0,0.06359 -0.312187,0.337921 -0.69375,0.609618 -0.381562,0.271697 -0.69375,0.441962 -0.69375,0.378368 z m 59.995762,-0.50675 c -0.431055,-0.345347 -0.42822,-0.349617 0.07143,-0.107489 0.286172,0.138679 0.520312,0.300513 0.520312,0.359632 0,0.176957 -0.119928,0.125855 -0.591738,-0.252143 z M 39.651183,19.011655 c 0.156866,-0.158041 0.343462,-0.229093 0.414661,-0.157894 0.0712,0.0712 -0.05714,0.200505 -0.285207,0.287346 -0.329578,0.125496 -0.356139,0.09893 -0.129454,-0.129452 z m 56.126179,-0.09969 c -0.42326,-0.3391 -0.41588,-0.343913 0.129238,-0.0843 0.707863,0.337119 0.839054,0.443933 0.545241,0.443933 -0.124077,0 -0.427592,-0.161835 -0.674479,-0.359632 z M 41.3316,18.11535 c 0.190781,-0.123292 0.450938,-0.224168 0.578125,-0.224168 0.127188,0 0.07516,0.100876 -0.115625,0.224168 -0.190781,0.123292 -0.450937,0.224168 -0.578125,0.224168 -0.127187,0 -0.07516,-0.100876 0.115625,-0.224168 z m 52.842262,0.0026 c -0.08102,-0.131087 0.01182,-0.169855 0.217602,-0.09088 0.400622,0.153734 0.473922,0.319486 0.141285,0.319486 -0.119682,0 -0.281182,-0.102871 -0.358887,-0.228601 z M 42.888683,17.392905 c 0.156866,-0.158041 0.343462,-0.229093 0.414661,-0.157894 0.0712,0.0712 -0.05714,0.200505 -0.285207,0.287346 -0.329578,0.125496 -0.356139,0.09893 -0.129454,-0.129452 z m 2.02337,-0.889958 c 0.06179,-0.09997 0.322231,-0.236658 0.578763,-0.303743 0.256533,-0.06708 0.415869,-0.04018 0.354081,0.0598 -0.06179,0.09997 -0.32223,0.236658 -0.578763,0.303743 -0.256533,0.06708 -0.415868,0.04017 -0.354081,-0.0598 z m 45.342251,-0.216031 c -0.07127,-0.115326 0.07868,-0.15522 0.333227,-0.08865 0.539967,0.141204 0.608222,0.298338 0.129593,0.298338 -0.183275,0 -0.391544,-0.09436 -0.46282,-0.209684 z M 46.4191,15.900722 c 0,-0.156117 1.201233,-0.592472 1.31575,-0.477954 0.05245,0.05245 -0.222141,0.206039 -0.610194,0.341315 C 46.7366,15.89936 46.4191,15.960847 46.4191,15.900722 Z m 2.721454,-1.061826 c 0.13438,-0.13438 0.380827,-0.198827 0.54766,-0.143216 0.173195,0.05773 0.06837,0.162555 -0.244327,0.244327 -0.384649,0.100588 -0.474936,0.07049 -0.303333,-0.101111 z m 36.937921,-0.08536 c -0.918263,-0.31769 -0.919105,-0.319068 -0.115625,-0.189115 0.445156,0.072 0.908235,0.224005 1.029063,0.337793 0.270109,0.254372 0.235063,0.248667 -0.913438,-0.148678 z M 50.306991,14.48863 c 0.166932,-0.0668 0.366385,-0.05859 0.44323,0.01826 0.07684,0.07684 -0.05974,0.131498 -0.303516,0.121457 -0.269395,-0.0111 -0.324189,-0.06589 -0.139714,-0.139713 z m 1.797407,-0.525894 c 0.116367,-0.112831 0.627827,-0.265432 1.136577,-0.339115 1.047607,-0.151725 0.887226,-0.04036 -0.442827,0.30749 -0.497932,0.130223 -0.81012,0.144455 -0.69375,0.03163 z m 30.620952,-0.156958 -1.040625,-0.317916 0.905041,0.108473 c 0.497773,0.05966 1.012882,0.216314 1.144688,0.348119 0.131805,0.131805 0.192818,0.226055 0.135584,0.209443 -0.05723,-0.01661 -0.572344,-0.173265 -1.144688,-0.348119 z m -28.270312,-0.46858 c 0.158984,-0.06415 0.41914,-0.06415 0.578125,0 0.158984,0.06415 0.02891,0.116639 -0.289063,0.116639 -0.317969,0 -0.448047,-0.05249 -0.289062,-0.116639 z m 26.608203,-0.0048 c 0.166932,-0.0668 0.366388,-0.05859 0.44323,0.01826 0.07684,0.07684 -0.05974,0.131498 -0.303516,0.121457 -0.269395,-0.01109 -0.324189,-0.06589 -0.139714,-0.139714 z m -1.922266,-0.304531 -0.69375,-0.176529 0.622289,-0.02736 c 0.34226,-0.01505 0.686605,0.0767 0.765211,0.20389 0.07861,0.127188 0.110764,0.218938 0.07146,0.20389 -0.0393,-0.01505 -0.383648,-0.106799 -0.765211,-0.20389 z M 56.767538,12.874698 c 0.158984,-0.06415 0.41914,-0.06415 0.578125,0 0.158984,0.06415 0.02891,0.116639 -0.289063,0.116639 -0.317969,0 -0.448047,-0.05249 -0.289062,-0.116639 z m 1.276275,-0.238352 c 0.225,-0.05863 0.537187,-0.05478 0.69375,0.0086 0.156564,0.06334 -0.02753,0.111316 -0.409088,0.106603 -0.381562,-0.0047 -0.509661,-0.05654 -0.284662,-0.115172 z m 19.425,0 c 0.225,-0.05863 0.537187,-0.05478 0.69375,0.0086 0.156564,0.06334 -0.02753,0.111316 -0.409088,0.106603 -0.381562,-0.0047 -0.509661,-0.05654 -0.284662,-0.115172 z M 59.3691,12.443491 c 0.771938,-0.217193 3.471793,-0.483247 3.30309,-0.325501 -0.09967,0.0932 -0.961684,0.226518 -1.91559,0.296272 -0.953906,0.06975 -1.578281,0.08291 -1.3875,0.02923 z m 16.363634,-0.0417 c 0.287654,-0.05531 0.703904,-0.05321 0.925,0.0047 0.221096,0.05788 -0.01426,0.103136 -0.523009,0.10057 -0.50875,-0.0026 -0.689645,-0.04992 -0.401991,-0.105237 z m -2.33991,-0.245389 c -0.0604,-0.09773 0.297677,-0.138833 0.795729,-0.09134 0.49805,0.0475 0.905547,0.127459 0.905547,0.177693 0,0.172246 -1.591374,0.09147 -1.701276,-0.08636 z"
         id="path1101" />
      <path
         style="fill:#ee8253;stroke-width:0.23125"
         d="m 68.739329,96.552406 c -0.03969,-0.03978 -2.676633,-0.06294 -5.859879,-0.05148 -3.979764,0.01434 -5.836815,-0.05859 -5.944887,-0.233456 -0.10185,-0.164798 -1.064398,-0.238706 -2.734754,-0.209984 -1.417671,0.02437 -2.733678,-0.0121 -2.924459,-0.08103 -0.300024,-0.108417 -4.707082,-0.414639 -7.515625,-0.522218 -0.50875,-0.01949 -1.107109,-0.113438 -1.329687,-0.208778 -0.222578,-0.09534 -0.557449,-0.114727 -0.744156,-0.04308 -0.186709,0.07165 -0.39538,0.0398 -0.463714,-0.07076 -0.06833,-0.110565 -0.565961,-0.273057 -1.105842,-0.36109 -2.482374,-0.40478 -5.585134,-3.061119 -6.707064,-5.74206 -0.350878,-0.838457 -0.655924,-1.81371 -0.677877,-2.167229 -0.02196,-0.353521 -0.114157,-0.746829 -0.204897,-0.874016 -0.552431,-0.774341 -1.138638,-9.227224 -1.138638,-16.41875 0,-7.142873 0.583971,-15.616595 1.131506,-16.41875 0.08682,-0.127188 0.188021,-0.543437 0.224898,-0.925 0.132583,-1.37181 1.3834,-3.557744 2.908424,-5.082769 3.066829,-3.066826 4.914518,-3.471323 18.6016,-4.07227 7.145049,-0.313712 30.45122,-0.15898 35.755447,0.237385 8.78051,0.656132 10.404585,1.095447 12.934745,3.498849 1.80946,1.718807 2.72134,3.158066 3.1402,4.956305 0.14813,0.635938 0.32322,1.312344 0.38908,1.503125 0.33529,0.97113 0.41723,4.286235 0.41723,16.88125 0,14.14982 -0.0513,15.093028 -0.98014,18.0375 -0.90042,2.854236 -4.29416,6.084546 -6.950537,6.615822 -0.412955,0.08259 -0.804026,0.236243 -0.869045,0.341448 -0.06502,0.105204 -0.270981,0.132661 -0.45769,0.06102 -0.186706,-0.07165 -0.521577,-0.0516 -0.744155,0.04455 -0.222578,0.09615 -0.768907,0.190982 -1.214063,0.210733 -3.368982,0.149478 -7.549584,0.436915 -7.710751,0.53015 -0.229872,0.13298 -3.425694,0.249616 -11.367374,0.41486 -3.179687,0.06616 -6.232259,0.143188 -6.783492,0.171167 -0.551235,0.02798 -1.034716,0.01834 -1.074404,-0.02144 z M 64.68785,79.20235 c 0.06359,-0.06088 -0.06648,-0.04208 -0.289062,0.04178 -0.222578,0.08386 -0.586797,0.215802 -0.809375,0.293206 -0.222578,0.07741 0.948125,-0.650684 2.601562,-1.617975 1.653438,-0.967291 3.11975,-1.716656 3.25847,-1.665257 0.138722,0.0514 0.398878,-0.0108 0.578125,-0.138213 0.258075,-0.183451 0.241677,-0.204575 -0.07878,-0.101489 -0.73165,0.235362 -0.424702,-0.04116 0.864394,-0.778704 0.697995,-0.399353 1.349693,-0.676277 1.448214,-0.615386 0.09852,0.06089 0.437983,-0.03257 0.754356,-0.207681 0.316374,-0.175117 0.490336,-0.322081 0.386583,-0.326586 -0.103752,-0.0045 -0.389924,0.09953 -0.635937,0.23119 -0.246013,0.131663 -0.447298,0.186367 -0.447298,0.121564 0,-0.204051 1.322376,-0.811489 1.462199,-0.671666 0.07334,0.07333 0.997076,-0.351752 2.052757,-0.944635 1.05568,-0.592886 2.075513,-1.162674 2.266294,-1.2662 0.190781,-0.103526 0.346875,-0.324037 0.346875,-0.490024 0,-0.165986 0.364219,-0.501821 0.809375,-0.746297 1.066636,-0.585788 1.531083,-1.021294 1.089167,-1.021294 -0.476486,0 -8.707832,-4.766609 -8.58225,-4.969808 C 71.903828,64.10185 70.73162,63.332 70.53897,63.52465 c -0.08082,0.08082 -0.02554,0.14695 0.12284,0.14695 0.148386,0 0.269792,0.104944 0.269792,0.233209 0,0.14232 -0.171261,0.126255 -0.439426,-0.04122 -0.241684,-0.150935 -0.391797,-0.398543 -0.333585,-0.550243 0.108235,-0.282054 -0.582771,-0.675553 -0.801753,-0.456569 -0.06659,0.06659 2.32e-4,0.121069 0.148722,0.121069 0.148386,0 0.269792,0.104944 0.269792,0.233209 0,0.140836 -0.177271,0.122502 -0.447543,-0.04628 -0.246147,-0.153721 -0.387755,-0.376228 -0.314685,-0.494459 0.07307,-0.118231 -0.0117,-0.163713 -0.188394,-0.10107 -0.310222,0.109987 -1.593128,-0.408528 -1.593128,-0.643897 0,-0.06359 0.312188,0.04581 0.69375,0.243127 0.38212,0.197601 0.69375,0.254185 0.69375,0.125969 0,-0.259218 -1.09378,-0.605038 -1.592336,-0.503448 -0.207048,0.04219 -0.270998,-0.0636 -0.180695,-0.298923 0.07687,-0.200322 0.03897,-0.364223 -0.08423,-0.364223 -0.123197,0 -0.223994,0.110205 -0.223994,0.244898 0,0.134694 -0.10576,0.179534 -0.235021,0.09965 -0.129262,-0.07989 -0.175889,-0.240932 -0.103614,-0.357873 0.07267,-0.117591 -0.04595,-0.144564 -0.265415,-0.06035 -0.26742,0.10262 -0.342828,0.06492 -0.23125,-0.115625 0.102252,-0.165447 0.0479,-0.222742 -0.142138,-0.149819 -0.169238,0.06494 -0.512848,-0.03514 -0.763571,-0.222398 -0.4374,-0.326685 -0.432447,-0.334876 0.122259,-0.202208 0.317969,0.07605 0.517408,0.07086 0.443198,-0.01154 -0.07421,-0.08239 -0.461323,-0.187805 -0.860253,-0.234252 -0.398927,-0.04645 -0.988598,-0.256958 -1.310382,-0.4678 L 62.6066,59.267182 V 69.56314 c 0,7.092324 0.0762,10.29596 0.244899,10.29596 0.134693,0 0.180472,0.104243 0.101729,0.231648 -0.124662,0.20171 1.424935,-0.591926 1.734622,-0.888398 z m 9.463888,-5.912954 c 0.167883,-0.202288 0.422579,-0.370111 0.565989,-0.372939 0.143412,-0.0028 0.520904,-0.208638 0.838873,-0.457357 0.573715,-0.448766 1.23658,-0.664631 0.797813,-0.259809 -0.483692,0.446268 -2.494059,1.4412 -2.202675,1.090105 z m 2.991418,-1.743858 c 0.300264,-0.260665 0.638467,-0.473938 0.751562,-0.473938 0.404269,0 0.193619,0.225196 -0.54593,0.583624 l -0.751563,0.364254 z M 65.8441,78.587225 c 0.317969,-0.181767 0.474063,-0.330486 0.346875,-0.330486 -0.127187,0 -0.491406,0.148719 -0.809375,0.330486 -0.317969,0.181767 -0.474062,0.330486 -0.346875,0.330486 0.127188,0 0.491406,-0.148719 0.809375,-0.330486 z m 1.3875,-0.809375 c 0.190781,-0.123293 0.242813,-0.224167 0.115625,-0.224167 -0.127187,0 -0.387344,0.100874 -0.578125,0.224167 -0.190781,0.123293 -0.242812,0.224167 -0.115625,0.224167 0.127188,0 0.387344,-0.100874 0.578125,-0.224167 z m 1.3875,-0.809375 c 0.317969,-0.181767 0.474063,-0.330486 0.346875,-0.330486 -0.127187,0 -0.491406,0.148719 -0.809375,0.330486 -0.317969,0.181767 -0.474062,0.330486 -0.346875,0.330486 0.127188,0 0.491406,-0.148719 0.809375,-0.330486 z M 71.62535,75.2341 c 0.190781,-0.123293 0.242813,-0.224167 0.115625,-0.224167 -0.127187,0 -0.387344,0.100874 -0.578125,0.224167 -0.190781,0.123293 -0.242812,0.224167 -0.115625,0.224167 0.127188,0 0.387344,-0.100874 0.578125,-0.224167 z m 8.32087,-4.822663 c 0.302829,-0.299666 0.302829,-0.321389 0,-0.186526 -0.18851,0.08395 -0.524854,0.216877 -0.747432,0.295387 -0.222578,0.07851 -0.404688,0.231405 -0.404688,0.339766 0,0.25995 0.718989,-0.02003 1.15212,-0.448627 z m 0.21611,-1.491077 c -0.661555,-0.480542 -1.36823,-0.823713 -1.36823,-0.66443 0,0.200827 0.850938,0.689113 1.252605,0.718769 0.116587,0.0086 0.168618,-0.01584 0.115625,-0.05434 z m -2.490271,-1.435922 c -0.553529,-0.316435 -1.073842,-0.572091 -1.15625,-0.568121 -0.239406,0.01154 1.675547,1.146834 1.931416,1.145062 0.127188,-9.25e-4 -0.221637,-0.260503 -0.775166,-0.576941 z m -1.852014,-1.045532 c -0.300264,-0.250143 -0.664483,-0.454119 -0.809375,-0.453282 -0.144894,9.25e-4 0.04874,0.208278 0.430305,0.460976 0.884585,0.585837 1.086598,0.581737 0.37907,-0.0077 z M 74.61233,65.678381 c -0.437021,-0.337767 -2.349162,-1.334183 -2.4215,-1.261844 -0.115981,0.115981 2.290714,1.522712 2.4215,1.415384 0.05299,-0.04349 0.05299,-0.112584 0,-0.15354 z"
         id="path1099" />
      <path
         style="fill:#de774a;stroke-width:0.23125"
         d="m 69.375063,96.580096 c 0.225,-0.05863 0.537187,-0.05478 0.69375,0.0086 0.156564,0.06335 -0.02753,0.111317 -0.409088,0.106604 -0.381562,-0.0047 -0.509661,-0.05654 -0.284662,-0.115171 z M 49.42535,96.0466 l -1.965625,-0.145084 1.894164,-0.04308 c 1.062617,-0.02417 1.95691,0.05844 2.037086,0.188168 0.07861,0.127188 0.110764,0.211862 0.07146,0.188168 -0.0393,-0.0237 -0.955992,-0.108371 -2.037086,-0.188168 z m 3.766256,0.06011 c 0.735971,-0.04603 1.880659,-0.0456 2.54375,9.25e-4 0.663091,0.04655 0.06093,0.08421 -1.338131,0.08369 -1.399062,-4.62e-4 -1.941591,-0.03861 -1.205619,-0.08464 z m 30.525,0 c 0.735971,-0.04603 1.880659,-0.0456 2.54375,9.25e-4 0.663091,0.04655 0.06093,0.08421 -1.338131,0.08369 -1.399062,-4.62e-4 -1.941591,-0.03861 -1.205619,-0.08464 z m 4.346764,-0.145723 c 0.053,-0.04709 1.605261,-0.139078 3.44948,-0.20442 2.137328,-0.07573 2.76619,-0.0551 1.734375,0.05689 -1.726431,0.187384 -5.344592,0.290353 -5.183855,0.147528 z M 45.440429,95.647756 c 0.415638,-0.05147 1.040013,-0.0504 1.3875,0.0024 0.347488,0.05277 0.0074,0.09488 -0.755704,0.09358 -0.763125,-0.0014 -1.047433,-0.04447 -0.631796,-0.09594 z M 42.02535,95.35285 c -0.538179,-0.172355 -0.543116,-0.186741 -0.07146,-0.208199 0.278666,-0.01267 0.57098,0.08101 0.649586,0.208199 0.07861,0.127188 0.110764,0.220876 0.07146,0.208199 -0.0393,-0.01268 -0.331617,-0.106368 -0.649586,-0.208199 z m 1.445313,0.07184 c 0.222578,-0.05816 0.586797,-0.05816 0.809375,0 0.222578,0.05817 0.04047,0.105758 -0.404688,0.105758 -0.445156,0 -0.627265,-0.04759 -0.404687,-0.105758 z m 51.8044,-9.25e-4 c 0.225,-0.05863 0.537187,-0.05478 0.69375,0.0086 0.156564,0.06335 -0.02752,0.111317 -0.409088,0.106604 -0.381562,-0.0047 -0.509661,-0.05654 -0.284662,-0.115172 z m -54.984088,-0.42648 c -0.918263,-0.317692 -0.919105,-0.319068 -0.115625,-0.189114 0.445156,0.072 0.908235,0.224005 1.029063,0.337791 0.270109,0.254373 0.235063,0.248668 -0.913438,-0.148677 z m 56.714063,0.202413 c 0.158984,-0.06415 0.41914,-0.06415 0.578125,0 0.158984,0.06415 0.02891,0.11664 -0.289063,0.11664 -0.317969,0 -0.448047,-0.05249 -0.289062,-0.11664 z m 1.401953,-0.236067 c 0.166932,-0.0668 0.366388,-0.05859 0.44323,0.01824 0.07684,0.07684 -0.05974,0.131498 -0.303516,0.121458 -0.269395,-0.0111 -0.324189,-0.06589 -0.139714,-0.139712 z m 1.662109,-0.403883 c 0,-0.06359 0.20813,-0.227011 0.4625,-0.363148 0.25438,-0.136137 0.4625,-0.195492 0.4625,-0.131898 0,0.06359 -0.20812,0.227011 -0.4625,0.363148 -0.25437,0.136137 -0.4625,0.195492 -0.4625,0.131898 z m 1.73438,-1.056898 c 0.2302,-0.254375 0.47058,-0.4625 0.53418,-0.4625 0.0636,0 -0.0727,0.208125 -0.30293,0.4625 -0.23021,0.254375 -0.47059,0.4625 -0.53419,0.4625 -0.0636,0 0.0727,-0.208125 0.30294,-0.4625 z m 1.50312,-1.271875 c 0.43146,-0.445156 0.83651,-0.809375 0.9001,-0.809375 0.0636,0 -0.23739,0.364219 -0.66885,0.809375 -0.43146,0.445156 -0.83651,0.809375 -0.9001,0.809375 -0.0636,0 0.23739,-0.364219 0.66885,-0.809375 z m 0.925,-1.127936 c 0,-0.04802 0.18211,-0.230128 0.40469,-0.404687 0.36677,-0.287645 0.37495,-0.279466 0.0873,0.08731 -0.3021,0.385205 -0.492,0.507705 -0.492,0.317377 z m 2.12633,-4.653314 c 0.005,-0.381563 0.0565,-0.509661 0.11517,-0.284662 0.0586,0.224999 0.0548,0.537187 -0.009,0.69375 -0.0633,0.156563 -0.11131,-0.02753 -0.1066,-0.409088 z M 32.443342,86.170636 c -0.125494,-0.329577 -0.09893,-0.356139 0.129454,-0.129453 0.158041,0.156866 0.229092,0.343461 0.157893,0.414661 -0.0712,0.0712 -0.200505,-0.05714 -0.287347,-0.285208 z M 106.58061,85.17785 c 0,-0.317969 0.0525,-0.448047 0.11664,-0.289063 0.0641,0.158985 0.0641,0.419141 0,0.578125 -0.0641,0.158985 -0.11664,0.02891 -0.11664,-0.289062 z m 0.25306,-1.503125 c 0.003,-0.50875 0.0499,-0.689645 0.10523,-0.401991 0.0553,0.287654 0.0532,0.703904 -0.005,0.925 -0.0579,0.221096 -0.10313,-0.01427 -0.10057,-0.523009 z m 0.14428,-14.8 c -0.0737,-7.63125 -0.20104,-14.187187 -0.28299,-14.56875 l -0.14901,-0.69375 0.27177,0.69375 c 0.26153,0.667577 0.56165,22.329162 0.37007,26.709375 -0.0417,0.953906 -0.13615,-4.509375 -0.20984,-12.140625 z M 62.97818,79.993731 c 0.09362,-0.243968 1.484685,-0.899199 1.620558,-0.763328 0.03136,0.03136 -0.343681,0.276492 -0.833416,0.544746 -0.489734,0.268255 -0.843947,0.366617 -0.787142,0.218582 z m 2.40342,-1.406506 c 0.317969,-0.181767 0.682188,-0.330486 0.809375,-0.330486 0.127188,0 -0.02891,0.148719 -0.346875,0.330486 -0.317969,0.181767 -0.682187,0.330486 -0.809375,0.330486 -0.127187,0 0.02891,-0.148719 0.346875,-0.330486 z m 1.3875,-0.809375 c 0.190781,-0.123293 0.450938,-0.224167 0.578125,-0.224167 0.127188,0 0.07516,0.100874 -0.115625,0.224167 -0.190781,0.123293 -0.450937,0.224167 -0.578125,0.224167 -0.127187,0 -0.07516,-0.100874 0.115625,-0.224167 z m 1.3875,-0.809375 c 0.317969,-0.181767 0.682188,-0.330486 0.809375,-0.330486 0.127188,0 -0.02891,0.148719 -0.346875,0.330486 -0.317969,0.181767 -0.682187,0.330486 -0.809375,0.330486 -0.127187,0 0.02891,-0.148719 0.346875,-0.330486 z m 1.557083,-0.838071 c 0.156866,-0.158041 0.343462,-0.229092 0.414661,-0.157893 0.0712,0.0712 -0.05714,0.200506 -0.285207,0.287347 -0.329578,0.125495 -0.356139,0.09893 -0.129454,-0.129454 z M 71.16285,75.2341 c 0.190781,-0.123293 0.450938,-0.224167 0.578125,-0.224167 0.127188,0 0.07516,0.100874 -0.115625,0.224167 -0.190781,0.123293 -0.450937,0.224167 -0.578125,0.224167 -0.127187,0 -0.07516,-0.100874 0.115625,-0.224167 z m 1.489512,-0.796617 c 0.246887,-0.1978 0.550402,-0.359633 0.674479,-0.359633 0.293813,0 0.162622,0.106814 -0.545241,0.443933 -0.545118,0.259613 -0.552498,0.254798 -0.129238,-0.0843 z m 1.414727,-0.930404 c 0.246887,-0.186735 0.518335,-0.342828 0.603216,-0.346875 0.08488,-0.004 0.946395,-0.475635 1.914472,-1.047979 1.885957,-1.115009 2.199921,-1.239699 1.746823,-0.69375 -0.158334,0.190781 -0.384051,0.346875 -0.50159,0.346875 -0.11754,0 -1.025571,0.468281 -2.017846,1.040625 -1.777644,1.025344 -2.622556,1.364798 -1.745075,0.701104 z M 78.7941,70.860064 c 0,-0.108361 0.18211,-0.261257 0.404688,-0.339766 0.222578,-0.07851 0.558922,-0.211435 0.747432,-0.295388 0.302829,-0.134862 0.302829,-0.113139 0,0.186527 -0.433131,0.42861 -1.15212,0.708577 -1.15212,0.448627 z m 0.520313,-2.151952 C 79.028241,68.570095 78.7941,68.366613 78.7941,68.25593 c 0,-0.159283 0.706675,0.183888 1.36823,0.66443 0.230933,0.167746 -0.373966,0.01633 -0.847917,-0.212248 z m -2.023438,-1.214854 c -1.20832,-0.744225 -0.917119,-0.750963 0.381084,-0.0088 0.553529,0.316438 0.902354,0.57606 0.775166,0.576941 -0.127187,9.25e-4 -0.6475,-0.254775 -1.15625,-0.568121 z m -1.85,-1.046658 c -0.381562,-0.252698 -0.575199,-0.460139 -0.430305,-0.460976 0.252721,-0.0014 1.477199,0.901584 1.23968,0.914258 -0.06359,0.0034 -0.427812,-0.200584 -0.809375,-0.453282 z m -2.133554,-1.236855 c -0.664705,-0.385685 -1.16717,-0.742629 -1.116591,-0.793208 0.05058,-0.05058 0.594429,0.195887 1.208552,0.547704 1.327054,0.760235 1.336043,0.766666 1.212948,0.86768 -0.05299,0.04349 -0.640204,-0.23649 -1.304909,-0.622176 z M 70.9316,63.90285 c -0.293296,-0.254375 -0.424811,-0.4625 -0.292251,-0.4625 0.329281,0 1.397136,0.907663 1.079197,0.917306 -0.139522,0.0042 -0.493649,-0.200431 -0.786946,-0.454806 z m -1.379924,-0.86219 c -0.303065,-0.34129 -0.294872,-0.365049 0.07672,-0.222453 0.228815,0.0878 0.459547,0.159643 0.512739,0.159643 0.05319,0 0.09671,0.104063 0.09671,0.23125 0,0.340224 -0.299845,0.26662 -0.686174,-0.16844 z m -1.454641,-0.736675 c -0.942809,-0.604411 -1.052856,-0.773445 -0.322844,-0.495895 0.634832,0.241363 1.525698,0.954996 1.15049,0.921606 -0.104477,-0.0093 -0.476916,-0.200866 -0.827646,-0.425711 z M 66.53785,61.3591 c 0,-0.127188 0.110205,-0.23125 0.244899,-0.23125 0.134693,0 0.180583,0.104062 0.101976,0.23125 -0.07861,0.127188 -0.188811,0.23125 -0.244898,0.23125 -0.05609,0 -0.101977,-0.104062 -0.101977,-0.23125 z m -1.952296,-1.134684 c -0.07127,-0.115326 0.07868,-0.155219 0.333227,-0.08865 0.539967,0.141204 0.608222,0.298338 0.129593,0.298338 -0.183275,0 -0.391544,-0.09436 -0.46282,-0.209684 z M 106.4725,53.323163 c -0.15927,-0.279293 -0.44429,-2.035447 -0.30857,-1.901213 0.14636,0.144758 0.59739,2.07465 0.48486,2.07465 -0.0426,0 -0.1219,-0.07805 -0.17629,-0.173437 z M 33.368342,49.960064 c 0.08684,-0.228064 0.216147,-0.356407 0.287347,-0.285208 0.0712,0.0712 1.48e-4,0.257795 -0.157893,0.414661 -0.228387,0.226686 -0.254948,0.200124 -0.129454,-0.129453 z M 34.278475,48.4091 c 0.230207,-0.254375 0.470589,-0.4625 0.534183,-0.4625 0.06359,0 -0.07273,0.208125 -0.302933,0.4625 -0.230207,0.254375 -0.470589,0.4625 -0.534183,0.4625 -0.06359,0 0.07273,-0.208125 0.302933,-0.4625 z M 34.8566,47.64299 c 0,-0.0398 0.338203,-0.378002 0.751563,-0.751563 l 0.751562,-0.679202 -0.679202,0.751563 C 35.047412,47.66435 34.8566,47.821644 34.8566,47.64299 Z m 1.965625,-1.77764 c 0.230207,-0.254375 0.470589,-0.4625 0.534183,-0.4625 0.06359,0 -0.07273,0.208125 -0.302933,0.4625 -0.230207,0.254375 -0.470589,0.4625 -0.534183,0.4625 -0.06359,0 0.07273,-0.208125 0.302933,-0.4625 z M 96.13785,43.7841 c -0.208423,-0.134694 -0.236945,-0.225582 -0.07146,-0.22771 0.151478,-0.0018 0.33973,0.100523 0.418336,0.22771 0.177438,0.287104 0.09738,0.287104 -0.346876,0 z M 44.1066,43.55285 c 0.190781,-0.123293 0.450938,-0.224167 0.578125,-0.224167 0.127188,0 0.07516,0.100874 -0.115625,0.224167 -0.190781,0.123293 -0.450937,0.224167 -0.578125,0.224167 -0.127187,0 -0.07516,-0.100874 0.115625,-0.224167 z m 12.454718,-0.753558 c 0.09654,-0.09649 5.892861,-0.148488 12.880715,-0.115553 l 12.705192,0.05988 -12.880715,0.115554 c -7.084395,0.06355 -12.801732,0.03661 -12.705192,-0.05988 z"
         id="path1097" />
      <path
         style="fill:#995335;stroke-width:0.23125"
         d="m 36.677102,93.329413 c -0.287645,-0.366777 -0.279466,-0.374956 0.08731,-0.08731 0.222578,0.174559 0.404687,0.356668 0.404687,0.404687 0,0.190328 -0.1899,0.06783 -0.491998,-0.317376 z m -1.256925,-1.040626 -0.679202,-0.751562 0.751563,0.679202 c 0.700562,0.633112 0.857856,0.823923 0.679202,0.823923 -0.0398,0 -0.378001,-0.338203 -0.751563,-0.751563 z m -1.163673,-1.3875 -0.440529,-0.520312 0.520313,0.440529 c 0.488964,0.413988 0.625586,0.600096 0.440529,0.600096 -0.04388,0 -0.278023,-0.234141 -0.520313,-0.520313 z m -2.361072,-6.995312 c 0.0047,-0.381563 0.05654,-0.509661 0.115172,-0.284662 0.05863,0.224999 0.05478,0.537187 -0.0086,0.69375 -0.06335,0.156563 -0.111318,-0.02753 -0.106605,-0.409088 z m -0.126135,-1.149546 c -0.07179,-0.187093 -0.180821,-1.565921 -0.242281,-3.064063 l -0.111746,-2.723891 0.202803,2.3125 c 0.111541,1.271875 0.254923,2.650703 0.318626,3.064063 0.12268,0.79605 0.04935,0.976249 -0.167402,0.411391 z M 31.259771,69.568475 c 9.2e-5,-4.07 0.03156,-5.702431 0.06992,-3.627626 0.03836,2.074808 0.03829,5.404808 -1.69e-4,7.4 -0.03846,1.995195 -0.06985,0.297626 -0.06975,-3.772374 z m 0.203962,-9.01875 c 10e-4,-0.890312 0.04282,-1.226194 0.09288,-0.746406 0.05006,0.479791 0.04922,1.208228 -0.0019,1.61875 -0.05109,0.410525 -0.09204,0.01797 -0.09102,-0.872344 z m 0.173624,-3.050414 c -0.01004,-0.533041 0.06406,-1.020039 0.164664,-1.082218 0.100607,-0.06218 0.145096,0.269885 0.09886,0.737917 -0.126412,1.279777 -0.243037,1.432147 -0.263529,0.344301 z m 0.212993,-2.254688 c 0,-0.310462 0.08523,-0.617155 0.189407,-0.681537 0.104174,-0.06438 0.144393,0.189632 0.08938,0.564476 -0.1213,0.826462 -0.278786,0.892591 -0.278787,0.117061 z m 0.23125,-1.61875 c 0,-0.183274 0.09436,-0.391543 0.209684,-0.462819 0.115327,-0.07128 0.155219,0.07868 0.08865,0.333227 -0.141203,0.539966 -0.298338,0.608222 -0.298338,0.129592 z m 0.372382,-1.401148 c 0.190196,-0.85029 0.322555,-1.034869 0.317828,-0.44323 -0.0019,0.243777 -0.109171,0.599324 -0.238276,0.790105 -0.171428,0.253325 -0.192881,0.159775 -0.07955,-0.346875 z m 70.730788,-5.260937 -1.61254,-1.676563 1.67656,1.612548 c 0.92211,0.886901 1.67656,1.641355 1.67656,1.676562 0,0.169625 -0.24284,-0.05536 -1.74058,-1.612547 z m -3.625081,-2.378682 c -0.0682,-0.0682 -0.787961,-0.268049 -1.599478,-0.444116 -0.865532,-0.187786 -1.188694,-0.321881 -0.781736,-0.324379 0.738109,-0.0045 3.491605,0.828578 2.871355,0.868765 -0.201382,0.01304 -0.421943,-0.03207 -0.490141,-0.10027 z M 40.131991,44.088631 c 0.166932,-0.0668 0.366385,-0.05859 0.44323,0.01825 0.07684,0.07684 -0.05974,0.131498 -0.303516,0.121458 -0.269395,-0.0111 -0.324189,-0.06589 -0.139714,-0.139712 z m 1.030572,-0.233535 c 0.225,-0.05863 0.537187,-0.05478 0.69375,0.0086 0.156564,0.06335 -0.02752,0.111317 -0.409088,0.106604 -0.381562,-0.0047 -0.509661,-0.05654 -0.284662,-0.115171 z m 1.85,-0.23125 c 0.225,-0.05863 0.537187,-0.05478 0.69375,0.0086 0.156564,0.06335 -0.02753,0.111317 -0.409088,0.106604 -0.381562,-0.0047 -0.509661,-0.05654 -0.284662,-0.115171 z m 51.7956,9.25e-4 c 0.222578,-0.05816 0.586797,-0.05816 0.809375,0 0.222578,0.05817 0.04047,0.105758 -0.404688,0.105758 -0.445156,0 -0.627265,-0.04759 -0.404687,-0.105758 z M 45.323842,43.386988 c 0.351514,-0.05316 0.871827,-0.05173 1.15625,0.0031 0.284424,0.05489 -0.0032,0.09838 -0.639117,0.09664 -0.635937,-0.0018 -0.868646,-0.04665 -0.517133,-0.0998 z m 46.94375,0 c 0.351514,-0.05316 0.871827,-0.05173 1.15625,0.0031 0.284424,0.05489 -0.0032,0.09838 -0.639117,0.09664 -0.635937,-0.0018 -0.868646,-0.04665 -0.517133,-0.0998 z M 48.326913,43.153141 c 0.476953,-0.04989 1.257422,-0.04989 1.734375,0 0.476953,0.04989 0.08672,0.09071 -0.867188,0.09071 -0.953906,0 -1.34414,-0.04082 -0.867187,-0.09071 z m 39.405707,-0.005 c -0.05914,-0.09539 0.429015,-0.143706 1.084789,-0.107365 2.126423,0.117838 2.385203,0.21074 0.685652,0.246154 -0.914603,0.01906 -1.711303,-0.0434 -1.770441,-0.138789 z M 52.4316,42.941233 c 1.935382,-0.170662 4.111211,-0.183851 4.011913,-0.02432 -0.05938,0.09539 -1.168458,0.155943 -2.464624,0.134564 -1.296165,-0.02139 -1.992445,-0.07099 -1.547289,-0.110244 z m 31.160938,-0.02137 c 0.667734,-0.04671 1.76039,-0.04671 2.428125,0 0.667734,0.04671 0.121406,0.08493 -1.214063,0.08493 -1.335469,0 -1.881797,-0.03822 -1.214062,-0.08493 z"
         id="path1095" />
      <path
         style="fill:#606060;stroke-width:0.23125"
         d="m 67.870234,126.87055 c 0.287654,-0.0553 0.703904,-0.0532 0.925,0.005 0.221096,0.0579 -0.01427,0.10313 -0.523009,0.10057 -0.50875,-0.003 -0.689645,-0.0499 -0.401991,-0.10524 z m -6.362071,-0.45836 c 0.222578,-0.0582 0.586797,-0.0582 0.809375,0 0.222578,0.0582 0.04047,0.10576 -0.404688,0.10576 -0.445156,0 -0.627265,-0.0476 -0.404687,-0.10576 z m 12.4875,0 c 0.222578,-0.0582 0.586797,-0.0582 0.809375,0 0.222578,0.0582 0.04047,0.10576 -0.404688,0.10576 -0.445156,0 -0.627265,-0.0476 -0.404687,-0.10576 z m -14.10185,-0.23209 c 0.225,-0.0586 0.537187,-0.0548 0.69375,0.009 0.156564,0.0633 -0.02753,0.11131 -0.409088,0.1066 -0.381562,-0.005 -0.509661,-0.0565 -0.284662,-0.11517 z m 16.1875,0 c 0.225,-0.0586 0.537187,-0.0548 0.69375,0.009 0.156564,0.0633 -0.02752,0.11131 -0.409088,0.1066 -0.381562,-0.005 -0.509661,-0.0565 -0.284662,-0.11517 z m -20.470025,-0.68665 c 0.158984,-0.0641 0.41914,-0.0641 0.578125,0 0.158984,0.0641 0.02891,0.11664 -0.289063,0.11664 -0.317969,0 -0.448047,-0.0525 -0.289062,-0.11664 z m 24.28125,0 c 0.158984,-0.0641 0.41914,-0.0641 0.578125,0 0.158984,0.0641 0.02891,0.11664 -0.289063,0.11664 -0.317969,0 -0.448047,-0.0525 -0.289062,-0.11664 z m -25.191797,-0.23607 c 0.166932,-0.0668 0.366385,-0.0586 0.44323,0.0183 0.07684,0.0768 -0.05974,0.13149 -0.303516,0.12145 -0.269395,-0.0111 -0.324189,-0.0659 -0.139714,-0.13971 z m 26.348047,0.005 c 0.158984,-0.0641 0.41914,-0.0641 0.578125,0 0.158984,0.0641 0.02891,0.11664 -0.289063,0.11664 -0.317969,0 -0.448047,-0.0525 -0.289062,-0.11664 z m -29.123047,-0.69857 c 0.166932,-0.0668 0.366385,-0.0586 0.44323,0.0182 0.07684,0.0768 -0.05974,0.1315 -0.303516,0.12146 -0.269395,-0.0111 -0.324189,-0.0659 -0.139714,-0.13972 z m -6.314379,-2.15188 c -0.08102,-0.13109 0.01182,-0.16985 0.217602,-0.0909 0.400622,0.15373 0.473922,0.31948 0.141285,0.31948 -0.119682,0 -0.281182,-0.10287 -0.358887,-0.2286 z m -1.61875,-0.69375 c -0.08102,-0.13109 0.01182,-0.16985 0.217602,-0.0909 0.400622,0.15373 0.473922,0.31948 0.141285,0.31948 -0.119682,0 -0.281182,-0.10287 -0.358887,-0.2286 z M 93.5941,120.93072 c 0,-0.05 0.161498,-0.15286 0.358886,-0.22861 0.205794,-0.079 0.298618,-0.0402 0.217602,0.0909 -0.135804,0.21973 -0.576488,0.32501 -0.576488,0.13772 z m 1.3875,-0.69375 c 0,-0.05 0.161498,-0.15286 0.358886,-0.22861 0.205794,-0.079 0.298618,-0.0402 0.217602,0.0909 -0.135804,0.21973 -0.576488,0.32501 -0.576488,0.13772 z m 1.85,-0.925 c 0,-0.05 0.161498,-0.15286 0.358886,-0.22861 0.205794,-0.079 0.298618,-0.0402 0.217602,0.0909 -0.135804,0.21973 -0.576488,0.32501 -0.576488,0.13772 z m 4.85625,-2.9878 c 0,-0.0572 0.38203,-0.39531 0.84895,-0.75145 0.46693,-0.35614 0.77597,-0.52943 0.68676,-0.38509 -0.18297,0.29605 -1.53571,1.29718 -1.53571,1.13654 z m 1.85,-1.40238 c 0,-0.048 0.18211,-0.23013 0.40469,-0.40469 0.36677,-0.28764 0.37495,-0.27946 0.0873,0.0873 -0.3021,0.38521 -0.492,0.50771 -0.492,0.31738 z m 1.23929,-1.01622 c 0.18297,-0.29605 1.53571,-1.29718 1.53571,-1.13654 0,0.0572 -0.38203,0.39531 -0.84895,0.75145 -0.46693,0.35614 -0.77597,0.52943 -0.68676,0.38509 z m 1.76696,-1.52753 c 0,-0.048 0.18211,-0.23013 0.40469,-0.40469 0.36677,-0.28764 0.37495,-0.27946 0.0873,0.0873 -0.3021,0.38521 -0.492,0.50771 -0.492,0.31738 z m 6.82188,-7.08144 c 0.2302,-0.25438 0.47058,-0.4625 0.53418,-0.4625 0.0636,0 -0.0727,0.20812 -0.30293,0.4625 -0.23021,0.25438 -0.47059,0.4625 -0.53419,0.4625 -0.0636,0 0.0727,-0.20812 0.30294,-0.4625 z m 0.925,-1.15625 c 0.2302,-0.25438 0.47058,-0.4625 0.53418,-0.4625 0.0636,0 -0.0727,0.20812 -0.30293,0.4625 -0.23021,0.25438 -0.47059,0.4625 -0.53419,0.4625 -0.0636,0 0.0727,-0.20812 0.30294,-0.4625 z M 16.231466,95.568715 c -0.08384,-0.135649 -0.102833,-0.296231 -0.04222,-0.356849 0.06062,-0.06062 0.171834,0.05037 0.247148,0.246635 0.156368,0.407488 0.02309,0.479164 -0.204933,0.110214 z m -1.985613,-4.089303 c -0.287645,-0.366776 -0.279466,-0.374955 0.08731,-0.08731 0.385204,0.302098 0.507704,0.491998 0.317378,0.491998 -0.04802,0 -0.23013,-0.182109 -0.404688,-0.404688 z m -1.65141,-4.201775 c -0.100588,-0.38465 -0.07049,-0.474937 0.101111,-0.303333 0.13438,0.134379 0.198828,0.380827 0.143216,0.54766 -0.05773,0.173195 -0.162555,0.06837 -0.244327,-0.244327 z m -1.538336,-5.934682 c 0.0111,-0.269395 0.06589,-0.324189 0.139713,-0.139714 0.0668,0.166932 0.05859,0.366388 -0.01826,0.44323 -0.07684,0.07684 -0.131498,-0.05974 -0.121457,-0.303516 z M 126.00561,75.6966 c 0,-0.317969 0.0525,-0.448047 0.11664,-0.289062 0.0642,0.158984 0.0642,0.41914 0,0.578125 -0.0641,0.158984 -0.11664,0.02891 -0.11664,-0.289063 z M 10.149363,75.46535 c 0,-0.317969 0.05249,-0.448047 0.11664,-0.289063 0.06415,0.158985 0.06415,0.419141 0,0.578125 -0.06415,0.158985 -0.11664,0.02891 -0.11664,-0.289062 z M 126.09959,74.472564 c 0.0868,-0.228064 0.21615,-0.356407 0.28735,-0.285208 0.0712,0.0712 1.5e-4,0.257795 -0.15789,0.414661 -0.22839,0.226686 -0.25495,0.200124 -0.12946,-0.129453 z m 0,-10.270678 c -0.12549,-0.329577 -0.0989,-0.356139 0.12946,-0.129453 0.15804,0.156866 0.22909,0.343461 0.15789,0.414661 -0.0712,0.0712 -0.20051,-0.05714 -0.28735,-0.285208 z M 10.149363,63.44035 c 0,-0.317969 0.05249,-0.448047 0.11664,-0.289062 0.06415,0.158984 0.06415,0.41914 0,0.578125 -0.06415,0.158984 -0.11664,0.02891 -0.11664,-0.289063 z M 125.94162,62.797147 c -0.0762,-0.459545 -0.0422,-0.675276 0.086,-0.546983 0.11652,0.116513 0.17313,0.457986 0.1258,0.758826 -0.0728,0.462891 -0.10538,0.430319 -0.21184,-0.211843 z M 11.074363,57.42785 c 0,-0.317969 0.05249,-0.448047 0.11664,-0.289062 0.06415,0.158984 0.06415,0.41914 0,0.578125 -0.06415,0.158984 -0.11664,0.02891 -0.11664,-0.289063 z M 104.89585,24.879412 c -0.28764,-0.366775 -0.27946,-0.374954 0.0873,-0.08731 0.38521,0.302098 0.50771,0.491997 0.31738,0.491997 -0.048,0 -0.23013,-0.182109 -0.40469,-0.404688 z M 32.0816,24.27179 c 0,-0.04802 0.18211,-0.230129 0.404688,-0.404687 0.366776,-0.287645 0.374955,-0.279466 0.08731,0.08731 C 32.2715,24.339617 32.0816,24.462117 32.0816,24.27179 Z m 5.025833,-3.641385 c 0.156866,-0.158041 0.343462,-0.229093 0.414661,-0.157894 0.0712,0.0712 -0.05714,0.200505 -0.285207,0.287346 -0.329578,0.125496 -0.356139,0.09893 -0.129454,-0.129452 z M 38.5566,19.87804 c 0,-0.04802 0.18211,-0.230129 0.404688,-0.404687 0.366776,-0.287645 0.374955,-0.279466 0.08731,0.08731 C 38.7465,19.945867 38.5566,20.068367 38.5566,19.87804 Z m 54.923512,-1.991291 c -0.08102,-0.131087 0.01182,-0.169855 0.217602,-0.09088 0.400622,0.153733 0.473922,0.319485 0.141285,0.319485 -0.119682,0 -0.281182,-0.102871 -0.358887,-0.228601 z M 92.6691,17.4216 c -0.208423,-0.134694 -0.236945,-0.225581 -0.07146,-0.227709 0.151478,-0.0019 0.33973,0.100521 0.418336,0.227709 0.177438,0.287103 0.09738,0.287103 -0.346876,0 z M 45.894933,16.236655 c 0.156866,-0.158041 0.343462,-0.229093 0.414661,-0.157894 0.0712,0.0712 -0.05714,0.200505 -0.285207,0.287346 -0.329578,0.125496 -0.356139,0.09893 -0.129454,-0.129452 z m 17.92573,-4.303783 c 0.60414,-0.04764 1.592734,-0.04764 2.196875,0 0.60414,0.04764 0.109843,0.08661 -1.098438,0.08661 -1.208281,0 -1.702578,-0.03898 -1.098437,-0.08661 z m 4.220312,-0.06127 -0.925,-0.165619 0.853539,-0.03281 c 0.469447,-0.01805 0.917855,0.07125 0.996461,0.198434 0.07861,0.127188 0.110764,0.216483 0.07146,0.198434 -0.0393,-0.01805 -0.487711,-0.107344 -0.996461,-0.198434 z m 2.261665,0.06099 c 0.607979,-0.04779 1.544541,-0.04722 2.08125,0.0013 0.53671,0.0485 0.03927,0.0876 -1.105415,0.0869 -1.144687,-7.05e-4 -1.583813,-0.04039 -0.975835,-0.08818 z"
         id="path1093" />
      <path
         style="fill:#5f3321;stroke-width:0.23125"
         d="m 24.473566,107.30952 c -0.292513,-0.48708 -0.287585,-0.49201 0.110614,-0.11061 0.229221,0.21955 0.366989,0.44895 0.306151,0.50979 -0.06084,0.0608 -0.248382,-0.11879 -0.416765,-0.39918 z M 69.375063,96.811346 c 0.225,-0.05863 0.537187,-0.05478 0.69375,0.0086 0.156564,0.06335 -0.02753,0.111317 -0.409088,0.106604 -0.381562,-0.0047 -0.509661,-0.05654 -0.284662,-0.115171 z M 54.165975,96.511362 c -1.52625,-0.07438 1.023281,-0.09087 5.665625,-0.03663 4.642344,0.05424 8.483985,0.13619 8.53698,0.182116 0.143754,0.124581 -11.004276,0.01038 -14.202605,-0.145486 z M 73.66205,96.5675 c 1.56534,-0.04007 4.06284,-0.03994 5.55,2.31e-4 1.487159,0.04022 0.206425,0.073 -2.846075,0.07285 -3.0525,-1.52e-4 -4.269266,-0.03306 -2.703925,-0.07312 z m 45.50004,-0.126186 c 0.0868,-0.228064 0.21615,-0.356407 0.28735,-0.285208 0.0712,0.0712 1.5e-4,0.257795 -0.15789,0.414661 -0.22839,0.226686 -0.25495,0.200124 -0.12946,-0.129453 z m -36.64872,-0.01769 c 0.053,-0.04701 2.229636,-0.138068 4.83698,-0.202355 3.077161,-0.07587 3.929181,-0.05541 2.428125,0.05831 -2.475027,0.187507 -7.424734,0.285647 -7.265105,0.144048 z M 48.44865,96.108221 c 0.543909,-0.04885 1.376409,-0.04816 1.85,0.0016 0.47359,0.04969 0.02857,0.08966 -0.988925,0.08882 -1.0175,-9.25e-4 -1.404985,-0.04149 -0.861075,-0.09035 z m -4.457675,-0.216942 c -1.830952,-0.227039 -3.83511,-0.596029 -3.742161,-0.688975 0.05702,-0.05702 0.766233,0.0086 1.576038,0.145933 0.809805,0.137279 2.408936,0.336508 3.553623,0.442728 1.688472,0.156681 1.819399,0.192488 0.69375,0.189733 -0.763125,-0.0019 -1.699687,-0.04211 -2.08125,-0.08942 z m 48.855704,-0.01228 c 0.415638,-0.05147 1.040013,-0.0504 1.3875,0.0024 0.347488,0.05277 0.0074,0.09487 -0.755704,0.09358 -0.763125,-0.0014 -1.047433,-0.04447 -0.631796,-0.09594 z m 4.080726,-0.428911 c 2.557838,-0.397627 4.441265,-1.257845 6.263575,-2.860754 l 1.3875,-1.220454 -1.34417,1.301673 c -0.7393,0.71592 -1.87034,1.568306 -2.51344,1.89419 -1.279773,0.648508 -3.771686,1.253118 -5.04552,1.224187 -0.445156,-0.01011 0.118268,-0.16259 1.252055,-0.338842 z m 7.906825,-4.757409 c 0.2409,-0.337308 0.48425,-0.568558 0.54077,-0.513888 0.0565,0.05467 -0.14057,0.33065 -0.43799,0.613289 l -0.54078,0.513888 z M 32.85515,88.752244 c -0.07532,-0.196266 -0.08527,-0.408519 -0.02211,-0.471671 0.06315,-0.06316 0.17033,0.09743 0.238169,0.356849 0.144104,0.551052 -0.016,0.636143 -0.216056,0.114822 z m 73.31544,-0.741582 c 0.16485,-0.476953 0.4287,-1.699687 0.58635,-2.717187 0.38877,-2.509326 0.42318,-2.649503 0.45405,-1.85 0.0313,0.811253 -0.53258,3.894749 -0.87878,4.805338 -0.36376,0.956755 -0.50346,0.750899 -0.16162,-0.238151 z m 17.96677,-3.661457 c 0.0111,-0.269395 0.0659,-0.324189 0.13971,-0.139714 0.0668,0.166932 0.0586,0.366388 -0.0182,0.44323 -0.0768,0.07684 -0.13149,-0.05974 -0.12145,-0.303516 z m 0.23125,-0.925 c 0.0111,-0.269395 0.0659,-0.324189 0.13971,-0.139714 0.0668,0.166932 0.0586,0.366388 -0.0182,0.44323 -0.0768,0.07684 -0.13149,-0.05974 -0.12145,-0.303516 z M 107.29366,70.12271 c -0.0307,-6.944859 -0.10388,-13.292671 -0.16262,-14.10625 l -0.10681,-1.479235 0.22287,1.3875 c 0.12915,0.804059 0.19753,6.735714 0.16262,14.10625 l -0.0602,12.71875 z M 10.893154,80.676104 c -0.0716,-0.186586 -0.08555,-0.472758 -0.03101,-0.635938 0.05454,-0.163179 0.153993,-0.01052 0.220996,0.339246 0.130826,0.682933 0.0229,0.851472 -0.189987,0.296692 z M 10.397751,77.31535 c 0,-0.445156 0.04759,-0.627266 0.105756,-0.404688 0.05816,0.222579 0.05816,0.586797 0,0.809376 -0.05817,0.222578 -0.105756,0.04047 -0.105756,-0.404688 z m 0,-15.725 c 0,-0.445156 0.04759,-0.627266 0.105756,-0.404687 0.05816,0.222578 0.05816,0.586796 0,0.809375 -0.05817,0.222578 -0.105756,0.04047 -0.105756,-0.404688 z m 0.427106,-2.909895 c 0.0111,-0.269395 0.06589,-0.324189 0.139713,-0.139714 0.0668,0.166932 0.05859,0.366385 -0.01826,0.44323 -0.07684,0.07684 -0.131498,-0.05974 -0.121457,-0.303516 z m 21.155986,-4.326641 c 0.08684,-0.228064 0.216146,-0.356407 0.287346,-0.285208 0.0712,0.0712 1.48e-4,0.257795 -0.157893,0.414661 -0.228387,0.226686 -0.254949,0.200124 -0.129453,-0.129453 z m 74.839587,-0.510339 c 0.005,-0.381562 0.0565,-0.509661 0.11517,-0.284662 0.0586,0.225 0.0548,0.537187 -0.009,0.69375 -0.0633,0.156563 -0.11131,-0.02753 -0.1066,-0.409088 z M 106.58061,52.5716 c 0,-0.317969 0.0525,-0.448047 0.11664,-0.289062 0.0641,0.158984 0.0641,0.41914 0,0.578125 -0.0641,0.158984 -0.11664,0.02891 -0.11664,-0.289063 z m -0.56117,-1.831463 c -0.10058,-0.38465 -0.0705,-0.474937 0.10111,-0.303333 0.13438,0.134379 0.19883,0.380827 0.14322,0.54766 -0.0577,0.173195 -0.16256,0.06837 -0.24433,-0.244327 z M 13.288193,49.546813 c 0.08177,-0.312696 0.186596,-0.417522 0.244327,-0.244327 0.05561,0.166833 -0.0088,0.413281 -0.143216,0.54766 -0.171603,0.171604 -0.201699,0.08132 -0.101111,-0.303333 z m 21.308501,-1.797236 c 0.516677,-0.617113 1.122732,-1.267504 1.346793,-1.445312 0.224058,-0.177811 -0.15256,0.327101 -0.836933,1.122022 -0.684373,0.794922 -1.290428,1.445313 -1.346793,1.445313 -0.05636,0 0.320258,-0.504911 0.836933,-1.122023 z m 68.703226,-0.901415 -1.49644,-1.560937 1.56093,1.496444 c 1.44987,1.389963 1.66665,1.625431 1.49645,1.625431 -0.0355,0 -0.7379,-0.702422 -1.56094,-1.560938 z M 36.822225,45.6341 c 0.230207,-0.254375 0.470589,-0.4625 0.534183,-0.4625 0.06359,0 -0.07273,0.208125 -0.302933,0.4625 -0.230207,0.254375 -0.470589,0.4625 -0.534183,0.4625 -0.06359,0 0.07273,-0.208125 0.302933,-0.4625 z m 2.890625,-1.608184 c 0.190781,-0.129105 0.546328,-0.236328 0.790105,-0.238276 0.591639,-0.0047 0.40706,0.127632 -0.44323,0.317828 -0.50665,0.113329 -0.6002,0.09188 -0.346875,-0.07955 z m 58.462891,-0.168535 c 0.166932,-0.0668 0.366388,-0.05859 0.44323,0.01825 0.07684,0.07684 -0.05974,0.131498 -0.303516,0.121458 -0.269395,-0.0111 -0.324189,-0.06589 -0.139714,-0.139712 z m -1.920629,-0.301883 c -0.08102,-0.131087 0.01182,-0.169853 0.217602,-0.09088 0.400622,0.153733 0.473922,0.319486 0.141285,0.319486 -0.119682,0 -0.281182,-0.102872 -0.358887,-0.228602 z m -4.973512,-0.370881 -3.121875,-0.293278 3.00625,0.117373 c 1.653438,0.06456 3.10511,0.213397 3.225938,0.330757 0.120828,0.117359 0.172859,0.196516 0.115625,0.175905 -0.05723,-0.02061 -1.508907,-0.169453 -3.225938,-0.330757 z m -45.440625,-0.0899 c 1.747554,-0.192347 4.878515,-0.290704 4.721355,-0.148321 -0.053,0.04801 -1.501199,0.141113 -3.21823,0.206892 -2.089748,0.08006 -2.586698,0.06069 -1.503125,-0.05857 z m 6.532813,-0.406103 c 0.667734,-0.04671 1.76039,-0.04671 2.428125,0 0.667734,0.04671 0.121406,0.08493 -1.214063,0.08493 -1.335469,0 -1.881797,-0.03822 -1.214062,-0.08493 z m 17.054687,-0.06076 -12.95,-0.121457 12.834375,-0.05136 c 7.985042,-0.03195 12.965438,0.03334 13.18125,0.172813 0.190781,0.123293 0.242813,0.201058 0.115625,0.172813 -0.127187,-0.02824 -6.05875,-0.106012 -13.18125,-0.172813 z m 14.626563,0.06076 c 0.667734,-0.04671 1.76039,-0.04671 2.428125,0 0.667734,0.04671 0.121406,0.08493 -1.214063,0.08493 -1.335469,0 -1.881797,-0.03822 -1.214062,-0.08493 z M 118.33785,40.77785 c -0.13614,-0.254375 -0.19549,-0.4625 -0.1319,-0.4625 0.0636,0 0.22701,0.208125 0.36315,0.4625 0.13614,0.254375 0.19549,0.4625 0.1319,0.4625 -0.0636,0 -0.22701,-0.208125 -0.36315,-0.4625 z m -95.621875,-7.4 c 0.230206,-0.254375 0.470588,-0.4625 0.534182,-0.4625 0.06359,0 -0.07273,0.208125 -0.302932,0.4625 -0.230206,0.254375 -0.470588,0.4625 -0.534182,0.4625 -0.06359,0 0.07273,-0.208125 0.302932,-0.4625 z m 4.046875,-4.509375 c 0.819371,-0.826719 1.541796,-1.503125 1.605389,-1.503125 0.06359,0 -0.554768,0.676406 -1.374139,1.503125 -0.81937,0.826719 -1.541795,1.503125 -1.605389,1.503125 -0.06359,0 0.554769,-0.676406 1.374139,-1.503125 z m 3.353125,-3.03922 c 0.127188,-0.112865 0.542693,-0.463806 0.923346,-0.779869 0.667715,-0.554418 0.675953,-0.555578 0.233837,-0.03293 -0.252042,0.297952 -0.667547,0.648894 -0.923345,0.779869 -0.255798,0.130975 -0.361025,0.145794 -0.233838,0.03293 z m 71.542375,-3.262343 c -0.28764,-0.366775 -0.27946,-0.374954 0.0873,-0.08731 0.38521,0.302098 0.50771,0.491997 0.31738,0.491997 -0.048,0 -0.23013,-0.182109 -0.40469,-0.404688 z M 97.06285,19.7341 c -0.208423,-0.134694 -0.236945,-0.225581 -0.07146,-0.227709 0.151478,-0.0019 0.33973,0.100521 0.418336,0.227709 0.177438,0.287103 0.09738,0.287103 -0.346876,0 z M 48.438683,15.311655 c 0.156866,-0.158041 0.343462,-0.229093 0.414661,-0.157894 0.0712,0.0712 -0.05714,0.200505 -0.285207,0.287346 -0.329578,0.125496 -0.356139,0.09893 -0.129454,-0.129452 z m 5.105808,-1.516775 c 0.166932,-0.0668 0.366385,-0.05859 0.44323,0.01826 0.07684,0.07684 -0.05974,0.131498 -0.303516,0.121457 -0.269395,-0.0111 -0.324189,-0.06589 -0.139714,-0.139713 z m 28.675,0 c 0.166932,-0.0668 0.366388,-0.05859 0.44323,0.01826 0.07684,0.07684 -0.05974,0.131498 -0.303516,0.121457 -0.269395,-0.0111 -0.324189,-0.06589 -0.139714,-0.139713 z M 54.455038,13.568448 c 0.158984,-0.06415 0.41914,-0.06415 0.578125,0 0.158984,0.06415 0.02891,0.116639 -0.289063,0.116639 -0.317969,0 -0.448047,-0.05249 -0.289062,-0.116639 z m 3.588775,-0.700852 c 0.225,-0.05863 0.537187,-0.05478 0.69375,0.0086 0.156564,0.06334 -0.02753,0.111316 -0.409088,0.106603 -0.381562,-0.0047 -0.509661,-0.05654 -0.284662,-0.115172 z m 19.304975,0.0071 c 0.158984,-0.06415 0.41914,-0.06415 0.578125,0 0.158984,0.06415 0.02891,0.116639 -0.289063,0.116639 -0.317969,0 -0.448047,-0.05249 -0.289062,-0.116639 z m -9.592475,-0.932102 c 0.225,-0.05863 0.537187,-0.05478 0.69375,0.0086 0.156564,0.06334 -0.02752,0.111316 -0.409088,0.106603 -0.381562,-0.0047 -0.509661,-0.05654 -0.284662,-0.115172 z"
         id="path1091" />
      <path
         style="fill:#000000;stroke-width:0.23125"
         d="m 64.4566,126.56358 c -2.840483,-0.18687 -7.118594,-0.76111 -8.558171,-1.14875 -0.481962,-0.12978 -1.329087,-0.32923 -1.882498,-0.44323 -1.087381,-0.224 -4.257215,-1.10017 -4.821831,-1.33281 -0.190781,-0.0786 -0.527807,-0.17849 -0.748949,-0.22196 -0.22114,-0.0435 -0.791944,-0.28799 -1.26845,-0.54338 -0.476507,-0.25539 -0.951673,-0.46435 -1.055925,-0.46435 -0.213074,0 -2.174314,-0.83017 -2.707926,-1.14623 -0.190781,-0.113 -1.439531,-0.7545 -2.775,-1.42555 -1.335469,-0.67105 -2.462812,-1.30349 -2.505207,-1.40541 -0.0424,-0.10192 -0.166466,-0.18531 -0.275708,-0.18531 -0.415052,0 -3.703992,-2.16542 -4.653837,-3.06406 -0.235262,-0.22258 -0.494574,-0.40469 -0.576254,-0.40469 -0.08168,0 -0.680037,-0.45447 -1.329687,-1.00993 -0.64965,-0.55546 -1.541334,-1.30991 -1.981521,-1.67656 -1.560522,-1.29982 -4.402786,-4.10352 -4.402786,-4.34305 0,-0.1337 -0.338203,-0.55792 -0.751562,-0.94271 -1.051303,-0.97865 -3.179688,-3.50786 -3.179688,-3.7785 0,-0.12362 -0.147217,-0.28126 -0.32715,-0.35031 -0.179933,-0.069 -0.466105,-0.38981 -0.635938,-0.71282 -0.169833,-0.32301 -0.953179,-1.70851 -1.740769,-3.07889 -0.78759,-1.370382 -1.962813,-3.584261 -2.611608,-4.91973 -0.648795,-1.335469 -1.26393,-2.584219 -1.366967,-2.775 -0.429591,-0.795421 -0.930683,-2.024272 -1.178717,-2.890625 -0.145653,-0.50875 -0.351987,-1.133125 -0.458519,-1.3875 -0.106532,-0.254375 -0.322748,-0.982813 -0.48048,-1.61875 -0.157732,-0.635937 -0.375507,-1.255109 -0.483944,-1.375938 -0.108437,-0.120828 -0.198393,-0.589109 -0.199903,-1.040624 -0.0015,-0.451516 -0.168883,-1.393282 -0.371941,-2.092813 -0.203058,-0.699531 -0.461705,-2.260469 -0.574771,-3.46875 -0.113065,-1.208281 -0.320757,-2.394941 -0.461535,-2.637018 -0.3436687,-0.590961 -0.3489628,-10.314041 -0.0057,-10.526171 0.134323,-0.08302 0.313989,-1.187682 0.399257,-2.454812 0.08527,-1.267132 0.230669,-2.407936 0.323113,-2.535124 0.238605,-0.328278 0.467029,-1.367525 0.600953,-2.734117 0.06339,-0.646841 0.200771,-1.284874 0.305293,-1.417854 0.212454,-0.270294 0.833721,-2.688413 0.760224,-2.958967 -0.02591,-0.09539 0.05572,-0.173437 0.181401,-0.173437 0.125685,0 0.295447,-0.418556 0.377251,-0.930124 0.0818,-0.511569 0.239126,-0.985993 0.349607,-1.054274 0.110482,-0.06828 0.200875,-0.279126 0.200875,-0.468545 0,-0.510112 4.022992,-8.541743 5.084159,-10.150182 0.503472,-0.763125 1.06203,-1.699688 1.241241,-2.08125 0.179212,-0.381563 0.92164,-1.370156 1.649842,-2.196875 0.728201,-0.826719 1.490814,-1.763281 1.694695,-2.08125 0.922281,-1.438369 5.495002,-5.877077 8.483188,-8.23457 0.890313,-0.702401 1.784721,-1.411506 1.987571,-1.575789 0.7494,-0.606912 3.219409,-2.23044 3.61564,-2.376547 0.22511,-0.08301 0.730077,-0.391791 1.122152,-0.686186 0.72356,-0.543299 4.68734,-2.611061 5.017154,-2.617269 0.09901,-0.0019 0.931509,-0.353023 1.85,-0.780352 1.780923,-0.828579 3.406944,-1.421017 4.907483,-1.788034 0.50875,-0.124435 1.237188,-0.36609 1.61875,-0.537011 0.381563,-0.17092 1.263492,-0.382081 1.959844,-0.469245 0.696352,-0.08716 1.380153,-0.253142 1.51956,-0.368838 0.210236,-0.174482 1.748921,-0.432363 4.626024,-0.775315 0.260797,-0.03109 0.572985,-0.114081 0.69375,-0.184429 1.022898,-0.595861 13.553422,-0.586676 14.557072,0.01067 0.127188,0.0757 0.543438,0.164155 0.925,0.19657 2.203792,0.187221 4.611074,0.570685 4.86519,0.774992 0.132104,0.106212 0.926964,0.302824 1.766353,0.436917 0.839389,0.134094 1.823961,0.399119 2.187934,0.588946 0.363976,0.189827 0.884018,0.345781 1.155652,0.346564 0.271633,7.87e-4 0.791945,0.156878 1.15625,0.346875 0.364304,0.189998 0.821326,0.346092 1.015603,0.346875 0.19428,7.87e-4 0.558499,0.142712 0.809375,0.315396 0.250879,0.172684 0.825498,0.434019 1.276933,0.580746 1.035329,0.336506 7.407742,3.547766 8.297705,4.181475 0.36597,0.260594 0.779415,0.473808 0.918766,0.473808 0.139351,0 0.253364,0.104063 0.253364,0.23125 0,0.127188 0.148662,0.23125 0.330358,0.23125 0.18169,0 0.46787,0.131438 0.63593,0.292084 0.16807,0.160647 1.38615,1.107303 2.70683,2.103681 2.82565,2.131786 2.98432,2.269307 5.69251,4.933913 2.00441,1.972159 4.54146,4.772879 4.70282,5.19158 0.0428,0.111067 0.37,0.524133 0.7271,0.917924 1.14201,1.259334 1.3238,1.511429 2.23346,3.097216 0.49108,0.856076 1.22954,2.142395 1.64104,2.858489 0.87433,1.521514 2.762,5.374393 3.527,7.198863 0.29331,0.699531 0.67413,1.59979 0.84625,2.000574 0.17212,0.400784 0.31295,0.845649 0.31295,0.988589 0,0.14294 0.21445,0.85565 0.47655,1.583801 0.2621,0.728151 0.52225,1.50602 0.57812,1.728599 0.0559,0.222578 0.15067,0.586796 0.21068,0.809375 0.54222,2.011266 0.69245,2.763754 1.28116,6.417187 0.47375,2.939995 0.56527,4.939449 0.4816,10.521875 -0.0219,1.458764 -0.63167,6.135766 -1.01007,7.746875 -0.0598,0.254375 -0.18376,0.982812 -0.2756,1.61875 -0.0918,0.635937 -0.24914,1.260312 -0.34957,1.3875 -0.10043,0.127188 -0.30177,0.796497 -0.44743,1.487354 -0.14566,0.690854 -0.35232,1.367261 -0.45923,1.503125 -0.10692,0.135861 -0.32816,0.819365 -0.49166,1.518896 -0.16349,0.699531 -0.38119,1.427969 -0.48377,1.61875 -0.10259,0.190781 -0.43649,0.919219 -0.74202,1.61875 -0.30553,0.699531 -0.77787,1.765039 -1.04964,2.367792 -0.27176,0.602755 -0.49412,1.192443 -0.49412,1.310417 0,0.117975 -0.0781,0.249186 -0.17344,0.291583 -0.0954,0.04239 -0.43198,0.597395 -0.74797,1.233333 -2.38384,4.797446 -5.70104,9.303346 -10.05224,13.654376 -5.26401,5.2638 -11.016081,9.2134 -17.816973,12.23384 -7.996516,3.55144 -18.206576,5.33418 -27.171875,4.74439 z m 20.35,-30.067097 c 10.332183,-0.393076 13.689445,-0.80595 15.98541,-1.965872 1.74216,-0.880143 4.09321,-3.340289 5.01126,-5.243805 1.45195,-3.010521 1.51341,-3.715449 1.60821,-18.446456 0.057,-8.852338 2.1e-4,-13.953893 -0.1698,-15.2625 -0.59906,-4.611155 -1.49722,-6.584372 -4.12565,-9.063902 -2.1329,-2.012069 -4.691971,-3.018966 -7.519807,-2.958762 -0.488677,0.01041 -1.018684,-0.08912 -1.177793,-0.221175 -0.269068,-0.223306 -2.85625,-0.413859 -9.38058,-0.690901 -3.446531,-0.146349 -27.757629,-0.146797 -31.21875,-4.62e-4 -6.81287,0.287823 -9.308649,0.46293 -9.717599,0.681792 -0.243541,0.130339 -0.732258,0.233775 -1.086038,0.22986 -2.732686,-0.03025 -5.371713,1.134196 -7.583811,3.346294 -3.487876,3.487876 -4.161222,7.206083 -4.146923,22.899242 0.01094,12.003947 0.504306,16.855863 1.998754,19.65625 1.333413,2.498635 4.104481,4.895012 6.524839,5.642586 4.788285,1.47895 25.7508,2.130175 44.998278,1.397922 z"
         id="path1089" />
  </g>
</svg>
